<svg width="21" height="7" viewBox="0 0 21 7" fill="none" xmlns="http://www.w3.org/2000/svg">
<path fill-rule="evenodd" clip-rule="evenodd" d="M8.2917 0.114868L7.24739 6.53286H8.9182L9.96264 0.114868H8.2917ZM5.84161 0.114868L4.24859 4.5291L4.06016 3.57856L4.06029 3.57888L4.01877 3.36583C3.82597 2.95033 3.37945 2.16063 2.5363 1.48669C2.30038 1.29863 2.05199 1.12676 1.79285 0.972258L3.24064 6.53286H4.9815L7.63992 0.114868H5.84161ZM12.3625 1.89663C12.3625 1.17102 13.9898 1.26426 14.7048 1.65826L14.9432 0.279848C14.9432 0.279848 14.2074 0 13.4404 0C12.6111 0 10.6421 0.362627 10.6421 2.12463C10.6421 3.78289 12.9532 3.80349 12.9532 4.6741C12.9532 5.54471 10.8804 5.38912 10.1963 4.83993L9.94773 6.28069C9.94773 6.28069 10.6938 6.64332 11.834 6.64332C12.974 6.64332 14.6944 6.05269 14.6944 4.4461C14.6944 2.77747 12.3625 2.62206 12.3625 1.89663ZM19.1807 0.114868H17.8373C17.217 0.114868 17.066 0.593164 17.066 0.593164L14.5742 6.53286H16.3157L16.6641 5.5796H18.7883L18.9842 6.53286H20.5184L19.1807 0.114868ZM17.1456 4.26256L18.0236 1.8608L18.5175 4.26256H17.1456Z" fill="#005BAC"/>
<path fill-rule="evenodd" clip-rule="evenodd" d="M3.52138 0.718882C3.52138 0.718882 3.45221 0.139648 2.71388 0.139648H0.0314206L0 0.248508C0 0.248508 1.2894 0.511354 2.52642 1.49612C3.70856 2.43731 4.0942 3.61055 4.0942 3.61055L3.52138 0.718882Z" fill="#F6AC1D"/>
</svg>
