<svg width="24" height="18" viewBox="0 0 24 18" fill="none" xmlns="http://www.w3.org/2000/svg">
<path d="M20.7812 9.58683V3.99554C20.7812 2.22033 19.2889 0.78125 17.4479 0.78125H4.11458C2.27363 0.78125 0.78125 2.22034 0.78125 3.99554V12.567C0.78125 14.3422 2.27363 15.7812 4.11458 15.7812H5.15625M0.78125 5.78125H20.7812M4.53125 12.0312H7.03125" stroke="#475569" stroke-width="1.5625" stroke-linecap="round" stroke-linejoin="round"/>
<path d="M10.0569 11.9375C11.1012 11.9376 11.9667 12.4503 12.2961 13.4688C12.4023 13.7969 12.1286 14.0848 11.8108 14.085C11.5455 14.085 11.3395 13.8912 11.2512 13.665C11.0466 13.1402 10.6101 12.8849 10.0569 12.8848C9.59289 12.8848 9.24747 13.0538 9.01489 13.3701C8.77893 13.6914 8.65063 14.1765 8.65063 14.8213C8.65064 15.4548 8.78537 15.9373 9.02856 16.2588C9.26881 16.5763 9.62233 16.747 10.0862 16.7471C10.6495 16.7471 11.0687 16.4979 11.2834 16C11.3755 15.7864 11.576 15.6074 11.8293 15.6074C12.1554 15.6076 12.4298 15.9122 12.3069 16.2432C12.122 16.7406 11.8206 17.1028 11.4329 17.3398C11.046 17.5763 10.5786 17.6845 10.0667 17.6846C9.28879 17.6846 8.65891 17.4137 8.22485 16.9131C7.79228 16.4139 7.56275 15.6967 7.56274 14.8213C7.56274 13.9064 7.79638 13.1841 8.23071 12.6895C8.66658 12.1932 9.29493 11.9375 10.0569 11.9375ZM20.7112 11.9375C21.7555 11.9376 22.6209 12.4503 22.9504 13.4688C23.0566 13.7969 22.7829 14.0848 22.4651 14.085C22.1997 14.085 21.9938 13.8912 21.9055 13.665C21.7009 13.1402 21.2644 12.8849 20.7112 12.8848C20.2472 12.8848 19.9018 13.0538 19.6692 13.3701C19.4332 13.6914 19.3049 14.1765 19.3049 14.8213C19.3049 15.4548 19.4397 15.9373 19.6829 16.2588C19.9231 16.5763 20.2766 16.747 20.7405 16.7471C21.3038 16.7471 21.723 16.4979 21.9377 16C22.0298 15.7864 22.2303 15.6074 22.4836 15.6074C22.8097 15.6076 23.0841 15.9122 22.9612 16.2432C22.7763 16.7406 22.4749 17.1028 22.0872 17.3398C21.7003 17.5763 21.2329 17.6845 20.7209 17.6846C19.9431 17.6846 19.3132 17.4137 18.8792 16.9131C18.4466 16.4139 18.217 15.6967 18.217 14.8213C18.217 13.9064 18.4507 13.1841 18.885 12.6895C19.3209 12.1932 19.9492 11.9375 20.7112 11.9375ZM17.2366 12.0674C17.5913 12.0674 17.8371 12.4215 17.7131 12.7539L16.1301 16.998C16.003 17.3389 15.6775 17.5654 15.3137 17.5654C14.95 17.5653 14.6244 17.3388 14.4973 16.998L12.929 12.792C12.7982 12.4413 13.0576 12.0674 13.4319 12.0674C13.6587 12.0674 13.8615 12.2102 13.9377 12.4238L15.302 16.25L15.3049 16.2559H15.304C15.3153 16.296 15.3727 16.2959 15.384 16.2559L15.386 16.25L16.7571 12.4053C16.8293 12.2028 17.0216 12.0674 17.2366 12.0674Z" fill="#475569" stroke="#475569" stroke-width="0.1875"/>
</svg>
