<svg width="26" height="16" viewBox="0 0 26 16" fill="none" xmlns="http://www.w3.org/2000/svg">
<path fill-rule="evenodd" clip-rule="evenodd" d="M12.8005 13.4091C14.1494 14.652 15.9609 15.4059 17.9312 15.4059C22.1628 15.4059 25.5878 11.9545 25.5878 7.70949C25.5878 3.45157 22.1628 0 17.9312 0C15.9609 0 14.1494 0.753751 12.8005 1.99683C11.2533 3.41172 10.2747 5.44824 10.2747 7.70949C10.2748 9.97074 11.2533 12.0074 12.8005 13.4091Z" fill="#E9B040"/>
<path fill-rule="evenodd" clip-rule="evenodd" d="M24.5699 11.9938C24.5699 11.8615 24.6758 11.7559 24.8079 11.7559C24.9533 11.7559 25.059 11.8617 25.059 11.9938C25.059 12.1395 24.9531 12.2452 24.8079 12.2452C24.6758 12.2452 24.5699 12.1395 24.5699 11.9938ZM24.8079 12.1924C24.9137 12.1924 25.006 12.0997 25.006 11.994C25.006 11.8883 24.9136 11.8089 24.8079 11.8089C24.7152 11.8089 24.6229 11.8883 24.6229 11.994C24.6229 12.0997 24.7153 12.1924 24.8079 12.1924ZM24.7815 12.113H24.7285V11.8882H24.821C24.8344 11.8882 24.8608 11.8882 24.8739 11.9015C24.9004 11.9146 24.9004 11.928 24.9004 11.9545C24.9004 11.9809 24.8873 12.0074 24.8608 12.0074L24.9137 12.1132H24.8474L24.821 12.0204H24.7815V12.113V11.9808H24.8344C24.8474 11.9808 24.8474 11.9674 24.8474 11.9543C24.8474 11.9409 24.8474 11.9409 24.8344 11.9278H24.7815V12.113Z" fill="#E9B040"/>
<path fill-rule="evenodd" clip-rule="evenodd" d="M15.2735 6.88975C15.247 6.61209 15.1941 6.34766 15.1412 6.06985H10.4599C10.5128 5.79219 10.5922 5.52777 10.6714 5.26318H14.9164C14.8243 4.9848 14.7184 4.71116 14.5991 4.44329H11.0021C11.1345 4.16318 11.2801 3.88957 11.4386 3.62339H14.1496C13.9752 3.34097 13.7807 3.07139 13.5678 2.81672H12.0205C12.2598 2.52443 12.5206 2.25037 12.8007 1.99683C11.4387 0.76698 9.64017 0 7.65657 0C3.43818 0 0 3.45157 0 7.70949C0 11.9545 3.43818 15.4059 7.65657 15.4059C9.64017 15.4059 11.4386 14.652 12.8007 13.4091C13.0765 13.16 13.3329 12.8902 13.5678 12.6023H12.0205C11.8088 12.3378 11.6238 12.0734 11.4386 11.7824H14.1496C14.3201 11.5209 14.4704 11.2468 14.5992 10.9625H11.0021C10.8831 10.698 10.7642 10.4336 10.6714 10.1556H14.9164C15.0089 9.89121 15.0752 9.61371 15.141 9.33574C15.1939 9.07131 15.2468 8.79381 15.2733 8.51584C15.3001 8.24774 15.3134 7.97846 15.3131 7.70902C15.3131 7.43183 15.2999 7.15417 15.2735 6.88975Z" fill="#CC2131"/>
<path fill-rule="evenodd" clip-rule="evenodd" d="M24.5699 9.49518C24.5699 9.34982 24.6758 9.24414 24.8079 9.24414C24.9533 9.24414 25.059 9.34997 25.059 9.49518C25.059 9.62747 24.9531 9.74654 24.8079 9.74654C24.6758 9.74654 24.5699 9.62732 24.5699 9.49518ZM24.8079 9.68024C24.9137 9.68024 25.006 9.60086 25.006 9.49518C25.006 9.38951 24.9136 9.31013 24.8079 9.31013C24.7152 9.31013 24.6229 9.38951 24.6229 9.49518C24.6229 9.60086 24.7153 9.68024 24.8079 9.68024ZM24.7815 9.60086H24.7285V9.38935H24.8739C24.9004 9.40273 24.9004 9.42919 24.9004 9.45565C24.9004 9.46873 24.8873 9.49518 24.8608 9.50857L24.9137 9.60102H24.8474L24.821 9.52164H24.7815V9.60086V9.48195H24.8079C24.821 9.48195 24.8344 9.48195 24.8344 9.46857C24.8474 9.46857 24.8474 9.4555 24.8474 9.44211C24.8474 9.44211 24.8474 9.42904 24.8344 9.42904C24.8344 9.41565 24.821 9.42904 24.8079 9.42904H24.7815V9.60086Z" fill="white"/>
<path fill-rule="evenodd" clip-rule="evenodd" d="M10.1954 9.93166C9.94425 9.99765 9.75904 10.0375 9.57399 10.0375C9.17727 10.0375 8.93915 9.78614 8.93915 9.3365C8.93915 9.24405 8.95237 9.15145 8.9656 9.04561L9.01852 8.74166L9.05821 8.4903L9.41524 6.32165H10.2087L10.1161 6.79775H10.6186L10.4996 7.59118H9.99701L9.7855 8.88702C9.77227 8.95332 9.77227 8.99285 9.77227 9.01931C9.77227 9.19129 9.85165 9.25728 10.0499 9.25728C10.1425 9.25728 10.2218 9.24421 10.3011 9.23082L10.1954 9.93166ZM12.761 9.9052C12.4701 9.98457 12.2057 10.0241 11.9146 10.0241C11.0153 10.0241 10.4996 9.54801 10.4996 8.60936C10.4996 7.51165 11.1079 6.71822 11.9541 6.71822C12.6285 6.71822 13.0649 7.16785 13.0649 7.86853C13.0649 8.10681 13.0385 8.33155 12.9725 8.6489H11.3195C11.3062 8.70181 11.3062 8.72827 11.3062 8.75473C11.3062 9.12499 11.5574 9.31004 12.0335 9.31004C12.3376 9.31004 12.6021 9.24405 12.8931 9.11192L12.761 9.9052ZM12.2716 8.01421V7.85546C12.2716 7.59103 12.1261 7.44551 11.8749 7.44551C11.6103 7.44551 11.4253 7.64379 11.3459 8.01405L12.2716 8.01421ZM3.84794 9.97119H3.02805L3.50414 6.96957L2.43304 9.97119H1.8645L1.79836 6.9828L1.2958 9.97119H0.489136L1.13705 6.0703H2.34044L2.3669 8.47723L3.17357 6.0703H4.49602L3.84794 9.97119ZM5.84492 8.55645C5.76555 8.54306 5.73909 8.54306 5.68617 8.54306C5.21008 8.54306 4.97211 8.72811 4.97211 9.01916C4.97211 9.21759 5.09117 9.34988 5.27622 9.34988C5.67294 9.34988 5.83154 9.01916 5.84492 8.55645ZM6.50607 9.97119H5.79201L5.80523 9.64077C5.62003 9.89181 5.36883 10.0241 4.93242 10.0241C4.5357 10.0241 4.1919 9.66723 4.1919 9.15145C4.1919 9.00608 4.21836 8.87395 4.25805 8.74166C4.39018 8.25218 4.87951 7.94822 5.63326 7.93483C5.72586 7.93483 5.87122 7.93483 6.00352 7.94822C6.02982 7.84238 6.02982 7.80254 6.02982 7.73655C6.02982 7.52488 5.858 7.45874 5.47451 7.45874C5.23654 7.45874 4.97195 7.49843 4.7869 7.56457L4.66784 7.59103L4.61492 7.6041L4.73398 6.89004C5.11747 6.77098 5.39513 6.71822 5.6994 6.71822C6.41346 6.71822 6.79695 7.04879 6.79695 7.65702C6.79695 7.81577 6.81018 7.93483 6.75727 8.27863L6.57221 9.41587L6.54576 9.61431L6.53253 9.77306L6.5193 9.8789L6.50607 9.97119ZM16.7546 6.82405C16.9926 6.82405 17.2043 6.89019 17.4951 7.03556L17.6405 6.18921C17.5611 6.14952 17.5347 6.14952 17.429 6.10983L17.0986 6.01723C16.9927 5.99077 16.8606 5.97754 16.7149 5.97754C16.3048 5.97754 16.0669 5.99077 15.8158 6.13629C15.6835 6.22889 15.5115 6.34796 15.3263 6.55947L15.2205 6.53301L14.3742 7.12801L14.414 6.79744H13.541L13.0256 9.97103H13.8588L14.1628 8.2654C14.1628 8.2654 14.282 8.02712 14.3348 7.94806C14.4935 7.74962 14.6257 7.74962 14.7975 7.74962H14.8638C14.836 7.95116 14.8227 8.15442 14.8239 8.35785C14.8239 9.38926 15.4057 10.0373 16.305 10.0373C16.5299 10.0373 16.7285 10.0109 17.0324 9.9315L17.1781 9.03238C16.9137 9.17775 16.6756 9.2439 16.4771 9.2439C15.988 9.2439 15.6968 8.87363 15.6968 8.29186C15.6964 7.43228 16.133 6.82405 16.7546 6.82405ZM23.7762 6.0703L23.5913 7.18108C23.3929 6.87697 23.1547 6.73145 22.8374 6.73145C22.4008 6.73145 21.991 6.98264 21.7397 7.45874V7.44566L21.2108 7.12816L21.2637 6.79759H20.3777L19.8751 9.97119H20.695L20.9729 8.26556C20.9729 8.26556 21.1844 8.02728 21.2373 7.94822C21.3696 7.78947 21.5017 7.76285 21.6075 7.74978C21.5151 8.01421 21.4622 8.33155 21.4622 8.68874C21.4622 9.48218 21.872 10.011 22.4802 10.011C22.7845 10.011 23.0224 9.9052 23.2472 9.65384L23.2076 9.97119H23.988L24.6227 6.0703H23.7762ZM22.7582 9.21759C22.4804 9.21759 22.335 9.00608 22.335 8.59598C22.335 7.97436 22.5994 7.52488 22.9828 7.52488C23.2736 7.52488 23.4193 7.74978 23.4193 8.1465C23.4193 8.78119 23.1549 9.21759 22.7582 9.21759ZM18.9367 8.55645C18.8573 8.54306 18.8308 8.54306 18.7779 8.54306C18.3015 8.54306 18.0635 8.72811 18.0635 9.01916C18.0635 9.21759 18.1827 9.34988 18.3678 9.34988C18.7645 9.34988 18.9233 9.01916 18.9367 8.55645ZM19.5978 9.97119H18.8704L18.8968 9.64077C18.7118 9.89181 18.4602 10.0241 18.0242 10.0241C17.614 10.0241 17.2572 9.6803 17.2572 9.15145C17.2572 8.39785 17.8256 7.93499 18.7248 7.93499C18.8176 7.93499 18.9628 7.93499 19.082 7.94837C19.1085 7.84254 19.1219 7.8027 19.1219 7.73671C19.1219 7.52504 18.9499 7.45889 18.5532 7.45889C18.3283 7.45889 18.0506 7.49858 17.8656 7.56473L17.7597 7.59118L17.7068 7.60426L17.8257 6.8902C18.2094 6.77113 18.4872 6.71837 18.7911 6.71837C19.5052 6.71837 19.8755 7.04895 19.8755 7.65718C19.8755 7.81593 19.9019 7.93499 19.8359 8.27879L19.6639 9.41603L19.6375 9.61447L19.611 9.77322L19.598 9.87905V9.97119H19.5978ZM8.23831 7.47197C8.39706 7.47197 8.6218 7.4852 8.85993 7.52488L8.97899 6.78436C8.74086 6.7579 8.42352 6.71822 8.23831 6.71822C7.31274 6.71822 7.00862 7.22077 7.00862 7.80254C7.00862 8.18619 7.18045 8.46369 7.63008 8.6752C7.96065 8.83395 8.01357 8.86025 8.01357 9.00593C8.01357 9.20405 7.84175 9.32327 7.52425 9.32327C7.27305 9.32327 7.03492 9.28343 6.7705 9.19098L6.67789 9.91812L6.69097 9.9315L6.84972 9.95796C6.90263 9.97103 6.96878 9.98442 7.06138 9.99749C7.25966 10.0109 7.43164 10.0239 7.53748 10.0239C8.46321 10.0239 8.8467 9.66707 8.8467 8.96608C8.8467 8.52983 8.63503 8.26541 8.22508 8.08035C7.86805 7.92145 7.82836 7.8953 7.82836 7.74962C7.82836 7.60426 7.98711 7.47197 8.23831 7.47197Z" fill="#1B3771"/>
<path fill-rule="evenodd" clip-rule="evenodd" d="M17.8654 5.93754L17.7197 6.78389C17.4288 6.63837 17.2172 6.57238 16.9792 6.57238C16.3576 6.57238 15.9213 7.18061 15.9213 8.0402C15.9213 8.63535 16.2122 8.99223 16.7017 8.99223C16.8998 8.99223 17.1379 8.92624 17.4024 8.7941L17.257 9.67984C16.9527 9.75921 16.7545 9.79905 16.5296 9.79905C15.6304 9.79905 15.075 9.15098 15.075 8.1065C15.075 6.7179 15.842 5.73926 16.9395 5.73926C17.0849 5.73926 17.217 5.75249 17.3228 5.77894L17.6536 5.85832C17.7596 5.89801 17.786 5.91124 17.8654 5.93754ZM15.194 6.51947H15.1147C14.8372 6.51947 14.6784 6.65176 14.4271 7.03509L14.5064 6.54577H13.7525L13.2371 9.71952H14.0703C14.3743 7.77561 14.4537 7.44504 14.8504 7.44504H14.9033C14.9827 7.06155 15.0884 6.78374 15.2207 6.53254L15.194 6.51947ZM10.4071 9.67984C10.1824 9.75921 9.99716 9.78567 9.8121 9.78567C9.38893 9.78567 9.1508 9.5477 9.1508 9.08499C9.1508 9.00562 9.16403 8.89994 9.17726 8.80718L9.23018 8.48983L9.26986 8.23879L9.62689 6.06983H10.4468L10.3542 6.54593H10.7774L10.6715 7.32613H10.2484L10.0236 8.64858C10.0104 8.7015 10.0104 8.74134 10.0104 8.78088C10.0104 8.93963 10.0898 9.00577 10.288 9.00577C10.3806 9.00577 10.4599 9.00577 10.5128 8.97931L10.4071 9.67984ZM7.22012 7.55087C7.22012 7.94775 7.40517 8.22525 7.84158 8.43692C8.18538 8.59567 8.2383 8.64843 8.2383 8.78072C8.2383 8.97916 8.09278 9.0716 7.7622 9.0716C7.51101 9.0716 7.28611 9.03207 7.02168 8.9527L6.90262 9.67984L6.94231 9.69322L7.08783 9.71968C7.14059 9.73275 7.20689 9.74614 7.31257 9.74614C7.49762 9.77259 7.65637 9.7726 7.7622 9.7726C8.63486 9.7726 9.04497 9.44187 9.04497 8.71473C9.04497 8.27817 8.87314 8.02681 8.4632 7.82869C8.10616 7.66994 8.06648 7.6304 8.06648 7.48488C8.06648 7.31306 8.212 7.23369 8.47642 7.23369C8.63517 7.23369 8.85991 7.24691 9.07158 7.27337L9.19049 6.54608C8.97898 6.50639 8.6484 6.47993 8.4632 6.47993C7.53747 6.47978 7.20689 6.9691 7.22012 7.55087ZM24.1997 9.71968H23.4193L23.4592 9.41541C23.2343 9.65338 22.9961 9.75921 22.6919 9.75921C22.0836 9.75921 21.6869 9.24374 21.6869 8.4503C21.6869 7.39228 22.3085 6.49301 23.0357 6.49301C23.3664 6.49301 23.6044 6.63853 23.8294 6.92941L24.0145 5.81863H24.8344L24.1997 9.71968ZM22.9829 8.97916C23.3665 8.97916 23.631 8.52952 23.631 7.90791C23.631 7.49796 23.4853 7.28629 23.1944 7.28629C22.8241 7.28629 22.5466 7.7227 22.5466 8.34431C22.5466 8.76765 22.692 8.97916 22.9829 8.97916ZM12.946 9.65338C12.655 9.74614 12.3905 9.78567 12.0864 9.78567C11.1607 9.78567 10.6846 9.2965 10.6846 8.35754C10.6846 7.27322 11.293 6.46655 12.1261 6.46655C12.8137 6.46655 13.25 6.91619 13.25 7.61702C13.25 7.85514 13.2235 8.08004 13.1441 8.41046H11.5047C11.4914 8.4503 11.4914 8.47676 11.4914 8.50322C11.4914 8.87348 11.7428 9.05853 12.2187 9.05853C12.5228 9.05853 12.7873 9.00562 13.0783 8.8601L12.946 9.65338ZM12.4831 7.76239V7.60379C12.4831 7.33936 12.3376 7.19384 12.0864 7.19384C11.822 7.19384 11.6368 7.39228 11.5574 7.76239H12.4831ZM4.0596 9.71968H3.2397L3.71579 6.71775L2.6447 9.71968H2.076L2.00986 6.74421L1.50746 9.71968H0.740479L1.3884 5.81863H2.57855L2.61824 8.23864L3.41152 5.81863H4.70751L4.0596 9.71968ZM6.10934 8.30463C6.02996 8.30463 5.99028 8.29155 5.92413 8.29155C5.46127 8.29155 5.2233 8.46338 5.2233 8.78072C5.2233 8.97916 5.32913 9.09806 5.51418 9.09806C5.85798 9.09806 6.09611 8.78072 6.10934 8.30463ZM6.71757 9.71968H6.02981L6.04304 9.38895C5.83137 9.65338 5.55371 9.7726 5.17022 9.7726C4.72059 9.7726 4.41647 9.42879 4.41647 8.91301C4.41647 8.13296 4.94533 7.68332 5.87106 7.68332C5.96366 7.68332 6.08272 7.69655 6.21486 7.70962C6.24132 7.60395 6.24132 7.56426 6.24132 7.51134C6.24132 7.29983 6.0958 7.22046 5.71231 7.22046C5.47434 7.22046 5.20976 7.24692 5.0247 7.29983L4.90564 7.33952L4.82627 7.35275L4.94533 6.63869C5.35528 6.51962 5.63293 6.47993 5.9372 6.47993C6.65127 6.47993 7.03476 6.79728 7.03476 7.40551C7.03476 7.56426 7.02153 7.68332 6.96861 8.04035L6.7834 9.16452L6.75695 9.36265L6.74372 9.5214L6.73049 9.64062L6.71757 9.71968ZM19.2011 8.30463C19.1083 8.30463 19.0688 8.29155 19.016 8.29155C18.5399 8.29155 18.3016 8.46338 18.3016 8.78072C18.3016 8.97916 18.4209 9.09806 18.6059 9.09806C18.9366 9.09806 19.1877 8.78072 19.2011 8.30463ZM19.8093 9.71968H19.1217L19.1348 9.38895C18.9233 9.65338 18.6456 9.7726 18.2621 9.7726C17.8125 9.7726 17.5082 9.42879 17.5082 8.91301C17.5082 8.13296 18.0371 7.68332 18.9628 7.68332C19.0556 7.68332 19.1746 7.69655 19.2935 7.70962C19.32 7.60395 19.3334 7.56426 19.3334 7.51134C19.3334 7.29983 19.1877 7.22046 18.8045 7.22046C18.5662 7.22046 18.2887 7.24692 18.1035 7.29983L17.9977 7.33952L17.9183 7.35275L18.0372 6.63869C18.4473 6.51962 18.7248 6.47993 19.0291 6.47993C19.7432 6.47993 20.1134 6.79728 20.1134 7.40551C20.1134 7.56426 20.1134 7.68332 20.0474 8.04035L19.8754 9.16452L19.849 9.36265L19.8225 9.5214L19.8095 9.64062L19.8093 9.71968ZM22.0309 6.51947H21.9515C21.674 6.51947 21.5152 6.65176 21.2639 7.03509L21.3433 6.54577H20.5894L20.0868 9.71952H20.9067C21.211 7.77561 21.2903 7.44504 21.6871 7.44504H21.74C21.8194 7.06155 21.925 6.78374 22.0573 6.53254L22.0309 6.51947Z" fill="white"/>
</svg>
