<svg xmlns="http://www.w3.org/2000/svg" width="38" height="38" viewBox="0 0 38 38" fill="none">
  <path d="M16.072 4.45807C16.1103 4.45806 16.1486 4.45804 16.1869 4.45802C16.2913 4.45798 16.3958 4.45805 16.5002 4.45815C16.6131 4.45823 16.7261 4.4582 16.839 4.45819C17.0344 4.45818 17.2298 4.45823 17.4252 4.45834C17.63 4.45845 17.8348 4.45852 18.0396 4.45854C18.0523 4.45855 18.0651 4.45855 18.0782 4.45855C18.1431 4.45855 18.2079 4.45856 18.2727 4.45857C18.7311 4.4586 19.1895 4.45873 19.6479 4.45891C20.0931 4.45908 20.5382 4.45921 20.9834 4.45929C21.0114 4.4593 21.0394 4.4593 21.0675 4.45931C21.2844 4.45935 21.5014 4.45938 21.7184 4.45942C22.781 4.4596 23.8437 4.45997 24.9063 4.46032C24.9125 6.79184 24.9187 9.12337 24.925 11.5255C25.1113 11.2833 25.1113 11.2833 25.2916 11.0371C25.3678 10.9308 25.4448 10.8253 25.5236 10.7209C25.6389 10.5678 25.7526 10.4135 25.8661 10.2591C25.9318 10.1698 25.9976 10.0805 26.0634 9.99129C26.1186 9.91643 26.1737 9.84155 26.2288 9.76663C26.3399 9.61559 26.4515 9.46495 26.5642 9.31511C26.6698 9.17449 26.774 9.03275 26.8781 8.89104C26.9438 8.80172 27.0096 8.71248 27.0754 8.62322C27.1306 8.54836 27.1857 8.47348 27.2408 8.39856C27.3518 8.24761 27.4633 8.09705 27.576 7.94733C27.6604 7.83502 27.7437 7.72193 27.8269 7.60867C27.9145 7.48938 28.0034 7.37112 28.0922 7.25268C28.0984 6.3312 28.1046 5.40972 28.1109 4.46032C30.8692 4.46032 33.6274 4.46032 36.4693 4.46032C36.4708 6.80536 36.4708 6.80536 36.4711 7.74803C36.4712 7.97132 36.4712 8.1946 36.4713 8.41789C36.4713 8.44642 36.4713 8.47495 36.4713 8.50348C36.4715 8.95709 36.4718 9.41069 36.4721 9.86429C36.4725 10.3311 36.4727 10.7979 36.4728 11.2647C36.4728 11.3309 36.4728 11.397 36.4728 11.4632C36.4728 11.4762 36.4728 11.4893 36.4728 11.5027C36.4729 11.711 36.473 11.9192 36.4733 12.1275C36.4735 12.3377 36.4736 12.5479 36.4735 12.7581C36.4735 12.8717 36.4735 12.9852 36.4737 13.0988C36.4763 14.6068 36.3099 16.0847 35.6634 17.4663C35.6549 17.4848 35.6464 17.5033 35.6377 17.5223C35.2782 18.303 34.8013 18.9924 34.2866 19.6768C34.1697 19.8324 34.0546 19.9894 33.9393 20.1462C33.8059 20.3276 33.6723 20.5088 33.537 20.6887C33.409 20.8591 33.2831 21.031 33.157 21.2027C33.0227 21.3855 32.8876 21.5676 32.7513 21.7489C32.6276 21.9135 32.5057 22.0793 32.3838 22.2452C32.2505 22.4266 32.1169 22.6078 31.9815 22.7877C31.8646 22.9433 31.7495 23.1003 31.6342 23.2572C31.5008 23.4386 31.3672 23.6198 31.2319 23.7997C31.115 23.9553 30.9999 24.1123 30.8846 24.2692C30.7512 24.4506 30.6176 24.6318 30.4823 24.8117C30.3543 24.982 30.2284 25.1539 30.1023 25.3256C29.968 25.5084 29.8328 25.6905 29.6965 25.8718C29.5729 26.0364 29.451 26.2022 29.3291 26.3681C29.1957 26.5495 29.0621 26.7307 28.9268 26.9106C28.8099 27.0663 28.6948 27.2233 28.5795 27.3801C28.4461 27.5615 28.3125 27.7427 28.1772 27.9226C28.0602 28.0783 27.9451 28.2353 27.8298 28.3921C27.6965 28.5735 27.5629 28.7547 27.4275 28.9346C27.2996 29.105 27.1737 29.2769 27.0475 29.4486C26.9132 29.6313 26.7781 29.8134 26.6418 29.9947C26.5621 30.1008 26.483 30.2073 26.4044 30.3142C26.3937 30.3287 26.383 30.3432 26.372 30.3582C26.3164 30.4338 26.2609 30.5095 26.2055 30.5853C26.0888 30.7449 25.9712 30.9023 25.8433 31.0533C25.8282 31.0718 25.8131 31.0904 25.7976 31.1095C25.6766 31.2565 25.5453 31.3928 25.4111 31.5276C25.3855 31.5535 25.3855 31.5535 25.3595 31.5798C25.2454 31.6934 25.1263 31.7969 25 31.8966C24.9886 31.9057 24.9772 31.9149 24.9655 31.9243C24.2785 32.4733 23.4596 32.8234 22.5942 32.9707C22.578 32.9734 22.5618 32.9762 22.5451 32.979C22.2238 33.0295 21.903 33.0453 21.5783 33.0443C21.5391 33.0443 21.5 33.0443 21.4608 33.0444C21.3545 33.0445 21.2481 33.0443 21.1417 33.0441C21.0266 33.044 20.9114 33.044 20.7962 33.0441C20.5971 33.0441 20.398 33.044 20.1989 33.0437C19.9902 33.0435 19.7816 33.0434 19.5729 33.0433C19.5599 33.0433 19.5469 33.0433 19.5335 33.0433C19.4674 33.0433 19.4013 33.0433 19.3352 33.0433C18.868 33.0432 18.4008 33.043 17.9336 33.0426C17.48 33.0423 17.0264 33.042 16.5728 33.0418C16.5442 33.0418 16.5156 33.0418 16.4871 33.0418C16.2659 33.0417 16.0447 33.0417 15.8234 33.0416C14.7406 33.0412 13.6578 33.0405 12.575 33.0398C12.5688 30.7144 12.5626 28.3891 12.5562 25.9933C12.385 26.2216 12.2142 26.45 12.0452 26.68C11.9798 26.769 11.9142 26.8579 11.8487 26.9468C11.7942 27.0207 11.7398 27.0946 11.6854 27.1686C11.5619 27.3367 11.4374 27.5041 11.312 27.6709C11.1993 27.8209 11.0881 27.9719 10.977 28.123C10.9225 28.1971 10.8679 28.2712 10.8133 28.3453C10.7473 28.4349 10.6812 28.5246 10.6152 28.6143C10.5042 28.7653 10.3926 28.916 10.2799 29.0658C10.1742 29.2064 10.0701 29.3482 9.96593 29.4899C9.91112 29.5644 9.85623 29.6389 9.80134 29.7133C9.73641 29.8014 9.73641 29.8014 9.67016 29.8914C9.54029 30.0676 9.54029 30.0676 9.40779 30.2474C9.40161 31.1689 9.39542 32.0904 9.38905 33.0398C6.63081 33.0398 3.87256 33.0398 1.03073 33.0398C1.02846 30.6265 1.02846 30.6265 1.02802 29.6989C1.02791 29.4564 1.02779 29.2138 1.02766 28.9713C1.02765 28.942 1.02763 28.9127 1.02762 28.8833C1.02738 28.417 1.02696 27.9507 1.02644 27.4844C1.02591 27.0045 1.02556 26.5246 1.02545 26.0447C1.02543 25.9767 1.02541 25.9087 1.0254 25.8407C1.02539 25.8273 1.02539 25.8139 1.02538 25.8001C1.02532 25.586 1.02506 25.3718 1.02472 25.1577C1.02439 24.9416 1.02427 24.7256 1.02435 24.5095C1.02438 24.3927 1.02433 24.276 1.02403 24.1592C1.01992 22.5023 1.32592 20.9329 2.95999 18.1606C3.02276 18.0777 3.08446 17.994 3.14608 17.9102C3.15702 17.8954 3.16796 17.8805 3.17923 17.8652C3.2127 17.8197 3.24615 17.7742 3.2796 17.7287C3.41295 17.5473 3.54655 17.3661 3.68189 17.1862C3.79882 17.0305 3.91393 16.8735 4.02923 16.7167C4.16258 16.5353 4.29617 16.3541 4.43151 16.1742C4.54845 16.0185 4.66356 15.8616 4.77886 15.7047C4.9122 15.5233 5.0458 15.3421 5.18114 15.1622C5.30911 14.9918 5.435 14.82 5.56114 14.6483C5.69544 14.4655 5.83057 14.2834 5.96686 14.1021C6.09048 13.9375 6.21245 13.7716 6.33433 13.6058C6.46766 13.4243 6.60127 13.2432 6.73661 13.0632C6.85354 12.9076 6.96866 12.7506 7.08395 12.5938C7.2173 12.4123 7.35089 12.2312 7.48624 12.0512C7.60317 11.8956 7.71828 11.7386 7.83358 11.5818C7.96693 11.4004 8.10052 11.2192 8.23586 11.0392C8.36384 10.8689 8.48972 10.697 8.61586 10.5253C8.75016 10.3425 8.8853 10.1604 9.02159 9.97912C9.14521 9.81451 9.26717 9.64871 9.38905 9.48281C9.52239 9.30139 9.65599 9.12022 9.79133 8.94029C9.90827 8.78465 10.0234 8.62767 10.1387 8.47082C10.272 8.28941 10.4056 8.10823 10.541 7.9283C10.6579 7.77266 10.773 7.61568 10.8883 7.45882C11.0315 7.26401 11.175 7.06944 11.3204 6.87633C11.3584 6.82583 11.3961 6.7751 11.4336 6.7242C11.5267 6.59816 11.6201 6.4754 11.7273 6.36074C11.7617 6.32366 11.7947 6.28598 11.8276 6.24764C11.9118 6.15111 12.0019 6.06069 12.0924 5.97011C12.1088 5.95343 12.1253 5.93675 12.1422 5.91957C12.2556 5.806 12.3739 5.70264 12.5 5.6035C12.5127 5.5934 12.5255 5.5833 12.5386 5.5729C13.5612 4.77055 14.7886 4.45601 16.072 4.45807ZM28.0922 9.85762C28.0749 9.87888 28.0584 9.90083 28.0422 9.923C28.0318 9.93723 28.0213 9.95146 28.0106 9.96613C27.9993 9.98173 27.9879 9.99733 27.9762 10.0134C27.9522 10.0463 27.9282 10.0791 27.9041 10.1119C27.8918 10.1289 27.8794 10.1458 27.8667 10.1632C27.8101 10.2407 27.7532 10.318 27.6963 10.3952C27.6854 10.4101 27.6745 10.4249 27.6633 10.4401C27.5853 10.5459 27.5066 10.6512 27.4275 10.7562C27.3557 10.8518 27.2846 10.9479 27.2137 11.0441C27.1972 11.0665 27.1972 11.0665 27.1804 11.0894C27.1255 11.1641 27.0706 11.2388 27.0158 11.3136C26.8998 11.4717 26.7825 11.6287 26.6632 11.7844C26.5726 11.9027 26.4835 12.0217 26.3976 12.1436C26.3407 12.224 26.2821 12.3031 26.2228 12.3818C26.1402 12.4914 26.0582 12.6015 25.9769 12.7121C25.9659 12.727 25.9549 12.7419 25.9436 12.7573C25.8886 12.832 25.8337 12.9067 25.7789 12.9815C25.6629 13.1397 25.5456 13.2966 25.4263 13.4523C25.3371 13.5689 25.2492 13.6861 25.1647 13.8062C25.0975 13.9012 25.0278 13.9942 24.9578 14.0871C24.8647 14.2109 24.772 14.3349 24.6802 14.4596C24.6695 14.4743 24.6587 14.4889 24.6476 14.504C24.5937 14.5773 24.5398 14.6507 24.486 14.7241C24.3699 14.8823 24.2525 15.0394 24.1332 15.1952C24.044 15.3118 23.9561 15.429 23.8716 15.5491C23.7976 15.6536 23.7206 15.7558 23.6436 15.8581C23.6385 15.8648 23.6335 15.8715 23.6284 15.8782C23.5469 15.9866 23.4662 16.0955 23.386 16.2048C23.017 16.7061 23.017 16.7061 22.8347 16.8945C22.8157 16.9142 22.7968 16.934 22.778 16.9539C22.2861 17.4751 21.655 17.807 20.9567 17.9594C20.9441 17.9622 20.9316 17.965 20.9186 17.9678C20.589 18.0339 20.2571 18.0343 19.9223 18.0345C19.8512 18.0345 19.7801 18.0348 19.7089 18.0351C19.5714 18.0356 19.4338 18.0358 19.2962 18.0361C19.1368 18.0363 18.9774 18.0368 18.818 18.0373C18.4424 18.0384 18.0667 18.0392 17.691 18.04C17.6465 18.0401 17.6021 18.0402 17.5576 18.0403C16.6184 18.0426 15.6791 18.0449 14.7114 18.0473C14.7114 15.9322 14.7114 13.8171 14.7114 11.638C13.8927 11.633 13.0741 11.6279 12.2306 11.6228C11.9721 11.6205 11.7135 11.6183 11.4471 11.616C11.2155 11.6152 11.2155 11.6152 10.9838 11.6147C10.8806 11.6145 10.7774 11.6136 10.6742 11.6123C10.555 11.6107 10.436 11.61 10.3168 11.6103C10.2559 11.6105 10.1951 11.6101 10.1341 11.6089C9.88208 11.5919 9.88208 11.5919 9.66059 11.6868C9.61898 11.7347 9.5889 11.7864 9.56099 11.8435C9.53898 11.8816 9.53898 11.8816 9.50304 11.9244C9.3841 12.0663 9.36767 12.174 9.3706 12.3558C9.37049 12.3825 9.37031 12.4092 9.37008 12.436C9.36962 12.5092 9.37009 12.5825 9.37072 12.6558C9.37124 12.7356 9.37088 12.8153 9.37063 12.8951C9.37032 13.0349 9.37057 13.1747 9.37118 13.3144C9.37208 13.5223 9.37213 13.7301 9.372 13.9379C9.3718 14.2875 9.3723 14.6371 9.3732 14.9868C9.37409 15.3329 9.37466 15.6791 9.37483 16.0252C9.37484 16.0467 9.37485 16.0683 9.37486 16.0904C9.37491 16.1997 9.37495 16.3091 9.375 16.4184C9.37531 17.1926 9.37632 17.9668 9.37774 18.741C9.37912 19.4931 9.38018 20.2452 9.38081 20.9974C9.38083 21.0206 9.38085 21.0437 9.38087 21.0676C9.38107 21.3005 9.38126 21.5333 9.38145 21.7661C9.38183 22.2404 9.38225 22.7147 9.3827 23.189C9.38272 23.2108 9.38274 23.2326 9.38276 23.2551C9.38414 24.7113 9.38652 26.1675 9.38905 27.6237C9.44489 27.5685 9.49729 27.5145 9.54417 27.4514C9.5552 27.4366 9.56623 27.4219 9.5776 27.4066C9.5892 27.3909 9.60081 27.3752 9.61277 27.359C9.62506 27.3425 9.63736 27.326 9.65002 27.309C9.68806 27.2578 9.72598 27.2065 9.76386 27.1552C9.7809 27.1322 9.7809 27.1322 9.79829 27.1087C9.89598 26.9765 9.99331 26.8441 10.0904 26.7115C10.2065 26.5533 10.3239 26.3963 10.4432 26.2404C10.5325 26.1238 10.6203 26.0066 10.7049 25.8866C10.772 25.7916 10.8418 25.6986 10.9117 25.6056C11.0049 25.4819 11.0976 25.3579 11.1893 25.2331C11.2055 25.2112 11.2055 25.2112 11.222 25.1888C11.2759 25.1155 11.3297 25.0421 11.3835 24.9686C11.4996 24.8104 11.617 24.6534 11.7363 24.4976C11.8256 24.381 11.9134 24.2637 11.998 24.1437C12.0652 24.0487 12.1349 23.9557 12.2048 23.8627C12.298 23.739 12.3907 23.615 12.4824 23.4903C12.4986 23.4683 12.4986 23.4683 12.5151 23.4459C12.569 23.3726 12.6228 23.2992 12.6766 23.2258C12.7927 23.0675 12.9101 22.9105 13.0294 22.7547C13.1187 22.6381 13.2065 22.5209 13.2911 22.4008C13.3583 22.3058 13.428 22.2128 13.4979 22.1199C13.5911 21.9961 13.6838 21.8721 13.7755 21.7474C13.7917 21.7254 13.7917 21.7254 13.8082 21.703C13.8621 21.6297 13.9159 21.5563 13.9697 21.4829C14.4421 20.8387 14.4421 20.8387 14.6302 20.6423C14.6625 20.6081 14.6926 20.5739 14.7224 20.5375C14.7816 20.4669 14.8468 20.411 14.9175 20.3524C14.9273 20.3442 14.937 20.336 14.947 20.3276C15.1214 20.1814 15.3017 20.0542 15.4985 19.9401C15.5101 19.9333 15.5217 19.9266 15.5336 19.9196C16.2234 19.5219 16.9842 19.4693 17.7627 19.4678C17.831 19.4677 17.8993 19.4674 17.9677 19.4671C18.0999 19.4667 18.2321 19.4663 18.3643 19.466C18.5174 19.4656 18.6706 19.4651 18.8237 19.4646C19.2275 19.4633 19.6312 19.4622 20.0349 19.461C20.9374 19.4583 21.84 19.4556 22.7699 19.4528C22.7699 21.5679 22.7699 23.683 22.7699 25.8621C23.5908 25.8683 24.4118 25.8745 25.2577 25.8809C25.5169 25.8836 25.776 25.8863 26.0431 25.8891L26.0462 25.8891C26.2755 25.8901 26.2765 25.8901 26.5079 25.8907C26.6114 25.891 26.7149 25.8921 26.8184 25.8938C26.9379 25.8957 27.0573 25.8966 27.1768 25.8961C27.2379 25.896 27.2988 25.8964 27.3599 25.8979C27.5975 25.9119 27.5975 25.9119 27.8141 25.8335C27.8825 25.7655 27.9311 25.689 27.9747 25.6033C27.9984 25.5625 28.0247 25.5333 28.0565 25.4987C28.1369 25.3921 28.1263 25.2797 28.1248 25.151C28.1249 25.1243 28.125 25.0976 28.1252 25.0709C28.1255 24.9974 28.1252 24.924 28.1247 24.8505C28.1243 24.7707 28.1246 24.6908 28.1248 24.6109C28.125 24.4709 28.1248 24.3309 28.1243 24.1909C28.1237 23.9827 28.1236 23.7746 28.1237 23.5664C28.1239 23.2162 28.1235 22.866 28.1228 22.5158C28.1222 22.1691 28.1217 21.8223 28.1216 21.4755C28.1216 21.4539 28.1216 21.4324 28.1216 21.4102C28.1215 21.3007 28.1215 21.1913 28.1215 21.0818C28.1212 20.3063 28.1205 19.5308 28.1194 18.7553C28.1184 18.0019 28.1176 17.2485 28.1171 16.4951C28.1171 16.4719 28.1171 16.4486 28.1171 16.4247C28.1169 16.1915 28.1168 15.9584 28.1166 15.7252C28.1164 15.2501 28.116 14.7751 28.1157 14.3001C28.1157 14.2783 28.1157 14.2564 28.1157 14.2339C28.1146 12.7751 28.1128 11.3164 28.1109 9.85762C28.1048 9.85762 28.0986 9.85762 28.0922 9.85762Z" fill="#009C69"/>
  <path d="M28.0922 9.85762C28.0749 9.87888 28.0584 9.90083 28.0422 9.923L28.0106 9.96613L27.9762 10.0134L27.9041 10.1119L27.8667 10.1632C27.8101 10.2407 27.7532 10.318 27.6963 10.3952L27.6633 10.4401C27.5853 10.5459 27.5066 10.6512 27.4275 10.7562C27.3557 10.8518 27.2846 10.9479 27.2137 11.0441L27.1804 11.0894L27.0158 11.3136C26.8998 11.4717 26.7825 11.6287 26.6632 11.7844C26.5726 11.9027 26.4835 12.0217 26.3976 12.1436C26.3407 12.224 26.2821 12.3031 26.2228 12.3818C26.1402 12.4914 26.0582 12.6015 25.9769 12.7121L25.9436 12.7573L25.7789 12.9815C25.6629 13.1397 25.5456 13.2966 25.4263 13.4523C25.3371 13.5689 25.2492 13.6861 25.1647 13.8062C25.0975 13.9012 25.0278 13.9942 24.9578 14.0871C24.8647 14.2109 24.772 14.3349 24.6802 14.4596L24.6476 14.504L24.486 14.7241C24.3699 14.8823 24.2525 15.0394 24.1332 15.1952C24.044 15.3118 23.9561 15.429 23.8716 15.5491C23.7976 15.6536 23.7206 15.7558 23.6436 15.8581L23.6284 15.8782C23.5469 15.9866 23.4662 16.0955 23.386 16.2048C23.017 16.7061 23.017 16.7061 22.8347 16.8945L22.778 16.9539C22.2861 17.4751 21.655 17.807 20.9567 17.9594L20.9186 17.9678C20.589 18.0339 20.2571 18.0343 19.9223 18.0345L19.7089 18.0351L19.2962 18.0361L18.818 18.0373C18.4424 18.0384 18.0667 18.0392 17.691 18.04L17.5576 18.0403L14.7114 18.0473V11.638L12.2306 11.6228L11.4471 11.616L10.9838 11.6147C10.8806 11.6145 10.7774 11.6136 10.6742 11.6123C10.555 11.6107 10.436 11.61 10.3168 11.6103C10.2559 11.6105 10.1951 11.6101 10.1341 11.6089C9.88208 11.5919 9.88208 11.5919 9.66059 11.6868C9.61898 11.7347 9.5889 11.7864 9.56099 11.8435C9.53898 11.8816 9.53898 11.8816 9.50304 11.9244C9.3841 12.0663 9.36767 12.174 9.3706 12.3558L9.37008 12.436C9.36962 12.5092 9.37009 12.5825 9.37072 12.6558C9.37124 12.7356 9.37088 12.8153 9.37063 12.8951C9.37032 13.0349 9.37057 13.1747 9.37118 13.3144C9.37208 13.5223 9.37213 13.7301 9.372 13.9379C9.3718 14.2875 9.3723 14.6371 9.3732 14.9868C9.37409 15.3329 9.37466 15.6791 9.37483 16.0252L9.37486 16.0904L9.375 16.4184C9.37531 17.1926 9.37632 17.9668 9.37774 18.741C9.37912 19.4931 9.38018 20.2452 9.38081 20.9974L9.38087 21.0676L9.38145 21.7661L9.3827 23.189L9.38276 23.2551C9.38414 24.7113 9.38652 26.1675 9.38905 27.6237C9.44489 27.5685 9.49729 27.5145 9.54417 27.4514L9.5776 27.4066L9.61277 27.359L9.65002 27.309L9.76386 27.1552L9.79829 27.1087C9.89598 26.9765 9.99331 26.8441 10.0904 26.7115C10.2065 26.5533 10.3239 26.3963 10.4432 26.2404C10.5325 26.1238 10.6203 26.0066 10.7049 25.8866C10.772 25.7916 10.8418 25.6986 10.9117 25.6056C11.0049 25.4819 11.0976 25.3579 11.1893 25.2331L11.222 25.1888L11.3835 24.9686C11.4996 24.8104 11.617 24.6534 11.7363 24.4976C11.8256 24.381 11.9134 24.2637 11.998 24.1437C12.0652 24.0487 12.1349 23.9557 12.2048 23.8627C12.298 23.739 12.3907 23.615 12.4824 23.4903L12.5151 23.4459L12.6766 23.2258C12.7927 23.0675 12.9101 22.9105 13.0294 22.7547C13.1187 22.6381 13.2065 22.5209 13.2911 22.4008C13.3583 22.3058 13.428 22.2128 13.4979 22.1199C13.5911 21.9961 13.6838 21.8721 13.7755 21.7474L13.8082 21.703L13.9697 21.4829C14.4421 20.8387 14.4421 20.8387 14.6302 20.6423C14.6625 20.6081 14.6926 20.5739 14.7224 20.5375C14.7816 20.4669 14.8468 20.411 14.9175 20.3524L14.947 20.3276C15.1214 20.1814 15.3017 20.0542 15.4985 19.9401L15.5336 19.9196C16.2234 19.5219 16.9842 19.4693 17.7627 19.4678L17.9677 19.4671L18.3643 19.466L18.8237 19.4646L20.0349 19.461L22.7699 19.4528V25.8621L25.2577 25.8809L26.0431 25.8891L26.0462 25.8891C26.2755 25.8901 26.2765 25.8901 26.5079 25.8907C26.6114 25.891 26.7149 25.8921 26.8184 25.8938C26.9379 25.8957 27.0573 25.8966 27.1768 25.8961C27.2379 25.896 27.2988 25.8964 27.3599 25.8979C27.5975 25.9119 27.5975 25.9119 27.8141 25.8335C27.8825 25.7655 27.9311 25.689 27.9747 25.6033C27.9984 25.5625 28.0247 25.5333 28.0565 25.4987C28.1369 25.3921 28.1263 25.2797 28.1248 25.151L28.1252 25.0709C28.1255 24.9974 28.1252 24.924 28.1247 24.8505C28.1243 24.7707 28.1246 24.6908 28.1248 24.6109C28.125 24.4709 28.1248 24.3309 28.1243 24.1909C28.1237 23.9827 28.1236 23.7746 28.1237 23.5664C28.1239 23.2162 28.1235 22.866 28.1228 22.5158C28.1222 22.1691 28.1217 21.8223 28.1216 21.4755L28.1216 21.4102L28.1215 21.0818C28.1212 20.3063 28.1205 19.5308 28.1194 18.7553C28.1184 18.0019 28.1176 17.2485 28.1171 16.4951L28.1171 16.4247L28.1166 15.7252L28.1157 14.3001L28.1157 14.2339C28.1146 12.7751 28.1128 11.3164 28.1109 9.85762H28.0922Z" fill="white"/>
</svg>
