<svg width="30" height="30" viewBox="0 0 30 30" fill="none" xmlns="http://www.w3.org/2000/svg">
<g id="6 1">
<g id="Vector">
<path d="M12.8576 3.56645C12.8882 3.56645 12.9189 3.56643 12.9495 3.56642C13.033 3.56638 13.1166 3.56644 13.2002 3.56652C13.2905 3.56658 13.3808 3.56656 13.4712 3.56655C13.6275 3.56654 13.7838 3.56659 13.9401 3.56667C14.104 3.56676 14.2678 3.56682 14.4316 3.56684C14.4419 3.56684 14.4521 3.56684 14.4626 3.56684C14.5144 3.56684 14.5663 3.56685 14.6181 3.56685C14.9849 3.56688 15.3516 3.56698 15.7183 3.56713C16.0744 3.56726 16.4306 3.56737 16.7867 3.56743C16.8091 3.56744 16.8315 3.56744 16.854 3.56745C17.0275 3.56748 17.2011 3.56751 17.3747 3.56754C18.2248 3.56768 19.0749 3.56798 19.925 3.56826C19.93 5.43348 19.9349 7.29869 19.94 9.22043C20.089 9.02667 20.089 9.02667 20.2333 8.82969C20.2942 8.74465 20.3559 8.66024 20.4188 8.57669C20.5111 8.45424 20.6021 8.33083 20.6929 8.20729C20.7455 8.13583 20.7981 8.06444 20.8507 7.99303C20.8949 7.93314 20.939 7.87324 20.983 7.8133C21.0719 7.69247 21.1612 7.57196 21.2513 7.45209C21.3359 7.33959 21.4192 7.2262 21.5025 7.11284C21.5551 7.04138 21.6077 6.96998 21.6603 6.89858C21.7045 6.83869 21.7486 6.77879 21.7926 6.71885C21.8815 6.59809 21.9706 6.47764 22.0608 6.35786C22.1283 6.26801 22.195 6.17755 22.2615 6.08694C22.3316 5.9915 22.4027 5.8969 22.4737 5.80214C22.4787 5.06496 22.4836 4.32778 22.4887 3.56826C24.6953 3.56826 26.9019 3.56826 29.1754 3.56826C29.1766 5.44429 29.1766 5.44429 29.1769 6.19842C29.1769 6.37705 29.177 6.55568 29.177 6.73431C29.177 6.75714 29.177 6.77996 29.1771 6.80279C29.1772 7.16567 29.1774 7.52855 29.1777 7.89143C29.178 8.26488 29.1782 8.63832 29.1782 9.01176C29.1782 9.0647 29.1782 9.11764 29.1782 9.17057C29.1782 9.18099 29.1782 9.19141 29.1782 9.20214C29.1783 9.36877 29.1784 9.5354 29.1786 9.70202C29.1788 9.87018 29.1788 10.0383 29.1788 10.2065C29.1788 10.2973 29.1788 10.3882 29.179 10.4791C29.181 11.6854 29.0479 12.8677 28.5307 13.9731C28.5239 13.9878 28.5171 14.0026 28.5101 14.0178C28.2225 14.6424 27.841 15.1939 27.4293 15.7414C27.3357 15.8659 27.2436 15.9915 27.1514 16.117C27.0447 16.2621 26.9379 16.4071 26.8296 16.551C26.7272 16.6873 26.6265 16.8248 26.5256 16.9621C26.4181 17.1084 26.31 17.2541 26.201 17.3991C26.1021 17.5308 26.0045 17.6634 25.907 17.7961C25.8004 17.9413 25.6935 18.0862 25.5852 18.2302C25.4917 18.3547 25.3996 18.4803 25.3073 18.6057C25.2007 18.7509 25.0938 18.8958 24.9855 19.0398C24.892 19.1643 24.7999 19.2899 24.7076 19.4153C24.601 19.5605 24.4941 19.7054 24.3858 19.8493C24.2834 19.9856 24.1827 20.1231 24.0818 20.2605C23.9744 20.4067 23.8663 20.5524 23.7572 20.6974C23.6583 20.8291 23.5608 20.9618 23.4633 21.0945C23.3566 21.2396 23.2497 21.3846 23.1414 21.5285C23.0479 21.653 22.9558 21.7786 22.8636 21.9041C22.7569 22.0492 22.65 22.1942 22.5417 22.3381C22.4482 22.4626 22.3561 22.5882 22.2639 22.7137C22.1572 22.8588 22.0503 23.0038 21.942 23.1477C21.8396 23.284 21.7389 23.4215 21.638 23.5588C21.5306 23.7051 21.4225 23.8508 21.3134 23.9958C21.2497 24.0807 21.1864 24.1659 21.1235 24.2514C21.1149 24.263 21.1064 24.2746 21.0976 24.2865C21.0531 24.347 21.0087 24.4076 20.9644 24.4682C20.871 24.5959 20.7769 24.7218 20.6746 24.8426C20.6626 24.8575 20.6505 24.8723 20.638 24.8876C20.5413 25.0052 20.4362 25.1142 20.3289 25.2221C20.3084 25.2428 20.3084 25.2428 20.2876 25.2639C20.1963 25.3547 20.101 25.4375 20 25.5173C19.9909 25.5246 19.9818 25.5319 19.9724 25.5394C19.4228 25.9786 18.7676 26.2587 18.0753 26.3765C18.0624 26.3787 18.0494 26.381 18.0361 26.3832C17.779 26.4236 17.5224 26.4363 17.2626 26.4354C17.2313 26.4354 17.2 26.4355 17.1687 26.4355C17.0836 26.4356 16.9985 26.4355 16.9134 26.4353C16.8212 26.4352 16.7291 26.4352 16.637 26.4352C16.4777 26.4353 16.3184 26.4352 16.1591 26.435C15.9922 26.4348 15.8252 26.4347 15.6583 26.4347C15.6479 26.4347 15.6375 26.4347 15.6268 26.4347C15.5739 26.4347 15.521 26.4346 15.4681 26.4346C15.0944 26.4346 14.7206 26.4344 14.3469 26.4341C13.984 26.4338 13.6211 26.4336 13.2582 26.4335C13.2354 26.4335 13.2125 26.4335 13.1897 26.4335C13.0127 26.4334 12.8357 26.4333 12.6587 26.4333C11.7925 26.433 10.9262 26.4324 10.06 26.4318C10.055 24.5716 10.0501 22.7113 10.045 20.7946C9.90798 20.9773 9.77134 21.16 9.63617 21.344C9.58384 21.4152 9.53139 21.4863 9.47896 21.5574C9.43538 21.6166 9.39183 21.6757 9.34834 21.7349C9.24947 21.8694 9.14988 22.0033 9.04958 22.1367C8.95947 22.2567 8.87045 22.3775 8.7816 22.4984C8.73801 22.5577 8.69433 22.617 8.65066 22.6762C8.5978 22.7479 8.54496 22.8196 8.49218 22.8914C8.40331 23.0123 8.31405 23.1328 8.22388 23.2526C8.13937 23.3651 8.05608 23.4785 7.97273 23.5919C7.92888 23.6515 7.88497 23.7111 7.84106 23.7707C7.78911 23.8412 7.78911 23.8412 7.73612 23.9131C7.63222 24.0541 7.63222 24.0541 7.52622 24.1979C7.52127 24.9351 7.51633 25.6723 7.51123 26.4318C5.30463 26.4318 3.09803 26.4318 0.824571 26.4318C0.822755 24.5012 0.822756 24.5012 0.822405 23.7591C0.822314 23.5651 0.822219 23.3711 0.822119 23.1771C0.822107 23.1536 0.822094 23.1301 0.822082 23.1067C0.821891 22.7336 0.821554 22.3605 0.82114 21.9875C0.820714 21.6036 0.820438 21.2197 0.820347 20.8358C0.820335 20.7814 0.82032 20.727 0.820304 20.6725C0.820301 20.6618 0.820298 20.6511 0.820295 20.6401C0.820242 20.4688 0.820034 20.2975 0.819766 20.1262C0.819499 19.9533 0.819404 19.7804 0.819466 19.6076C0.819495 19.5142 0.819454 19.4208 0.81921 19.3274C0.815925 18.0018 1.06072 16.7463 2.36798 14.5285C2.4182 14.4622 2.46756 14.3952 2.51685 14.3282C2.5256 14.3163 2.53436 14.3044 2.54337 14.2922C2.57015 14.2558 2.59691 14.2194 2.62367 14.183C2.73035 14.0378 2.83723 13.8929 2.9455 13.7489C3.03904 13.6244 3.13113 13.4988 3.22337 13.3734C3.33005 13.2282 3.43693 13.0833 3.5452 12.9393C3.63874 12.8148 3.73083 12.6892 3.82307 12.5638C3.92975 12.4186 4.03663 12.2737 4.1449 12.1297C4.24728 11.9935 4.34799 11.856 4.4489 11.7186C4.55634 11.5724 4.66445 11.4267 4.77348 11.2816C4.87238 11.15 4.96995 11.0173 5.06745 10.8846C5.17412 10.7395 5.281 10.5945 5.38928 10.4506C5.48282 10.3261 5.57491 10.2005 5.66715 10.075C5.77383 9.92988 5.8807 9.78493 5.98898 9.64099C6.08252 9.51648 6.17461 9.39089 6.26685 9.26541C6.37353 9.12028 6.4804 8.97534 6.58868 8.8314C6.69106 8.69512 6.79176 8.55761 6.89268 8.42025C7.00012 8.27402 7.10823 8.12834 7.21726 7.98329C7.31615 7.85161 7.41373 7.71897 7.51123 7.58625C7.6179 7.44111 7.72478 7.29618 7.83306 7.15223C7.9266 7.02772 8.01869 6.90214 8.11093 6.77665C8.21761 6.63153 8.32448 6.48658 8.43275 6.34264C8.5263 6.21813 8.61839 6.09254 8.71063 5.96706C8.82519 5.81121 8.93995 5.65555 9.05633 5.50106C9.08675 5.46066 9.11689 5.42008 9.14688 5.37936C9.22134 5.27853 9.2961 5.18032 9.38184 5.08859C9.40933 5.05893 9.43573 5.02878 9.46207 4.99811C9.52944 4.92089 9.60149 4.84855 9.6739 4.77609C9.68706 4.76275 9.70022 4.7494 9.71378 4.73565C9.80443 4.6448 9.89912 4.56212 9.99998 4.4828C10.0102 4.47472 10.0204 4.46664 10.0309 4.45832C10.8489 3.81644 11.8308 3.56481 12.8576 3.56645ZM22.4737 7.8861C22.4599 7.90311 22.4467 7.92066 22.4337 7.9384C22.4254 7.94978 22.4171 7.96117 22.4085 7.9729C22.3994 7.98538 22.3903 7.99786 22.381 8.01072C22.3618 8.037 22.3425 8.06328 22.3233 8.08955C22.3134 8.10309 22.3035 8.11662 22.2934 8.13056C22.2481 8.19256 22.2026 8.25439 22.157 8.3162C22.1483 8.32804 22.1396 8.33988 22.1306 8.35209C22.0682 8.43673 22.0052 8.52093 21.942 8.60497C21.8846 8.68144 21.8277 8.75829 21.771 8.83531C21.7578 8.85323 21.7578 8.85323 21.7443 8.87151C21.7004 8.93126 21.6565 8.99105 21.6126 9.05089C21.5198 9.17739 21.426 9.30295 21.3306 9.42752C21.2581 9.52219 21.1868 9.61739 21.1181 9.71484C21.0726 9.77922 21.0257 9.84245 20.9782 9.9054C20.9121 9.99311 20.8466 10.0812 20.7815 10.1696C20.7727 10.1816 20.7639 10.1935 20.7548 10.2058C20.7109 10.2656 20.667 10.3254 20.6231 10.3852C20.5303 10.5117 20.4365 10.6373 20.3411 10.7618C20.2696 10.8551 20.1994 10.9489 20.1317 11.045C20.078 11.121 20.0222 11.1954 19.9663 11.2697C19.8917 11.3687 19.8176 11.4679 19.7442 11.5677C19.7356 11.5794 19.7269 11.5911 19.7181 11.6032C19.6749 11.6618 19.6318 11.7205 19.5888 11.7793C19.4959 11.9059 19.402 12.0315 19.3066 12.1562C19.2352 12.2494 19.1649 12.3432 19.0972 12.4393C19.0381 12.5229 18.9765 12.6047 18.9149 12.6865C18.9108 12.6918 18.9068 12.6972 18.9027 12.7026C18.8375 12.7893 18.7729 12.8764 18.7088 12.9639C18.4136 13.3649 18.4136 13.3649 18.2677 13.5156C18.2525 13.5314 18.2374 13.5472 18.2224 13.5631C17.8288 13.9801 17.324 14.2456 16.7654 14.3675C16.7553 14.3698 16.7452 14.372 16.7349 14.3742C16.4712 14.4271 16.2057 14.4275 15.9378 14.4276C15.8809 14.4276 15.824 14.4279 15.7671 14.4281C15.6571 14.4284 15.547 14.4287 15.437 14.4288C15.3094 14.4291 15.1819 14.4294 15.0544 14.4298C14.7539 14.4307 14.4533 14.4313 14.1528 14.432C14.1172 14.432 14.0816 14.4321 14.0461 14.4322C13.2947 14.4341 12.5433 14.4359 11.7691 14.4378C11.7691 12.7458 11.7691 11.0537 11.7691 9.31039C11.1142 9.30637 10.4592 9.30235 9.78447 9.29821C9.57763 9.29643 9.37079 9.29466 9.15769 9.29283C8.97237 9.29218 8.97237 9.29218 8.78705 9.29178C8.70446 9.2916 8.6219 9.29089 8.53932 9.28981C8.44403 9.28857 8.34876 9.28801 8.25346 9.28828C8.20471 9.28839 8.15604 9.2881 8.1073 9.28715C7.90565 9.2735 7.90565 9.2735 7.72846 9.34947C7.69518 9.3878 7.67111 9.42912 7.64878 9.47479C7.63117 9.50529 7.63117 9.50529 7.60242 9.53949C7.50727 9.65307 7.49412 9.73921 7.49647 9.8846C7.49638 9.90599 7.49624 9.92738 7.49605 9.94877C7.49568 10.0074 7.49606 10.066 7.49656 10.1246C7.49698 10.1885 7.49669 10.2523 7.49649 10.3161C7.49625 10.4279 7.49644 10.5397 7.49693 10.6515C7.49766 10.8178 7.49769 10.9841 7.49759 11.1503C7.49743 11.43 7.49783 11.7097 7.49855 11.9894C7.49926 12.2663 7.49972 12.5432 7.49985 12.8202C7.49986 12.8374 7.49987 12.8546 7.49987 12.8724C7.49991 12.9598 7.49995 13.0472 7.49999 13.1347C7.50024 13.7541 7.50104 14.3734 7.50218 14.9928C7.50328 15.5945 7.50413 16.1962 7.50464 16.7979C7.50466 16.8164 7.50467 16.835 7.50469 16.8541C7.50485 17.0404 7.505 17.2266 7.50515 17.4129C7.50545 17.7923 7.50579 18.1718 7.50615 18.5512C7.50617 18.5687 7.50618 18.5861 7.5062 18.6041C7.5073 19.769 7.5092 20.934 7.51123 22.099C7.5559 22.0548 7.59782 22.0116 7.63533 21.9611C7.64415 21.9493 7.65297 21.9375 7.66207 21.9253C7.67135 21.9127 7.68063 21.9002 7.6902 21.8872C7.70004 21.874 7.70987 21.8608 7.72001 21.8472C7.75044 21.8062 7.78077 21.7652 7.81108 21.7242C7.82471 21.7057 7.82471 21.7057 7.83862 21.6869C7.91677 21.5812 7.99464 21.4753 8.07233 21.3692C8.16519 21.2426 8.25911 21.117 8.35456 20.9924C8.42598 20.8991 8.49624 20.8053 8.5639 20.7092C8.61763 20.6332 8.67339 20.5588 8.72937 20.4845C8.80388 20.3855 8.87803 20.2863 8.95145 20.1865C8.96437 20.1689 8.96437 20.1689 8.97756 20.151C9.0207 20.0924 9.06378 20.0337 9.10682 19.9749C9.19967 19.8483 9.29359 19.7227 9.38904 19.5981C9.46046 19.5048 9.53073 19.411 9.59838 19.3149C9.65211 19.2389 9.70787 19.1645 9.76385 19.0902C9.83836 18.9912 9.91251 18.892 9.98593 18.7922C9.99885 18.7746 9.99885 18.7746 10.012 18.7567C10.0552 18.6981 10.0983 18.6394 10.1413 18.5806C10.2342 18.454 10.3281 18.3284 10.4235 18.2038C10.4949 18.1105 10.5652 18.0167 10.6329 17.9206C10.6866 17.8446 10.7424 17.7702 10.7983 17.6959C10.8728 17.5969 10.947 17.4977 11.0204 17.3979C11.0333 17.3803 11.0333 17.3803 11.0465 17.3624C11.0897 17.3038 11.1327 17.2451 11.1758 17.1863C11.5537 16.671 11.5537 16.671 11.7042 16.5139C11.73 16.4864 11.7541 16.4591 11.7779 16.43C11.8252 16.3735 11.8774 16.3288 11.934 16.2819C11.9418 16.2754 11.9496 16.2688 11.9576 16.2621C12.0971 16.1451 12.2413 16.0434 12.3988 15.9521C12.4081 15.9467 12.4173 15.9412 12.4269 15.9357C12.9787 15.6175 13.5874 15.5755 14.2101 15.5742C14.2648 15.5741 14.3195 15.5739 14.3741 15.5737C14.4799 15.5734 14.5856 15.5731 14.6914 15.5728C14.8139 15.5725 14.9364 15.5721 15.059 15.5717C15.382 15.5706 15.7049 15.5697 16.0279 15.5688C16.7499 15.5667 17.472 15.5645 18.2159 15.5623C18.2159 17.2543 18.2159 18.9464 18.2159 20.6897C18.8727 20.6946 19.5294 20.6996 20.2061 20.7047C20.4135 20.7069 20.6208 20.7091 20.8345 20.7113L20.8369 20.7113C21.0204 20.7121 21.0212 20.7121 21.2063 20.7126C21.2891 20.7128 21.3719 20.7137 21.4547 20.715C21.5503 20.7166 21.6458 20.7172 21.7414 20.7169C21.7903 20.7168 21.8391 20.7171 21.8879 20.7183C22.078 20.7296 22.078 20.7296 22.2512 20.6668C22.306 20.6124 22.3449 20.5512 22.3797 20.4827C22.3987 20.45 22.4197 20.4266 22.4452 20.399C22.5095 20.3137 22.501 20.2238 22.4998 20.1208C22.4999 20.0994 22.5 20.0781 22.5001 20.0567C22.5004 19.9979 22.5001 19.9392 22.4997 19.8804C22.4994 19.8165 22.4996 19.7526 22.4998 19.6887C22.5 19.5767 22.4998 19.4647 22.4995 19.3527C22.4989 19.1862 22.4989 19.0197 22.499 18.8531C22.4991 18.573 22.4988 18.2928 22.4983 18.0127C22.4977 17.7352 22.4974 17.4578 22.4973 17.1804C22.4973 17.1632 22.4973 17.1459 22.4973 17.1281C22.4972 17.0406 22.4972 16.953 22.4972 16.8654C22.497 16.2451 22.4964 15.6247 22.4955 15.0043C22.4947 14.4015 22.4941 13.7988 22.4937 13.1961C22.4937 13.1775 22.4937 13.1589 22.4936 13.1398C22.4935 12.9532 22.4934 12.7667 22.4933 12.5801C22.4931 12.2001 22.4928 11.8201 22.4926 11.4401C22.4925 11.4226 22.4925 11.4051 22.4925 11.3871C22.4917 10.2201 22.4903 9.05311 22.4887 7.8861C22.4838 7.8861 22.4788 7.8861 22.4737 7.8861Z" fill="#009C69"/>
<path d="M22.4737 7.8861C22.4599 7.90311 22.4467 7.92066 22.4337 7.9384L22.4085 7.9729L22.381 8.01072L22.3233 8.08955L22.2934 8.13056C22.2481 8.19256 22.2026 8.25439 22.157 8.3162L22.1306 8.35209C22.0682 8.43673 22.0052 8.52093 21.942 8.60497C21.8846 8.68144 21.8277 8.75829 21.771 8.83531L21.7443 8.87151L21.6126 9.05089C21.5198 9.17739 21.426 9.30295 21.3306 9.42752C21.2581 9.52219 21.1868 9.61739 21.1181 9.71484C21.0726 9.77922 21.0257 9.84245 20.9782 9.9054C20.9121 9.99311 20.8466 10.0812 20.7815 10.1696L20.7548 10.2058L20.6231 10.3852C20.5303 10.5117 20.4365 10.6373 20.3411 10.7618C20.2696 10.8551 20.1994 10.9489 20.1317 11.045C20.078 11.121 20.0222 11.1954 19.9663 11.2697C19.8917 11.3687 19.8176 11.4679 19.7442 11.5677L19.7181 11.6032L19.5888 11.7793C19.4959 11.9059 19.402 12.0315 19.3066 12.1562C19.2352 12.2494 19.1649 12.3432 19.0972 12.4393C19.0381 12.5229 18.9765 12.6047 18.9149 12.6865L18.9027 12.7026C18.8375 12.7893 18.7729 12.8764 18.7088 12.9639C18.4136 13.3649 18.4136 13.3649 18.2677 13.5156L18.2224 13.5631C17.8288 13.9801 17.324 14.2456 16.7654 14.3675L16.7349 14.3742C16.4712 14.4271 16.2057 14.4275 15.9378 14.4276L15.7671 14.4281L15.437 14.4288L15.0544 14.4298C14.7539 14.4307 14.4533 14.4313 14.1528 14.432L14.0461 14.4322L11.7691 14.4378V9.31039L9.78447 9.29821L9.15769 9.29283L8.78705 9.29178C8.70446 9.2916 8.6219 9.29089 8.53932 9.28981C8.44403 9.28857 8.34876 9.28801 8.25346 9.28828C8.20471 9.28839 8.15604 9.2881 8.1073 9.28715C7.90565 9.2735 7.90565 9.2735 7.72846 9.34947C7.69518 9.3878 7.67111 9.42912 7.64878 9.47479C7.63117 9.50529 7.63117 9.50529 7.60242 9.53949C7.50727 9.65307 7.49412 9.73921 7.49647 9.8846L7.49605 9.94877C7.49568 10.0074 7.49606 10.066 7.49656 10.1246C7.49698 10.1885 7.49669 10.2523 7.49649 10.3161C7.49625 10.4279 7.49644 10.5397 7.49693 10.6515C7.49766 10.8178 7.49769 10.9841 7.49759 11.1503C7.49743 11.43 7.49783 11.7097 7.49855 11.9894C7.49926 12.2663 7.49972 12.5432 7.49985 12.8202L7.49987 12.8724L7.49999 13.1347C7.50024 13.7541 7.50104 14.3734 7.50218 14.9928C7.50328 15.5945 7.50413 16.1962 7.50464 16.7979L7.50469 16.8541L7.50515 17.4129L7.50615 18.5512L7.5062 18.6041C7.5073 19.769 7.5092 20.934 7.51123 22.099C7.5559 22.0548 7.59782 22.0116 7.63533 21.9611L7.66207 21.9253L7.6902 21.8872L7.72001 21.8472L7.81108 21.7242L7.83862 21.6869C7.91677 21.5812 7.99464 21.4753 8.07233 21.3692C8.16519 21.2426 8.25911 21.117 8.35456 20.9924C8.42598 20.8991 8.49624 20.8053 8.5639 20.7092C8.61763 20.6332 8.67339 20.5588 8.72937 20.4845C8.80388 20.3855 8.87803 20.2863 8.95145 20.1865L8.97756 20.151L9.10682 19.9749C9.19967 19.8483 9.29359 19.7227 9.38904 19.5981C9.46046 19.5048 9.53073 19.411 9.59838 19.3149C9.65211 19.2389 9.70787 19.1645 9.76385 19.0902C9.83836 18.9912 9.91251 18.892 9.98593 18.7922L10.012 18.7567L10.1413 18.5806C10.2342 18.454 10.3281 18.3284 10.4235 18.2038C10.4949 18.1105 10.5652 18.0167 10.6329 17.9206C10.6866 17.8446 10.7424 17.7702 10.7983 17.6959C10.8728 17.5969 10.947 17.4977 11.0204 17.3979L11.0465 17.3624L11.1758 17.1863C11.5537 16.671 11.5537 16.671 11.7042 16.5139C11.73 16.4864 11.7541 16.4591 11.7779 16.43C11.8252 16.3735 11.8774 16.3288 11.934 16.2819L11.9576 16.2621C12.0971 16.1451 12.2413 16.0434 12.3988 15.9521L12.4269 15.9357C12.9787 15.6175 13.5874 15.5755 14.2101 15.5742L14.3741 15.5737L14.6914 15.5728L15.059 15.5717L16.0279 15.5688L18.2159 15.5623V20.6897L20.2061 20.7047L20.8345 20.7113L20.8369 20.7113C21.0204 20.7121 21.0212 20.7121 21.2063 20.7126C21.2891 20.7128 21.3719 20.7137 21.4547 20.715C21.5503 20.7166 21.6458 20.7172 21.7414 20.7169C21.7903 20.7168 21.8391 20.7171 21.8879 20.7183C22.078 20.7296 22.078 20.7296 22.2512 20.6668C22.306 20.6124 22.3449 20.5512 22.3797 20.4827C22.3987 20.45 22.4197 20.4266 22.4452 20.399C22.5095 20.3137 22.501 20.2238 22.4998 20.1208L22.5001 20.0567C22.5004 19.9979 22.5001 19.9392 22.4997 19.8804C22.4994 19.8165 22.4996 19.7526 22.4998 19.6887C22.5 19.5767 22.4998 19.4647 22.4995 19.3527C22.4989 19.1862 22.4989 19.0197 22.499 18.8531C22.4991 18.573 22.4988 18.2928 22.4983 18.0127C22.4977 17.7352 22.4974 17.4578 22.4973 17.1804L22.4973 17.1281L22.4972 16.8654C22.497 16.2451 22.4964 15.6247 22.4955 15.0043C22.4947 14.4015 22.4941 13.7988 22.4937 13.1961L22.4936 13.1398L22.4933 12.5801L22.4926 11.4401L22.4925 11.3871C22.4917 10.2201 22.4903 9.05311 22.4887 7.8861H22.4737Z" fill="white"/>
</g>
</g>
</svg>
