<svg width="22" height="22" viewBox="0 0 22 22" fill="none" xmlns="http://www.w3.org/2000/svg">
<g id="6 1" clip-path="url(#clip0_33_2520)">
<g id="Vector">
<path d="M9.42892 2.61532C9.45139 2.61531 9.47385 2.6153 9.49632 2.61529C9.55759 2.61526 9.61887 2.61531 9.68015 2.61536C9.7464 2.61541 9.81265 2.61539 9.8789 2.61538C9.99353 2.61538 10.1082 2.61541 10.2228 2.61548C10.3429 2.61554 10.4631 2.61558 10.5832 2.61559C10.5907 2.6156 10.5982 2.6156 10.6059 2.6156C10.6439 2.6156 10.682 2.6156 10.72 2.61561C10.9889 2.61563 11.2579 2.6157 11.5268 2.61581C11.7879 2.61591 12.0491 2.61599 12.3103 2.61603C12.3267 2.61604 12.3432 2.61604 12.3596 2.61604C12.4869 2.61607 12.6142 2.61609 12.7415 2.61611C13.3649 2.61621 13.9883 2.61643 14.6117 2.61664C14.6153 3.98446 14.619 5.35229 14.6227 6.76157C14.732 6.61948 14.732 6.61948 14.8378 6.47502C14.8825 6.41266 14.9277 6.35076 14.9738 6.28949C15.0415 6.19969 15.1082 6.10919 15.1748 6.01859C15.2134 5.96619 15.252 5.91384 15.2906 5.86147C15.3229 5.81755 15.3553 5.77363 15.3876 5.72967C15.4528 5.64106 15.5182 5.55268 15.5843 5.46478C15.6463 5.38228 15.7074 5.29913 15.7685 5.21599C15.8071 5.16359 15.8457 5.11124 15.8843 5.05887C15.9166 5.01496 15.949 4.97103 15.9813 4.92707C16.0464 4.83852 16.1118 4.75019 16.1779 4.66235C16.2274 4.59646 16.2763 4.53012 16.3251 4.46367C16.3765 4.39368 16.4287 4.32431 16.4808 4.25482C16.4844 3.71422 16.488 3.17362 16.4918 2.61664C18.1099 2.61664 19.7281 2.61664 21.3953 2.61664C21.3962 3.99239 21.3962 3.99239 21.3964 4.54543C21.3964 4.67642 21.3965 4.80742 21.3965 4.93841C21.3965 4.95515 21.3965 4.97189 21.3965 4.98863C21.3966 5.25474 21.3968 5.52085 21.397 5.78697C21.3972 6.06082 21.3973 6.33468 21.3974 6.60854C21.3974 6.64736 21.3974 6.68618 21.3974 6.725C21.3974 6.73264 21.3974 6.74028 21.3974 6.74815C21.3974 6.87035 21.3975 6.99254 21.3977 7.11473C21.3978 7.23805 21.3978 7.36136 21.3978 7.48468C21.3978 7.5513 21.3978 7.61793 21.3979 7.68455C21.3994 8.56923 21.3018 9.43625 20.9226 10.2468C20.9176 10.2577 20.9126 10.2685 20.9075 10.2797C20.6965 10.7377 20.4168 11.1421 20.1148 11.5436C20.0462 11.6349 19.9787 11.727 19.9111 11.819C19.8328 11.9255 19.7545 12.0318 19.6751 12.1373C19.6 12.2372 19.5261 12.3381 19.4521 12.4388C19.3733 12.5461 19.294 12.6529 19.2141 12.7593C19.1416 12.8558 19.07 12.9531 18.9985 13.0504C18.9203 13.1569 18.8419 13.2631 18.7625 13.3687C18.6939 13.46 18.6264 13.5521 18.5587 13.6441C18.4805 13.7505 18.4021 13.8568 18.3227 13.9624C18.2541 14.0537 18.1866 14.1458 18.119 14.2378C18.0407 14.3443 17.9623 14.4505 17.8829 14.5561C17.8079 14.656 17.734 14.7569 17.66 14.8576C17.5812 14.9648 17.5019 15.0717 17.422 15.178C17.3495 15.2746 17.2779 15.3719 17.2064 15.4692C17.1282 15.5756 17.0498 15.6819 16.9704 15.7875C16.9018 15.8788 16.8343 15.9709 16.7666 16.0629C16.6884 16.1693 16.61 16.2756 16.5306 16.3812C16.462 16.4725 16.3945 16.5646 16.3269 16.6566C16.2486 16.763 16.1702 16.8693 16.0908 16.9749C16.0158 17.0748 15.9419 17.1757 15.8679 17.2764C15.7891 17.3836 15.7098 17.4905 15.6299 17.5968C15.5831 17.6591 15.5367 17.7216 15.4906 17.7842C15.4843 17.7928 15.478 17.8013 15.4716 17.81C15.439 17.8544 15.4064 17.8988 15.3739 17.9433C15.3055 18.0369 15.2364 18.1293 15.1614 18.2178C15.1526 18.2287 15.1437 18.2396 15.1346 18.2508C15.0636 18.3371 14.9866 18.417 14.9079 18.4961C14.8929 18.5113 14.8929 18.5113 14.8776 18.5267C14.8107 18.5934 14.7408 18.6541 14.6667 18.7126C14.66 18.7179 14.6533 18.7233 14.6464 18.7288C14.2434 19.0509 13.763 19.2563 13.2553 19.3427C13.2458 19.3443 13.2363 19.3459 13.2265 19.3476C13.038 19.3772 12.8498 19.3865 12.6593 19.3859C12.6363 19.3859 12.6133 19.3859 12.5904 19.386C12.528 19.386 12.4656 19.3859 12.4032 19.3858C12.3356 19.3857 12.268 19.3857 12.2005 19.3858C12.0837 19.3858 11.9668 19.3857 11.85 19.3856C11.7276 19.3854 11.6052 19.3854 11.4828 19.3853C11.4752 19.3853 11.4675 19.3853 11.4597 19.3853C11.4209 19.3853 11.3821 19.3853 11.3433 19.3853C11.0692 19.3853 10.7952 19.3851 10.5211 19.3849C10.255 19.3847 9.98884 19.3846 9.72272 19.3845C9.70596 19.3845 9.6892 19.3845 9.67244 19.3844C9.54266 19.3844 9.41288 19.3844 9.2831 19.3843C8.64784 19.3841 8.01258 19.3837 7.37733 19.3833C7.3737 18.0191 7.37007 16.6549 7.36633 15.2493C7.26588 15.3833 7.16567 15.5173 7.06655 15.6522C7.02818 15.7044 6.98971 15.7565 6.95126 15.8087C6.9193 15.8521 6.88737 15.8954 6.85547 15.9388C6.78297 16.0375 6.70994 16.1357 6.63638 16.2335C6.5703 16.3215 6.50502 16.4101 6.43987 16.4987C6.4079 16.5422 6.37587 16.5857 6.34384 16.6291C6.30508 16.6817 6.26633 16.7343 6.22763 16.787C6.16245 16.8756 6.097 16.9639 6.03087 17.0519C5.9689 17.1344 5.90781 17.2175 5.8467 17.3006C5.81454 17.3444 5.78234 17.388 5.75014 17.4317C5.71204 17.4834 5.71204 17.4834 5.67318 17.5362C5.59699 17.6396 5.59699 17.6396 5.51925 17.7451C5.51563 18.2857 5.512 18.8263 5.50826 19.3833C3.89009 19.3833 2.27192 19.3833 0.604712 19.3833C0.60338 17.9675 0.603381 17.9675 0.603124 17.4233C0.603057 17.281 0.602987 17.1387 0.602914 16.9964C0.602905 16.9792 0.602896 16.962 0.602887 16.9448C0.602747 16.6712 0.6025 16.3976 0.602196 16.1241C0.601884 15.8425 0.601681 15.561 0.601615 15.2795C0.601605 15.2396 0.601595 15.1997 0.601583 15.1598C0.601581 15.1519 0.601579 15.1441 0.601576 15.136C0.601538 15.0104 0.601385 14.8847 0.601189 14.7591C0.600993 14.6323 0.600923 14.5056 0.600968 14.3788C0.600989 14.3103 0.60096 14.2418 0.600781 14.1733C0.598371 13.2012 0.777891 12.2805 1.73654 10.6541C1.77337 10.6055 1.80957 10.5564 1.84572 10.5073C1.85214 10.4985 1.85855 10.4898 1.86517 10.4808C1.8848 10.4541 1.90443 10.4274 1.92405 10.4007C2.00228 10.2943 2.08066 10.188 2.16006 10.0825C2.22866 9.99116 2.29619 9.89906 2.36383 9.80704C2.44206 9.70062 2.52044 9.59432 2.59984 9.48877C2.66844 9.39746 2.73597 9.30536 2.80361 9.21334C2.88184 9.10691 2.96022 9.00062 3.03962 8.89506C3.1147 8.79513 3.18855 8.69429 3.26255 8.59356C3.34134 8.48632 3.42062 8.37949 3.50058 8.27312C3.5731 8.17655 3.64465 8.07928 3.71616 7.98196C3.79438 7.87552 3.87276 7.76924 3.95216 7.66368C4.02076 7.57237 4.0883 7.48027 4.15594 7.38825C4.23417 7.28183 4.31254 7.17553 4.39194 7.06998C4.46054 6.97867 4.52808 6.88657 4.59572 6.79455C4.67395 6.68812 4.75232 6.58183 4.83172 6.47627C4.9068 6.37634 4.98065 6.2755 5.05466 6.17477C5.13345 6.06753 5.21273 5.9607 5.29268 5.85433C5.36521 5.75776 5.43676 5.66049 5.50826 5.56316C5.58648 5.45673 5.66487 5.35045 5.74427 5.24489C5.81287 5.15358 5.8804 5.06148 5.94804 4.96946C6.02627 4.86303 6.10465 4.75674 6.18405 4.65118C6.25265 4.55988 6.32018 4.46778 6.38782 4.37576C6.47183 4.26147 6.55599 4.14732 6.64134 4.03403C6.66364 4.0044 6.68575 3.97464 6.70773 3.94478C6.76235 3.87084 6.81717 3.79881 6.88004 3.73155C6.9002 3.7098 6.91956 3.68769 6.93888 3.6652C6.98828 3.60857 7.04112 3.55552 7.09422 3.50238C7.10387 3.4926 7.11352 3.48281 7.12346 3.47273C7.18994 3.4061 7.25938 3.34547 7.33335 3.2873C7.34082 3.28138 7.34829 3.27545 7.35599 3.26935C7.95589 2.79864 8.67597 2.61411 9.42892 2.61532ZM16.4808 5.78305C16.4706 5.79553 16.4609 5.8084 16.4514 5.82141C16.4453 5.82976 16.4392 5.83811 16.4329 5.84671C16.4263 5.85586 16.4196 5.86502 16.4127 5.87445C16.3986 5.89372 16.3845 5.91299 16.3704 5.93225C16.3632 5.94218 16.356 5.9521 16.3485 5.96233C16.3153 6.00779 16.2819 6.05313 16.2485 6.09846C16.2421 6.10714 16.2357 6.11583 16.2291 6.12478C16.1834 6.18685 16.1372 6.2486 16.0908 6.31023C16.0487 6.3663 16.007 6.42266 15.9654 6.47914C15.9557 6.49229 15.9557 6.49229 15.9459 6.50569C15.9136 6.5495 15.8814 6.59335 15.8493 6.63723C15.7812 6.73 15.7124 6.82208 15.6424 6.91343C15.5893 6.98286 15.537 7.05267 15.4866 7.12413C15.4532 7.17135 15.4189 7.21771 15.3841 7.26388C15.3356 7.3282 15.2875 7.39278 15.2398 7.45766C15.2333 7.46641 15.2269 7.47517 15.2202 7.48419C15.188 7.52801 15.1558 7.57186 15.1236 7.61574C15.0556 7.70852 14.9868 7.80059 14.9168 7.89194C14.8644 7.96035 14.8129 8.02911 14.7633 8.09955C14.7239 8.15528 14.683 8.20985 14.6419 8.26438C14.5873 8.33696 14.5329 8.40971 14.4791 8.48289C14.4728 8.49148 14.4664 8.50006 14.4599 8.50891C14.4283 8.55193 14.3967 8.59498 14.3651 8.63806C14.2971 8.73089 14.2282 8.82302 14.1582 8.91443C14.1058 8.98284 14.0543 9.0516 14.0047 9.12204C13.9613 9.18338 13.9161 9.24333 13.8709 9.30332C13.868 9.30726 13.865 9.3112 13.862 9.31514C13.8142 9.3787 13.7668 9.44261 13.7198 9.50675C13.5033 9.80084 13.5033 9.80084 13.3964 9.91138C13.3852 9.92292 13.3741 9.93454 13.3631 9.94621C13.0745 10.252 12.7043 10.4467 12.2946 10.5361C12.2872 10.5377 12.2799 10.5394 12.2723 10.541C12.0789 10.5798 11.8842 10.5801 11.6878 10.5801C11.646 10.5802 11.6043 10.5803 11.5626 10.5805C11.4819 10.5808 11.4012 10.5809 11.3205 10.5811C11.227 10.5812 11.1334 10.5815 11.0399 10.5818C10.8195 10.5824 10.5991 10.5829 10.3787 10.5834C10.3526 10.5834 10.3266 10.5835 10.3005 10.5835C9.74946 10.5849 9.19843 10.5863 8.6307 10.5877C8.6307 9.34681 8.6307 8.10597 8.6307 6.82753C8.15042 6.82458 7.67014 6.82164 7.1753 6.8186C7.02362 6.8173 6.87194 6.816 6.71566 6.81466C6.57976 6.81418 6.57976 6.81418 6.44386 6.81389C6.3833 6.81376 6.32275 6.81323 6.26219 6.81244C6.19231 6.81153 6.12245 6.81112 6.05256 6.81132C6.01682 6.8114 5.98112 6.81119 5.94538 6.81049C5.7975 6.80048 5.7975 6.80048 5.66756 6.85619C5.64315 6.8843 5.62551 6.9146 5.60913 6.9481C5.59622 6.97046 5.59622 6.97046 5.57513 6.99554C5.50536 7.07883 5.49572 7.14201 5.49744 7.24863C5.49737 7.26431 5.49727 7.28 5.49713 7.29568C5.49686 7.33867 5.49714 7.38165 5.49751 7.42464C5.49781 7.47145 5.4976 7.51825 5.49746 7.56506C5.49727 7.64706 5.49742 7.72905 5.49778 7.81105C5.49831 7.93298 5.49833 8.0549 5.49826 8.17683C5.49814 8.38193 5.49843 8.58704 5.49896 8.79215C5.49948 8.99522 5.49982 9.1983 5.49992 9.40137C5.49992 9.414 5.49993 9.42663 5.49993 9.43964C5.49996 9.50377 5.49999 9.5679 5.50002 9.63202C5.5002 10.0862 5.50079 10.5404 5.50163 10.9946C5.50243 11.4359 5.50306 11.8771 5.50343 12.3184C5.50344 12.332 5.50345 12.3456 5.50346 12.3596C5.50358 12.4962 5.50369 12.6328 5.5038 12.7694C5.50402 13.0476 5.50427 13.3259 5.50454 13.6041C5.50455 13.6169 5.50456 13.6297 5.50457 13.6429C5.50538 14.4972 5.50678 15.3515 5.50826 16.2058C5.54102 16.1734 5.57176 16.1418 5.59927 16.1047C5.60574 16.0961 5.61221 16.0874 5.61887 16.0785C5.62568 16.0693 5.63249 16.06 5.63951 16.0505C5.64672 16.0409 5.65393 16.0312 5.66136 16.0212C5.68368 15.9911 5.70593 15.9611 5.72815 15.931C5.73815 15.9175 5.73815 15.9175 5.74835 15.9037C5.80566 15.8261 5.86276 15.7485 5.91974 15.6707C5.98783 15.5778 6.05671 15.4857 6.1267 15.3943C6.17908 15.3259 6.2306 15.2571 6.28022 15.1867C6.31962 15.131 6.36051 15.0764 6.40156 15.0219C6.45621 14.9493 6.51058 14.8765 6.56442 14.8034C6.5739 14.7905 6.5739 14.7905 6.58357 14.7773C6.61521 14.7343 6.6468 14.6913 6.67836 14.6482C6.74645 14.5554 6.81533 14.4632 6.88532 14.3718C6.9377 14.3034 6.98922 14.2346 7.03884 14.1642C7.07824 14.1085 7.11913 14.0539 7.16018 13.9994C7.21483 13.9268 7.2692 13.854 7.32304 13.7809C7.33252 13.768 7.33252 13.768 7.34219 13.7548C7.37383 13.7118 7.40542 13.6688 7.43698 13.6257C7.50507 13.5329 7.57395 13.4407 7.64394 13.3493C7.69632 13.2809 7.74785 13.2122 7.79746 13.1417C7.83686 13.086 7.87775 13.0314 7.9188 12.9769C7.97345 12.9043 8.02782 12.8316 8.08166 12.7584C8.09114 12.7455 8.09114 12.7455 8.10081 12.7324C8.13245 12.6893 8.16404 12.6463 8.1956 12.6032C8.47272 12.2253 8.47272 12.2253 8.58307 12.1101C8.60204 12.09 8.6197 12.0699 8.63718 12.0486C8.67187 12.0072 8.71014 11.9744 8.75164 11.94C8.75734 11.9352 8.76304 11.9304 8.76891 11.9254C8.87122 11.8397 8.97699 11.765 9.09247 11.6981C9.09927 11.6941 9.10607 11.6902 9.11307 11.6861C9.51774 11.4528 9.96409 11.4219 10.4208 11.421C10.4609 11.4209 10.501 11.4208 10.5411 11.4206C10.6186 11.4204 10.6962 11.4202 10.7737 11.42C10.8636 11.4197 10.9534 11.4194 11.0433 11.4191C11.2801 11.4184 11.517 11.4177 11.7538 11.417C12.2833 11.4155 12.8128 11.4139 13.3583 11.4122C13.3583 12.6531 13.3583 13.8939 13.3583 15.1724C13.84 15.176 14.3216 15.1796 14.8179 15.1834C14.9699 15.185 15.122 15.1866 15.2786 15.1882L15.2804 15.1882C15.415 15.1888 15.4156 15.1888 15.5513 15.1891C15.6121 15.1893 15.6728 15.19 15.7335 15.1909C15.8036 15.1921 15.8736 15.1926 15.9437 15.1923C15.9796 15.1922 16.0153 15.1925 16.0512 15.1933C16.1906 15.2016 16.1906 15.2016 16.3176 15.1556C16.3578 15.1157 16.3863 15.0708 16.4118 15.0205C16.4257 14.9966 16.4412 14.9794 16.4599 14.9592C16.507 14.8966 16.5008 14.8307 16.4999 14.7552C16.4999 14.7395 16.5 14.7238 16.5001 14.7082C16.5003 14.6651 16.5001 14.622 16.4998 14.5789C16.4996 14.532 16.4998 14.4852 16.4999 14.4383C16.5 14.3562 16.4999 14.2741 16.4996 14.1919C16.4992 14.0698 16.4992 13.9477 16.4993 13.8255C16.4994 13.6201 16.4991 13.4146 16.4987 13.2092C16.4984 13.0058 16.4981 12.8023 16.498 12.5989C16.498 12.5862 16.498 12.5736 16.498 12.5606C16.498 12.4963 16.498 12.4321 16.498 12.3679C16.4978 11.913 16.4974 11.458 16.4967 11.003C16.4961 10.561 16.4957 10.119 16.4954 9.67703C16.4954 9.66341 16.4954 9.64979 16.4954 9.63575C16.4953 9.49895 16.4952 9.36215 16.4951 9.22535C16.4949 8.94667 16.4948 8.66799 16.4946 8.3893C16.4946 8.37649 16.4945 8.36368 16.4945 8.35047C16.4939 7.49467 16.4929 6.63886 16.4918 5.78305C16.4881 5.78305 16.4845 5.78305 16.4808 5.78305Z" fill="#009C69"/>
<path d="M16.4808 5.78305C16.4706 5.79553 16.4609 5.8084 16.4514 5.82141L16.4329 5.84671L16.4127 5.87445L16.3704 5.93225L16.3485 5.96233C16.3153 6.00779 16.2819 6.05313 16.2485 6.09846L16.2291 6.12478C16.1834 6.18685 16.1372 6.2486 16.0908 6.31023C16.0487 6.3663 16.007 6.42266 15.9654 6.47914L15.9459 6.50569L15.8493 6.63723C15.7812 6.73 15.7124 6.82208 15.6424 6.91343C15.5893 6.98286 15.537 7.05267 15.4866 7.12413C15.4532 7.17135 15.4189 7.21771 15.3841 7.26388C15.3356 7.3282 15.2875 7.39278 15.2398 7.45766L15.2202 7.48419L15.1236 7.61574C15.0556 7.70852 14.9868 7.80059 14.9168 7.89194C14.8644 7.96035 14.8129 8.02911 14.7633 8.09955C14.7239 8.15528 14.683 8.20985 14.6419 8.26438C14.5873 8.33696 14.5329 8.40971 14.4791 8.48289L14.4599 8.50891L14.3651 8.63806C14.2971 8.73089 14.2282 8.82302 14.1582 8.91443C14.1058 8.98284 14.0543 9.0516 14.0047 9.12204C13.9613 9.18338 13.9161 9.24333 13.8709 9.30332L13.862 9.31514C13.8142 9.3787 13.7668 9.44261 13.7198 9.50675C13.5033 9.80084 13.5033 9.80084 13.3964 9.91138L13.3631 9.94621C13.0745 10.252 12.7043 10.4467 12.2946 10.5361L12.2723 10.541C12.0789 10.5798 11.8842 10.5801 11.6878 10.5801L11.5626 10.5805L11.3205 10.5811L11.0399 10.5818C10.8195 10.5824 10.5991 10.5829 10.3787 10.5834L10.3005 10.5835L8.6307 10.5877V6.82753L7.1753 6.8186L6.71566 6.81466L6.44386 6.81389C6.3833 6.81376 6.32275 6.81323 6.26219 6.81244C6.19231 6.81153 6.12245 6.81112 6.05256 6.81132C6.01682 6.8114 5.98112 6.81119 5.94538 6.81049C5.7975 6.80048 5.7975 6.80048 5.66756 6.85619C5.64315 6.8843 5.62551 6.9146 5.60913 6.9481C5.59622 6.97046 5.59622 6.97046 5.57513 6.99554C5.50536 7.07883 5.49572 7.14201 5.49744 7.24863L5.49713 7.29568C5.49686 7.33867 5.49714 7.38165 5.49751 7.42464C5.49781 7.47145 5.4976 7.51825 5.49746 7.56506C5.49727 7.64706 5.49742 7.72905 5.49778 7.81105C5.49831 7.93298 5.49833 8.0549 5.49826 8.17683C5.49814 8.38193 5.49843 8.58704 5.49896 8.79215C5.49948 8.99522 5.49982 9.1983 5.49992 9.40137L5.49993 9.43964L5.50002 9.63202C5.5002 10.0862 5.50079 10.5404 5.50163 10.9946C5.50243 11.4359 5.50306 11.8771 5.50343 12.3184L5.50346 12.3596L5.5038 12.7694L5.50454 13.6041L5.50457 13.6429C5.50538 14.4972 5.50678 15.3515 5.50826 16.2058C5.54102 16.1734 5.57176 16.1418 5.59927 16.1047L5.61887 16.0785L5.63951 16.0505L5.66136 16.0212L5.72815 15.931L5.74835 15.9037C5.80566 15.8261 5.86276 15.7485 5.91974 15.6707C5.98783 15.5778 6.05671 15.4857 6.1267 15.3943C6.17908 15.3259 6.2306 15.2571 6.28022 15.1867C6.31962 15.131 6.36051 15.0764 6.40156 15.0219C6.45621 14.9493 6.51058 14.8765 6.56442 14.8034L6.58357 14.7773L6.67836 14.6482C6.74645 14.5554 6.81533 14.4632 6.88532 14.3718C6.9377 14.3034 6.98922 14.2346 7.03884 14.1642C7.07824 14.1085 7.11913 14.0539 7.16018 13.9994C7.21483 13.9268 7.2692 13.854 7.32304 13.7809L7.34219 13.7548L7.43698 13.6257C7.50507 13.5329 7.57395 13.4407 7.64394 13.3493C7.69632 13.2809 7.74785 13.2122 7.79746 13.1417C7.83686 13.086 7.87775 13.0314 7.9188 12.9769C7.97345 12.9043 8.02782 12.8316 8.08166 12.7584L8.10081 12.7324L8.1956 12.6032C8.47272 12.2253 8.47272 12.2253 8.58307 12.1101C8.60204 12.09 8.6197 12.0699 8.63718 12.0486C8.67187 12.0072 8.71014 11.9744 8.75164 11.94L8.76891 11.9254C8.87122 11.8397 8.97699 11.765 9.09247 11.6981L9.11307 11.6861C9.51774 11.4528 9.96409 11.4219 10.4208 11.421L10.5411 11.4206L10.7737 11.42L11.0433 11.4191L11.7538 11.417L13.3583 11.4122V15.1724L14.8179 15.1834L15.2786 15.1882L15.2804 15.1882C15.415 15.1888 15.4156 15.1888 15.5513 15.1891C15.6121 15.1893 15.6728 15.19 15.7335 15.1909C15.8036 15.1921 15.8736 15.1926 15.9437 15.1923C15.9796 15.1922 16.0153 15.1925 16.0512 15.1933C16.1906 15.2016 16.1906 15.2016 16.3176 15.1556C16.3578 15.1157 16.3863 15.0708 16.4118 15.0205C16.4257 14.9966 16.4412 14.9794 16.4599 14.9592C16.507 14.8966 16.5008 14.8307 16.4999 14.7552L16.5001 14.7082C16.5003 14.6651 16.5001 14.622 16.4998 14.5789C16.4996 14.532 16.4998 14.4852 16.4999 14.4383C16.5 14.3562 16.4999 14.2741 16.4996 14.1919C16.4992 14.0698 16.4992 13.9477 16.4993 13.8255C16.4994 13.6201 16.4991 13.4146 16.4987 13.2092C16.4984 13.0058 16.4981 12.8023 16.498 12.5989L16.498 12.5606L16.498 12.3679C16.4978 11.913 16.4974 11.458 16.4967 11.003C16.4961 10.561 16.4957 10.119 16.4954 9.67703L16.4954 9.63575L16.4951 9.22535L16.4946 8.3893L16.4945 8.35047C16.4939 7.49467 16.4929 6.63886 16.4918 5.78305H16.4808Z" fill="white"/>
</g>
</g>
<defs>
<clipPath id="clip0_33_2520">
<rect width="21.25" height="21.25" fill="white" transform="scale(1.03529)"/>
</clipPath>
</defs>
</svg>
