<svg width="31" height="32" viewBox="0 0 31 32" fill="none" xmlns="http://www.w3.org/2000/svg">
<g filter="url(#filter0_d_33_4310)">
<path d="M22.4956 4.21129C21.3883 2.94926 19.3868 2.4082 16.8263 2.4082H9.39499C9.14165 2.40821 8.89662 2.49859 8.70396 2.6631C8.5113 2.82761 8.38364 3.05544 8.34394 3.30565L5.24967 22.9303C5.18816 23.3172 5.48782 23.6677 5.88004 23.6677H10.4679L11.6201 16.3594L11.5843 16.5883C11.6664 16.0717 12.1082 15.6907 12.6314 15.6907H14.8116C19.0944 15.6907 22.448 13.9511 23.4276 8.9188C23.4567 8.76997 23.4819 8.62511 23.5036 8.48359C23.38 8.41811 23.38 8.41811 23.5036 8.48359C23.7953 6.62361 23.5016 5.35753 22.4956 4.21129Z" fill="#27346A"/>
<path d="M13.3756 7.81356C13.501 7.75384 13.6382 7.72289 13.7771 7.72297H19.6031C20.293 7.72297 20.9365 7.76787 21.5245 7.86251C21.6891 7.88875 21.8528 7.92007 22.0154 7.95643C22.2458 8.00729 22.4737 8.06953 22.698 8.14293C22.987 8.23948 23.2563 8.35192 23.5037 8.48359C23.7953 6.62289 23.5016 5.35753 22.4956 4.21129C21.3877 2.94926 19.3868 2.4082 16.8263 2.4082H9.39435C8.87109 2.4082 8.42594 2.78915 8.34394 3.30565L5.24967 22.9296C5.18816 23.3172 5.48782 23.6671 5.87941 23.6671H10.4679L12.8584 8.50806C12.8819 8.35906 12.9412 8.218 13.0313 8.09702C13.1214 7.97604 13.2396 7.87877 13.3756 7.81356Z" fill="#27346A"/>
<path d="M23.4275 8.91861C22.4479 13.9502 19.0945 15.6905 14.8115 15.6905H12.6307C12.1076 15.6905 11.6657 16.0715 11.5844 16.5881L10.151 25.675C10.0974 26.0137 10.3593 26.3206 10.7019 26.3206H14.5694C14.7909 26.3205 15.0052 26.2414 15.1736 26.0975C15.342 25.9536 15.4536 25.7543 15.4882 25.5355L15.5259 25.3384L16.2548 20.7188L16.3017 20.4635C16.3364 20.2447 16.4479 20.0454 16.6163 19.9015C16.7847 19.7576 16.999 19.6785 17.2205 19.6784H17.7993C21.5457 19.6784 24.4792 18.1564 25.3365 13.7545C25.6943 11.9149 25.5091 10.3791 24.5626 9.30027C24.2755 8.97352 23.9189 8.70367 23.5036 8.4834C23.4811 8.62564 23.4567 8.76978 23.4275 8.91861Z" fill="#2790C3"/>
<path d="M22.4784 8.0746C22.3257 8.03 22.1715 7.99051 22.0161 7.9562C21.8534 7.92043 21.6897 7.88932 21.5252 7.86291C20.9366 7.76763 20.2936 7.72266 19.603 7.72266H13.7777C13.6387 7.72234 13.5014 7.75356 13.3762 7.81396C13.24 7.87897 13.1218 7.97619 13.0316 8.0972C12.9415 8.21821 12.8822 8.35938 12.8589 8.50846L11.6207 16.3592L11.585 16.5881C11.6664 16.0715 12.1082 15.6904 12.6315 15.6904H14.8123C19.0951 15.6904 22.4486 13.9509 23.4282 8.91857C23.4574 8.76974 23.4818 8.62551 23.5043 8.48335C23.2563 8.3524 22.9878 8.23924 22.6986 8.14333C22.6256 8.11914 22.5522 8.09623 22.4785 8.0746" fill="#1F264F"/>
</g>
<defs>
<filter id="filter0_d_33_4310" x="-2.86102e-05" y="-0.000130415" width="30.7479" height="34.3959" filterUnits="userSpaceOnUse" color-interpolation-filters="sRGB">
<feFlood flood-opacity="0" result="BackgroundImageFix"/>
<feColorMatrix in="SourceAlpha" type="matrix" values="0 0 0 0 0 0 0 0 0 0 0 0 0 0 0 0 0 0 127 0" result="hardAlpha"/>
<feOffset dy="2.83333"/>
<feGaussianBlur stdDeviation="2.62083"/>
<feComposite in2="hardAlpha" operator="out"/>
<feColorMatrix type="matrix" values="0 0 0 0 0.0196078 0 0 0 0 0.0196078 0 0 0 0 0.0784314 0 0 0 0.1 0"/>
<feBlend mode="normal" in2="BackgroundImageFix" result="effect1_dropShadow_33_4310"/>
<feBlend mode="normal" in="SourceGraphic" in2="effect1_dropShadow_33_4310" result="shape"/>
</filter>
</defs>
</svg>
