<svg width="24" height="24" viewBox="0 0 24 24" fill="none" xmlns="http://www.w3.org/2000/svg">
<g id="Camera">
<path id="Vector" d="M10.5 12.5C10.5 11.6716 11.1716 11 12 11M16 12.5C16 14.7091 14.2091 16.5 12 16.5C9.79086 16.5 8 14.7091 8 12.5C8 10.2909 9.79086 8.5 12 8.5C14.2091 8.5 16 10.2909 16 12.5ZM8.29289 6.70711L9.70711 5.29289C9.89464 5.10536 10.149 5 10.4142 5H13.5858C13.851 5 14.1054 5.10536 14.2929 5.29289L15.7071 6.70711C15.8946 6.89464 16.149 7 16.4142 7H18C19.6569 7 21 8.34315 21 10V16C21 17.6569 19.6569 19 18 19H6C4.34315 19 3 17.6569 3 16V10C3 8.34315 4.34315 7 6 7H7.58579C7.851 7 8.10536 6.89464 8.29289 6.70711Z" stroke="#0F172A" stroke-width="1.5" stroke-linecap="round" stroke-linejoin="round"/>
</g>
</svg>
