<svg width="402" height="874" viewBox="0 0 402 874" fill="none" xmlns="http://www.w3.org/2000/svg">
<g id="Chat">
<g clip-path="url(#clip0_33_3367)">
<rect width="402" height="874" rx="8" fill="#F8FAFC"/>
<g id="Frame 1">
<g id="Search">
<g id="Input">
<g id="Content">
<g id="Input_2">
<path d="M44 69.5H302C314.979 69.5 325.5 80.0213 325.5 93C325.5 105.979 314.979 116.5 302 116.5H44C31.0213 116.5 20.5 105.979 20.5 93C20.5 80.0213 31.0213 69.5 44 69.5Z" fill="white"/>
<path d="M44 69.5H302C314.979 69.5 325.5 80.0213 325.5 93C325.5 105.979 314.979 116.5 302 116.5H44C31.0213 116.5 20.5 105.979 20.5 93C20.5 80.0213 31.0213 69.5 44 69.5Z" stroke="#E2E8F0"/>
<g id="Search Check">
<path id="Vector" d="M51.25 101.25L47.7438 97.7437M42.3817 84.75C38.1736 84.75 34.75 88.0801 34.75 92.1746C34.75 96.269 38.1736 99.6 42.3817 99.6C46.5889 99.6 50.0125 96.269 50.0125 92.1746C50.0125 88.0801 46.5889 84.75 42.3817 84.75Z" stroke="#94A3B8" stroke-width="1.375" stroke-linecap="round" stroke-linejoin="round"/>
</g>
<path id="Search_2" d="M64.368 90.776C64.368 93.848 71.04 91.464 71.04 95.928C71.04 98.024 69.344 99.192 67.024 99.192C64.688 99.192 63.088 98.12 62.608 95.928H64.144C64.496 97.224 65.472 97.928 67.04 97.928C68.672 97.928 69.536 97.208 69.536 96.12C69.536 92.792 62.864 95.272 62.864 90.872C62.864 89.304 64.176 87.928 66.576 87.928C68.672 87.928 70.352 88.936 70.752 91.256H69.2C68.864 89.816 67.936 89.192 66.544 89.192C65.168 89.192 64.368 89.816 64.368 90.776ZM79.9246 96.232C79.4606 98.216 78.0366 99.192 76.1006 99.192C73.6366 99.192 72.1486 97.528 72.1486 94.76C72.1486 91.88 73.6366 90.296 76.0206 90.296C78.4206 90.296 79.8606 91.944 79.8606 94.648V95H73.5886C73.6686 96.904 74.5646 97.976 76.1006 97.976C77.3006 97.976 78.1486 97.4 78.4526 96.232H79.9246ZM76.0206 91.512C74.6606 91.512 73.8446 92.36 73.6366 93.944H78.3886C78.1966 92.376 77.3486 91.512 76.0206 91.512ZM82.8529 93.272H81.4449C81.7169 91.4 82.9489 90.296 85.0289 90.296C87.3009 90.296 88.4049 91.624 88.4049 93.608V96.952C88.4049 97.928 88.4849 98.536 88.7089 99H87.2209C87.0609 98.664 87.0129 98.168 86.9969 97.656C86.2769 98.728 85.1249 99.192 84.1009 99.192C82.3409 99.192 81.1569 98.376 81.1569 96.76C81.1569 95.592 81.7969 94.744 83.0449 94.328C84.1969 93.944 85.3649 93.848 86.9969 93.832V93.64C86.9969 92.264 86.3569 91.512 84.9009 91.512C83.6849 91.512 83.0289 92.184 82.8529 93.272ZM82.5969 96.728C82.5969 97.512 83.2529 97.976 84.2449 97.976C85.8129 97.976 86.9969 96.744 86.9969 95.288V94.888C83.3809 94.92 82.5969 95.688 82.5969 96.728ZM90.5331 99V90.504H91.9411V91.816C92.5171 90.776 93.4291 90.296 94.4531 90.296C94.7891 90.296 95.0931 90.376 95.2531 90.504V91.768C95.0131 91.688 94.7091 91.656 94.3731 91.656C92.6771 91.656 91.9411 92.712 91.9411 94.248V99H90.5331ZM103.19 93.432H101.782C101.558 92.136 100.694 91.512 99.5736 91.512C98.0056 91.512 97.1736 92.664 97.1736 94.76C97.1736 96.824 98.0536 97.992 99.6216 97.992C100.758 97.992 101.574 97.384 101.846 96.168H103.254C102.87 98.28 101.446 99.192 99.5896 99.192C97.1736 99.192 95.7336 97.512 95.7336 94.76C95.7336 91.88 97.2056 90.296 99.5736 90.296C101.446 90.296 102.918 91.352 103.19 93.432ZM104.814 99V87.48H106.222V91.656C106.798 90.76 107.726 90.296 108.846 90.296C110.654 90.296 111.726 91.352 111.726 93.32V99H110.318V93.608C110.318 92.328 109.742 91.496 108.462 91.496C107.054 91.496 106.222 92.76 106.222 93.976V99H104.814Z" fill="#94A3B8"/>
</g>
</g>
</g>
<g id="Frame 25">
<g id="Frame 4" filter="url(#filter0_d_33_3367)">
<path d="M334 93C334 79.7452 344.745 69 358 69C371.255 69 382 79.7452 382 93C382 106.255 371.255 117 358 117C344.745 117 334 106.255 334 93Z" fill="white"/>
<g id="Bell">
<path id="Vector_2" d="M366.794 97.4944C366.273 96.5981 365.5 94.0622 365.5 90.75C365.5 88.7609 364.71 86.8532 363.303 85.4467C361.897 84.0402 359.989 83.25 358 83.25C356.011 83.25 354.103 84.0402 352.697 85.4467C351.29 86.8532 350.5 88.7609 350.5 90.75C350.5 94.0631 349.726 96.5981 349.205 97.4944C349.072 97.7222 349.002 97.9811 349.001 98.2449C349 98.5086 349.069 98.768 349.2 98.9967C349.331 99.2255 349.521 99.4156 349.749 99.5478C349.977 99.6801 350.236 99.7498 350.5 99.75H354.326C354.499 100.597 354.959 101.358 355.629 101.904C356.298 102.451 357.136 102.749 358 102.749C358.864 102.749 359.702 102.451 360.371 101.904C361.041 101.358 361.501 100.597 361.674 99.75H365.5C365.764 99.7496 366.023 99.6798 366.251 99.5475C366.479 99.4151 366.668 99.225 366.799 98.9963C366.93 98.7676 366.999 98.5083 366.998 98.2446C366.997 97.9809 366.927 97.7222 366.794 97.4944ZM358 101.25C357.535 101.25 357.081 101.106 356.701 100.837C356.322 100.568 356.034 100.189 355.879 99.75H360.121C359.966 100.189 359.678 100.568 359.299 100.837C358.919 101.106 358.465 101.25 358 101.25ZM350.5 98.25C351.222 97.0087 352 94.1325 352 90.75C352 89.1587 352.632 87.6326 353.757 86.5074C354.883 85.3821 356.409 84.75 358 84.75C359.591 84.75 361.117 85.3821 362.243 86.5074C363.368 87.6326 364 89.1587 364 90.75C364 94.1297 364.776 97.0059 365.5 98.25H350.5Z" fill="#0F172A"/>
</g>
</g>
</g>
</g>
<g id="Filter">
<g id="Frame 127">
<g id="Pill" filter="url(#filter1_ddi_33_3367)">
<rect x="20" y="137" width="49" height="34" rx="17" fill="#D3F8DF" shape-rendering="crispEdges"/>
<rect x="19.5" y="136.5" width="50" height="35" rx="17.5" stroke="#10B981" stroke-opacity="0.5" shape-rendering="crispEdges"/>
<g id="All" filter="url(#filter2_d_33_3367)">
<path d="M43.864 160L42.936 157.552H37.976L37.048 160H35.256L39.448 149.12H41.544L45.736 160H43.864ZM40.136 151.904L38.52 156.144H42.392L40.776 151.904L40.456 150.848L40.136 151.904ZM46.8756 160V148.48H48.5876V160H46.8756ZM50.4769 160V148.48H52.1889V160H50.4769Z" fill="#10B981"/>
</g>
</g>
<g id="Frame 125">
<path d="M92 137.5H141C150.113 137.5 157.5 144.887 157.5 154C157.5 163.113 150.113 170.5 141 170.5H92C82.8873 170.5 75.5 163.113 75.5 154C75.5 144.887 82.8873 137.5 92 137.5Z" fill="white"/>
<path d="M92 137.5H141C150.113 137.5 157.5 144.887 157.5 154C157.5 163.113 150.113 170.5 141 170.5H92C82.8873 170.5 75.5 163.113 75.5 154C75.5 144.887 82.8873 137.5 92 137.5Z" stroke="#E2E8F0"/>
<path id="Unread" d="M100.047 155.856C100.047 158.544 98.3831 160.192 95.7111 160.192C93.0231 160.192 91.3591 158.544 91.3591 155.856V149.12H92.8471V155.856C92.8471 157.824 93.9191 159.008 95.7111 159.008C97.5031 159.008 98.5751 157.808 98.5751 155.856V149.12H100.047V155.856ZM102.101 160V151.504H103.509V152.656C104.085 151.76 105.013 151.296 106.133 151.296C107.941 151.296 109.013 152.352 109.013 154.32V160H107.605V154.608C107.605 153.328 107.029 152.496 105.749 152.496C104.341 152.496 103.509 153.76 103.509 154.976V160H102.101ZM111.077 160V151.504H112.485V152.816C113.061 151.776 113.973 151.296 114.997 151.296C115.333 151.296 115.637 151.376 115.797 151.504V152.768C115.557 152.688 115.253 152.656 114.917 152.656C113.221 152.656 112.485 153.712 112.485 155.248V160H111.077ZM124.054 157.232C123.59 159.216 122.166 160.192 120.23 160.192C117.766 160.192 116.278 158.528 116.278 155.76C116.278 152.88 117.766 151.296 120.15 151.296C122.55 151.296 123.99 152.944 123.99 155.648V156H117.718C117.798 157.904 118.694 158.976 120.23 158.976C121.43 158.976 122.278 158.4 122.582 157.232H124.054ZM120.15 152.512C118.79 152.512 117.974 153.36 117.766 154.944H122.518C122.326 153.376 121.478 152.512 120.15 152.512ZM126.982 154.272H125.574C125.846 152.4 127.078 151.296 129.158 151.296C131.43 151.296 132.534 152.624 132.534 154.608V157.952C132.534 158.928 132.614 159.536 132.838 160H131.35C131.19 159.664 131.142 159.168 131.126 158.656C130.406 159.728 129.254 160.192 128.23 160.192C126.47 160.192 125.286 159.376 125.286 157.76C125.286 156.592 125.926 155.744 127.174 155.328C128.326 154.944 129.494 154.848 131.126 154.832V154.64C131.126 153.264 130.486 152.512 129.03 152.512C127.814 152.512 127.158 153.184 126.982 154.272ZM126.726 157.728C126.726 158.512 127.382 158.976 128.374 158.976C129.942 158.976 131.126 157.744 131.126 156.288V155.888C127.51 155.92 126.726 156.688 126.726 157.728ZM137.846 160.192C135.59 160.192 134.23 158.528 134.23 155.76C134.23 152.88 135.622 151.296 137.846 151.296C138.854 151.296 139.67 151.712 140.23 152.496V148.48H141.638V160H140.23V158.928C139.67 159.728 138.854 160.192 137.846 160.192ZM137.942 158.976C139.43 158.976 140.23 157.84 140.23 155.76C140.23 153.696 139.398 152.512 137.942 152.512C136.47 152.512 135.67 153.664 135.67 155.76C135.67 157.808 136.502 158.976 137.942 158.976Z" fill="#475569"/>
</g>
<g id="Frame 126">
<path d="M181 137.5H241C250.113 137.5 257.5 144.887 257.5 154C257.5 163.113 250.113 170.5 241 170.5H181C171.887 170.5 164.5 163.113 164.5 154C164.5 144.887 171.887 137.5 181 137.5Z" fill="white"/>
<path d="M181 137.5H241C250.113 137.5 257.5 144.887 257.5 154C257.5 163.113 250.113 170.5 241 170.5H181C171.887 170.5 164.5 163.113 164.5 154C164.5 144.887 171.887 137.5 181 137.5Z" stroke="#E2E8F0"/>
<path id="Archived" d="M188.209 160L187.185 157.392H181.969L180.945 160H179.489L183.761 149.12H185.457L189.745 160H188.209ZM184.257 151.504L182.417 156.208H186.737L184.897 151.504L184.577 150.544L184.257 151.504ZM191 160V151.504H192.408V152.816C192.984 151.776 193.896 151.296 194.92 151.296C195.256 151.296 195.56 151.376 195.72 151.504V152.768C195.48 152.688 195.176 152.656 194.84 152.656C193.144 152.656 192.408 153.712 192.408 155.248V160H191ZM203.656 154.432H202.248C202.024 153.136 201.16 152.512 200.04 152.512C198.472 152.512 197.64 153.664 197.64 155.76C197.64 157.824 198.52 158.992 200.088 158.992C201.224 158.992 202.04 158.384 202.312 157.168H203.72C203.336 159.28 201.912 160.192 200.056 160.192C197.64 160.192 196.2 158.512 196.2 155.76C196.2 152.88 197.672 151.296 200.04 151.296C201.912 151.296 203.384 152.352 203.656 154.432ZM205.28 160V148.48H206.688V152.656C207.264 151.76 208.192 151.296 209.312 151.296C211.12 151.296 212.192 152.352 212.192 154.32V160H210.784V154.608C210.784 153.328 210.208 152.496 208.928 152.496C207.52 152.496 206.688 153.76 206.688 154.976V160H205.28ZM214.257 150.368V148.48H215.665V150.368H214.257ZM214.257 160V151.504H215.665V160H214.257ZM219.845 160L216.677 151.504H218.197L220.549 158.096L220.757 158.832L220.965 158.096L223.317 151.504H224.741L221.573 160H219.845ZM233.1 157.232C232.636 159.216 231.212 160.192 229.276 160.192C226.812 160.192 225.324 158.528 225.324 155.76C225.324 152.88 226.812 151.296 229.196 151.296C231.596 151.296 233.036 152.944 233.036 155.648V156H226.764C226.844 157.904 227.74 158.976 229.276 158.976C230.476 158.976 231.324 158.4 231.628 157.232H233.1ZM229.196 152.512C227.836 152.512 227.02 153.36 226.812 154.944H231.564C231.372 153.376 230.524 152.512 229.196 152.512ZM237.916 160.192C235.66 160.192 234.3 158.528 234.3 155.76C234.3 152.88 235.692 151.296 237.916 151.296C238.924 151.296 239.74 151.712 240.3 152.496V148.48H241.708V160H240.3V158.928C239.74 159.728 238.924 160.192 237.916 160.192ZM238.012 158.976C239.5 158.976 240.3 157.84 240.3 155.76C240.3 153.696 239.468 152.512 238.012 152.512C236.54 152.512 235.74 153.664 235.74 155.76C235.74 157.808 236.572 158.976 238.012 158.976Z" fill="#475569"/>
</g>
<g id="Frame 127_2">
<path d="M281 137.5H323C332.113 137.5 339.5 144.887 339.5 154C339.5 163.113 332.113 170.5 323 170.5H281C271.887 170.5 264.5 163.113 264.5 154C264.5 144.887 271.887 137.5 281 137.5Z" fill="white"/>
<path d="M281 137.5H323C332.113 137.5 339.5 144.887 339.5 154C339.5 163.113 332.113 170.5 323 170.5H281C271.887 170.5 264.5 163.113 264.5 154C264.5 144.887 271.887 137.5 281 137.5Z" stroke="#E2E8F0"/>
<path id="Muted" d="M280.569 160V149.12H282.601L285.945 157.104L286.265 158.08L286.601 157.104L289.929 149.12H291.897V160H290.425V150.896L289.657 153.04L286.745 160H285.705L282.793 153.024L282.041 150.944V160H280.569ZM299.497 156.528V151.504H300.905V160H299.497V158.848C298.921 159.744 298.025 160.192 296.921 160.192C295.145 160.192 294.089 159.152 294.089 157.184V151.504H295.497V156.896C295.497 158.176 296.057 158.992 297.305 158.992C298.681 158.992 299.497 157.744 299.497 156.528ZM303.164 157.552V152.624H301.98V151.504H303.164V149.552H304.572V151.504H306.444V152.624H304.572V157.552C304.572 158.576 304.876 159.056 306.124 159.056H306.412V160.064C306.252 160.144 305.9 160.192 305.5 160.192C303.916 160.192 303.164 159.344 303.164 157.552ZM314.948 157.232C314.484 159.216 313.06 160.192 311.124 160.192C308.66 160.192 307.172 158.528 307.172 155.76C307.172 152.88 308.66 151.296 311.044 151.296C313.444 151.296 314.884 152.944 314.884 155.648V156H308.612C308.692 157.904 309.588 158.976 311.124 158.976C312.324 158.976 313.172 158.4 313.476 157.232H314.948ZM311.044 152.512C309.684 152.512 308.868 153.36 308.66 154.944H313.412C313.22 153.376 312.372 152.512 311.044 152.512ZM319.764 160.192C317.508 160.192 316.148 158.528 316.148 155.76C316.148 152.88 317.54 151.296 319.764 151.296C320.772 151.296 321.588 151.712 322.148 152.496V148.48H323.556V160H322.148V158.928C321.588 159.728 320.772 160.192 319.764 160.192ZM319.86 158.976C321.348 158.976 322.148 157.84 322.148 155.76C322.148 153.696 321.316 152.512 319.86 152.512C318.388 152.512 317.588 153.664 317.588 155.76C317.588 157.808 318.42 158.976 319.86 158.976Z" fill="#475569"/>
</g>
</g>
</g>
</g>
<g id="StatusBar">
<g id="Left Side">
<g id="_StatusBar-time">
<path id="&#226;&#156;&#143;&#239;&#184;&#143; Time" d="M63.2023 22.7045C63.7591 22.7083 64.3008 22.8068 64.8273 23C65.3576 23.1894 65.8349 23.5 66.2591 23.9318C66.6834 24.3598 67.0205 24.9337 67.2705 25.6534C67.5205 26.3731 67.6455 27.2633 67.6455 28.3239C67.6493 29.3239 67.5432 30.2178 67.3273 31.0057C67.1152 31.7898 66.8103 32.4527 66.4125 32.9943C66.0148 33.536 65.5356 33.9489 64.975 34.233C64.4144 34.517 63.7837 34.6591 63.083 34.6591C62.3481 34.6591 61.6966 34.5152 61.1284 34.2273C60.564 33.9394 60.1076 33.5455 59.7591 33.0455C59.4106 32.5455 59.1966 31.9735 59.1171 31.3295H61.1909C61.297 31.7917 61.5129 32.1591 61.8387 32.4318C62.1682 32.7008 62.583 32.8352 63.083 32.8352C63.8898 32.8352 64.511 32.4848 64.9466 31.7841C65.3822 31.0833 65.6 30.1098 65.6 28.8636H65.5205C65.3349 29.197 65.0943 29.4848 64.7989 29.7273C64.5034 29.9659 64.1682 30.1496 63.7932 30.2784C63.422 30.4072 63.0281 30.4716 62.6114 30.4716C61.9296 30.4716 61.3159 30.3087 60.7705 29.983C60.2288 29.6572 59.7989 29.2102 59.4807 28.642C59.1663 28.0739 59.0072 27.4242 59.0034 26.6932C59.0034 25.9356 59.1777 25.2557 59.5262 24.6534C59.8784 24.0473 60.369 23.5701 60.9978 23.2216C61.6265 22.8693 62.3614 22.697 63.2023 22.7045ZM63.208 24.4091C62.7989 24.4091 62.4296 24.5095 62.1 24.7102C61.7743 24.9072 61.5167 25.1761 61.3273 25.517C61.1417 25.8542 61.0489 26.2311 61.0489 26.6477C61.0527 27.0606 61.1455 27.4356 61.3273 27.7727C61.5129 28.1098 61.7648 28.3769 62.083 28.5739C62.405 28.7708 62.7724 28.8693 63.1853 28.8693C63.4921 28.8693 63.7781 28.8106 64.0432 28.6932C64.3084 28.5758 64.5394 28.4129 64.7364 28.2045C64.9371 27.9924 65.0925 27.7519 65.2023 27.483C65.3159 27.214 65.3709 26.9299 65.3671 26.6307C65.3671 26.233 65.2724 25.8655 65.083 25.5284C64.8974 25.1913 64.6417 24.9205 64.3159 24.7159C63.994 24.5114 63.6246 24.4091 63.208 24.4091ZM70.5073 33.1023C70.1626 33.1023 69.8671 32.9811 69.6209 32.7386C69.3747 32.4924 69.2535 32.197 69.2573 31.8523C69.2535 31.5114 69.3747 31.2197 69.6209 30.9773C69.8671 30.7348 70.1626 30.6136 70.5073 30.6136C70.8406 30.6136 71.1304 30.7348 71.3766 30.9773C71.6266 31.2197 71.7535 31.5114 71.7573 31.8523C71.7535 32.0833 71.6929 32.2936 71.5755 32.483C71.4618 32.6723 71.3103 32.8239 71.1209 32.9375C70.9353 33.0473 70.7308 33.1023 70.5073 33.1023ZM70.5073 27.3352C70.1626 27.3352 69.8671 27.214 69.6209 26.9716C69.3747 26.7254 69.2535 26.4299 69.2573 26.0852C69.2535 25.7443 69.3747 25.4527 69.6209 25.2102C69.8671 24.964 70.1626 24.8409 70.5073 24.8409C70.8406 24.8409 71.1304 24.964 71.3766 25.2102C71.6266 25.4527 71.7535 25.7443 71.7573 26.0852C71.7535 26.3125 71.6929 26.5208 71.5755 26.7102C71.4618 26.8996 71.3103 27.0511 71.1209 27.1648C70.9353 27.2784 70.7308 27.3352 70.5073 27.3352ZM73.3279 32.3409V30.6648L78.2654 22.8636H79.6632V25.25H78.8109L75.487 30.517V30.608H82.3791V32.3409H73.3279ZM78.8791 34.5V31.8295L78.9018 31.0795V22.8636H80.8904V34.5H78.8791ZM88.4511 22.8636V34.5H86.3432V24.9148H86.275L83.5534 26.6534V24.7216L86.4454 22.8636H88.4511Z" fill="black"/>
</g>
</g>
<g id="Dynamic Island">
<g id="StatusBar-dynamicIsland">
<rect x="138.5" y="11" width="125" height="37" rx="18.5" fill="black"/>
<g id="TrueDepth camera">
<rect x="138.5" y="11" width="80" height="37" rx="18.5" fill="black"/>
</g>
<g id="FaceTime camera">
<rect x="226.5" y="11" width="37" height="37" rx="18.5" fill="black"/>
</g>
</g>
</g>
<g id="Right Side">
<g id="Signal, Wifi, Battery">
<g id="Icon / Mobile Signal">
<path d="M298.049 26C298.049 25.4477 298.497 25 299.049 25H300.049C300.602 25 301.049 25.4477 301.049 26V34C301.049 34.5523 300.602 35 300.049 35H299.049C298.497 35 298.049 34.5523 298.049 34V26Z" fill="black"/>
<path d="M303.049 24C303.049 23.4477 303.497 23 304.049 23H305.049C305.602 23 306.049 23.4477 306.049 24V34C306.049 34.5523 305.602 35 305.049 35H304.049C303.497 35 303.049 34.5523 303.049 34V24Z" fill="black"/>
<path d="M293.049 29.5C293.049 28.9477 293.497 28.5 294.049 28.5H295.049C295.602 28.5 296.049 28.9477 296.049 29.5V34C296.049 34.5523 295.602 35 295.049 35H294.049C293.497 35 293.049 34.5523 293.049 34V29.5Z" fill="black"/>
<path d="M288.049 32C288.049 31.4477 288.497 31 289.049 31H290.049C290.602 31 291.049 31.4477 291.049 32V34C291.049 34.5523 290.602 35 290.049 35H289.049C288.497 35 288.049 34.5523 288.049 34V32Z" fill="black"/>
</g>
<path id="Wifi" d="M320.165 31.9189C321.584 30.6934 323.664 30.6935 325.084 31.9189C325.155 31.9849 325.197 32.0785 325.199 32.1768C325.201 32.275 325.163 32.3696 325.094 32.4385L322.871 34.7285C322.806 34.7958 322.717 34.8339 322.625 34.834C322.532 34.834 322.443 34.7958 322.378 34.7285L320.154 32.4385C320.085 32.3696 320.047 32.275 320.049 32.1768C320.051 32.0785 320.093 31.9848 320.165 31.9189ZM317.159 29.1787C320.218 26.2741 324.955 26.2741 328.014 29.1787C328.083 29.2468 328.123 29.3405 328.124 29.4385C328.125 29.5364 328.087 29.6308 328.019 29.7002L326.734 31.0254C326.602 31.1607 326.387 31.164 326.252 31.0322C325.247 30.1038 323.941 29.5898 322.586 29.5898C321.231 29.5904 319.925 30.1043 318.922 31.0322C318.786 31.164 318.572 31.1607 318.439 31.0254L317.154 29.7002C317.086 29.6308 317.049 29.5364 317.049 29.4385C317.05 29.3405 317.09 29.2468 317.159 29.1787ZM314.157 26.4424C318.849 21.8528 326.25 21.8528 330.942 26.4424C331.01 26.5106 331.049 26.6039 331.049 26.7012C331.05 26.7983 331.012 26.892 330.945 26.9609L329.659 28.2861C329.526 28.4221 329.311 28.4238 329.176 28.29C327.389 26.5553 325.016 25.588 322.549 25.5879C320.083 25.588 317.71 26.5553 315.922 28.29C315.788 28.4239 315.572 28.4223 315.44 28.2861L314.153 26.9609C314.086 26.892 314.049 26.7982 314.049 26.7012C314.05 26.6039 314.089 26.5105 314.157 26.4424Z" fill="black"/>
<g id="_StatusBar-battery">
<path id="Outline" opacity="0.35" d="M343.049 23.5H360.049C361.982 23.5 363.549 25.067 363.549 27V32C363.549 33.933 361.982 35.5 360.049 35.5H343.049C341.116 35.5 339.549 33.933 339.549 32V27C339.549 25.067 341.116 23.5 343.049 23.5Z" stroke="black"/>
<path id="Battery End" opacity="0.4" d="M365.049 28V32.2203C365.898 31.8629 366.451 31.0314 366.451 30.1102C366.451 29.1889 365.898 28.3574 365.049 28Z" fill="black"/>
<path id="Fill" d="M341.049 27C341.049 25.8954 341.945 25 343.049 25H360.049C361.154 25 362.049 25.8954 362.049 27V32C362.049 33.1046 361.154 34 360.049 34H343.049C341.945 34 341.049 33.1046 341.049 32V27Z" fill="black"/>
</g>
</g>
</g>
</g>
<g id="Navbar">
<g id="Blur bg">
<rect width="402" height="100" transform="translate(0 774)" fill="#F1F1F1" fill-opacity="0.01"/>
</g>
<g id="Navbar-Glass" filter="url(#filter4_d_33_3367)">
<rect x="20" y="790" width="362" height="64" rx="32" fill="black" fill-opacity="0.01" shape-rendering="crispEdges"/>
<g id="Frame 20">
<g id="Home">
<path id="Vector_3" fill-rule="evenodd" clip-rule="evenodd" d="M63.9427 813.991C65.5782 812.847 67.7551 812.847 69.3906 813.991L74.3906 817.491C75.6604 818.38 76.4166 819.833 76.4166 821.383V827C76.4166 829.624 74.29 831.75 71.6666 831.75H61.6666C59.0433 831.75 56.9166 829.624 56.9166 827V821.383C56.9166 819.833 57.6729 818.38 58.9427 817.491L63.9427 813.991ZM63.6666 826.25C63.2524 826.25 62.9166 826.586 62.9166 827C62.9166 827.414 63.2524 827.75 63.6666 827.75H69.6666C70.0808 827.75 70.4166 827.414 70.4166 827C70.4166 826.586 70.0808 826.25 69.6666 826.25H63.6666Z" fill="#64748B"/>
</g>
</g>
<g id="Frame 23">
<g id="Briefcase">
<g id="Vector_4">
<path fill-rule="evenodd" clip-rule="evenodd" d="M149.75 816.25V815C149.75 813.481 148.519 812.25 147 812.25H141C139.481 812.25 138.25 813.481 138.25 815V816.25H137C135.481 816.25 134.25 817.481 134.25 819V821.564L138.935 822.841C139.725 823.057 140.525 823.221 141.331 823.334C141.629 822.137 142.711 821.25 144 821.25C145.289 821.25 146.371 822.137 146.669 823.334C147.475 823.221 148.275 823.057 149.065 822.841L153.75 821.564V819C153.75 817.481 152.519 816.25 151 816.25H149.75ZM139.75 816.25V815C139.75 814.31 140.31 813.75 141 813.75H147C147.69 813.75 148.25 814.31 148.25 815V816.25H139.75Z" fill="#64748B"/>
<path d="M153.75 823.118V829C153.75 830.519 152.519 831.75 151 831.75H137C135.481 831.75 134.25 830.519 134.25 829V823.118L138.54 824.288C139.478 824.544 140.428 824.733 141.385 824.854C141.745 825.955 142.779 826.75 144 826.75C145.221 826.75 146.255 825.955 146.615 824.854C147.572 824.733 148.522 824.544 149.46 824.288L153.75 823.118Z" fill="#64748B"/>
</g>
</g>
</g>
<g id="Frame 15" filter="url(#filter5_ddiii_33_3367)">
<g clip-path="url(#clip1_33_3367)">
<rect x="182.667" y="798" width="114" height="48" rx="24" fill="url(#paint0_radial_33_3367)" fill-opacity="0.75" shape-rendering="crispEdges"/>
<g id="Navbar/Type5">
<g id="Vector_5" filter="url(#filter6_dd_33_3367)">
<path fill-rule="evenodd" clip-rule="evenodd" d="M227.917 822C227.916 820.734 227.625 819.486 227.065 818.351C226.505 817.216 225.691 816.226 224.687 815.455C223.683 814.685 222.515 814.157 221.273 813.91C220.032 813.664 218.751 813.706 217.528 814.034C216.306 814.362 215.176 814.967 214.225 815.802C213.273 816.636 212.527 817.679 212.043 818.848C211.56 820.018 211.351 821.283 211.435 822.545C211.518 823.808 211.891 825.035 212.524 826.131C212.577 826.223 212.61 826.325 212.621 826.43C212.631 826.536 212.619 826.643 212.586 826.744L211.417 830.25L214.923 829.081C214.999 829.055 215.079 829.042 215.16 829.041C215.292 829.042 215.421 829.077 215.535 829.143C216.789 829.868 218.212 830.251 219.661 830.252C221.11 830.253 222.534 829.872 223.789 829.148C225.044 828.424 226.087 827.382 226.811 826.127C227.536 824.872 227.917 823.449 227.917 822ZM220.602 822.625C220.726 822.44 220.792 822.222 220.792 822C220.792 821.702 220.673 821.415 220.462 821.204C220.251 820.993 219.965 820.875 219.667 820.875C219.444 820.875 219.227 820.941 219.042 821.065C218.857 821.188 218.712 821.364 218.627 821.569C218.542 821.775 218.52 822.001 218.563 822.219C218.607 822.438 218.714 822.638 218.871 822.795C219.028 822.953 219.229 823.06 219.447 823.103C219.665 823.147 219.892 823.124 220.097 823.039C220.303 822.954 220.478 822.81 220.602 822.625ZM214.917 821.065C215.102 820.941 215.319 820.875 215.542 820.875C215.84 820.875 216.126 820.993 216.337 821.204C216.548 821.415 216.667 821.702 216.667 822C216.667 822.222 216.601 822.44 216.477 822.625C216.353 822.81 216.178 822.954 215.972 823.039C215.767 823.124 215.54 823.147 215.322 823.103C215.104 823.06 214.903 822.953 214.746 822.795C214.589 822.638 214.482 822.438 214.438 822.219C214.395 822.001 214.417 821.775 214.502 821.569C214.587 821.364 214.732 821.188 214.917 821.065ZM223.167 821.065C223.352 820.941 223.569 820.875 223.792 820.875C224.09 820.875 224.376 820.993 224.587 821.204C224.798 821.415 224.917 821.702 224.917 822C224.917 822.222 224.851 822.44 224.727 822.625C224.603 822.81 224.428 822.954 224.222 823.039C224.017 823.124 223.79 823.147 223.572 823.103C223.354 823.06 223.153 822.953 222.996 822.795C222.839 822.638 222.732 822.438 222.688 822.219C222.645 822.001 222.667 821.775 222.752 821.569C222.837 821.364 222.982 821.188 223.167 821.065Z" fill="#022C22"/>
<path fill-rule="evenodd" clip-rule="evenodd" d="M228.153 826.803C228.982 825.338 229.417 823.683 229.417 822C229.416 820.519 229.078 819.057 228.428 817.726C227.779 816.396 226.834 815.23 225.667 814.319C224.499 813.407 223.14 812.774 221.691 812.466C220.242 812.159 218.742 812.185 217.305 812.544C215.868 812.903 214.532 813.584 213.398 814.536C212.263 815.489 211.361 816.687 210.759 818.04C210.157 819.393 209.871 820.866 209.923 822.346C209.975 823.826 210.363 825.275 211.059 826.582L209.994 829.775C209.906 830.039 209.894 830.323 209.957 830.594C210.021 830.865 210.16 831.113 210.357 831.31C210.554 831.507 210.802 831.645 211.073 831.709C211.344 831.773 211.628 831.76 211.892 831.672L215.084 830.608C216.57 831.399 218.235 831.792 219.918 831.749C221.601 831.705 223.244 831.227 224.687 830.36C226.13 829.494 227.324 828.268 228.153 826.803ZM227.065 818.351C227.625 819.486 227.916 820.734 227.917 822C227.917 823.449 227.536 824.872 226.811 826.127C226.087 827.382 225.044 828.424 223.789 829.148C222.534 829.872 221.11 830.253 219.661 830.252C218.212 830.251 216.789 829.868 215.535 829.143C215.421 829.077 215.292 829.042 215.16 829.041C215.079 829.042 214.999 829.055 214.923 829.081L211.417 830.25L212.586 826.744C212.619 826.643 212.631 826.536 212.621 826.43C212.61 826.325 212.577 826.223 212.524 826.131C211.891 825.035 211.518 823.808 211.435 822.545C211.351 821.283 211.56 820.018 212.043 818.848C212.527 817.679 213.273 816.636 214.225 815.802C215.176 814.967 216.306 814.362 217.528 814.034C218.751 813.706 220.032 813.664 221.273 813.91C222.515 814.157 223.683 814.685 224.687 815.455C225.691 816.226 226.505 817.216 227.065 818.351Z" fill="#022C22"/>
</g>
</g>
<g id="Chat_2" filter="url(#filter7_dd_33_3367)">
<path d="M248.019 820.352H246.147C245.779 819.104 244.739 818.416 243.443 818.416C241.459 818.416 240.275 820 240.275 822.576C240.275 825.152 241.443 826.704 243.443 826.704C244.691 826.704 245.699 826.064 246.115 824.832H248.003C247.411 826.992 245.587 828.208 243.443 828.208C240.339 828.208 238.451 826.08 238.451 822.576C238.451 819.088 240.355 816.912 243.491 816.912C245.651 816.912 247.507 818.096 248.019 820.352ZM249.495 828V816.48H251.207V820.608C251.783 819.696 252.679 819.248 253.783 819.248C255.559 819.248 256.663 820.288 256.663 822.304V828H254.967V822.656C254.967 821.424 254.423 820.672 253.255 820.672C251.975 820.672 251.207 821.808 251.207 822.992V828H249.495ZM260.181 822.256H258.469C258.741 820.368 260.037 819.248 262.165 819.248C264.485 819.248 265.637 820.608 265.637 822.592V825.92C265.637 826.944 265.733 827.536 265.925 828H264.133C264.005 827.68 263.957 827.232 263.941 826.752C263.221 827.76 262.117 828.208 261.093 828.208C259.365 828.208 258.181 827.392 258.181 825.76C258.181 824.592 258.821 823.728 260.101 823.296C261.237 822.912 262.389 822.816 263.925 822.8V822.608C263.925 821.36 263.349 820.688 262.037 820.688C260.933 820.688 260.341 821.296 260.181 822.256ZM259.909 825.696C259.909 826.416 260.501 826.864 261.413 826.864C262.837 826.864 263.925 825.728 263.925 824.352V823.968C260.645 824 259.909 824.72 259.909 825.696ZM267.828 825.456V820.8H266.676V819.472H267.828V817.504H269.54V819.472H271.38V820.8H269.54V825.36C269.54 826.336 269.812 826.8 271.012 826.8H271.348V828.048C271.156 828.144 270.756 828.208 270.276 828.208C268.612 828.208 267.828 827.296 267.828 825.456Z" fill="#022C22"/>
</g>
<g id="Ellipse 11" style="mix-blend-mode:plus-lighter" filter="url(#filter8_f_33_3367)">
<ellipse cx="239.667" cy="842.5" rx="45" ry="14.5" fill="#025521"/>
</g>
</g>
<rect x="180.167" y="795.5" width="119" height="53" rx="26.5" stroke="white" stroke-opacity="0.35" stroke-width="5" shape-rendering="crispEdges"/>
</g>
<g id="Frame 22">
<g id="Wallet">
<path id="Vector_6" fill-rule="evenodd" clip-rule="evenodd" d="M325.583 815.5V827C325.583 829.071 327.262 830.75 329.333 830.75H341.333C343.404 830.75 345.083 829.071 345.083 827V820C345.083 817.929 343.404 816.25 341.333 816.25H338.008C337.661 814.538 336.148 813.25 334.333 813.25H327.833C326.591 813.25 325.583 814.257 325.583 815.5ZM336.455 816.25H327.833C327.419 816.25 327.083 815.914 327.083 815.5C327.083 815.086 327.419 814.75 327.833 814.75H334.333C335.313 814.75 336.146 815.376 336.455 816.25ZM339.833 825C340.662 825 341.333 824.328 341.333 823.5C341.333 822.672 340.662 822 339.833 822C339.005 822 338.333 822.672 338.333 823.5C338.333 824.328 339.005 825 339.833 825ZM328.583 827C328.583 826.586 328.919 826.25 329.333 826.25H333.333C333.748 826.25 334.083 826.586 334.083 827C334.083 827.414 333.748 827.75 333.333 827.75H329.333C328.919 827.75 328.583 827.414 328.583 827Z" fill="#64748B"/>
</g>
</g>
</g>
</g>
<g id="Frame 1686556233">
<g id="ChatsCircle">
<g id="Group 20">
<g id="Group 19">
<g id="Group 18" opacity="0.5" filter="url(#filter9_d_33_3367)">
<path id="Vector_7" d="M224.209 427.971C201.169 428.515 182.049 410.279 181.505 387.238C180.96 364.198 199.197 345.078 222.238 344.534C245.278 343.989 264.398 362.226 264.942 385.267C265.109 392.343 263.505 399.05 260.534 404.962C260.117 405.79 260.053 406.756 260.396 407.617L267.188 424.624C268.136 426.998 265.969 429.436 263.5 428.774L243.842 423.502C243.087 423.299 242.284 423.394 241.582 423.739C236.327 426.316 230.444 427.824 224.209 427.971Z" fill="#F1F5F9" stroke="#94A3B8" stroke-opacity="0.65" stroke-width="2.5"/>
</g>
<g id="Group 17" filter="url(#filter10_d_33_3367)">
<path id="Vector_8" d="M187.382 404.284C215.523 404.949 238.875 382.675 239.54 354.534C240.205 326.392 217.931 303.04 189.79 302.375C161.648 301.71 138.296 323.984 137.631 352.126C137.427 360.769 139.387 368.961 143.016 376.182C143.524 377.193 143.603 378.373 143.183 379.424L134.888 400.196C133.73 403.095 136.377 406.074 139.393 405.265L163.402 398.826C164.325 398.578 165.305 398.694 166.164 399.115C172.581 402.263 179.767 404.104 187.382 404.284Z" fill="white" stroke="#94A3B8" stroke-opacity="0.65" stroke-width="2.5"/>
<path id="Vector_9" d="M168.986 359.223C171.5 359.223 173.537 357.186 173.537 354.672C173.537 352.159 171.5 350.122 168.986 350.122C166.473 350.122 164.436 352.159 164.436 354.672C164.436 357.186 166.473 359.223 168.986 359.223ZM187.948 359.223C190.461 359.223 192.499 357.186 192.499 354.672C192.499 352.159 190.461 350.122 187.948 350.122C185.435 350.122 183.397 352.159 183.397 354.672C183.397 357.186 185.435 359.223 187.948 359.223ZM207.668 359.223C210.181 359.223 212.219 357.186 212.219 354.672C212.219 352.159 210.181 350.122 207.668 350.122C205.155 350.122 203.117 352.159 203.117 354.672C203.117 357.186 205.155 359.223 207.668 359.223Z" fill="#94A3B8" fill-opacity="0.65" stroke="#B9C3D1" stroke-width="1.51693"/>
</g>
</g>
</g>
</g>
<g id="Frame 65">
<path id="No chats yet!" d="M132.097 496V479.68H134.905L141.745 490.336L142.777 492.256L142.705 479.68H145.393V496H142.585L135.769 485.392L134.713 483.4L134.785 496H132.097ZM153.912 496.312C150.192 496.312 147.936 493.792 147.936 489.616C147.936 485.272 150.264 482.872 153.912 482.872C157.632 482.872 159.888 485.44 159.888 489.616C159.888 493.936 157.56 496.312 153.912 496.312ZM153.912 494.152C156.096 494.152 157.272 492.568 157.272 489.616C157.272 486.688 156.072 485.032 153.912 485.032C151.752 485.032 150.552 486.64 150.552 489.616C150.552 492.52 151.752 494.152 153.912 494.152ZM177.623 487.672H175.055C174.743 485.848 173.567 485.032 172.079 485.032C169.943 485.032 168.791 486.664 168.791 489.616C168.791 492.52 169.991 494.176 172.151 494.176C173.687 494.176 174.767 493.336 175.151 491.704H177.695C177.143 494.896 174.935 496.312 172.103 496.312C168.407 496.312 166.175 493.768 166.175 489.616C166.175 485.272 168.455 482.872 172.079 482.872C174.935 482.872 177.191 484.48 177.623 487.672ZM179.938 496V478.72H182.506V484.912C183.37 483.544 184.714 482.872 186.37 482.872C189.034 482.872 190.69 484.432 190.69 487.456V496H188.146V487.984C188.146 486.136 187.33 485.008 185.578 485.008C183.658 485.008 182.506 486.712 182.506 488.488V496H179.938ZM196.087 487.384H193.519C193.927 484.552 195.871 482.872 199.063 482.872C202.543 482.872 204.271 484.912 204.271 487.888V492.88C204.271 494.416 204.415 495.304 204.703 496H202.015C201.823 495.52 201.751 494.848 201.727 494.128C200.647 495.64 198.991 496.312 197.455 496.312C194.863 496.312 193.087 495.088 193.087 492.64C193.087 490.888 194.047 489.592 195.967 488.944C197.671 488.368 199.399 488.224 201.703 488.2V487.912C201.703 486.04 200.839 485.032 198.871 485.032C197.215 485.032 196.327 485.944 196.087 487.384ZM195.679 492.544C195.679 493.624 196.567 494.296 197.935 494.296C200.071 494.296 201.703 492.592 201.703 490.528V489.952C196.783 490 195.679 491.08 195.679 492.544ZM207.677 492.184V485.2H205.949V483.208H207.677V480.256H210.245V483.208H213.005V485.2H210.245V492.04C210.245 493.504 210.653 494.2 212.453 494.2H212.957V496.072C212.669 496.216 212.069 496.312 211.349 496.312C208.853 496.312 207.677 494.944 207.677 492.184ZM216.825 486.568C216.825 489.832 225.009 487.096 225.009 492.304C225.009 494.728 222.825 496.312 219.729 496.312C216.633 496.312 214.449 494.872 213.969 491.824H216.537C216.801 493.432 218.001 494.32 219.801 494.32C221.529 494.32 222.441 493.552 222.441 492.472C222.441 489.28 214.377 491.968 214.377 486.712C214.377 484.72 215.937 482.872 219.177 482.872C222.033 482.872 224.145 484.192 224.553 487.384H221.985C221.697 485.584 220.689 484.912 219.057 484.912C217.641 484.912 216.825 485.608 216.825 486.568ZM232.67 501.592C232.118 501.592 231.542 501.448 231.254 501.352V499.384H231.95C233.414 499.384 233.966 499.096 235.07 496.432L235.454 495.544L230.318 483.208H233.078L236.246 491.176L236.798 492.928L237.35 491.176L240.422 483.208H243.038L237.23 497.488C235.934 500.68 234.95 501.592 232.67 501.592ZM255.71 491.824C255.014 494.8 252.806 496.312 249.806 496.312C246.038 496.312 243.734 493.792 243.734 489.616C243.734 485.272 246.038 482.872 249.686 482.872C253.382 482.872 255.614 485.368 255.614 489.472V490.096H246.35C246.494 492.712 247.718 494.176 249.806 494.176C251.438 494.176 252.59 493.408 253.022 491.824H255.71ZM249.686 485.008C247.838 485.008 246.734 486.184 246.422 488.344H252.95C252.638 486.184 251.51 485.008 249.686 485.008ZM258.373 492.184V485.2H256.645V483.208H258.373V480.256H260.941V483.208H263.701V485.2H260.941V492.04C260.941 493.504 261.349 494.2 263.149 494.2H263.653V496.072C263.365 496.216 262.765 496.312 262.045 496.312C259.549 496.312 258.373 494.944 258.373 492.184ZM266.512 491.776V479.68H269.056V491.776H266.512ZM266.296 496V493.216H269.272V496H266.296Z" fill="#0F172A"/>
<g id="Frame 1686556231">
<path id="Title" d="M120.398 523.192C117.214 523.192 115.262 521.048 115.262 517.576C115.262 514.104 117.214 511.928 120.398 511.928C123.566 511.928 125.534 514.104 125.534 517.576C125.534 521.048 123.566 523.192 120.398 523.192ZM120.398 521.928C122.67 521.928 124.03 520.28 124.03 517.576C124.03 514.856 122.67 513.192 120.398 513.192C118.126 513.192 116.766 514.856 116.766 517.576C116.766 520.28 118.126 521.928 120.398 521.928ZM127.322 523V514.504H128.73V515.656C129.306 514.76 130.234 514.296 131.354 514.296C133.162 514.296 134.234 515.352 134.234 517.32V523H132.826V517.608C132.826 516.328 132.25 515.496 130.97 515.496C129.562 515.496 128.73 516.76 128.73 517.976V523H127.322ZM143.323 517.432H141.915C141.691 516.136 140.827 515.512 139.707 515.512C138.139 515.512 137.307 516.664 137.307 518.76C137.307 520.824 138.187 521.992 139.755 521.992C140.891 521.992 141.707 521.384 141.979 520.168H143.387C143.003 522.28 141.579 523.192 139.723 523.192C137.307 523.192 135.867 521.512 135.867 518.76C135.867 515.88 137.339 514.296 139.707 514.296C141.579 514.296 143.051 515.352 143.323 517.432ZM152.291 520.232C151.827 522.216 150.403 523.192 148.467 523.192C146.003 523.192 144.515 521.528 144.515 518.76C144.515 515.88 146.003 514.296 148.387 514.296C150.787 514.296 152.227 515.944 152.227 518.648V519H145.955C146.035 520.904 146.931 521.976 148.467 521.976C149.667 521.976 150.515 521.4 150.819 520.232H152.291ZM148.387 515.512C147.027 515.512 146.211 516.36 146.003 517.944H150.755C150.563 516.376 149.715 515.512 148.387 515.512ZM157.33 526.712C157.01 526.712 156.674 526.632 156.498 526.584V525.496H156.93C157.97 525.496 158.258 525.288 159.09 523.384L159.378 522.728L155.906 514.504H157.426L159.73 520.12L160.114 521.256L160.498 520.12L162.738 514.504H164.178L160.21 524.12C159.362 526.168 158.802 526.712 157.33 526.712ZM168.582 523.192C166.15 523.192 164.694 521.528 164.694 518.76C164.694 515.88 166.198 514.296 168.582 514.296C171.014 514.296 172.47 515.992 172.47 518.76C172.47 521.624 170.966 523.192 168.582 523.192ZM168.582 521.976C170.166 521.976 171.03 520.84 171.03 518.76C171.03 516.696 170.15 515.512 168.582 515.512C166.998 515.512 166.134 516.664 166.134 518.76C166.134 520.808 167.014 521.976 168.582 521.976ZM179.51 519.528V514.504H180.918V523H179.51V521.848C178.934 522.744 178.038 523.192 176.934 523.192C175.158 523.192 174.102 522.152 174.102 520.184V514.504H175.51V519.896C175.51 521.176 176.07 521.992 177.318 521.992C178.694 521.992 179.51 520.744 179.51 519.528ZM193.031 517.432H191.623C191.399 516.136 190.535 515.512 189.415 515.512C187.847 515.512 187.015 516.664 187.015 518.76C187.015 520.824 187.895 521.992 189.463 521.992C190.599 521.992 191.415 521.384 191.687 520.168H193.095C192.711 522.28 191.287 523.192 189.431 523.192C187.015 523.192 185.575 521.512 185.575 518.76C185.575 515.88 187.047 514.296 189.415 514.296C191.287 514.296 192.759 515.352 193.031 517.432ZM198.112 523.192C195.68 523.192 194.224 521.528 194.224 518.76C194.224 515.88 195.728 514.296 198.112 514.296C200.544 514.296 202 515.992 202 518.76C202 521.624 200.496 523.192 198.112 523.192ZM198.112 521.976C199.696 521.976 200.56 520.84 200.56 518.76C200.56 516.696 199.68 515.512 198.112 515.512C196.528 515.512 195.664 516.664 195.664 518.76C195.664 520.808 196.544 521.976 198.112 521.976ZM203.632 523V514.504H205.04V515.656C205.616 514.76 206.544 514.296 207.664 514.296C209.472 514.296 210.544 515.352 210.544 517.32V523H209.136V517.608C209.136 516.328 208.56 515.496 207.28 515.496C205.872 515.496 205.04 516.76 205.04 517.976V523H203.632ZM212.608 523V514.504H214.016V515.656C214.592 514.76 215.52 514.296 216.64 514.296C218.448 514.296 219.52 515.352 219.52 517.32V523H218.112V517.608C218.112 516.328 217.536 515.496 216.256 515.496C214.848 515.496 214.016 516.76 214.016 517.976V523H212.608ZM228.928 520.232C228.464 522.216 227.04 523.192 225.104 523.192C222.64 523.192 221.152 521.528 221.152 518.76C221.152 515.88 222.64 514.296 225.024 514.296C227.424 514.296 228.864 515.944 228.864 518.648V519H222.592C222.672 520.904 223.568 521.976 225.104 521.976C226.304 521.976 227.152 521.4 227.456 520.232H228.928ZM225.024 515.512C223.664 515.512 222.848 516.36 222.64 517.944H227.392C227.2 516.376 226.352 515.512 225.024 515.512ZM237.585 517.432H236.177C235.953 516.136 235.089 515.512 233.969 515.512C232.401 515.512 231.569 516.664 231.569 518.76C231.569 520.824 232.449 521.992 234.017 521.992C235.153 521.992 235.969 521.384 236.241 520.168H237.649C237.265 522.28 235.841 523.192 233.985 523.192C231.569 523.192 230.129 521.512 230.129 518.76C230.129 515.88 231.601 514.296 233.969 514.296C235.841 514.296 237.313 515.352 237.585 517.432ZM239.401 520.552V515.624H238.217V514.504H239.401V512.552H240.809V514.504H242.681V515.624H240.809V520.552C240.809 521.576 241.113 522.056 242.361 522.056H242.649V523.064C242.489 523.144 242.137 523.192 241.737 523.192C240.153 523.192 239.401 522.344 239.401 520.552ZM254.224 523L252.384 516.648L252.192 515.688L252 516.648L250.176 523H248.432L245.904 514.504H247.424L249.168 521.096L249.376 521.96L249.584 521.096L251.52 514.504H253.04L254.976 521.096L255.168 521.928L255.344 521.096L257.088 514.504H258.544L256 523H254.224ZM259.637 513.368V511.48H261.045V513.368H259.637ZM259.637 523V514.504H261.045V523H259.637ZM263.29 520.552V515.624H262.106V514.504H263.29V512.552H264.698V514.504H266.57V515.624H264.698V520.552C264.698 521.576 265.002 522.056 266.25 522.056H266.538V523.064C266.378 523.144 266.026 523.192 265.626 523.192C264.042 523.192 263.29 522.344 263.29 520.552ZM267.731 523V511.48H269.139V515.656C269.715 514.76 270.643 514.296 271.763 514.296C273.571 514.296 274.643 515.352 274.643 517.32V523H273.235V517.608C273.235 516.328 272.659 515.496 271.379 515.496C269.971 515.496 269.139 516.76 269.139 517.976V523H267.731ZM281.026 517.272H279.618C279.89 515.4 281.122 514.296 283.202 514.296C285.474 514.296 286.578 515.624 286.578 517.608V520.952C286.578 521.928 286.658 522.536 286.882 523H285.394C285.234 522.664 285.186 522.168 285.17 521.656C284.45 522.728 283.298 523.192 282.274 523.192C280.514 523.192 279.33 522.376 279.33 520.76C279.33 519.592 279.97 518.744 281.218 518.328C282.37 517.944 283.538 517.848 285.17 517.832V517.64C285.17 516.264 284.53 515.512 283.074 515.512C281.858 515.512 281.202 516.184 281.026 517.272ZM280.77 520.728C280.77 521.512 281.426 521.976 282.418 521.976C283.986 521.976 285.17 520.744 285.17 519.288V518.888C281.554 518.92 280.77 519.688 280.77 520.728ZM115.914 539.432H114.506C114.282 538.136 113.418 537.512 112.298 537.512C110.73 537.512 109.898 538.664 109.898 540.76C109.898 542.824 110.778 543.992 112.346 543.992C113.482 543.992 114.298 543.384 114.57 542.168H115.978C115.594 544.28 114.17 545.192 112.314 545.192C109.898 545.192 108.458 543.512 108.458 540.76C108.458 537.88 109.93 536.296 112.298 536.296C114.17 536.296 115.642 537.352 115.914 539.432ZM117.538 545V533.48H118.946V545H117.538ZM120.999 535.368V533.48H122.407V535.368H120.999ZM120.999 545V536.504H122.407V545H120.999ZM131.804 542.232C131.34 544.216 129.916 545.192 127.98 545.192C125.516 545.192 124.028 543.528 124.028 540.76C124.028 537.88 125.516 536.296 127.9 536.296C130.3 536.296 131.74 537.944 131.74 540.648V541H125.468C125.548 542.904 126.444 543.976 127.98 543.976C129.18 543.976 130.028 543.4 130.332 542.232H131.804ZM127.9 537.512C126.54 537.512 125.724 538.36 125.516 539.944H130.268C130.076 538.376 129.228 537.512 127.9 537.512ZM133.436 545V536.504H134.844V537.656C135.42 536.76 136.348 536.296 137.468 536.296C139.276 536.296 140.348 537.352 140.348 539.32V545H138.94V539.608C138.94 538.328 138.364 537.496 137.084 537.496C135.676 537.496 134.844 538.76 134.844 539.976V545H133.436ZM142.604 542.552V537.624H141.42V536.504H142.604V534.552H144.012V536.504H145.884V537.624H144.012V542.552C144.012 543.576 144.316 544.056 145.564 544.056H145.852V545.064C145.692 545.144 145.34 545.192 144.94 545.192C143.356 545.192 142.604 544.344 142.604 542.552ZM146.885 545V543.272H148.613V544.2C148.613 545.688 148.373 546.6 147.813 547.64H147.013C147.381 546.68 147.589 545.992 147.589 545H146.885ZM153.912 548.712C153.592 548.712 153.256 548.632 153.08 548.584V547.496H153.512C154.552 547.496 154.84 547.288 155.672 545.384L155.96 544.728L152.488 536.504H154.008L156.312 542.12L156.696 543.256L157.08 542.12L159.32 536.504H160.76L156.792 546.12C155.944 548.168 155.384 548.712 153.912 548.712ZM165.164 545.192C162.732 545.192 161.276 543.528 161.276 540.76C161.276 537.88 162.78 536.296 165.164 536.296C167.596 536.296 169.052 537.992 169.052 540.76C169.052 543.624 167.548 545.192 165.164 545.192ZM165.164 543.976C166.748 543.976 167.612 542.84 167.612 540.76C167.612 538.696 166.732 537.512 165.164 537.512C163.58 537.512 162.716 538.664 162.716 540.76C162.716 542.808 163.596 543.976 165.164 543.976ZM176.092 541.528V536.504H177.5V545H176.092V543.848C175.516 544.744 174.62 545.192 173.516 545.192C171.74 545.192 170.684 544.152 170.684 542.184V536.504H172.092V541.896C172.092 543.176 172.652 543.992 173.9 543.992C175.276 543.992 176.092 542.744 176.092 541.528ZM179.407 535.816V534.12H181.135V535.224C181.135 536.376 180.895 537.064 180.447 537.864H179.631C179.935 537.112 180.111 536.584 180.111 535.816H179.407ZM183.027 545V533.48H184.435V545H183.027ZM186.488 545V533.48H187.896V545H186.488ZM194.38 545H192.972V533.48H194.38V537.56C194.94 536.76 195.756 536.296 196.764 536.296C199.02 536.296 200.38 537.96 200.38 540.728C200.38 543.608 198.988 545.192 196.764 545.192C195.756 545.192 194.94 544.776 194.38 543.992V545ZM196.668 537.512C195.18 537.512 194.38 538.648 194.38 540.728C194.38 542.792 195.212 543.976 196.668 543.976C198.14 543.976 198.94 542.824 198.94 540.728C198.94 538.68 198.108 537.512 196.668 537.512ZM209.354 542.232C208.89 544.216 207.466 545.192 205.53 545.192C203.066 545.192 201.578 543.528 201.578 540.76C201.578 537.88 203.066 536.296 205.45 536.296C207.85 536.296 209.29 537.944 209.29 540.648V541H203.018C203.098 542.904 203.994 543.976 205.53 543.976C206.73 543.976 207.578 543.4 207.882 542.232H209.354ZM205.45 537.512C204.09 537.512 203.274 538.36 203.066 539.944H207.818C207.626 538.376 206.778 537.512 205.45 537.512ZM215.306 539.272H213.898C214.17 537.4 215.402 536.296 217.482 536.296C219.754 536.296 220.858 537.624 220.858 539.608V542.952C220.858 543.928 220.938 544.536 221.162 545H219.674C219.514 544.664 219.466 544.168 219.45 543.656C218.73 544.728 217.578 545.192 216.554 545.192C214.794 545.192 213.61 544.376 213.61 542.76C213.61 541.592 214.25 540.744 215.498 540.328C216.65 539.944 217.818 539.848 219.45 539.832V539.64C219.45 538.264 218.81 537.512 217.354 537.512C216.138 537.512 215.482 538.184 215.306 539.272ZM215.05 542.728C215.05 543.512 215.706 543.976 216.698 543.976C218.266 543.976 219.45 542.744 219.45 541.288V540.888C215.834 540.92 215.05 541.688 215.05 542.728ZM224.394 545H222.986V533.48H224.394V537.56C224.954 536.76 225.77 536.296 226.778 536.296C229.034 536.296 230.394 537.96 230.394 540.728C230.394 543.608 229.002 545.192 226.778 545.192C225.77 545.192 224.954 544.776 224.394 543.992V545ZM226.682 537.512C225.194 537.512 224.394 538.648 224.394 540.728C224.394 542.792 225.226 543.976 226.682 543.976C228.154 543.976 228.954 542.824 228.954 540.728C228.954 538.68 228.122 537.512 226.682 537.512ZM232.025 545V533.48H233.433V545H232.025ZM242.829 542.232C242.365 544.216 240.941 545.192 239.005 545.192C236.541 545.192 235.053 543.528 235.053 540.76C235.053 537.88 236.541 536.296 238.925 536.296C241.325 536.296 242.765 537.944 242.765 540.648V541H236.493C236.573 542.904 237.469 543.976 239.005 543.976C240.205 543.976 241.053 543.4 241.357 542.232H242.829ZM238.925 537.512C237.565 537.512 236.749 538.36 236.541 539.944H241.293C241.101 538.376 240.253 537.512 238.925 537.512ZM247.677 542.552V537.624H246.493V536.504H247.677V534.552H249.085V536.504H250.957V537.624H249.085V542.552C249.085 543.576 249.389 544.056 250.637 544.056H250.925V545.064C250.765 545.144 250.413 545.192 250.013 545.192C248.429 545.192 247.677 544.344 247.677 542.552ZM255.573 545.192C253.141 545.192 251.685 543.528 251.685 540.76C251.685 537.88 253.189 536.296 255.573 536.296C258.005 536.296 259.461 537.992 259.461 540.76C259.461 543.624 257.957 545.192 255.573 545.192ZM255.573 543.976C257.157 543.976 258.021 542.84 258.021 540.76C258.021 538.696 257.141 537.512 255.573 537.512C253.989 537.512 253.125 538.664 253.125 540.76C253.125 542.808 254.005 543.976 255.573 543.976ZM271.141 539.432H269.733C269.509 538.136 268.645 537.512 267.525 537.512C265.957 537.512 265.125 538.664 265.125 540.76C265.125 542.824 266.005 543.992 267.573 543.992C268.709 543.992 269.525 543.384 269.797 542.168H271.205C270.821 544.28 269.397 545.192 267.541 545.192C265.125 545.192 263.685 543.512 263.685 540.76C263.685 537.88 265.157 536.296 267.525 536.296C269.397 536.296 270.869 537.352 271.141 539.432ZM272.765 545V533.48H274.173V537.656C274.749 536.76 275.677 536.296 276.797 536.296C278.605 536.296 279.677 537.352 279.677 539.32V545H278.269V539.608C278.269 538.328 277.693 537.496 276.413 537.496C275.005 537.496 274.173 538.76 274.173 539.976V545H272.765ZM283.037 539.272H281.629C281.901 537.4 283.133 536.296 285.213 536.296C287.485 536.296 288.589 537.624 288.589 539.608V542.952C288.589 543.928 288.669 544.536 288.893 545H287.405C287.245 544.664 287.197 544.168 287.181 543.656C286.461 544.728 285.309 545.192 284.285 545.192C282.525 545.192 281.341 544.376 281.341 542.76C281.341 541.592 281.981 540.744 283.229 540.328C284.381 539.944 285.549 539.848 287.181 539.832V539.64C287.181 538.264 286.541 537.512 285.085 537.512C283.869 537.512 283.213 538.184 283.037 539.272ZM282.781 542.728C282.781 543.512 283.437 543.976 284.429 543.976C285.997 543.976 287.181 542.744 287.181 541.288V540.888C283.565 540.92 282.781 541.688 282.781 542.728ZM290.909 542.552V537.624H289.725V536.504H290.909V534.552H292.317V536.504H294.189V537.624H292.317V542.552C292.317 543.576 292.621 544.056 293.869 544.056H294.157V545.064C293.997 545.144 293.645 545.192 293.245 545.192C291.661 545.192 290.909 544.344 290.909 542.552ZM130.649 561.272H129.241C129.513 559.4 130.745 558.296 132.825 558.296C135.097 558.296 136.201 559.624 136.201 561.608V564.952C136.201 565.928 136.281 566.536 136.505 567H135.017C134.857 566.664 134.809 566.168 134.793 565.656C134.073 566.728 132.921 567.192 131.897 567.192C130.137 567.192 128.953 566.376 128.953 564.76C128.953 563.592 129.593 562.744 130.841 562.328C131.993 561.944 133.161 561.848 134.793 561.832V561.64C134.793 560.264 134.153 559.512 132.697 559.512C131.481 559.512 130.825 560.184 130.649 561.272ZM130.393 564.728C130.393 565.512 131.049 565.976 132.041 565.976C133.609 565.976 134.793 564.744 134.793 563.288V562.888C131.177 562.92 130.393 563.688 130.393 564.728ZM138.33 567V558.504H139.738V559.656C140.314 558.76 141.242 558.296 142.362 558.296C144.17 558.296 145.242 559.352 145.242 561.32V567H143.834V561.608C143.834 560.328 143.258 559.496 141.978 559.496C140.57 559.496 139.738 560.76 139.738 561.976V567H138.33ZM150.49 567.192C148.234 567.192 146.874 565.528 146.874 562.76C146.874 559.88 148.266 558.296 150.49 558.296C151.498 558.296 152.314 558.712 152.874 559.496V555.48H154.282V567H152.874V565.928C152.314 566.728 151.498 567.192 150.49 567.192ZM150.586 565.976C152.074 565.976 152.874 564.84 152.874 562.76C152.874 560.696 152.042 559.512 150.586 559.512C149.114 559.512 148.314 560.664 148.314 562.76C148.314 564.808 149.146 565.976 150.586 565.976ZM166.392 561.432H164.984C164.76 560.136 163.896 559.512 162.776 559.512C161.208 559.512 160.376 560.664 160.376 562.76C160.376 564.824 161.256 565.992 162.824 565.992C163.96 565.992 164.776 565.384 165.048 564.168H166.456C166.072 566.28 164.648 567.192 162.792 567.192C160.376 567.192 158.936 565.512 158.936 562.76C158.936 559.88 160.408 558.296 162.776 558.296C164.648 558.296 166.12 559.352 166.392 561.432ZM171.472 567.192C169.04 567.192 167.584 565.528 167.584 562.76C167.584 559.88 169.088 558.296 171.472 558.296C173.904 558.296 175.36 559.992 175.36 562.76C175.36 565.624 173.856 567.192 171.472 567.192ZM171.472 565.976C173.056 565.976 173.92 564.84 173.92 562.76C173.92 560.696 173.04 559.512 171.472 559.512C169.888 559.512 169.024 560.664 169.024 562.76C169.024 564.808 169.904 565.976 171.472 565.976ZM176.992 567V555.48H178.4V567H176.992ZM180.453 567V555.48H181.861V567H180.453ZM185.209 561.272H183.801C184.073 559.4 185.305 558.296 187.385 558.296C189.657 558.296 190.761 559.624 190.761 561.608V564.952C190.761 565.928 190.841 566.536 191.065 567H189.577C189.417 566.664 189.369 566.168 189.353 565.656C188.633 566.728 187.481 567.192 186.457 567.192C184.697 567.192 183.513 566.376 183.513 564.76C183.513 563.592 184.153 562.744 185.401 562.328C186.553 561.944 187.721 561.848 189.353 561.832V561.64C189.353 560.264 188.713 559.512 187.257 559.512C186.041 559.512 185.385 560.184 185.209 561.272ZM184.953 564.728C184.953 565.512 185.609 565.976 186.601 565.976C188.169 565.976 189.353 564.744 189.353 563.288V562.888C185.737 562.92 184.953 563.688 184.953 564.728ZM194.298 567H192.89V555.48H194.298V559.56C194.858 558.76 195.674 558.296 196.682 558.296C198.938 558.296 200.298 559.96 200.298 562.728C200.298 565.608 198.906 567.192 196.682 567.192C195.674 567.192 194.858 566.776 194.298 565.992V567ZM196.586 559.512C195.098 559.512 194.298 560.648 194.298 562.728C194.298 564.792 195.13 565.976 196.586 565.976C198.058 565.976 198.858 564.824 198.858 562.728C198.858 560.68 198.026 559.512 196.586 559.512ZM205.384 567.192C202.952 567.192 201.496 565.528 201.496 562.76C201.496 559.88 203 558.296 205.384 558.296C207.816 558.296 209.272 559.992 209.272 562.76C209.272 565.624 207.768 567.192 205.384 567.192ZM205.384 565.976C206.968 565.976 207.832 564.84 207.832 562.76C207.832 560.696 206.952 559.512 205.384 559.512C203.8 559.512 202.936 560.664 202.936 562.76C202.936 564.808 203.816 565.976 205.384 565.976ZM210.905 567V558.504H212.313V559.816C212.889 558.776 213.801 558.296 214.825 558.296C215.161 558.296 215.465 558.376 215.625 558.504V559.768C215.385 559.688 215.081 559.656 214.745 559.656C213.049 559.656 212.313 560.712 212.313 562.248V567H210.905ZM217.833 561.272H216.425C216.697 559.4 217.929 558.296 220.009 558.296C222.281 558.296 223.385 559.624 223.385 561.608V564.952C223.385 565.928 223.465 566.536 223.689 567H222.201C222.041 566.664 221.993 566.168 221.977 565.656C221.257 566.728 220.105 567.192 219.081 567.192C217.321 567.192 216.137 566.376 216.137 564.76C216.137 563.592 216.777 562.744 218.025 562.328C219.177 561.944 220.345 561.848 221.977 561.832V561.64C221.977 560.264 221.337 559.512 219.881 559.512C218.665 559.512 218.009 560.184 217.833 561.272ZM217.577 564.728C217.577 565.512 218.233 565.976 219.225 565.976C220.793 565.976 221.977 564.744 221.977 563.288V562.888C218.361 562.92 217.577 563.688 217.577 564.728ZM225.705 564.552V559.624H224.521V558.504H225.705V556.552H227.113V558.504H228.985V559.624H227.113V564.552C227.113 565.576 227.417 566.056 228.665 566.056H228.953V567.064C228.793 567.144 228.441 567.192 228.041 567.192C226.457 567.192 225.705 566.344 225.705 564.552ZM237.49 564.232C237.026 566.216 235.602 567.192 233.666 567.192C231.202 567.192 229.714 565.528 229.714 562.76C229.714 559.88 231.202 558.296 233.586 558.296C235.986 558.296 237.426 559.944 237.426 562.648V563H231.154C231.234 564.904 232.13 565.976 233.666 565.976C234.866 565.976 235.714 565.4 236.018 564.232H237.49ZM233.586 559.512C232.226 559.512 231.41 560.36 231.202 561.944H235.954C235.762 560.376 234.914 559.512 233.586 559.512ZM242.145 567V555.48H243.553V559.656C244.129 558.76 245.057 558.296 246.177 558.296C247.985 558.296 249.057 559.352 249.057 561.32V567H247.649V561.608C247.649 560.328 247.073 559.496 245.793 559.496C244.385 559.496 243.553 560.76 243.553 561.976V567H242.145ZM258.466 564.232C258.002 566.216 256.578 567.192 254.642 567.192C252.178 567.192 250.69 565.528 250.69 562.76C250.69 559.88 252.178 558.296 254.562 558.296C256.962 558.296 258.402 559.944 258.402 562.648V563H252.13C252.21 564.904 253.106 565.976 254.642 565.976C255.842 565.976 256.69 565.4 256.994 564.232H258.466ZM254.562 559.512C253.202 559.512 252.386 560.36 252.178 561.944H256.93C256.738 560.376 255.89 559.512 254.562 559.512ZM260.098 567V558.504H261.506V559.816C262.082 558.776 262.994 558.296 264.018 558.296C264.354 558.296 264.658 558.376 264.818 558.504V559.768C264.578 559.688 264.274 559.656 263.938 559.656C262.242 559.656 261.506 560.712 261.506 562.248V567H260.098ZM273.074 564.232C272.61 566.216 271.186 567.192 269.25 567.192C266.786 567.192 265.298 565.528 265.298 562.76C265.298 559.88 266.786 558.296 269.17 558.296C271.57 558.296 273.01 559.944 273.01 562.648V563H266.738C266.818 564.904 267.714 565.976 269.25 565.976C270.45 565.976 271.298 565.4 271.602 564.232H273.074ZM269.17 559.512C267.81 559.512 266.994 560.36 266.786 561.944H271.538C271.346 560.376 270.498 559.512 269.17 559.512Z" fill="#64748B"/>
</g>
</g>
</g>
</g>
</g>
<defs>
<filter id="filter0_d_33_3367" x="299" y="34" width="118" height="118" filterUnits="userSpaceOnUse" color-interpolation-filters="sRGB">
<feFlood flood-opacity="0" result="BackgroundImageFix"/>
<feColorMatrix in="SourceAlpha" type="matrix" values="0 0 0 0 0 0 0 0 0 0 0 0 0 0 0 0 0 0 127 0" result="hardAlpha"/>
<feOffset/>
<feGaussianBlur stdDeviation="17.5"/>
<feComposite in2="hardAlpha" operator="out"/>
<feColorMatrix type="matrix" values="0 0 0 0 0.0196078 0 0 0 0 0.0196078 0 0 0 0 0.0784314 0 0 0 0.1 0"/>
<feBlend mode="normal" in2="BackgroundImageFix" result="effect1_dropShadow_33_3367"/>
<feBlend mode="normal" in="SourceGraphic" in2="effect1_dropShadow_33_3367" result="shape"/>
</filter>
<filter id="filter1_ddi_33_3367" x="-20.1" y="99.9" width="129.2" height="114.2" filterUnits="userSpaceOnUse" color-interpolation-filters="sRGB">
<feFlood flood-opacity="0" result="BackgroundImageFix"/>
<feColorMatrix in="SourceAlpha" type="matrix" values="0 0 0 0 0 0 0 0 0 0 0 0 0 0 0 0 0 0 127 0" result="hardAlpha"/>
<feOffset dy="5"/>
<feGaussianBlur stdDeviation="4"/>
<feComposite in2="hardAlpha" operator="out"/>
<feColorMatrix type="matrix" values="0 0 0 0 0.400682 0 0 0 0 0.63782 0 0 0 0 0.519251 0 0 0 0.15 0"/>
<feBlend mode="normal" in2="BackgroundImageFix" result="effect1_dropShadow_33_3367"/>
<feColorMatrix in="SourceAlpha" type="matrix" values="0 0 0 0 0 0 0 0 0 0 0 0 0 0 0 0 0 0 127 0" result="hardAlpha"/>
<feOffset dy="3"/>
<feGaussianBlur stdDeviation="19.55"/>
<feComposite in2="hardAlpha" operator="out"/>
<feColorMatrix type="matrix" values="0 0 0 0 0.410256 0 0 0 0 1 0 0 0 0 0.705128 0 0 0 0.18 0"/>
<feBlend mode="normal" in2="effect1_dropShadow_33_3367" result="effect2_dropShadow_33_3367"/>
<feBlend mode="normal" in="SourceGraphic" in2="BackgroundImageFix" result="shape"/>
<feColorMatrix in="SourceAlpha" type="matrix" values="0 0 0 0 0 0 0 0 0 0 0 0 0 0 0 0 0 0 127 0" result="hardAlpha"/>
<feOffset dy="6"/>
<feGaussianBlur stdDeviation="5.55"/>
<feComposite in2="hardAlpha" operator="arithmetic" k2="-1" k3="1"/>
<feColorMatrix type="matrix" values="0 0 0 0 0.983974 0 0 0 0 1 0 0 0 0 0.986645 0 0 0 0.75 0"/>
<feBlend mode="normal" in2="shape" result="effect3_innerShadow_33_3367"/>
<feBlend mode="normal" in="effect3_innerShadow_33_3367" in2="effect2_dropShadow_33_3367" result="effect3_innerShadow_33_3367"/>
</filter>
<filter id="filter2_d_33_3367" x="32.856" y="148.08" width="21.7329" height="16.32" filterUnits="userSpaceOnUse" color-interpolation-filters="sRGB">
<feFlood flood-opacity="0" result="BackgroundImageFix"/>
<feColorMatrix in="SourceAlpha" type="matrix" values="0 0 0 0 0 0 0 0 0 0 0 0 0 0 0 0 0 0 127 0" result="hardAlpha"/>
<feOffset dy="2"/>
<feGaussianBlur stdDeviation="1.2"/>
<feComposite in2="hardAlpha" operator="out"/>
<feColorMatrix type="matrix" values="0 0 0 0 0.4 0 0 0 0 0.639216 0 0 0 0 0.517647 0 0 0 0.25 0"/>
<feBlend mode="normal" in2="BackgroundImageFix" result="effect1_dropShadow_33_3367"/>
<feBlend mode="normal" in="SourceGraphic" in2="effect1_dropShadow_33_3367" result="shape"/>
</filter>
<filter id="filter4_d_33_3367" x="-7.6" y="766.4" width="417.2" height="119.2" filterUnits="userSpaceOnUse" color-interpolation-filters="sRGB">
<feFlood flood-opacity="0" result="BackgroundImageFix"/>
<feColorMatrix in="SourceAlpha" type="matrix" values="0 0 0 0 0 0 0 0 0 0 0 0 0 0 0 0 0 0 127 0" result="hardAlpha"/>
<feOffset dy="4"/>
<feGaussianBlur stdDeviation="13.8"/>
<feComposite in2="hardAlpha" operator="out"/>
<feColorMatrix type="matrix" values="0 0 0 0 0.0196078 0 0 0 0 0.0196078 0 0 0 0 0.0784314 0 0 0 0.15 0"/>
<feBlend mode="normal" in2="BackgroundImageFix" result="effect1_dropShadow_33_3367"/>
<feBlend mode="normal" in="BackgroundImageFix" in2="effect1_dropShadow_33_3367" result="BackgroundImageFix"/>
<feBlend mode="normal" in="SourceGraphic" in2="BackgroundImageFix" result="shape"/>
</filter>
<filter id="filter5_ddiii_33_3367" x="138.567" y="756.9" width="202.2" height="136.2" filterUnits="userSpaceOnUse" color-interpolation-filters="sRGB">
<feFlood flood-opacity="0" result="BackgroundImageFix"/>
<feColorMatrix in="SourceAlpha" type="matrix" values="0 0 0 0 0 0 0 0 0 0 0 0 0 0 0 0 0 0 127 0" result="hardAlpha"/>
<feOffset dy="3"/>
<feGaussianBlur stdDeviation="19.55"/>
<feComposite in2="hardAlpha" operator="out"/>
<feColorMatrix type="matrix" values="0 0 0 0 0.410256 0 0 0 0 1 0 0 0 0 0.705128 0 0 0 0.18 0"/>
<feBlend mode="normal" in2="BackgroundImageFix" result="effect1_dropShadow_33_3367"/>
<feColorMatrix in="SourceAlpha" type="matrix" values="0 0 0 0 0 0 0 0 0 0 0 0 0 0 0 0 0 0 127 0" result="hardAlpha"/>
<feOffset/>
<feGaussianBlur stdDeviation="12.85"/>
<feComposite in2="hardAlpha" operator="out"/>
<feColorMatrix type="matrix" values="0 0 0 0 0.0627451 0 0 0 0 0.72549 0 0 0 0 0.505882 0 0 0 0.5 0"/>
<feBlend mode="plus-lighter" in2="effect1_dropShadow_33_3367" result="effect2_dropShadow_33_3367"/>
<feBlend mode="normal" in="SourceGraphic" in2="effect2_dropShadow_33_3367" result="shape"/>
<feColorMatrix in="SourceAlpha" type="matrix" values="0 0 0 0 0 0 0 0 0 0 0 0 0 0 0 0 0 0 127 0" result="hardAlpha"/>
<feOffset dy="6"/>
<feGaussianBlur stdDeviation="5.55"/>
<feComposite in2="hardAlpha" operator="arithmetic" k2="-1" k3="1"/>
<feColorMatrix type="matrix" values="0 0 0 0 0.711538 0 0 0 0 1 0 0 0 0 0.759615 0 0 0 0.65 0"/>
<feBlend mode="normal" in2="shape" result="effect3_innerShadow_33_3367"/>
<feColorMatrix in="SourceAlpha" type="matrix" values="0 0 0 0 0 0 0 0 0 0 0 0 0 0 0 0 0 0 127 0" result="hardAlpha"/>
<feOffset dy="2"/>
<feGaussianBlur stdDeviation="1.25"/>
<feComposite in2="hardAlpha" operator="arithmetic" k2="-1" k3="1"/>
<feColorMatrix type="matrix" values="0 0 0 0 1 0 0 0 0 1 0 0 0 0 1 0 0 0 0.5 0"/>
<feBlend mode="normal" in2="effect3_innerShadow_33_3367" result="effect4_innerShadow_33_3367"/>
<feColorMatrix in="SourceAlpha" type="matrix" values="0 0 0 0 0 0 0 0 0 0 0 0 0 0 0 0 0 0 127 0" result="hardAlpha"/>
<feOffset/>
<feGaussianBlur stdDeviation="6.15"/>
<feComposite in2="hardAlpha" operator="arithmetic" k2="-1" k3="1"/>
<feColorMatrix type="matrix" values="0 0 0 0 0.0218426 0 0 0 0 0.504808 0 0 0 0 0.0942874 0 0 0 1 0"/>
<feBlend mode="plus-lighter" in2="effect4_innerShadow_33_3367" result="effect5_innerShadow_33_3367"/>
</filter>
<filter id="filter6_dd_33_3367" x="207.517" y="811.854" width="24.3" height="24.298" filterUnits="userSpaceOnUse" color-interpolation-filters="sRGB">
<feFlood flood-opacity="0" result="BackgroundImageFix"/>
<feColorMatrix in="SourceAlpha" type="matrix" values="0 0 0 0 0 0 0 0 0 0 0 0 0 0 0 0 0 0 127 0" result="hardAlpha"/>
<feOffset dy="2"/>
<feGaussianBlur stdDeviation="1.2"/>
<feComposite in2="hardAlpha" operator="out"/>
<feColorMatrix type="matrix" values="0 0 0 0 0.4 0 0 0 0 0.639216 0 0 0 0 0.517647 0 0 0 0.25 0"/>
<feBlend mode="normal" in2="BackgroundImageFix" result="effect1_dropShadow_33_3367"/>
<feColorMatrix in="SourceAlpha" type="matrix" values="0 0 0 0 0 0 0 0 0 0 0 0 0 0 0 0 0 0 127 0" result="hardAlpha"/>
<feOffset dy="0.5"/>
<feComposite in2="hardAlpha" operator="out"/>
<feColorMatrix type="matrix" values="0 0 0 0 1 0 0 0 0 1 0 0 0 0 1 0 0 0 0.5 0"/>
<feBlend mode="normal" in2="effect1_dropShadow_33_3367" result="effect2_dropShadow_33_3367"/>
<feBlend mode="normal" in="SourceGraphic" in2="effect2_dropShadow_33_3367" result="shape"/>
</filter>
<filter id="filter7_dd_33_3367" x="236.051" y="816.08" width="37.7294" height="16.528" filterUnits="userSpaceOnUse" color-interpolation-filters="sRGB">
<feFlood flood-opacity="0" result="BackgroundImageFix"/>
<feColorMatrix in="SourceAlpha" type="matrix" values="0 0 0 0 0 0 0 0 0 0 0 0 0 0 0 0 0 0 127 0" result="hardAlpha"/>
<feOffset dy="2"/>
<feGaussianBlur stdDeviation="1.2"/>
<feComposite in2="hardAlpha" operator="out"/>
<feColorMatrix type="matrix" values="0 0 0 0 0.4 0 0 0 0 0.639216 0 0 0 0 0.517647 0 0 0 0.25 0"/>
<feBlend mode="normal" in2="BackgroundImageFix" result="effect1_dropShadow_33_3367"/>
<feColorMatrix in="SourceAlpha" type="matrix" values="0 0 0 0 0 0 0 0 0 0 0 0 0 0 0 0 0 0 127 0" result="hardAlpha"/>
<feOffset dy="0.5"/>
<feComposite in2="hardAlpha" operator="out"/>
<feColorMatrix type="matrix" values="0 0 0 0 1 0 0 0 0 1 0 0 0 0 1 0 0 0 0.5 0"/>
<feBlend mode="normal" in2="effect1_dropShadow_33_3367" result="effect2_dropShadow_33_3367"/>
<feBlend mode="normal" in="SourceGraphic" in2="effect2_dropShadow_33_3367" result="shape"/>
</filter>
<filter id="filter8_f_33_3367" x="152.867" y="786.2" width="173.6" height="112.6" filterUnits="userSpaceOnUse" color-interpolation-filters="sRGB">
<feFlood flood-opacity="0" result="BackgroundImageFix"/>
<feBlend mode="normal" in="SourceGraphic" in2="BackgroundImageFix" result="shape"/>
<feGaussianBlur stdDeviation="20.9" result="effect1_foregroundBlur_33_3367"/>
</filter>
<filter id="filter9_d_33_3367" x="154.576" y="330.439" width="139.758" height="138.198" filterUnits="userSpaceOnUse" color-interpolation-filters="sRGB">
<feFlood flood-opacity="0" result="BackgroundImageFix"/>
<feColorMatrix in="SourceAlpha" type="matrix" values="0 0 0 0 0 0 0 0 0 0 0 0 0 0 0 0 0 0 127 0" result="hardAlpha"/>
<feOffset dy="12.8333"/>
<feGaussianBlur stdDeviation="12.8333"/>
<feComposite in2="hardAlpha" operator="out"/>
<feColorMatrix type="matrix" values="0 0 0 0 0.0196078 0 0 0 0 0.0196078 0 0 0 0 0.0784314 0 0 0 0.08 0"/>
<feBlend mode="normal" in2="BackgroundImageFix" result="effect1_dropShadow_33_3367"/>
<feBlend mode="normal" in="SourceGraphic" in2="effect1_dropShadow_33_3367" result="shape"/>
</filter>
<filter id="filter10_d_33_3367" x="109.616" y="290.203" width="154.93" height="153.024" filterUnits="userSpaceOnUse" color-interpolation-filters="sRGB">
<feFlood flood-opacity="0" result="BackgroundImageFix"/>
<feColorMatrix in="SourceAlpha" type="matrix" values="0 0 0 0 0 0 0 0 0 0 0 0 0 0 0 0 0 0 127 0" result="hardAlpha"/>
<feOffset dy="12.8333"/>
<feGaussianBlur stdDeviation="11.8708"/>
<feComposite in2="hardAlpha" operator="out"/>
<feColorMatrix type="matrix" values="0 0 0 0 0.0196078 0 0 0 0 0.0196078 0 0 0 0 0.0784314 0 0 0 0.1 0"/>
<feBlend mode="normal" in2="BackgroundImageFix" result="effect1_dropShadow_33_3367"/>
<feBlend mode="normal" in="SourceGraphic" in2="effect1_dropShadow_33_3367" result="shape"/>
</filter>
<radialGradient id="paint0_radial_33_3367" cx="0" cy="0" r="1" gradientUnits="userSpaceOnUse" gradientTransform="translate(239.667 846) rotate(-90) scale(45.5 68.5141)">
<stop stop-color="#9FF7C0"/>
<stop offset="0.34286" stop-color="#45D27B"/>
<stop offset="1" stop-color="#129C8D"/>
</radialGradient>
<clipPath id="clip0_33_3367">
<rect width="402" height="874" rx="8" fill="white"/>
</clipPath>
<clipPath id="clip1_33_3367">
<rect x="182.667" y="798" width="114" height="48" rx="24" fill="white"/>
</clipPath>
</defs>
</svg>
