<svg width="16" height="16" viewBox="0 0 16 16" fill="none" xmlns="http://www.w3.org/2000/svg">
<g id="Time" clip-path="url(#clip0_33_2715)">
<g id="Vector" filter="url(#filter0_d_33_2715)">
<path fill-rule="evenodd" clip-rule="evenodd" d="M5.51396 1.99638C8.82986 0.622635 12.6309 2.19794 14.0046 5.5136C15.3783 8.8295 13.803 12.6306 10.4874 14.0042C7.17146 15.378 3.37038 13.8027 1.99674 10.487C0.623775 7.17124 2.19821 3.37006 5.51396 1.99638ZM8.3127 5.32362C8.3127 5.04748 8.08884 4.82362 7.8127 4.82362C7.53656 4.82362 7.3127 5.04748 7.3127 5.32362V8.42429C7.3127 8.59865 7.40354 8.76043 7.55242 8.8512L9.98975 10.3372C10.2255 10.4809 10.5332 10.4063 10.6769 10.1706C10.8207 9.93479 10.7461 9.62712 10.5103 9.48337L8.3127 8.14353V5.32362Z" fill="#94A3B8"/>
<path d="M7.8127 4.82362C8.08884 4.82362 8.3127 5.04748 8.3127 5.32362V8.14353L10.5103 9.48337C10.7461 9.62712 10.8207 9.93479 10.6769 10.1706C10.5332 10.4063 10.2255 10.4809 9.98975 10.3372L7.55242 8.8512C7.40354 8.76043 7.3127 8.59865 7.3127 8.42429V5.32362C7.3127 5.04748 7.53656 4.82362 7.8127 4.82362Z" fill="white"/>
</g>
</g>
<defs>
<filter id="filter0_d_33_2715" x="-5.13251" y="-5.13318" width="26.2667" height="26.267" filterUnits="userSpaceOnUse" color-interpolation-filters="sRGB">
<feFlood flood-opacity="0" result="BackgroundImageFix"/>
<feColorMatrix in="SourceAlpha" type="matrix" values="0 0 0 0 0 0 0 0 0 0 0 0 0 0 0 0 0 0 127 0" result="hardAlpha"/>
<feOffset/>
<feGaussianBlur stdDeviation="3.30318"/>
<feComposite in2="hardAlpha" operator="out"/>
<feColorMatrix type="matrix" values="0 0 0 0 1 0 0 0 0 1 0 0 0 0 1 0 0 0 1 0"/>
<feBlend mode="normal" in2="BackgroundImageFix" result="effect1_dropShadow_33_2715"/>
<feBlend mode="normal" in="SourceGraphic" in2="effect1_dropShadow_33_2715" result="shape"/>
</filter>
<clipPath id="clip0_33_2715">
<rect width="15.9354" height="15.9354" fill="white" transform="matrix(-1.00405 0 0 1.00405 16 0)"/>
</clipPath>
</defs>
</svg>
