<svg width="154" height="154" viewBox="0 0 154 154" fill="none" xmlns="http://www.w3.org/2000/svg">
  <!-- Main background circle -->
  <circle cx="77" cy="77" r="77" fill="#F1F5F9"/>
  
  <!-- Bottom left chat bubble -->
  <path d="M38 85C38 74.507 46.507 66 57 66H87C97.493 66 106 74.507 106 85V105C106 115.493 97.493 124 87 124H57C46.507 124 38 115.493 38 105V85Z" fill="#E2E8F0"/>
  
  <!-- Top right chat bubble -->
  <path d="M58 55C58 44.507 66.507 36 77 36H107C117.493 36 126 44.507 126 55V75C126 85.493 117.493 94 107 94H77C66.507 94 58 85.493 58 75V55Z" fill="#CBD5E1"/>
  
  <!-- Chat dots on bottom bubble -->
  <circle cx="62" cy="95" r="4" fill="#94A3B8"/>
  <circle cx="77" cy="95" r="4" fill="#94A3B8"/>
  <circle cx="92" cy="95" r="4" fill="#94A3B8"/>
  
  <!-- Chat dots on top bubble -->
  <circle cx="82" cy="65" r="3" fill="#94A3B8"/>
  <circle cx="93" cy="65" r="3" fill="#94A3B8"/>
  <circle cx="104" cy="65" r="3" fill="#94A3B8"/>
</svg>
