<svg width="153" height="153" viewBox="0 0 153 153" fill="none" xmlns="http://www.w3.org/2000/svg">
<g id="Button" filter="url(#filter0_d_33_3444)">
<path d="M52.5 76.5C52.5 63.2452 63.2452 52.5 76.5 52.5C89.7548 52.5 100.5 63.2452 100.5 76.5C100.5 89.7548 89.7548 100.5 76.5 100.5C63.2452 100.5 52.5 89.7548 52.5 76.5Z" fill="white" shape-rendering="crispEdges"/>
<g id="DotsThreeVertical">
<path id="Vector" d="M76.5 81.5C76.8647 81.5 77.2148 81.6445 77.4727 81.9023C77.7305 82.1602 77.875 82.5103 77.875 82.875C77.875 83.1468 77.7945 83.4126 77.6436 83.6387C77.4925 83.8648 77.2776 84.0414 77.0264 84.1455C76.7751 84.2496 76.4982 84.2767 76.2314 84.2236C75.9648 84.1705 75.7196 84.0399 75.5273 83.8477C75.3351 83.6554 75.2045 83.4102 75.1514 83.1436C75.0983 82.8768 75.1254 82.5999 75.2295 82.3486C75.3336 82.0974 75.5102 81.8825 75.7363 81.7314C75.9624 81.5805 76.2282 81.5 76.5 81.5ZM76.5 75.125C76.8647 75.125 77.2148 75.2695 77.4727 75.5273C77.7305 75.7852 77.875 76.1353 77.875 76.5C77.875 76.7718 77.7945 77.0376 77.6436 77.2637C77.4925 77.4898 77.2776 77.6664 77.0264 77.7705C76.7751 77.8746 76.4982 77.9017 76.2314 77.8486C75.9648 77.7955 75.7196 77.6649 75.5273 77.4727C75.3351 77.2804 75.2045 77.0352 75.1514 76.7686C75.0983 76.5018 75.1254 76.2249 75.2295 75.9736C75.3336 75.7224 75.5102 75.5075 75.7363 75.3564C75.9624 75.2055 76.2282 75.125 76.5 75.125ZM76.7686 68.7764C77.0352 68.8295 77.2804 68.9601 77.4727 69.1523C77.6649 69.3446 77.7955 69.5898 77.8486 69.8564C77.9017 70.1232 77.8746 70.4001 77.7705 70.6514C77.6664 70.9026 77.4898 71.1175 77.2637 71.2686C77.0376 71.4195 76.7718 71.5 76.5 71.5C76.1353 71.5 75.7852 71.3555 75.5273 71.0977C75.2695 70.8398 75.125 70.4897 75.125 70.125C75.125 69.8532 75.2055 69.5874 75.3564 69.3613C75.5075 69.1352 75.7224 68.9586 75.9736 68.8545C76.2249 68.7504 76.5018 68.7233 76.7686 68.7764Z" fill="#0F172A" stroke="#10172A" stroke-width="0.5"/>
</g>
</g>
<defs>
<filter id="filter0_d_33_3444" x="0" y="0" width="153" height="153" filterUnits="userSpaceOnUse" color-interpolation-filters="sRGB">
<feFlood flood-opacity="0" result="BackgroundImageFix"/>
<feColorMatrix in="SourceAlpha" type="matrix" values="0 0 0 0 0 0 0 0 0 0 0 0 0 0 0 0 0 0 127 0" result="hardAlpha"/>
<feOffset/>
<feGaussianBlur stdDeviation="26.25"/>
<feComposite in2="hardAlpha" operator="out"/>
<feColorMatrix type="matrix" values="0 0 0 0 0.0196078 0 0 0 0 0.0196078 0 0 0 0 0.0784314 0 0 0 0.1 0"/>
<feBlend mode="normal" in2="BackgroundImageFix" result="effect1_dropShadow_33_3444"/>
<feBlend mode="normal" in="SourceGraphic" in2="effect1_dropShadow_33_3444" result="shape"/>
</filter>
</defs>
</svg>
