<svg width="24" height="24" viewBox="0 0 24 24" fill="none" xmlns="http://www.w3.org/2000/svg">
<g id="DotsThreeVertical">
<path id="Vector" d="M12 17C12.3647 17 12.7148 17.1445 12.9727 17.4023C13.2305 17.6602 13.375 18.0103 13.375 18.375C13.375 18.6468 13.2945 18.9126 13.1436 19.1387C12.9925 19.3648 12.7776 19.5414 12.5264 19.6455C12.2751 19.7496 11.9982 19.7767 11.7314 19.7236C11.4648 19.6705 11.2196 19.5399 11.0273 19.3477C10.8351 19.1554 10.7045 18.9102 10.6514 18.6436C10.5983 18.3768 10.6254 18.0999 10.7295 17.8486C10.8336 17.5974 11.0102 17.3825 11.2363 17.2314C11.4624 17.0805 11.7282 17 12 17ZM12 10.625C12.3647 10.625 12.7148 10.7695 12.9727 11.0273C13.2305 11.2852 13.375 11.6353 13.375 12C13.375 12.2718 13.2945 12.5376 13.1436 12.7637C12.9925 12.9898 12.7776 13.1664 12.5264 13.2705C12.2751 13.3746 11.9982 13.4017 11.7314 13.3486C11.4648 13.2955 11.2196 13.1649 11.0273 12.9727C10.8351 12.7804 10.7045 12.5352 10.6514 12.2686C10.5983 12.0018 10.6254 11.7249 10.7295 11.4736C10.8336 11.2224 11.0102 11.0075 11.2363 10.8564C11.4624 10.7055 11.7282 10.625 12 10.625ZM12.2686 4.27637C12.5352 4.32946 12.7804 4.46011 12.9727 4.65234C13.1649 4.84457 13.2955 5.08983 13.3486 5.35645C13.4017 5.62317 13.3746 5.90012 13.2705 6.15137C13.1664 6.40258 12.9898 6.61749 12.7637 6.76855C12.5376 6.91952 12.2718 7 12 7C11.6353 7 11.2852 6.85552 11.0273 6.59766C10.7695 6.33979 10.625 5.98967 10.625 5.625C10.625 5.35317 10.7055 5.08738 10.8564 4.86133C11.0075 4.63524 11.2224 4.45857 11.4736 4.35449C11.7249 4.25042 12.0018 4.22331 12.2686 4.27637Z" fill="#0F172A" stroke="#10172A" stroke-width="0.5"/>
</g>
</svg>
