<svg width="4" height="16" viewBox="0 0 4 16" fill="none" xmlns="http://www.w3.org/2000/svg">
<path id="Vector" d="M1.625 13C1.98967 13 2.33979 13.1445 2.59766 13.4023C2.85552 13.6602 3 14.0103 3 14.375C3 14.6468 2.91951 14.9126 2.76855 15.1387C2.61749 15.3648 2.40258 15.5414 2.15137 15.6455C1.90012 15.7496 1.62317 15.7767 1.35645 15.7236C1.08983 15.6705 0.844572 15.5399 0.652344 15.3477C0.460114 15.1554 0.329458 14.9102 0.276367 14.6436C0.223313 14.3768 0.250422 14.0999 0.354492 13.8486C0.458567 13.5974 0.635237 13.3825 0.861328 13.2314C1.08738 13.0805 1.35317 13 1.625 13ZM1.625 6.625C1.98967 6.625 2.33979 6.76948 2.59766 7.02734C2.85552 7.28521 3 7.63533 3 8C3 8.27183 2.91951 8.53762 2.76855 8.76367C2.61749 8.98976 2.40258 9.16643 2.15137 9.27051C1.90012 9.37458 1.62317 9.40169 1.35645 9.34863C1.08983 9.29554 0.844573 9.16489 0.652344 8.97266C0.460114 8.78043 0.329458 8.53517 0.276367 8.26855C0.223312 8.00183 0.250422 7.72488 0.354492 7.47363C0.458568 7.22242 0.635238 7.00751 0.861328 6.85645C1.08738 6.70548 1.35317 6.625 1.625 6.625ZM1.89355 0.276367C2.16017 0.329458 2.40543 0.460115 2.59766 0.652344C2.78989 0.844572 2.92054 1.08983 2.97363 1.35645C3.02669 1.62317 2.99958 1.90012 2.89551 2.15137C2.79143 2.40258 2.61476 2.61749 2.38867 2.76855C2.16262 2.91952 1.89683 3 1.625 3C1.26033 3 0.910206 2.85552 0.652344 2.59766C0.394482 2.33979 0.25 1.98967 0.25 1.625C0.25 1.35317 0.330485 1.08738 0.481445 0.861328C0.632514 0.635238 0.847423 0.458567 1.09863 0.354492C1.34988 0.250422 1.62683 0.223312 1.89355 0.276367Z" fill="#0F172A" stroke="#10172A" stroke-width="0.5"/>
</svg>
