<svg width="306" height="48" viewBox="0 0 306 48" fill="none" xmlns="http://www.w3.org/2000/svg">
<g id="Input">
<path d="M24 0.5H282C294.979 0.5 305.5 11.0213 305.5 24C305.5 36.9787 294.979 47.5 282 47.5H24C11.0213 47.5 0.5 36.9787 0.5 24C0.5 11.0213 11.0213 0.5 24 0.5Z" fill="white"/>
<path d="M24 0.5H282C294.979 0.5 305.5 11.0213 305.5 24C305.5 36.9787 294.979 47.5 282 47.5H24C11.0213 47.5 0.5 36.9787 0.5 24C0.5 11.0213 11.0213 0.5 24 0.5Z" stroke="#E2E8F0"/>
<g id="Search Check">
<path id="Vector" d="M31.25 32.25L27.7438 28.7437M22.3817 15.75C18.1736 15.75 14.75 19.0801 14.75 23.1746C14.75 27.269 18.1736 30.6 22.3817 30.6C26.5889 30.6 30.0125 27.269 30.0125 23.1746C30.0125 19.0801 26.5889 15.75 22.3817 15.75Z" stroke="#94A3B8" stroke-width="1.375" stroke-linecap="round" stroke-linejoin="round"/>
</g>
<path id="Search" d="M44.368 21.776C44.368 24.848 51.04 22.464 51.04 26.928C51.04 29.024 49.344 30.192 47.024 30.192C44.688 30.192 43.088 29.12 42.608 26.928H44.144C44.496 28.224 45.472 28.928 47.04 28.928C48.672 28.928 49.536 28.208 49.536 27.12C49.536 23.792 42.864 26.272 42.864 21.872C42.864 20.304 44.176 18.928 46.576 18.928C48.672 18.928 50.352 19.936 50.752 22.256H49.2C48.864 20.816 47.936 20.192 46.544 20.192C45.168 20.192 44.368 20.816 44.368 21.776ZM59.9246 27.232C59.4606 29.216 58.0366 30.192 56.1006 30.192C53.6366 30.192 52.1486 28.528 52.1486 25.76C52.1486 22.88 53.6366 21.296 56.0206 21.296C58.4206 21.296 59.8606 22.944 59.8606 25.648V26H53.5886C53.6686 27.904 54.5646 28.976 56.1006 28.976C57.3006 28.976 58.1486 28.4 58.4526 27.232H59.9246ZM56.0206 22.512C54.6606 22.512 53.8446 23.36 53.6366 24.944H58.3886C58.1966 23.376 57.3486 22.512 56.0206 22.512ZM62.8529 24.272H61.4449C61.7169 22.4 62.9489 21.296 65.0289 21.296C67.3009 21.296 68.4049 22.624 68.4049 24.608V27.952C68.4049 28.928 68.4849 29.536 68.7089 30H67.2209C67.0609 29.664 67.0129 29.168 66.9969 28.656C66.2769 29.728 65.1249 30.192 64.1009 30.192C62.3409 30.192 61.1569 29.376 61.1569 27.76C61.1569 26.592 61.7969 25.744 63.0449 25.328C64.1969 24.944 65.3649 24.848 66.9969 24.832V24.64C66.9969 23.264 66.3569 22.512 64.9009 22.512C63.6849 22.512 63.0289 23.184 62.8529 24.272ZM62.5969 27.728C62.5969 28.512 63.2529 28.976 64.2449 28.976C65.8129 28.976 66.9969 27.744 66.9969 26.288V25.888C63.3809 25.92 62.5969 26.688 62.5969 27.728ZM70.5331 30V21.504H71.9411V22.816C72.5171 21.776 73.4291 21.296 74.4531 21.296C74.7891 21.296 75.0931 21.376 75.2531 21.504V22.768C75.0131 22.688 74.7091 22.656 74.3731 22.656C72.6771 22.656 71.9411 23.712 71.9411 25.248V30H70.5331ZM83.1896 24.432H81.7816C81.5576 23.136 80.6936 22.512 79.5736 22.512C78.0056 22.512 77.1736 23.664 77.1736 25.76C77.1736 27.824 78.0536 28.992 79.6216 28.992C80.7576 28.992 81.5736 28.384 81.8456 27.168H83.2536C82.8696 29.28 81.4456 30.192 79.5896 30.192C77.1736 30.192 75.7336 28.512 75.7336 25.76C75.7336 22.88 77.2056 21.296 79.5736 21.296C81.4456 21.296 82.9176 22.352 83.1896 24.432ZM84.8137 30V18.48H86.2217V22.656C86.7977 21.76 87.7257 21.296 88.8457 21.296C90.6537 21.296 91.7257 22.352 91.7257 24.32V30H90.3177V24.608C90.3177 23.328 89.7417 22.496 88.4617 22.496C87.0537 22.496 86.2217 23.76 86.2217 24.976V30H84.8137Z" fill="#94A3B8"/>
</g>
</svg>
