<svg width="42" height="41" viewBox="0 0 42 41" fill="none" xmlns="http://www.w3.org/2000/svg">
<g id="ChatsCircle">
<g id="Group 20">
<g id="Group 19">
<g id="Group 18" opacity="0.5" filter="url(#filter0_d_33_2706)">
<path id="Vector" d="M25.9502 31.1093C20.8204 31.2305 16.5636 27.1703 16.4424 22.0404C16.3211 16.9106 20.3814 12.6538 25.5112 12.5326C30.6411 12.4114 34.8979 16.4717 35.0191 21.6015C35.0563 23.1771 34.6991 24.6703 34.0376 25.9866C33.9449 26.1709 33.9305 26.386 34.007 26.5776L35.5191 30.3641C35.7302 30.8927 35.2478 31.4356 34.698 31.2882L30.3214 30.1144C30.1531 30.0692 29.9745 30.0903 29.818 30.1671C28.6482 30.7409 27.3384 31.0765 25.9502 31.1093Z" fill="#F1F5F9" stroke="#94A3B8" stroke-opacity="0.65" stroke-width="1.41667"/>
</g>
<g id="Group 17" filter="url(#filter1_d_33_2706)">
<path id="Vector_2" d="M17.7508 25.8356C24.0163 25.9837 29.2155 21.0245 29.3635 14.759C29.5116 8.49352 24.5524 3.29434 18.2869 3.1463C12.0214 2.99825 6.82223 7.95741 6.67419 14.2229C6.62872 16.1473 7.06504 17.9711 7.873 19.5788C7.98616 19.8039 8.00377 20.0666 7.9103 20.3006L6.06348 24.9254C5.80566 25.571 6.39484 26.2341 7.06631 26.054L12.4119 24.6204C12.6174 24.5653 12.8356 24.591 13.0267 24.6848C14.4555 25.3856 16.0553 25.7956 17.7508 25.8356Z" fill="white" stroke="#94A3B8" stroke-opacity="0.65" stroke-width="1.41667"/>
<path id="Vector_3" d="M13.6552 15.8031C14.2148 15.8031 14.6684 15.3495 14.6684 14.7899C14.6684 14.2303 14.2148 13.7767 13.6552 13.7767C13.0956 13.7767 12.642 14.2303 12.642 14.7899C12.642 15.3495 13.0956 15.8031 13.6552 15.8031ZM17.8769 15.8031C18.4365 15.8031 18.8901 15.3495 18.8901 14.7899C18.8901 14.2303 18.4365 13.7767 17.8769 13.7767C17.3173 13.7767 16.8637 14.2303 16.8637 14.7899C16.8637 15.3495 17.3173 15.8031 17.8769 15.8031ZM22.2674 15.8031C22.827 15.8031 23.2806 15.3495 23.2806 14.7899C23.2806 14.2303 22.827 13.7767 22.2674 13.7767C21.7078 13.7767 21.2542 14.2303 21.2542 14.7899C21.2542 15.3495 21.7078 15.8031 22.2674 15.8031Z" fill="#94A3B8" fill-opacity="0.65" stroke="#94A3B8" stroke-opacity="0.65" stroke-width="0.334906"/>
</g>
</g>
<g id="Time" clip-path="url(#clip0_33_2706)">
<g id="Vector_4" filter="url(#filter2_d_33_2706)">
<path fill-rule="evenodd" clip-rule="evenodd" d="M19.9656 18.0321C23.296 16.6524 27.1137 18.2345 28.4933 21.5647C29.8731 24.8951 28.2909 28.7128 24.9607 30.0925C21.6303 31.4722 17.8126 29.89 16.433 26.5599C15.054 23.2296 16.6353 19.4118 19.9656 18.0321ZM22.7765 21.3739C22.7765 21.0965 22.5517 20.8717 22.2744 20.8717C21.997 20.8717 21.7722 21.0965 21.7722 21.3739V24.4881C21.7722 24.6633 21.8634 24.8257 22.0129 24.9169L24.4609 26.4094C24.6977 26.5538 25.0067 26.4788 25.1511 26.242C25.2955 26.0052 25.2206 25.6962 24.9838 25.5518L22.7765 24.2061V21.3739Z" fill="#94A3B8"/>
<path d="M22.2744 20.8717C22.5517 20.8717 22.7765 21.0965 22.7765 21.3739V24.2061L24.9838 25.5518C25.2206 25.6962 25.2955 26.0052 25.1511 26.242C25.0067 26.4788 24.6977 26.5538 24.4609 26.4094L22.0129 24.9169C21.8634 24.8257 21.7722 24.6633 21.7722 24.4881V21.3739C21.7722 21.0965 21.997 20.8717 22.2744 20.8717Z" fill="white"/>
</g>
</g>
</g>
</g>
<defs>
<filter id="filter0_d_33_2706" x="10.0109" y="8.95846" width="31.9891" height="31.6412" filterUnits="userSpaceOnUse" color-interpolation-filters="sRGB">
<feFlood flood-opacity="0" result="BackgroundImageFix"/>
<feColorMatrix in="SourceAlpha" type="matrix" values="0 0 0 0 0 0 0 0 0 0 0 0 0 0 0 0 0 0 127 0" result="hardAlpha"/>
<feOffset dy="2.83333"/>
<feGaussianBlur stdDeviation="2.83333"/>
<feComposite in2="hardAlpha" operator="out"/>
<feColorMatrix type="matrix" values="0 0 0 0 0.0196078 0 0 0 0 0.0196078 0 0 0 0 0.0784314 0 0 0 0.08 0"/>
<feBlend mode="normal" in2="BackgroundImageFix" result="effect1_dropShadow_33_2706"/>
<feBlend mode="normal" in="SourceGraphic" in2="effect1_dropShadow_33_2706" result="shape"/>
</filter>
<filter id="filter1_d_33_2706" x="-2.88518e-05" y="0.000114686" width="35.3671" height="34.9424" filterUnits="userSpaceOnUse" color-interpolation-filters="sRGB">
<feFlood flood-opacity="0" result="BackgroundImageFix"/>
<feColorMatrix in="SourceAlpha" type="matrix" values="0 0 0 0 0 0 0 0 0 0 0 0 0 0 0 0 0 0 127 0" result="hardAlpha"/>
<feOffset dy="2.83333"/>
<feGaussianBlur stdDeviation="2.62083"/>
<feComposite in2="hardAlpha" operator="out"/>
<feColorMatrix type="matrix" values="0 0 0 0 0.0196078 0 0 0 0 0.0196078 0 0 0 0 0.0784314 0 0 0 0.1 0"/>
<feBlend mode="normal" in2="BackgroundImageFix" result="effect1_dropShadow_33_2706"/>
<feBlend mode="normal" in="SourceGraphic" in2="effect1_dropShadow_33_2706" result="shape"/>
</filter>
<filter id="filter2_d_33_2706" x="9.27254" y="10.8714" width="26.3815" height="26.3818" filterUnits="userSpaceOnUse" color-interpolation-filters="sRGB">
<feFlood flood-opacity="0" result="BackgroundImageFix"/>
<feColorMatrix in="SourceAlpha" type="matrix" values="0 0 0 0 0 0 0 0 0 0 0 0 0 0 0 0 0 0 127 0" result="hardAlpha"/>
<feOffset/>
<feGaussianBlur stdDeviation="3.30318"/>
<feComposite in2="hardAlpha" operator="out"/>
<feColorMatrix type="matrix" values="0 0 0 0 1 0 0 0 0 1 0 0 0 0 1 0 0 0 1 0"/>
<feBlend mode="normal" in2="BackgroundImageFix" result="effect1_dropShadow_33_2706"/>
<feBlend mode="normal" in="SourceGraphic" in2="effect1_dropShadow_33_2706" result="shape"/>
</filter>
<clipPath id="clip0_33_2706">
<rect width="15.9354" height="15.9354" fill="white" transform="matrix(-1.00844 0 0 1.00844 30.4975 16.027)"/>
</clipPath>
</defs>
</svg>
