<svg preserveAspectRatio="none" width="100%" height="100%" overflow="visible" style="display: block;" viewBox="0 0 24.3459 18.9975" fill="none" xmlns="http://www.w3.org/2000/svg">
<g id="Group 10">
<g id="Group" filter="url(#filter0_i_0_96)">
<path id="Vector" d="M13.7631 1.69727H2.75635V4.90632H12.8812C13.1229 4.90632 13.3187 5.10214 13.3187 5.34382V8.99659H16.972V4.90632C16.972 3.13401 15.5354 1.69727 13.7631 1.69727Z" fill="url(#paint0_linear_0_96)"/>
</g>
<g id="Group_2" filter="url(#filter1_f_0_96)">
<path id="Vector_2" d="M4.37134 2.38696H13.6241C15.2469 2.38696 16.3091 3.29504 16.3091 5.02605" stroke="url(#paint1_linear_0_96)" stroke-width="0.56875"/>
</g>
<path id="Vector_3" d="M24.3459 5.57395C24.3459 5.28397 24.1109 5.04895 23.8209 5.04895H21.7573V11.6524H23.8209C24.1109 11.6524 24.3459 11.4174 24.3459 11.1274V5.57395Z" fill="var(--fill-0, #4C3F5B)"/>
<path id="Vector_4" d="M24.3459 5.57395C24.3459 5.28397 24.1109 5.04895 23.8209 5.04895H21.7573V11.6524H23.8209C24.1109 11.6524 24.3459 11.4174 24.3459 11.1274V5.57395Z" fill="url(#paint2_linear_0_96)"/>
<path id="Vector_5" d="M24.3459 5.57395C24.3459 5.28397 24.1109 5.04895 23.8209 5.04895H21.7573V11.6524H23.8209C24.1109 11.6524 24.3459 11.4174 24.3459 11.1274V5.57395Z" fill="url(#paint3_linear_0_96)"/>
<path id="Vector_6" d="M24.3459 5.57395C24.3459 5.28397 24.1109 5.04895 23.8209 5.04895H21.7573V11.6524H23.8209C24.1109 11.6524 24.3459 11.4174 24.3459 11.1274V5.57395Z" fill="url(#paint4_radial_0_96)"/>
<path id="Vector_7" d="M24.3459 5.57395C24.3459 5.28397 24.1109 5.04895 23.8209 5.04895H21.7573V11.6524H23.8209C24.1109 11.6524 24.3459 11.4174 24.3459 11.1274V5.57395Z" fill="url(#paint5_radial_0_96)"/>
<path id="Vector_8" d="M22.4488 5.25625C22.4488 5.06296 22.2921 4.90625 22.0988 4.90625H19.606C19.3644 4.90625 19.1685 5.10208 19.1685 5.34375V11.8805H22.0988C22.2921 11.8805 22.4488 11.7238 22.4488 11.5305V5.25625Z" fill="url(#paint6_linear_0_96)"/>
<path id="Vector_9" d="M22.4488 5.25625C22.4488 5.06296 22.2921 4.90625 22.0988 4.90625H19.606C19.3644 4.90625 19.1685 5.10208 19.1685 5.34375V11.8805H22.0988C22.2921 11.8805 22.4488 11.7238 22.4488 11.5305V5.25625Z" fill="url(#paint7_linear_0_96)"/>
<path id="Vector_10" d="M1.86841 0.991333H3.1366C3.5232 0.991333 3.8366 1.30473 3.8366 1.69133V4.91234C3.8366 5.29891 3.5232 5.61234 3.1366 5.61234H1.86841V0.991333Z" fill="url(#paint8_linear_0_96)"/>
<path id="Vector_11" d="M1.86841 0.991333H3.1366C3.5232 0.991333 3.8366 1.30473 3.8366 1.69133V4.91234C3.8366 5.29891 3.5232 5.61234 3.1366 5.61234H1.86841V0.991333Z" fill="url(#paint9_linear_0_96)"/>
<path id="Vector_12" d="M1.86841 0.991333H3.1366C3.5232 0.991333 3.8366 1.30473 3.8366 1.69133V4.91234C3.8366 5.29891 3.5232 5.61234 3.1366 5.61234H1.86841V0.991333Z" fill="url(#paint10_radial_0_96)"/>
<path id="Vector_13" d="M1.86841 0.991333H3.1366C3.5232 0.991333 3.8366 1.30473 3.8366 1.69133V4.91234C3.8366 5.29891 3.5232 5.61234 3.1366 5.61234H1.86841V0.991333Z" fill="url(#paint11_radial_0_96)"/>
<path id="Vector_14" d="M0 0.934194C0 0.41825 0.41825 0 0.934194 0C1.45013 0 1.86838 0.41825 1.86838 0.934185V5.66929C1.86838 6.18519 1.45013 6.60344 0.934194 6.60344C0.41825 6.60344 0 6.18519 0 5.66929V0.934194Z" fill="url(#paint12_linear_0_96)"/>
<path id="Vector_15" d="M0 0.934194C0 0.41825 0.41825 0 0.934194 0C1.45013 0 1.86838 0.41825 1.86838 0.934185V5.66929C1.86838 6.18519 1.45013 6.60344 0.934194 6.60344C0.41825 6.60344 0 6.18519 0 5.66929V0.934194Z" fill="url(#paint13_linear_0_96)"/>
<g id="Group_3" filter="url(#filter2_ii_0_96)">
<path id="Vector_16" d="M4.37134 5.34375C4.37134 5.10208 4.56722 4.90625 4.80884 4.90625H20.414C20.6556 4.90625 20.8515 5.10208 20.8515 5.34375V16.0584H4.37134V5.34375Z" fill="url(#paint14_radial_0_96)"/>
<path id="Vector_17" d="M4.37134 5.34375C4.37134 5.10208 4.56722 4.90625 4.80884 4.90625H20.414C20.6556 4.90625 20.8515 5.10208 20.8515 5.34375V16.0584H4.37134V5.34375Z" fill="url(#paint15_linear_0_96)"/>
<path id="Vector_18" d="M4.37134 5.34375C4.37134 5.10208 4.56722 4.90625 4.80884 4.90625H20.414C20.6556 4.90625 20.8515 5.10208 20.8515 5.34375V16.0584H4.37134V5.34375Z" fill="url(#paint16_linear_0_96)"/>
</g>
<g id="Group_4" filter="url(#filter3_f_0_96)">
<path id="Vector_19" d="M16.4326 11.7782H17.623C17.8163 11.7782 17.973 11.6214 17.973 11.4281V9.00466C17.973 8.81138 17.8163 8.65466 17.623 8.65466H16.4326V11.7782Z" fill="var(--fill-0, #A89FB2)"/>
</g>
<g id="Group_5" filter="url(#filter4_di_0_96)">
<path id="Vector_20" d="M6.37524 7.0688C6.37524 6.48885 6.84534 6.0188 7.4252 6.0188H15.6084C16.1883 6.0188 16.6584 6.48885 16.6584 7.0688V12.9414C16.6584 13.5213 16.1883 13.9914 15.6084 13.9914H7.4252C6.84535 13.9914 6.37524 13.5213 6.37524 12.9414V7.0688Z" fill="url(#paint17_linear_0_96)"/>
</g>
<path id="Vector_21" d="M6.37524 7.0688C6.37524 6.48885 6.84534 6.0188 7.4252 6.0188H15.6084C16.1883 6.0188 16.6584 6.48885 16.6584 7.0688V12.9414C16.6584 13.5213 16.1883 13.9914 15.6084 13.9914H7.4252C6.84535 13.9914 6.37524 13.5213 6.37524 12.9414V7.0688Z" fill="url(#paint18_linear_0_96)"/>
<path id="Vector_22" d="M6.37524 7.0688C6.37524 6.48885 6.84534 6.0188 7.4252 6.0188H15.6084C16.1883 6.0188 16.6584 6.48885 16.6584 7.0688V12.9414C16.6584 13.5213 16.1883 13.9914 15.6084 13.9914H7.4252C6.84535 13.9914 6.37524 13.5213 6.37524 12.9414V7.0688Z" fill="url(#paint19_radial_0_96)"/>
<g id="Group_6" filter="url(#filter5_ii_0_96)">
<path id="Vector_23" d="M7.54468 7.99001C7.54468 7.55505 7.89721 7.20251 8.33218 7.20251H14.7013C15.1362 7.20251 15.4888 7.55505 15.4888 7.99001V12.0201C15.4888 12.4551 15.1362 12.8076 14.7013 12.8076H8.33218C7.89721 12.8076 7.54468 12.4551 7.54468 12.0201V7.99001Z" fill="url(#paint20_linear_0_96)"/>
</g>
<path id="Vector_24" d="M7.54468 7.99001C7.54468 7.55505 7.89721 7.20251 8.33218 7.20251H14.7013C15.1362 7.20251 15.4888 7.55505 15.4888 7.99001V12.0201C15.4888 12.4551 15.1362 12.8076 14.7013 12.8076H8.33218C7.89721 12.8076 7.54468 12.4551 7.54468 12.0201V7.99001Z" fill="url(#paint21_radial_0_96)"/>
<path id="Vector_25" d="M7.54468 7.99001C7.54468 7.55505 7.89721 7.20251 8.33218 7.20251H14.7013C15.1362 7.20251 15.4888 7.55505 15.4888 7.99001V12.0201C15.4888 12.4551 15.1362 12.8076 14.7013 12.8076H8.33218C7.89721 12.8076 7.54468 12.4551 7.54468 12.0201V7.99001Z" fill="url(#paint22_linear_0_96)"/>
<g id="Group_7" filter="url(#filter6_ii_0_96)">
<path id="Vector_26" d="M4.104 15.5109C4.104 15.3176 4.26071 15.1609 4.454 15.1609H20.769C20.9623 15.1609 21.119 15.3176 21.119 15.5109V17.2475C21.119 18.2139 20.3355 18.9975 19.369 18.9975H5.854C4.88751 18.9975 4.104 18.2139 4.104 17.2475V15.5109Z" fill="url(#paint23_linear_0_96)"/>
<path id="Vector_27" d="M4.104 15.5109C4.104 15.3176 4.26071 15.1609 4.454 15.1609H20.769C20.9623 15.1609 21.119 15.3176 21.119 15.5109V17.2475C21.119 18.2139 20.3355 18.9975 19.369 18.9975H5.854C4.88751 18.9975 4.104 18.2139 4.104 17.2475V15.5109Z" fill="url(#paint24_linear_0_96)"/>
<path id="Vector_28" d="M4.104 15.5109C4.104 15.3176 4.26071 15.1609 4.454 15.1609H20.769C20.9623 15.1609 21.119 15.3176 21.119 15.5109V17.2475C21.119 18.2139 20.3355 18.9975 19.369 18.9975H5.854C4.88751 18.9975 4.104 18.2139 4.104 17.2475V15.5109Z" fill="url(#paint25_linear_0_96)"/>
</g>
<path id="Vector_29" d="M4.104 15.5109C4.104 15.3176 4.26071 15.1609 4.454 15.1609H20.769C20.9623 15.1609 21.119 15.3176 21.119 15.5109V17.2475C21.119 18.2139 20.3355 18.9975 19.369 18.9975H5.854C4.88751 18.9975 4.104 18.2139 4.104 17.2475V15.5109Z" fill="url(#paint26_linear_0_96)"/>
<g id="Group_8" filter="url(#filter7_d_0_96)">
<path id="Vector_30" d="M9.24194 17.0935C9.24194 16.7982 9.48143 16.5587 9.77674 16.5587H11.0318C11.3272 16.5587 11.5667 16.7982 11.5667 17.0935C11.5667 17.3889 11.3272 17.6284 11.0318 17.6284H9.77674C9.48143 17.6284 9.24194 17.3889 9.24194 17.0935Z" fill="url(#paint27_linear_0_96)"/>
</g>
<g id="Group_9" filter="url(#filter8_d_0_96)">
<path id="Vector_31" d="M15.0966 17.0792C15.0966 17.4219 14.8188 17.6997 14.4762 17.6997C14.1335 17.6997 13.8557 17.4219 13.8557 17.0792C13.8557 16.7366 14.1335 16.4589 14.4762 16.4589C14.8188 16.4589 15.0966 16.7366 15.0966 17.0792Z" fill="url(#paint28_linear_0_96)"/>
<path id="Vector_32" d="M15.0966 17.0792C15.0966 17.4219 14.8188 17.6997 14.4762 17.6997C14.1335 17.6997 13.8557 17.4219 13.8557 17.0792C13.8557 16.7366 14.1335 16.4589 14.4762 16.4589C14.8188 16.4589 15.0966 16.7366 15.0966 17.0792Z" fill="url(#paint29_radial_0_96)"/>
</g>
<g id="Group_10" filter="url(#filter9_f_0_96)">
<path id="Vector_33" d="M1.59752 0.78814C1.59752 0.628667 1.46824 0.49939 1.30877 0.49939C1.1493 0.49939 1.02002 0.628667 1.02002 0.78814V5.32326C1.02002 5.48274 1.1493 5.61201 1.30877 5.61201C1.46824 5.61201 1.59752 5.48274 1.59752 5.32326V0.78814Z" fill="url(#paint30_linear_0_96)"/>
</g>
<g id="Group_11" filter="url(#filter10_f_0_96)">
<path id="Vector_34" d="M4.85596 15.621H20.5239" stroke="url(#paint31_linear_0_96)" stroke-width="0.175" stroke-linecap="round"/>
</g>
<g id="Group_12" filter="url(#filter11_f_0_96)">
<path id="Vector_35" d="M11.1885 16.8785H9.70805C9.65247 16.8785 9.60742 16.9234 9.60742 16.9787C9.60742 17.0341 9.65247 17.0789 9.70805 17.0789H11.1885C11.2441 17.0789 11.2892 17.0341 11.2892 16.9787C11.2892 16.9234 11.2441 16.8785 11.1885 16.8785Z" fill="url(#paint32_linear_0_96)"/>
</g>
<g id="Group_13" filter="url(#filter12_f_0_96)">
<path id="Vector_36" d="M8.18091 7.67761H14.7655C14.9104 7.67761 15.028 7.79512 15.028 7.94011V12.0117" stroke="url(#paint33_linear_0_96)" stroke-width="0.2625" stroke-linecap="round"/>
</g>
<g id="Group_14" filter="url(#filter13_i_0_96)">
<path id="Vector_37" d="M16.6582 11.5668H17.8486C18.0418 11.5668 18.1986 11.4101 18.1986 11.2168V8.79336C18.1986 8.60007 18.0418 8.44336 17.8486 8.44336H16.6582V11.5668Z" fill="var(--fill-0, #EEE8F6)"/>
<path id="Vector_38" d="M16.6582 11.5668H17.8486C18.0418 11.5668 18.1986 11.4101 18.1986 11.2168V8.79336C18.1986 8.60007 18.0418 8.44336 17.8486 8.44336H16.6582V11.5668Z" fill="url(#paint34_linear_0_96)"/>
</g>
</g>
<defs>
<filter id="filter0_i_0_96" x="2.75635" y="0.997266" width="14.2157" height="7.99933" filterUnits="userSpaceOnUse" color-interpolation-filters="sRGB">
<feFlood flood-opacity="0" result="BackgroundImageFix"/>
<feBlend mode="normal" in="SourceGraphic" in2="BackgroundImageFix" result="shape"/>
<feColorMatrix in="SourceAlpha" type="matrix" values="0 0 0 0 0 0 0 0 0 0 0 0 0 0 0 0 0 0 127 0" result="hardAlpha"/>
<feOffset dy="-0.7"/>
<feGaussianBlur stdDeviation="0.4375"/>
<feComposite in2="hardAlpha" operator="arithmetic" k2="-1" k3="1"/>
<feColorMatrix type="matrix" values="0 0 0 0 0.184314 0 0 0 0 0.152941 0 0 0 0 0.219608 0 0 0 1 0"/>
<feBlend mode="normal" in2="shape" result="effect1_innerShadow_0_96"/>
</filter>
<filter id="filter1_f_0_96" x="3.80259" y="1.53384" width="13.3596" height="4.06096" filterUnits="userSpaceOnUse" color-interpolation-filters="sRGB">
<feFlood flood-opacity="0" result="BackgroundImageFix"/>
<feBlend mode="normal" in="SourceGraphic" in2="BackgroundImageFix" result="shape"/>
<feGaussianBlur stdDeviation="0.284375" result="effect1_foregroundBlur_0_96"/>
</filter>
<filter id="filter2_ii_0_96" x="3.93384" y="4.90625" width="17.3551" height="11.1521" filterUnits="userSpaceOnUse" color-interpolation-filters="sRGB">
<feFlood flood-opacity="0" result="BackgroundImageFix"/>
<feBlend mode="normal" in="SourceGraphic" in2="BackgroundImageFix" result="shape"/>
<feColorMatrix in="SourceAlpha" type="matrix" values="0 0 0 0 0 0 0 0 0 0 0 0 0 0 0 0 0 0 127 0" result="hardAlpha"/>
<feOffset dx="0.4375"/>
<feGaussianBlur stdDeviation="0.21875"/>
<feComposite in2="hardAlpha" operator="arithmetic" k2="-1" k3="1"/>
<feColorMatrix type="matrix" values="0 0 0 0 0.72549 0 0 0 0 0.709804 0 0 0 0 0.741176 0 0 0 1 0"/>
<feBlend mode="normal" in2="shape" result="effect1_innerShadow_0_96"/>
<feColorMatrix in="SourceAlpha" type="matrix" values="0 0 0 0 0 0 0 0 0 0 0 0 0 0 0 0 0 0 127 0" result="hardAlpha"/>
<feOffset dx="-0.65625"/>
<feGaussianBlur stdDeviation="0.21875"/>
<feComposite in2="hardAlpha" operator="arithmetic" k2="-1" k3="1"/>
<feColorMatrix type="matrix" values="0 0 0 0 0.803922 0 0 0 0 0.784314 0 0 0 0 0.827451 0 0 0 1 0"/>
<feBlend mode="normal" in2="effect1_innerShadow_0_96" result="effect2_innerShadow_0_96"/>
</filter>
<filter id="filter3_f_0_96" x="16.0826" y="8.30466" width="2.24035" height="3.82349" filterUnits="userSpaceOnUse" color-interpolation-filters="sRGB">
<feFlood flood-opacity="0" result="BackgroundImageFix"/>
<feBlend mode="normal" in="SourceGraphic" in2="BackgroundImageFix" result="shape"/>
<feGaussianBlur stdDeviation="0.175" result="effect1_foregroundBlur_0_96"/>
</filter>
<filter id="filter4_di_0_96" x="5.50024" y="5.5813" width="11.5956" height="9.28515" filterUnits="userSpaceOnUse" color-interpolation-filters="sRGB">
<feFlood flood-opacity="0" result="BackgroundImageFix"/>
<feColorMatrix in="SourceAlpha" type="matrix" values="0 0 0 0 0 0 0 0 0 0 0 0 0 0 0 0 0 0 127 0" result="hardAlpha"/>
<feOffset dx="-0.21875" dy="0.21875"/>
<feGaussianBlur stdDeviation="0.328125"/>
<feComposite in2="hardAlpha" operator="out"/>
<feColorMatrix type="matrix" values="0 0 0 0 0.560784 0 0 0 0 0.517647 0 0 0 0 0.611765 0 0 0 1 0"/>
<feBlend mode="normal" in2="BackgroundImageFix" result="effect1_dropShadow_0_96"/>
<feBlend mode="normal" in="SourceGraphic" in2="effect1_dropShadow_0_96" result="shape"/>
<feColorMatrix in="SourceAlpha" type="matrix" values="0 0 0 0 0 0 0 0 0 0 0 0 0 0 0 0 0 0 127 0" result="hardAlpha"/>
<feOffset dy="-0.21875"/>
<feGaussianBlur stdDeviation="0.21875"/>
<feComposite in2="hardAlpha" operator="arithmetic" k2="-1" k3="1"/>
<feColorMatrix type="matrix" values="0 0 0 0 0.709804 0 0 0 0 0.639216 0 0 0 0 0.784314 0 0 0 1 0"/>
<feBlend mode="normal" in2="shape" result="effect2_innerShadow_0_96"/>
</filter>
<filter id="filter5_ii_0_96" x="7.28218" y="6.94001" width="8.46912" height="6.13007" filterUnits="userSpaceOnUse" color-interpolation-filters="sRGB">
<feFlood flood-opacity="0" result="BackgroundImageFix"/>
<feBlend mode="normal" in="SourceGraphic" in2="BackgroundImageFix" result="shape"/>
<feColorMatrix in="SourceAlpha" type="matrix" values="0 0 0 0 0 0 0 0 0 0 0 0 0 0 0 0 0 0 127 0" result="hardAlpha"/>
<feOffset dx="0.4375" dy="-0.4375"/>
<feGaussianBlur stdDeviation="0.13125"/>
<feComposite in2="hardAlpha" operator="arithmetic" k2="-1" k3="1"/>
<feColorMatrix type="matrix" values="0 0 0 0 0.294118 0 0 0 0 0.223529 0 0 0 0 0.372549 0 0 0 1 0"/>
<feBlend mode="normal" in2="shape" result="effect1_innerShadow_0_96"/>
<feColorMatrix in="SourceAlpha" type="matrix" values="0 0 0 0 0 0 0 0 0 0 0 0 0 0 0 0 0 0 127 0" result="hardAlpha"/>
<feOffset dx="-0.4375" dy="0.4375"/>
<feGaussianBlur stdDeviation="0.13125"/>
<feComposite in2="hardAlpha" operator="arithmetic" k2="-1" k3="1"/>
<feColorMatrix type="matrix" values="0 0 0 0 0.270588 0 0 0 0 0.235294 0 0 0 0 0.305882 0 0 0 1 0"/>
<feBlend mode="normal" in2="effect1_innerShadow_0_96" result="effect2_innerShadow_0_96"/>
</filter>
<filter id="filter6_ii_0_96" x="4.104" y="14.4609" width="17.715" height="4.75536" filterUnits="userSpaceOnUse" color-interpolation-filters="sRGB">
<feFlood flood-opacity="0" result="BackgroundImageFix"/>
<feBlend mode="normal" in="SourceGraphic" in2="BackgroundImageFix" result="shape"/>
<feColorMatrix in="SourceAlpha" type="matrix" values="0 0 0 0 0 0 0 0 0 0 0 0 0 0 0 0 0 0 127 0" result="hardAlpha"/>
<feOffset dx="0.875" dy="-0.7"/>
<feGaussianBlur stdDeviation="0.35"/>
<feComposite in2="hardAlpha" operator="arithmetic" k2="-1" k3="1"/>
<feColorMatrix type="matrix" values="0 0 0 0 0.321569 0 0 0 0 0.215686 0 0 0 0 0.431373 0 0 0 1 0"/>
<feBlend mode="normal" in2="shape" result="effect1_innerShadow_0_96"/>
<feColorMatrix in="SourceAlpha" type="matrix" values="0 0 0 0 0 0 0 0 0 0 0 0 0 0 0 0 0 0 127 0" result="hardAlpha"/>
<feOffset dy="0.21875"/>
<feGaussianBlur stdDeviation="0.109375"/>
<feComposite in2="hardAlpha" operator="arithmetic" k2="-1" k3="1"/>
<feColorMatrix type="matrix" values="0 0 0 0 0.25098 0 0 0 0 0.196078 0 0 0 0 0.309804 0 0 0 1 0"/>
<feBlend mode="normal" in2="effect1_innerShadow_0_96" result="effect2_innerShadow_0_96"/>
</filter>
<filter id="filter7_d_0_96" x="9.02319" y="16.515" width="2.58729" height="1.33219" filterUnits="userSpaceOnUse" color-interpolation-filters="sRGB">
<feFlood flood-opacity="0" result="BackgroundImageFix"/>
<feColorMatrix in="SourceAlpha" type="matrix" values="0 0 0 0 0 0 0 0 0 0 0 0 0 0 0 0 0 0 127 0" result="hardAlpha"/>
<feOffset dx="-0.0875" dy="0.0875"/>
<feGaussianBlur stdDeviation="0.065625"/>
<feComposite in2="hardAlpha" operator="out"/>
<feColorMatrix type="matrix" values="0 0 0 0 0.27451 0 0 0 0 0.207843 0 0 0 0 0.356863 0 0 0 1 0"/>
<feBlend mode="normal" in2="BackgroundImageFix" result="effect1_dropShadow_0_96"/>
<feBlend mode="normal" in="SourceGraphic" in2="effect1_dropShadow_0_96" result="shape"/>
</filter>
<filter id="filter8_d_0_96" x="13.637" y="16.4151" width="1.50334" height="1.50334" filterUnits="userSpaceOnUse" color-interpolation-filters="sRGB">
<feFlood flood-opacity="0" result="BackgroundImageFix"/>
<feColorMatrix in="SourceAlpha" type="matrix" values="0 0 0 0 0 0 0 0 0 0 0 0 0 0 0 0 0 0 127 0" result="hardAlpha"/>
<feOffset dx="-0.0875" dy="0.0875"/>
<feGaussianBlur stdDeviation="0.065625"/>
<feComposite in2="hardAlpha" operator="out"/>
<feColorMatrix type="matrix" values="0 0 0 0 0.254902 0 0 0 0 0.188235 0 0 0 0 0.294118 0 0 0 1 0"/>
<feBlend mode="normal" in2="BackgroundImageFix" result="effect1_dropShadow_0_96"/>
<feBlend mode="normal" in="SourceGraphic" in2="effect1_dropShadow_0_96" result="shape"/>
</filter>
<filter id="filter9_f_0_96" x="0.58252" y="0.0618896" width="1.4525" height="5.98762" filterUnits="userSpaceOnUse" color-interpolation-filters="sRGB">
<feFlood flood-opacity="0" result="BackgroundImageFix"/>
<feBlend mode="normal" in="SourceGraphic" in2="BackgroundImageFix" result="shape"/>
<feGaussianBlur stdDeviation="0.21875" result="effect1_foregroundBlur_0_96"/>
</filter>
<filter id="filter10_f_0_96" x="4.50596" y="15.271" width="16.368" height="0.699999" filterUnits="userSpaceOnUse" color-interpolation-filters="sRGB">
<feFlood flood-opacity="0" result="BackgroundImageFix"/>
<feBlend mode="normal" in="SourceGraphic" in2="BackgroundImageFix" result="shape"/>
<feGaussianBlur stdDeviation="0.13125" result="effect1_foregroundBlur_0_96"/>
</filter>
<filter id="filter11_f_0_96" x="9.34492" y="16.616" width="2.20675" height="0.725375" filterUnits="userSpaceOnUse" color-interpolation-filters="sRGB">
<feFlood flood-opacity="0" result="BackgroundImageFix"/>
<feBlend mode="normal" in="SourceGraphic" in2="BackgroundImageFix" result="shape"/>
<feGaussianBlur stdDeviation="0.13125" result="effect1_foregroundBlur_0_96"/>
</filter>
<filter id="filter12_f_0_96" x="7.78716" y="7.28386" width="7.63455" height="5.12155" filterUnits="userSpaceOnUse" color-interpolation-filters="sRGB">
<feFlood flood-opacity="0" result="BackgroundImageFix"/>
<feBlend mode="normal" in="SourceGraphic" in2="BackgroundImageFix" result="shape"/>
<feGaussianBlur stdDeviation="0.13125" result="effect1_foregroundBlur_0_96"/>
</filter>
<filter id="filter13_i_0_96" x="16.4832" y="8.44336" width="1.71535" height="3.29849" filterUnits="userSpaceOnUse" color-interpolation-filters="sRGB">
<feFlood flood-opacity="0" result="BackgroundImageFix"/>
<feBlend mode="normal" in="SourceGraphic" in2="BackgroundImageFix" result="shape"/>
<feColorMatrix in="SourceAlpha" type="matrix" values="0 0 0 0 0 0 0 0 0 0 0 0 0 0 0 0 0 0 127 0" result="hardAlpha"/>
<feOffset dx="-0.175" dy="0.175"/>
<feGaussianBlur stdDeviation="0.0875"/>
<feComposite in2="hardAlpha" operator="arithmetic" k2="-1" k3="1"/>
<feColorMatrix type="matrix" values="0 0 0 0 0.937255 0 0 0 0 0.921569 0 0 0 0 0.956863 0 0 0 1 0"/>
<feBlend mode="normal" in2="shape" result="effect1_innerShadow_0_96"/>
</filter>
<linearGradient id="paint0_linear_0_96" x1="6.34359" y1="4.98209" x2="16.2801" y2="4.98209" gradientUnits="userSpaceOnUse">
<stop stop-color="#5B496D"/>
<stop offset="1" stop-color="#48424E"/>
</linearGradient>
<linearGradient id="paint1_linear_0_96" x1="16.8979" y1="3.44038" x2="-0.432394" y2="3.44038" gradientUnits="userSpaceOnUse">
<stop stop-color="#69656E"/>
<stop offset="1" stop-color="#69656E" stop-opacity="0"/>
</linearGradient>
<linearGradient id="paint2_linear_0_96" x1="23.0519" y1="5.04851" x2="23.0519" y2="6.95339" gradientUnits="userSpaceOnUse">
<stop stop-color="#635571"/>
<stop offset="1" stop-color="#635571" stop-opacity="0"/>
</linearGradient>
<linearGradient id="paint3_linear_0_96" x1="23.5734" y1="11.6521" x2="23.5734" y2="11.1368" gradientUnits="userSpaceOnUse">
<stop stop-color="#5C4075"/>
<stop offset="1" stop-color="#5C4075" stop-opacity="0"/>
</linearGradient>
<radialGradient id="paint4_radial_0_96" cx="0" cy="0" r="1" gradientUnits="userSpaceOnUse" gradientTransform="translate(22.274 7.74614) scale(2.46094 1.39453)">
<stop offset="0.217" stop-color="#544B5E"/>
<stop offset="1" stop-color="#544B5E" stop-opacity="0"/>
</radialGradient>
<radialGradient id="paint5_radial_0_96" cx="0" cy="0" r="1" gradientUnits="userSpaceOnUse" gradientTransform="translate(24.0109 7.77326) rotate(90) scale(2.31054 0.396489)">
<stop stop-color="#6E6777"/>
<stop offset="1" stop-color="#6E6777" stop-opacity="0"/>
</radialGradient>
<linearGradient id="paint6_linear_0_96" x1="20.809" y1="8.39365" x2="20.809" y2="11.8805" gradientUnits="userSpaceOnUse">
<stop stop-color="#EBE9ED"/>
<stop offset="1" stop-color="#AC98C1"/>
</linearGradient>
<linearGradient id="paint7_linear_0_96" x1="20.809" y1="4.9059" x2="20.809" y2="5.88678" gradientUnits="userSpaceOnUse">
<stop stop-color="#D7D7D7"/>
<stop offset="1" stop-color="#D7D7D7" stop-opacity="0"/>
</linearGradient>
<linearGradient id="paint8_linear_0_96" x1="2.85244" y1="0.991202" x2="2.85244" y2="5.61208" gradientUnits="userSpaceOnUse">
<stop stop-color="#ACABAD"/>
<stop offset="1" stop-color="#9588A2"/>
</linearGradient>
<linearGradient id="paint9_linear_0_96" x1="2.47182" y1="5.80808" x2="2.47182" y2="4.6977" gradientUnits="userSpaceOnUse">
<stop stop-color="#8D73A7"/>
<stop offset="1" stop-color="#8D73A7" stop-opacity="0"/>
</linearGradient>
<radialGradient id="paint10_radial_0_96" cx="0" cy="0" r="1" gradientUnits="userSpaceOnUse" gradientTransform="translate(1.71669 2.70445) scale(3.37371 1.98008)">
<stop offset="0.136" stop-color="#B4B0B8"/>
<stop offset="1" stop-color="#AEABB0" stop-opacity="0"/>
</radialGradient>
<radialGradient id="paint11_radial_0_96" cx="0" cy="0" r="1" gradientUnits="userSpaceOnUse" gradientTransform="translate(3.55419 2.71933) rotate(90) scale(2.41996 0.701138)">
<stop stop-color="#D3D0D6"/>
<stop offset="1" stop-color="#ABA7AF" stop-opacity="0"/>
</radialGradient>
<linearGradient id="paint12_linear_0_96" x1="0.934386" y1="-0.00018375" x2="0.934386" y2="6.60344" gradientUnits="userSpaceOnUse">
<stop stop-color="#58456A"/>
<stop offset="1" stop-color="#3C274E"/>
</linearGradient>
<linearGradient id="paint13_linear_0_96" x1="-0.00011375" y1="4.07907" x2="0.934386" y2="4.07907" gradientUnits="userSpaceOnUse">
<stop stop-color="#6D6A70"/>
<stop offset="1" stop-color="#4A4352" stop-opacity="0"/>
</linearGradient>
<radialGradient id="paint14_radial_0_96" cx="0" cy="0" r="1" gradientUnits="userSpaceOnUse" gradientTransform="translate(12.6112 5.58577) rotate(90) scale(9.57513 9.8609)">
<stop offset="0.326" stop-color="#C1BEC4"/>
<stop offset="1" stop-color="#B7B2BE"/>
</radialGradient>
<linearGradient id="paint15_linear_0_96" x1="5.01973" y1="15.1837" x2="11.9104" y2="9.46903" gradientUnits="userSpaceOnUse">
<stop offset="0.495" stop-color="#A59CAD"/>
<stop offset="1" stop-color="#A59CAD" stop-opacity="0"/>
</linearGradient>
<linearGradient id="paint16_linear_0_96" x1="12.6112" y1="4.9059" x2="12.6112" y2="5.88678" gradientUnits="userSpaceOnUse">
<stop stop-color="#B3B3B4"/>
<stop offset="1" stop-color="#B3B3B4" stop-opacity="0"/>
</linearGradient>
<linearGradient id="paint17_linear_0_96" x1="11.5166" y1="10.0054" x2="11.5166" y2="13.9919" gradientUnits="userSpaceOnUse">
<stop stop-color="#E3E0E7"/>
<stop offset="1" stop-color="#C9B7DC"/>
</linearGradient>
<linearGradient id="paint18_linear_0_96" x1="17.352" y1="11.2733" x2="16.1217" y2="11.2733" gradientUnits="userSpaceOnUse">
<stop offset="0.244" stop-color="#F2EDF7"/>
<stop offset="1" stop-color="#E5E2E9" stop-opacity="0"/>
</linearGradient>
<radialGradient id="paint19_radial_0_96" cx="0" cy="0" r="1" gradientUnits="userSpaceOnUse" gradientTransform="translate(16.3397 6.32429) rotate(135) scale(0.734729 0.947651)">
<stop stop-color="#F3F0F5"/>
<stop offset="1" stop-color="#F3F0F5" stop-opacity="0"/>
</radialGradient>
<linearGradient id="paint20_linear_0_96" x1="7.54494" y1="11.5472" x2="14.3988" y2="9.52328" gradientUnits="userSpaceOnUse">
<stop stop-color="#564669"/>
<stop offset="1" stop-color="#4C4257"/>
</linearGradient>
<radialGradient id="paint21_radial_0_96" cx="0" cy="0" r="1" gradientUnits="userSpaceOnUse" gradientTransform="translate(15.2332 7.52721) rotate(143.13) scale(0.546875 0.775084)">
<stop stop-color="#6B6671"/>
<stop offset="1" stop-color="#6B6671" stop-opacity="0"/>
</radialGradient>
<linearGradient id="paint22_linear_0_96" x1="7.54494" y1="10.1795" x2="8.00082" y2="10.1795" gradientUnits="userSpaceOnUse">
<stop stop-color="#615470"/>
<stop offset="1" stop-color="#615470" stop-opacity="0"/>
</linearGradient>
<linearGradient id="paint23_linear_0_96" x1="4.10372" y1="17.8086" x2="14.2625" y2="17.8086" gradientUnits="userSpaceOnUse">
<stop stop-color="#5F4876"/>
<stop offset="1" stop-color="#46404E"/>
</linearGradient>
<linearGradient id="paint24_linear_0_96" x1="21.119" y1="17.5628" x2="19.5396" y2="17.5628" gradientUnits="userSpaceOnUse">
<stop offset="0.307" stop-color="#565558"/>
<stop offset="1" stop-color="#565558" stop-opacity="0"/>
</linearGradient>
<linearGradient id="paint25_linear_0_96" x1="21.119" y1="17.5628" x2="20.3052" y2="17.5628" gradientUnits="userSpaceOnUse">
<stop stop-color="#3E3A41"/>
<stop offset="1" stop-color="#3E3A41" stop-opacity="0"/>
</linearGradient>
<linearGradient id="paint26_linear_0_96" x1="3.9261" y1="17.0789" x2="4.6646" y2="17.0789" gradientUnits="userSpaceOnUse">
<stop stop-color="#97909F"/>
<stop offset="1" stop-color="#68587B" stop-opacity="0"/>
</linearGradient>
<linearGradient id="paint27_linear_0_96" x1="10.4045" y1="16.5584" x2="10.4045" y2="17.6285" gradientUnits="userSpaceOnUse">
<stop stop-color="#B2ABB9"/>
<stop offset="1" stop-color="#AB97BF"/>
</linearGradient>
<linearGradient id="paint28_linear_0_96" x1="14.4758" y1="16.4586" x2="14.4758" y2="17.6994" gradientUnits="userSpaceOnUse">
<stop stop-color="#F02D55"/>
<stop offset="1" stop-color="#DD1E7D"/>
</linearGradient>
<radialGradient id="paint29_radial_0_96" cx="0" cy="0" r="1" gradientUnits="userSpaceOnUse" gradientTransform="translate(14.7413 16.9066) rotate(132.661) scale(0.390425)">
<stop stop-color="#FF6384"/>
<stop offset="1" stop-color="#FF6384" stop-opacity="0"/>
</radialGradient>
<linearGradient id="paint30_linear_0_96" x1="1.30877" y1="0.49939" x2="1.30877" y2="5.61201" gradientUnits="userSpaceOnUse">
<stop offset="0.416" stop-color="#7A6E87"/>
<stop offset="0.627" stop-color="#58565B"/>
</linearGradient>
<linearGradient id="paint31_linear_0_96" x1="-nan" y1="-nan" x2="-nan" y2="-nan" gradientUnits="userSpaceOnUse">
<stop stop-color="#656566"/>
<stop offset="1" stop-color="#624F75"/>
</linearGradient>
<linearGradient id="paint32_linear_0_96" x1="11.2883" y1="16.9792" x2="9.3983" y2="16.9792" gradientUnits="userSpaceOnUse">
<stop stop-color="#CFC8D7"/>
<stop offset="1" stop-color="#CFC8D7" stop-opacity="0"/>
</linearGradient>
<linearGradient id="paint33_linear_0_96" x1="10.8989" y1="11.0817" x2="15.028" y2="7.67796" gradientUnits="userSpaceOnUse">
<stop stop-color="#5B4D6A"/>
<stop offset="0.753" stop-color="#68636F"/>
</linearGradient>
<linearGradient id="paint34_linear_0_96" x1="17.8717" y1="11.7109" x2="17.8717" y2="11.15" gradientUnits="userSpaceOnUse">
<stop offset="0.293" stop-color="#DACFE5"/>
<stop offset="1" stop-color="#DACFE5" stop-opacity="0"/>
</linearGradient>
</defs>
</svg>
