<svg preserveAspectRatio="none" width="100%" height="100%" overflow="visible" style="display: block;" viewBox="0 0 24.4692 21.1394" fill="none" xmlns="http://www.w3.org/2000/svg">
<g id="Group 11">
<g id="Group" filter="url(#filter0_ii_0_51)">
<path id="Vector" d="M15.6953 7.09827H5.22241V12.1295H15.6953V7.09827Z" fill="var(--fill-0, #41364E)"/>
<path id="Vector_2" d="M15.6953 7.09827H5.22241V12.1295H15.6953V7.09827Z" fill="url(#paint0_radial_0_51)"/>
<path id="Vector_3" d="M15.6953 7.09827H5.22241V12.1295H15.6953V7.09827Z" fill="url(#paint1_radial_0_51)"/>
</g>
<path id="Vector_4" d="M20.002 11.4331H17.1443V19.2941H20.002V11.4331Z" fill="url(#paint2_linear_0_51)"/>
<path id="Vector_5" d="M20.002 11.4331H17.1443V19.2941H20.002V11.4331Z" fill="url(#paint3_linear_0_51)"/>
<g id="Group_2" filter="url(#filter1_iii_0_51)">
<path id="Vector_6" d="M2.77539 11.6213C2.77539 10.5582 3.63725 9.69629 4.70039 9.69629H16.0262C17.0893 9.69629 17.9512 10.5582 17.9512 11.6213V19.1053C17.9512 20.1685 17.0893 21.0303 16.0262 21.0303H4.70039C3.63725 21.0303 2.77539 20.1685 2.77539 19.1053V11.6213Z" fill="url(#paint4_linear_0_51)"/>
</g>
<g id="Group_3" filter="url(#filter2_ii_0_51)">
<path id="Vector_7" d="M5.09961 16.3326C5.09961 16.0426 5.33466 15.8076 5.62461 15.8076H15.102C15.3919 15.8076 15.627 16.0426 15.627 16.3326V18.769C15.627 19.0589 15.3919 19.294 15.102 19.294H5.62461C5.33466 19.294 5.09961 19.0589 5.09961 18.769V16.3326Z" fill="url(#paint5_linear_0_51)"/>
</g>
<g id="Group_4" filter="url(#filter3_d_0_51)">
<path id="Vector_8" d="M8.83542 17.5508C8.83542 18.1114 8.38095 18.5659 7.82033 18.5659C7.25963 18.5659 6.80518 18.1114 6.80518 17.5508C6.80518 16.9902 7.25963 16.5356 7.82033 16.5356C8.38095 16.5356 8.83542 16.9902 8.83542 17.5508Z" fill="url(#paint6_radial_0_51)"/>
<path id="Vector_9" d="M8.83542 17.5508C8.83542 18.1114 8.38095 18.5659 7.82033 18.5659C7.25963 18.5659 6.80518 18.1114 6.80518 17.5508C6.80518 16.9902 7.25963 16.5356 7.82033 16.5356C8.38095 16.5356 8.83542 16.9902 8.83542 17.5508Z" fill="url(#paint7_radial_0_51)"/>
</g>
<g id="Group_5" filter="url(#filter4_di_0_51)">
<path id="Vector_10" d="M11.2964 17.5542C11.2964 17.2125 11.5734 16.9355 11.9151 16.9355H13.3028C13.6444 16.9355 13.9214 17.2125 13.9214 17.5542C13.9214 17.8959 13.6444 18.1728 13.3028 18.1728H11.9151C11.5734 18.1728 11.2964 17.8959 11.2964 17.5542Z" fill="url(#paint8_linear_0_51)"/>
</g>
<g id="Group_6" filter="url(#filter5_ii_0_51)">
<path id="Vector_11" d="M24.4692 10.2005C24.4692 9.81789 24.073 9.56379 23.7252 9.72339L20.002 11.4326V19.294L23.7276 20.9815C24.0751 21.1389 24.4692 20.8848 24.4692 20.5033V10.2005Z" fill="url(#paint9_linear_0_51)"/>
<path id="Vector_12" d="M24.4692 10.2005C24.4692 9.81789 24.073 9.56379 23.7252 9.72339L20.002 11.4326V19.294L23.7276 20.9815C24.0751 21.1389 24.4692 20.8848 24.4692 20.5033V10.2005Z" fill="url(#paint10_linear_0_51)"/>
<path id="Vector_13" d="M24.4692 10.2005C24.4692 9.81789 24.073 9.56379 23.7252 9.72339L20.002 11.4326V19.294L23.7276 20.9815C24.0751 21.1389 24.4692 20.8848 24.4692 20.5033V10.2005Z" fill="url(#paint11_radial_0_51)"/>
</g>
<path id="Vector_14" d="M2.77599 12.3081H0.328613V14.9742H2.77599V12.3081Z" fill="url(#paint12_linear_0_51)"/>
<g id="Group_7" filter="url(#filter6_iii_0_51)">
<path id="Vector_15" d="M10.6094 4.42629C10.6094 6.83123 8.65981 8.78073 6.25489 8.78073C3.84997 8.78073 1.90039 6.83123 1.90039 4.42629C1.90039 2.02136 3.84997 0.0717773 6.25489 0.0717773C8.65981 0.0717773 10.6094 2.02136 10.6094 4.42629Z" fill="var(--fill-0, #231C2A)"/>
</g>
<g id="Group_8" filter="url(#filter7_f_0_51)">
<path id="Vector_16" d="M9.99386 4.3954C9.99386 6.46031 8.31981 8.13436 6.25486 8.13436C4.18988 8.13436 2.51587 6.46031 2.51587 4.3954C2.51587 2.33037 4.18988 0.656372 6.25486 0.656372C8.31981 0.656372 9.99386 2.33037 9.99386 4.3954Z" fill="url(#paint13_linear_0_51)"/>
</g>
<g id="Group_9" filter="url(#filter8_f_0_51)">
<path id="Vector_17" d="M10.2129 4.28603C10.2129 6.41149 8.48983 8.13454 6.36437 8.13454C4.2389 8.13454 2.51587 6.41149 2.51587 4.28603C2.51587 2.16053 4.2389 0.4375 6.36437 0.4375C8.48983 0.4375 10.2129 2.16053 10.2129 4.28603Z" fill="url(#paint14_radial_0_51)"/>
</g>
<g id="Group_10" filter="url(#filter9_iii_0_51)">
<path id="Vector_18" d="M20.0737 4.42629C20.0737 6.83123 18.1241 8.78073 15.7192 8.78073C13.3142 8.78073 11.3647 6.83123 11.3647 4.42629C11.3647 2.02136 13.3142 0.0717773 15.7192 0.0717773C18.1241 0.0717773 20.0737 2.02136 20.0737 4.42629Z" fill="var(--fill-0, #231C2A)"/>
</g>
<g id="Group_11" filter="url(#filter10_f_0_51)">
<path id="Vector_19" d="M19.4582 4.3954C19.4582 6.46031 17.7842 8.13436 15.7193 8.13436C13.6543 8.13436 11.9802 6.46031 11.9802 4.3954C11.9802 2.33037 13.6543 0.656372 15.7193 0.656372C17.7842 0.656372 19.4582 2.33037 19.4582 4.3954Z" fill="url(#paint15_linear_0_51)"/>
</g>
<g id="Group_12" filter="url(#filter11_f_0_51)">
<path id="Vector_20" d="M19.6772 4.28603C19.6772 6.41149 17.9542 8.13454 15.8287 8.13454C13.7033 8.13454 11.9802 6.41149 11.9802 4.28603C11.9802 2.16053 13.7033 0.4375 15.8287 0.4375C17.9542 0.4375 19.6772 2.16053 19.6772 4.28603Z" fill="url(#paint16_radial_0_51)"/>
</g>
<g id="Group_13" filter="url(#filter12_di_0_51)">
<path id="Vector_21" d="M7.1401 4.39549C7.1401 4.88444 6.74379 5.28073 6.25488 5.28073C5.76597 5.28073 5.36963 4.88444 5.36963 4.39549C5.36963 3.90663 5.76597 3.51025 6.25488 3.51025C6.74379 3.51025 7.1401 3.90663 7.1401 4.39549Z" fill="url(#paint17_radial_0_51)"/>
</g>
<g id="Group_14" filter="url(#filter13_di_0_51)">
<path id="Vector_22" d="M16.5123 4.39549C16.5123 4.88444 16.1159 5.28073 15.627 5.28073C15.1381 5.28073 14.7417 4.88444 14.7417 4.39549C14.7417 3.90663 15.1381 3.51025 15.627 3.51025C16.1159 3.51025 16.5123 3.90663 16.5123 4.39549Z" fill="url(#paint18_radial_0_51)"/>
</g>
<path id="Vector_23" d="M0 11.8325C0 11.4683 0.295339 11.1729 0.659663 11.1729C1.024 11.1729 1.31933 11.4683 1.31933 11.8325V15.4487C1.31933 15.8131 1.024 16.1084 0.659663 16.1084C0.295339 16.1084 0 15.8131 0 15.4487V11.8325Z" fill="url(#paint19_linear_0_51)"/>
<path id="Vector_24" d="M0 11.8325C0 11.4683 0.295339 11.1729 0.659663 11.1729C1.024 11.1729 1.31933 11.4683 1.31933 11.8325V15.4487C1.31933 15.8131 1.024 16.1084 0.659663 16.1084C0.295339 16.1084 0 15.8131 0 15.4487V11.8325Z" fill="url(#paint20_radial_0_51)"/>
<path id="Vector_25" d="M0 11.8325C0 11.4683 0.295339 11.1729 0.659663 11.1729C1.024 11.1729 1.31933 11.4683 1.31933 11.8325V15.4487C1.31933 15.8131 1.024 16.1084 0.659663 16.1084C0.295339 16.1084 0 15.8131 0 15.4487V11.8325Z" fill="url(#paint21_radial_0_51)"/>
<g id="Group_15" filter="url(#filter14_f_0_51)">
<path id="Vector_26" d="M13.4875 17.223H11.867C11.7501 17.223 11.6553 17.3178 11.6553 17.4348C11.6553 17.5517 11.7501 17.6465 11.867 17.6465H13.4875C13.6045 17.6465 13.6993 17.5517 13.6993 17.4348C13.6993 17.3178 13.6045 17.223 13.4875 17.223Z" fill="url(#paint22_linear_0_51)"/>
<path id="Vector_27" d="M13.4875 17.223H11.867C11.7501 17.223 11.6553 17.3178 11.6553 17.4348C11.6553 17.5517 11.7501 17.6465 11.867 17.6465H13.4875C13.6045 17.6465 13.6993 17.5517 13.6993 17.4348C13.6993 17.3178 13.6045 17.223 13.4875 17.223Z" fill="url(#paint23_radial_0_51)"/>
</g>
<g id="Group_16" filter="url(#filter15_f_0_51)">
<path id="Vector_28" d="M16.4881 10.4207H4.53906C4.05581 10.4207 3.66406 10.8124 3.66406 11.2957V19.1707C3.66406 19.6539 4.05581 20.0457 4.53906 20.0457H16.4881C16.9713 20.0457 17.3631 19.6539 17.3631 19.1707V11.2957C17.3631 10.8124 16.9713 10.4207 16.4881 10.4207Z" stroke="url(#paint24_linear_0_51)" stroke-width="0.4375"/>
</g>
</g>
<defs>
<filter id="filter0_ii_0_51" x="4.78491" y="7.09827" width="11.3479" height="5.46875" filterUnits="userSpaceOnUse" color-interpolation-filters="sRGB">
<feFlood flood-opacity="0" result="BackgroundImageFix"/>
<feBlend mode="normal" in="SourceGraphic" in2="BackgroundImageFix" result="shape"/>
<feColorMatrix in="SourceAlpha" type="matrix" values="0 0 0 0 0 0 0 0 0 0 0 0 0 0 0 0 0 0 127 0" result="hardAlpha"/>
<feOffset dx="0.4375" dy="0.4375"/>
<feGaussianBlur stdDeviation="0.21875"/>
<feComposite in2="hardAlpha" operator="arithmetic" k2="-1" k3="1"/>
<feColorMatrix type="matrix" values="0 0 0 0 0.188235 0 0 0 0 0.156863 0 0 0 0 0.223529 0 0 0 1 0"/>
<feBlend mode="normal" in2="shape" result="effect1_innerShadow_0_51"/>
<feColorMatrix in="SourceAlpha" type="matrix" values="0 0 0 0 0 0 0 0 0 0 0 0 0 0 0 0 0 0 127 0" result="hardAlpha"/>
<feOffset dx="-0.4375"/>
<feGaussianBlur stdDeviation="0.21875"/>
<feComposite in2="hardAlpha" operator="arithmetic" k2="-1" k3="1"/>
<feColorMatrix type="matrix" values="0 0 0 0 0.321569 0 0 0 0 0.290196 0 0 0 0 0.356863 0 0 0 1 0"/>
<feBlend mode="normal" in2="effect1_innerShadow_0_51" result="effect2_innerShadow_0_51"/>
</filter>
<filter id="filter1_iii_0_51" x="2.33789" y="9.25879" width="16.0508" height="12.209" filterUnits="userSpaceOnUse" color-interpolation-filters="sRGB">
<feFlood flood-opacity="0" result="BackgroundImageFix"/>
<feBlend mode="normal" in="SourceGraphic" in2="BackgroundImageFix" result="shape"/>
<feColorMatrix in="SourceAlpha" type="matrix" values="0 0 0 0 0 0 0 0 0 0 0 0 0 0 0 0 0 0 127 0" result="hardAlpha"/>
<feOffset dx="-0.4375" dy="0.4375"/>
<feGaussianBlur stdDeviation="0.21875"/>
<feComposite in2="hardAlpha" operator="arithmetic" k2="-1" k3="1"/>
<feColorMatrix type="matrix" values="0 0 0 0 0.215686 0 0 0 0 0.152941 0 0 0 0 0.270588 0 0 0 1 0"/>
<feBlend mode="normal" in2="shape" result="effect1_innerShadow_0_51"/>
<feColorMatrix in="SourceAlpha" type="matrix" values="0 0 0 0 0 0 0 0 0 0 0 0 0 0 0 0 0 0 127 0" result="hardAlpha"/>
<feOffset dx="0.4375" dy="-0.4375"/>
<feGaussianBlur stdDeviation="0.21875"/>
<feComposite in2="hardAlpha" operator="arithmetic" k2="-1" k3="1"/>
<feColorMatrix type="matrix" values="0 0 0 0 0.215686 0 0 0 0 0.152941 0 0 0 0 0.270588 0 0 0 1 0"/>
<feBlend mode="normal" in2="effect1_innerShadow_0_51" result="effect2_innerShadow_0_51"/>
<feColorMatrix in="SourceAlpha" type="matrix" values="0 0 0 0 0 0 0 0 0 0 0 0 0 0 0 0 0 0 127 0" result="hardAlpha"/>
<feOffset dy="-0.21875"/>
<feGaussianBlur stdDeviation="0.21875"/>
<feComposite in2="hardAlpha" operator="arithmetic" k2="-1" k3="1"/>
<feColorMatrix type="matrix" values="0 0 0 0 0.4 0 0 0 0 0.286275 0 0 0 0 0.501961 0 0 0 1 0"/>
<feBlend mode="normal" in2="effect2_innerShadow_0_51" result="effect3_innerShadow_0_51"/>
</filter>
<filter id="filter2_ii_0_51" x="5.09961" y="15.6326" width="10.7024" height="3.83635" filterUnits="userSpaceOnUse" color-interpolation-filters="sRGB">
<feFlood flood-opacity="0" result="BackgroundImageFix"/>
<feBlend mode="normal" in="SourceGraphic" in2="BackgroundImageFix" result="shape"/>
<feColorMatrix in="SourceAlpha" type="matrix" values="0 0 0 0 0 0 0 0 0 0 0 0 0 0 0 0 0 0 127 0" result="hardAlpha"/>
<feOffset dy="0.175"/>
<feGaussianBlur stdDeviation="0.175"/>
<feComposite in2="hardAlpha" operator="arithmetic" k2="-1" k3="1"/>
<feColorMatrix type="matrix" values="0 0 0 0 0.654902 0 0 0 0 0.564706 0 0 0 0 0.745098 0 0 0 1 0"/>
<feBlend mode="normal" in2="shape" result="effect1_innerShadow_0_51"/>
<feColorMatrix in="SourceAlpha" type="matrix" values="0 0 0 0 0 0 0 0 0 0 0 0 0 0 0 0 0 0 127 0" result="hardAlpha"/>
<feOffset dx="0.175" dy="-0.175"/>
<feGaussianBlur stdDeviation="0.175"/>
<feComposite in2="hardAlpha" operator="arithmetic" k2="-1" k3="1"/>
<feColorMatrix type="matrix" values="0 0 0 0 0.682353 0 0 0 0 0.631373 0 0 0 0 0.717647 0 0 0 1 0"/>
<feBlend mode="normal" in2="effect1_innerShadow_0_51" result="effect2_innerShadow_0_51"/>
</filter>
<filter id="filter3_d_0_51" x="6.14893" y="16.3169" width="2.90524" height="2.90526" filterUnits="userSpaceOnUse" color-interpolation-filters="sRGB">
<feFlood flood-opacity="0" result="BackgroundImageFix"/>
<feColorMatrix in="SourceAlpha" type="matrix" values="0 0 0 0 0 0 0 0 0 0 0 0 0 0 0 0 0 0 127 0" result="hardAlpha"/>
<feOffset dx="-0.21875" dy="0.21875"/>
<feGaussianBlur stdDeviation="0.21875"/>
<feComposite in2="hardAlpha" operator="out"/>
<feColorMatrix type="matrix" values="0 0 0 0 0.619608 0 0 0 0 0.505882 0 0 0 0 0.662745 0 0 0 1 0"/>
<feBlend mode="normal" in2="BackgroundImageFix" result="effect1_dropShadow_0_51"/>
<feBlend mode="normal" in="SourceGraphic" in2="effect1_dropShadow_0_51" result="shape"/>
</filter>
<filter id="filter4_di_0_51" x="10.6401" y="16.7168" width="3.5" height="2.11225" filterUnits="userSpaceOnUse" color-interpolation-filters="sRGB">
<feFlood flood-opacity="0" result="BackgroundImageFix"/>
<feColorMatrix in="SourceAlpha" type="matrix" values="0 0 0 0 0 0 0 0 0 0 0 0 0 0 0 0 0 0 127 0" result="hardAlpha"/>
<feOffset dx="-0.21875" dy="0.21875"/>
<feGaussianBlur stdDeviation="0.21875"/>
<feComposite in2="hardAlpha" operator="out"/>
<feColorMatrix type="matrix" values="0 0 0 0 0.607843 0 0 0 0 0.529412 0 0 0 0 0.682353 0 0 0 1 0"/>
<feBlend mode="normal" in2="BackgroundImageFix" result="effect1_dropShadow_0_51"/>
<feBlend mode="normal" in="SourceGraphic" in2="effect1_dropShadow_0_51" result="shape"/>
<feColorMatrix in="SourceAlpha" type="matrix" values="0 0 0 0 0 0 0 0 0 0 0 0 0 0 0 0 0 0 127 0" result="hardAlpha"/>
<feOffset dy="-0.21875"/>
<feGaussianBlur stdDeviation="0.21875"/>
<feComposite in2="hardAlpha" operator="arithmetic" k2="-1" k3="1"/>
<feColorMatrix type="matrix" values="0 0 0 0 0.329412 0 0 0 0 0.203922 0 0 0 0 0.427451 0 0 0 1 0"/>
<feBlend mode="normal" in2="shape" result="effect2_innerShadow_0_51"/>
</filter>
<filter id="filter5_ii_0_51" x="20.002" y="9.23743" width="4.90472" height="12.2289" filterUnits="userSpaceOnUse" color-interpolation-filters="sRGB">
<feFlood flood-opacity="0" result="BackgroundImageFix"/>
<feBlend mode="normal" in="SourceGraphic" in2="BackgroundImageFix" result="shape"/>
<feColorMatrix in="SourceAlpha" type="matrix" values="0 0 0 0 0 0 0 0 0 0 0 0 0 0 0 0 0 0 127 0" result="hardAlpha"/>
<feOffset dx="0.4375" dy="0.4375"/>
<feGaussianBlur stdDeviation="0.4375"/>
<feComposite in2="hardAlpha" operator="arithmetic" k2="-1" k3="1"/>
<feColorMatrix type="matrix" values="0 0 0 0 0.211765 0 0 0 0 0.168627 0 0 0 0 0.258824 0 0 0 1 0"/>
<feBlend mode="normal" in2="shape" result="effect1_innerShadow_0_51"/>
<feColorMatrix in="SourceAlpha" type="matrix" values="0 0 0 0 0 0 0 0 0 0 0 0 0 0 0 0 0 0 127 0" result="hardAlpha"/>
<feOffset dy="-0.4375"/>
<feGaussianBlur stdDeviation="0.4375"/>
<feComposite in2="hardAlpha" operator="arithmetic" k2="-1" k3="1"/>
<feColorMatrix type="matrix" values="0 0 0 0 0.392157 0 0 0 0 0.27451 0 0 0 0 0.494118 0 0 0 1 0"/>
<feBlend mode="normal" in2="effect1_innerShadow_0_51" result="effect2_innerShadow_0_51"/>
</filter>
<filter id="filter6_iii_0_51" x="1.46289" y="-0.803223" width="9.14651" height="10.0215" filterUnits="userSpaceOnUse" color-interpolation-filters="sRGB">
<feFlood flood-opacity="0" result="BackgroundImageFix"/>
<feBlend mode="normal" in="SourceGraphic" in2="BackgroundImageFix" result="shape"/>
<feColorMatrix in="SourceAlpha" type="matrix" values="0 0 0 0 0 0 0 0 0 0 0 0 0 0 0 0 0 0 127 0" result="hardAlpha"/>
<feOffset dy="-0.875"/>
<feGaussianBlur stdDeviation="0.4375"/>
<feComposite in2="hardAlpha" operator="arithmetic" k2="-1" k3="1"/>
<feColorMatrix type="matrix" values="0 0 0 0 0.231373 0 0 0 0 0.129412 0 0 0 0 0.309804 0 0 0 1 0"/>
<feBlend mode="normal" in2="shape" result="effect1_innerShadow_0_51"/>
<feColorMatrix in="SourceAlpha" type="matrix" values="0 0 0 0 0 0 0 0 0 0 0 0 0 0 0 0 0 0 127 0" result="hardAlpha"/>
<feOffset dy="-0.175"/>
<feGaussianBlur stdDeviation="0.21875"/>
<feComposite in2="hardAlpha" operator="arithmetic" k2="-1" k3="1"/>
<feColorMatrix type="matrix" values="0 0 0 0 0.298039 0 0 0 0 0.113725 0 0 0 0 0.419608 0 0 0 1 0"/>
<feBlend mode="normal" in2="effect1_innerShadow_0_51" result="effect2_innerShadow_0_51"/>
<feColorMatrix in="SourceAlpha" type="matrix" values="0 0 0 0 0 0 0 0 0 0 0 0 0 0 0 0 0 0 127 0" result="hardAlpha"/>
<feOffset dx="-0.4375" dy="0.4375"/>
<feGaussianBlur stdDeviation="0.4375"/>
<feComposite in2="hardAlpha" operator="arithmetic" k2="-1" k3="1"/>
<feColorMatrix type="matrix" values="0 0 0 0 0.345098 0 0 0 0 0.301961 0 0 0 0 0.388235 0 0 0 1 0"/>
<feBlend mode="normal" in2="effect2_innerShadow_0_51" result="effect3_innerShadow_0_51"/>
</filter>
<filter id="filter7_f_0_51" x="2.07837" y="0.218872" width="8.35299" height="8.35299" filterUnits="userSpaceOnUse" color-interpolation-filters="sRGB">
<feFlood flood-opacity="0" result="BackgroundImageFix"/>
<feBlend mode="normal" in="SourceGraphic" in2="BackgroundImageFix" result="shape"/>
<feGaussianBlur stdDeviation="0.21875" result="effect1_foregroundBlur_0_51"/>
</filter>
<filter id="filter8_f_0_51" x="2.07837" y="0" width="8.57201" height="8.57204" filterUnits="userSpaceOnUse" color-interpolation-filters="sRGB">
<feFlood flood-opacity="0" result="BackgroundImageFix"/>
<feBlend mode="normal" in="SourceGraphic" in2="BackgroundImageFix" result="shape"/>
<feGaussianBlur stdDeviation="0.21875" result="effect1_foregroundBlur_0_51"/>
</filter>
<filter id="filter9_iii_0_51" x="10.9272" y="-0.803223" width="9.14646" height="10.0215" filterUnits="userSpaceOnUse" color-interpolation-filters="sRGB">
<feFlood flood-opacity="0" result="BackgroundImageFix"/>
<feBlend mode="normal" in="SourceGraphic" in2="BackgroundImageFix" result="shape"/>
<feColorMatrix in="SourceAlpha" type="matrix" values="0 0 0 0 0 0 0 0 0 0 0 0 0 0 0 0 0 0 127 0" result="hardAlpha"/>
<feOffset dy="-0.875"/>
<feGaussianBlur stdDeviation="0.4375"/>
<feComposite in2="hardAlpha" operator="arithmetic" k2="-1" k3="1"/>
<feColorMatrix type="matrix" values="0 0 0 0 0.231373 0 0 0 0 0.129412 0 0 0 0 0.309804 0 0 0 1 0"/>
<feBlend mode="normal" in2="shape" result="effect1_innerShadow_0_51"/>
<feColorMatrix in="SourceAlpha" type="matrix" values="0 0 0 0 0 0 0 0 0 0 0 0 0 0 0 0 0 0 127 0" result="hardAlpha"/>
<feOffset dy="-0.175"/>
<feGaussianBlur stdDeviation="0.21875"/>
<feComposite in2="hardAlpha" operator="arithmetic" k2="-1" k3="1"/>
<feColorMatrix type="matrix" values="0 0 0 0 0.298039 0 0 0 0 0.113725 0 0 0 0 0.419608 0 0 0 1 0"/>
<feBlend mode="normal" in2="effect1_innerShadow_0_51" result="effect2_innerShadow_0_51"/>
<feColorMatrix in="SourceAlpha" type="matrix" values="0 0 0 0 0 0 0 0 0 0 0 0 0 0 0 0 0 0 127 0" result="hardAlpha"/>
<feOffset dx="-0.4375" dy="0.4375"/>
<feGaussianBlur stdDeviation="0.4375"/>
<feComposite in2="hardAlpha" operator="arithmetic" k2="-1" k3="1"/>
<feColorMatrix type="matrix" values="0 0 0 0 0.345098 0 0 0 0 0.301961 0 0 0 0 0.388235 0 0 0 1 0"/>
<feBlend mode="normal" in2="effect2_innerShadow_0_51" result="effect3_innerShadow_0_51"/>
</filter>
<filter id="filter10_f_0_51" x="11.5427" y="0.218872" width="8.35301" height="8.35299" filterUnits="userSpaceOnUse" color-interpolation-filters="sRGB">
<feFlood flood-opacity="0" result="BackgroundImageFix"/>
<feBlend mode="normal" in="SourceGraphic" in2="BackgroundImageFix" result="shape"/>
<feGaussianBlur stdDeviation="0.21875" result="effect1_foregroundBlur_0_51"/>
</filter>
<filter id="filter11_f_0_51" x="11.5427" y="0" width="8.57203" height="8.57204" filterUnits="userSpaceOnUse" color-interpolation-filters="sRGB">
<feFlood flood-opacity="0" result="BackgroundImageFix"/>
<feBlend mode="normal" in="SourceGraphic" in2="BackgroundImageFix" result="shape"/>
<feGaussianBlur stdDeviation="0.21875" result="effect1_foregroundBlur_0_51"/>
</filter>
<filter id="filter12_di_0_51" x="4.71338" y="3.2915" width="2.64548" height="2.64548" filterUnits="userSpaceOnUse" color-interpolation-filters="sRGB">
<feFlood flood-opacity="0" result="BackgroundImageFix"/>
<feColorMatrix in="SourceAlpha" type="matrix" values="0 0 0 0 0 0 0 0 0 0 0 0 0 0 0 0 0 0 127 0" result="hardAlpha"/>
<feOffset dx="-0.21875" dy="0.21875"/>
<feGaussianBlur stdDeviation="0.21875"/>
<feComposite in2="hardAlpha" operator="out"/>
<feColorMatrix type="matrix" values="0 0 0 0 0.203922 0 0 0 0 0.141176 0 0 0 0 0.262745 0 0 0 1 0"/>
<feBlend mode="normal" in2="BackgroundImageFix" result="effect1_dropShadow_0_51"/>
<feBlend mode="normal" in="SourceGraphic" in2="effect1_dropShadow_0_51" result="shape"/>
<feColorMatrix in="SourceAlpha" type="matrix" values="0 0 0 0 0 0 0 0 0 0 0 0 0 0 0 0 0 0 127 0" result="hardAlpha"/>
<feOffset dx="-0.0875" dy="0.0875"/>
<feGaussianBlur stdDeviation="0.13125"/>
<feComposite in2="hardAlpha" operator="arithmetic" k2="-1" k3="1"/>
<feColorMatrix type="matrix" values="0 0 0 0 0.701961 0 0 0 0 0.682353 0 0 0 0 0.72549 0 0 0 1 0"/>
<feBlend mode="normal" in2="shape" result="effect2_innerShadow_0_51"/>
</filter>
<filter id="filter13_di_0_51" x="14.0854" y="3.2915" width="2.64556" height="2.64548" filterUnits="userSpaceOnUse" color-interpolation-filters="sRGB">
<feFlood flood-opacity="0" result="BackgroundImageFix"/>
<feColorMatrix in="SourceAlpha" type="matrix" values="0 0 0 0 0 0 0 0 0 0 0 0 0 0 0 0 0 0 127 0" result="hardAlpha"/>
<feOffset dx="-0.21875" dy="0.21875"/>
<feGaussianBlur stdDeviation="0.21875"/>
<feComposite in2="hardAlpha" operator="out"/>
<feColorMatrix type="matrix" values="0 0 0 0 0.203922 0 0 0 0 0.141176 0 0 0 0 0.262745 0 0 0 1 0"/>
<feBlend mode="normal" in2="BackgroundImageFix" result="effect1_dropShadow_0_51"/>
<feBlend mode="normal" in="SourceGraphic" in2="effect1_dropShadow_0_51" result="shape"/>
<feColorMatrix in="SourceAlpha" type="matrix" values="0 0 0 0 0 0 0 0 0 0 0 0 0 0 0 0 0 0 127 0" result="hardAlpha"/>
<feOffset dx="-0.0875" dy="0.0875"/>
<feGaussianBlur stdDeviation="0.13125"/>
<feComposite in2="hardAlpha" operator="arithmetic" k2="-1" k3="1"/>
<feColorMatrix type="matrix" values="0 0 0 0 0.701961 0 0 0 0 0.682353 0 0 0 0 0.72549 0 0 0 1 0"/>
<feBlend mode="normal" in2="shape" result="effect2_innerShadow_0_51"/>
</filter>
<filter id="filter14_f_0_51" x="11.2178" y="16.7855" width="2.919" height="1.2985" filterUnits="userSpaceOnUse" color-interpolation-filters="sRGB">
<feFlood flood-opacity="0" result="BackgroundImageFix"/>
<feBlend mode="normal" in="SourceGraphic" in2="BackgroundImageFix" result="shape"/>
<feGaussianBlur stdDeviation="0.21875" result="effect1_foregroundBlur_0_51"/>
</filter>
<filter id="filter15_f_0_51" x="2.57031" y="9.3269" width="15.8865" height="11.8125" filterUnits="userSpaceOnUse" color-interpolation-filters="sRGB">
<feFlood flood-opacity="0" result="BackgroundImageFix"/>
<feBlend mode="normal" in="SourceGraphic" in2="BackgroundImageFix" result="shape"/>
<feGaussianBlur stdDeviation="0.4375" result="effect1_foregroundBlur_0_51"/>
</filter>
<radialGradient id="paint0_radial_0_51" cx="0" cy="0" r="1" gradientUnits="userSpaceOnUse" gradientTransform="translate(6.78166 7.09827) rotate(52.6713) scale(2.38992 5.08566)">
<stop offset="0.246" stop-color="#2B2035"/>
<stop offset="1" stop-color="#2B2035" stop-opacity="0"/>
</radialGradient>
<radialGradient id="paint1_radial_0_51" cx="0" cy="0" r="1" gradientUnits="userSpaceOnUse" gradientTransform="translate(14.7102 7.4951) rotate(124.129) scale(2.97293 6.18823)">
<stop stop-color="#332146"/>
<stop offset="1" stop-color="#332146" stop-opacity="0"/>
</radialGradient>
<linearGradient id="paint2_linear_0_51" x1="18.5732" y1="11.4331" x2="18.5732" y2="16.7374" gradientUnits="userSpaceOnUse">
<stop stop-color="#99979B"/>
<stop offset="1" stop-color="#ABA2B5"/>
</linearGradient>
<linearGradient id="paint3_linear_0_51" x1="18.5732" y1="15.3636" x2="18.5732" y2="19.2941" gradientUnits="userSpaceOnUse">
<stop stop-color="#9673B6" stop-opacity="0"/>
<stop offset="1" stop-color="#9673B6"/>
</linearGradient>
<linearGradient id="paint4_linear_0_51" x1="15.7775" y1="10.1206" x2="7.43787" y2="20.8393" gradientUnits="userSpaceOnUse">
<stop stop-color="#524064"/>
<stop offset="1" stop-color="#453B50"/>
</linearGradient>
<linearGradient id="paint5_linear_0_51" x1="10.363" y1="15.8081" x2="10.363" y2="19.2941" gradientUnits="userSpaceOnUse">
<stop stop-color="#AE9EBD"/>
<stop offset="1" stop-color="#AFA1BC"/>
</linearGradient>
<radialGradient id="paint6_radial_0_51" cx="0" cy="0" r="1" gradientUnits="userSpaceOnUse" gradientTransform="translate(8.43441 16.6957) rotate(115.763) scale(2.07599)">
<stop stop-color="#F72B49"/>
<stop offset="1" stop-color="#F32D95"/>
</radialGradient>
<radialGradient id="paint7_radial_0_51" cx="0" cy="0" r="1" gradientUnits="userSpaceOnUse" gradientTransform="translate(8.30587 17.1477) rotate(132.31) scale(0.721014 0.748571)">
<stop offset="0.295" stop-color="#FF576F"/>
<stop offset="1" stop-color="#FF576F" stop-opacity="0"/>
</radialGradient>
<linearGradient id="paint8_linear_0_51" x1="11.4165" y1="17.8861" x2="13.8088" y2="17.8861" gradientUnits="userSpaceOnUse">
<stop offset="0.177" stop-color="#3F344B"/>
<stop offset="1" stop-color="#443553"/>
</linearGradient>
<linearGradient id="paint9_linear_0_51" x1="22.2358" y1="11.2414" x2="22.2358" y2="20.8393" gradientUnits="userSpaceOnUse">
<stop stop-color="#362A43"/>
<stop offset="1" stop-color="#412756"/>
</linearGradient>
<linearGradient id="paint10_linear_0_51" x1="24.4688" y1="20.0737" x2="23.6796" y2="20.0737" gradientUnits="userSpaceOnUse">
<stop stop-color="#3C2A4C"/>
<stop offset="1" stop-color="#3C2A4C" stop-opacity="0"/>
</linearGradient>
<radialGradient id="paint11_radial_0_51" cx="0" cy="0" r="1" gradientUnits="userSpaceOnUse" gradientTransform="translate(24.3087 14.2488) rotate(90) scale(5.00391 0.594528)">
<stop offset="0.262" stop-color="#696171"/>
<stop offset="1" stop-color="#696171" stop-opacity="0"/>
</radialGradient>
<linearGradient id="paint12_linear_0_51" x1="1.55186" y1="12.827" x2="1.55186" y2="14.9734" gradientUnits="userSpaceOnUse">
<stop stop-color="#746F7A"/>
<stop offset="1" stop-color="#8D6DAB"/>
</linearGradient>
<linearGradient id="paint13_linear_0_51" x1="9.13365" y1="2.85102" x2="3.35778" y2="6.79552" gradientUnits="userSpaceOnUse">
<stop stop-color="#4F3F61"/>
<stop offset="1" stop-color="#443A4F"/>
</linearGradient>
<radialGradient id="paint14_radial_0_51" cx="0" cy="0" r="1" gradientUnits="userSpaceOnUse" gradientTransform="translate(5.61265 5.13049) rotate(-42.797) scale(4.74667 4.89812)">
<stop offset="0.683" stop-color="#443A4F" stop-opacity="0"/>
<stop offset="1" stop-color="#6A6075"/>
</radialGradient>
<linearGradient id="paint15_linear_0_51" x1="18.5985" y1="2.85102" x2="12.8227" y2="6.79552" gradientUnits="userSpaceOnUse">
<stop stop-color="#4F3F61"/>
<stop offset="1" stop-color="#443A4F"/>
</linearGradient>
<radialGradient id="paint16_radial_0_51" cx="0" cy="0" r="1" gradientUnits="userSpaceOnUse" gradientTransform="translate(15.0767 5.13137) rotate(-42.797) scale(4.74667 4.89812)">
<stop offset="0.683" stop-color="#443A4F" stop-opacity="0"/>
<stop offset="1" stop-color="#6A6075"/>
</radialGradient>
<radialGradient id="paint17_radial_0_51" cx="0" cy="0" r="1" gradientUnits="userSpaceOnUse" gradientTransform="translate(6.25487 3.87224) rotate(90) scale(1.58594 1.43925)">
<stop stop-color="#A9A0B3"/>
<stop offset="1" stop-color="#9984AF"/>
</radialGradient>
<radialGradient id="paint18_radial_0_51" cx="0" cy="0" r="1" gradientUnits="userSpaceOnUse" gradientTransform="translate(15.627 3.87224) rotate(90) scale(1.58594 1.43925)">
<stop stop-color="#A9A0B3"/>
<stop offset="1" stop-color="#9984AF"/>
</radialGradient>
<linearGradient id="paint19_linear_0_51" x1="0.0003675" y1="13.9487" x2="1.31899" y2="13.9487" gradientUnits="userSpaceOnUse">
<stop stop-color="#3B3145"/>
<stop offset="1" stop-color="#281837"/>
</linearGradient>
<radialGradient id="paint20_radial_0_51" cx="0" cy="0" r="1" gradientUnits="userSpaceOnUse" gradientTransform="translate(0.659242 13.1411) rotate(90) scale(2.87109 0.53053)">
<stop offset="0.295" stop-color="#443B4F"/>
<stop offset="1" stop-color="#443B4F" stop-opacity="0"/>
</radialGradient>
<radialGradient id="paint21_radial_0_51" cx="0" cy="0" r="1" gradientUnits="userSpaceOnUse" gradientTransform="translate(0.659243 13.0186) rotate(90) scale(3.08984 1.23679)">
<stop offset="0.752" stop-color="#523968" stop-opacity="0"/>
<stop offset="1" stop-color="#523968"/>
</radialGradient>
<linearGradient id="paint22_linear_0_51" x1="13.7946" y1="17.4348" x2="11.4173" y2="17.4348" gradientUnits="userSpaceOnUse">
<stop stop-color="#675F73"/>
<stop offset="1" stop-color="#675F73" stop-opacity="0"/>
</linearGradient>
<radialGradient id="paint23_radial_0_51" cx="0" cy="0" r="1" gradientUnits="userSpaceOnUse" gradientTransform="translate(13.666 17.51) rotate(180) scale(0.463032 0.726564)">
<stop offset="0.157" stop-color="#756C80"/>
<stop offset="1" stop-color="#685F73" stop-opacity="0"/>
</radialGradient>
<linearGradient id="paint24_linear_0_51" x1="18.3912" y1="9.78628" x2="13.5227" y2="16.7985" gradientUnits="userSpaceOnUse">
<stop offset="0.274" stop-color="#695E75"/>
<stop offset="1" stop-color="#695E75" stop-opacity="0"/>
</linearGradient>
</defs>
</svg>
