<svg preserveAspectRatio="none" width="100%" height="100%" overflow="visible" style="display: block;" viewBox="0 0 24.5909 16.5156" fill="none" xmlns="http://www.w3.org/2000/svg">
<g id="Group 8">
<g id="Group" filter="url(#filter0_i_0_212)">
<path id="Vector" d="M16.6523 0.525087C16.6523 0.235112 16.8874 0 17.1773 0H21.2884C21.5784 0 21.8134 0.235112 21.8134 0.525087V1.47665H16.6523V0.525087Z" fill="url(#paint0_linear_0_212)"/>
<path id="Vector_2" d="M16.6523 0.525087C16.6523 0.235112 16.8874 0 17.1773 0H21.2884C21.5784 0 21.8134 0.235112 21.8134 0.525087V1.47665H16.6523V0.525087Z" fill="url(#paint1_radial_0_212)"/>
</g>
<g id="Group_2" filter="url(#filter1_i_0_212)">
<path id="Vector_3" d="M2.66602 0.481249C2.66602 0.215512 2.88148 0 3.14727 0H5.65743C5.92321 0 6.13868 0.215512 6.13868 0.481337V1.47665H2.66602V0.481249Z" fill="url(#paint2_linear_0_212)"/>
<path id="Vector_4" d="M2.66602 0.481249C2.66602 0.215512 2.88148 0 3.14727 0H5.65743C5.92321 0 6.13868 0.215512 6.13868 0.481337V1.47665H2.66602V0.481249Z" fill="url(#paint3_radial_0_212)"/>
</g>
<g id="Group_3" filter="url(#filter2_i_0_212)">
<path id="Vector_5" d="M0 2.61816C0 1.65173 0.783501 0.868164 1.75 0.868164H22.6954C23.6618 0.868164 24.4454 1.65173 24.4454 2.61816V4.07425C24.4454 4.19509 24.3474 4.293 24.2266 4.293H0.21875C0.0979387 4.293 0 4.19509 0 4.07425V2.61816Z" fill="var(--fill-0, #DAD4E6)"/>
<path id="Vector_6" d="M0 2.61816C0 1.65173 0.783501 0.868164 1.75 0.868164H22.6954C23.6618 0.868164 24.4454 1.65173 24.4454 2.61816V4.07425C24.4454 4.19509 24.3474 4.293 24.2266 4.293H0.21875C0.0979387 4.293 0 4.19509 0 4.07425V2.61816Z" fill="url(#paint4_linear_0_212)"/>
<path id="Vector_7" d="M0 2.61816C0 1.65173 0.783501 0.868164 1.75 0.868164H22.6954C23.6618 0.868164 24.4454 1.65173 24.4454 2.61816V4.07425C24.4454 4.19509 24.3474 4.293 24.2266 4.293H0.21875C0.0979387 4.293 0 4.19509 0 4.07425V2.61816Z" fill="url(#paint5_linear_0_212)"/>
<path id="Vector_8" d="M0 2.61816C0 1.65173 0.783501 0.868164 1.75 0.868164H22.6954C23.6618 0.868164 24.4454 1.65173 24.4454 2.61816V4.07425C24.4454 4.19509 24.3474 4.293 24.2266 4.293H0.21875C0.0979387 4.293 0 4.19509 0 4.07425V2.61816Z" fill="url(#paint6_linear_0_212)"/>
<path id="Vector_9" d="M0 2.61816C0 1.65173 0.783501 0.868164 1.75 0.868164H22.6954C23.6618 0.868164 24.4454 1.65173 24.4454 2.61816V4.07425C24.4454 4.19509 24.3474 4.293 24.2266 4.293H0.21875C0.0979387 4.293 0 4.19509 0 4.07425V2.61816Z" fill="url(#paint7_radial_0_212)"/>
<path id="Vector_10" d="M0 2.61816C0 1.65173 0.783501 0.868164 1.75 0.868164H22.6954C23.6618 0.868164 24.4454 1.65173 24.4454 2.61816V4.07425C24.4454 4.19509 24.3474 4.293 24.2266 4.293H0.21875C0.0979387 4.293 0 4.19509 0 4.07425V2.61816Z" fill="url(#paint8_linear_0_212)"/>
</g>
<path id="Vector_11" d="M0 14.9712C0 15.8242 0.691478 16.5156 1.54445 16.5156H22.9009C23.7538 16.5156 24.4454 15.8242 24.4454 14.9712C24.4454 14.9407 24.4206 14.916 24.3901 14.916H0.05516C0.0246925 14.916 0 14.9407 0 14.9712Z" fill="url(#paint9_linear_0_212)"/>
<path id="Vector_12" d="M0 14.9712C0 15.8242 0.691478 16.5156 1.54445 16.5156H22.9009C23.7538 16.5156 24.4454 15.8242 24.4454 14.9712C24.4454 14.9407 24.4206 14.916 24.3901 14.916H0.05516C0.0246925 14.916 0 14.9407 0 14.9712Z" fill="url(#paint10_linear_0_212)"/>
<path id="Vector_13" d="M0 14.9712C0 15.8242 0.691478 16.5156 1.54445 16.5156H22.9009C23.7538 16.5156 24.4454 15.8242 24.4454 14.9712C24.4454 14.9407 24.4206 14.916 24.3901 14.916H0.05516C0.0246925 14.916 0 14.9407 0 14.9712Z" fill="url(#paint11_linear_0_212)"/>
<path id="Vector_14" d="M0 14.9712C0 15.8242 0.691478 16.5156 1.54445 16.5156H22.9009C23.7538 16.5156 24.4454 15.8242 24.4454 14.9712C24.4454 14.9407 24.4206 14.916 24.3901 14.916H0.05516C0.0246925 14.916 0 14.9407 0 14.9712Z" fill="url(#paint12_radial_0_212)"/>
<path id="Vector_15" d="M0 14.9712C0 15.8242 0.691478 16.5156 1.54445 16.5156H22.9009C23.7538 16.5156 24.4454 15.8242 24.4454 14.9712C24.4454 14.9407 24.4206 14.916 24.3901 14.916H0.05516C0.0246925 14.916 0 14.9407 0 14.9712Z" fill="url(#paint13_radial_0_212)"/>
<path id="Vector_16" d="M0 4.51172C0 4.39088 0.0979387 4.29297 0.21875 4.29297H24.2266C24.3474 4.29297 24.4454 4.39088 24.4454 4.51172V14.6972C24.4454 14.8181 24.3474 14.916 24.2266 14.916H0.21875C0.0979387 14.916 0 14.8181 0 14.6972V4.51172Z" fill="url(#paint14_linear_0_212)"/>
<path id="Vector_17" d="M0 4.51172C0 4.39088 0.0979387 4.29297 0.21875 4.29297H24.2266C24.3474 4.29297 24.4454 4.39088 24.4454 4.51172V14.6972C24.4454 14.8181 24.3474 14.916 24.2266 14.916H0.21875C0.0979387 14.916 0 14.8181 0 14.6972V4.51172Z" fill="url(#paint15_linear_0_212)"/>
<path id="Vector_18" d="M0 4.51172C0 4.39088 0.0979387 4.29297 0.21875 4.29297H24.2266C24.3474 4.29297 24.4454 4.39088 24.4454 4.51172V14.6972C24.4454 14.8181 24.3474 14.916 24.2266 14.916H0.21875C0.0979387 14.916 0 14.8181 0 14.6972V4.51172Z" fill="url(#paint16_linear_0_212)"/>
<path id="Vector_19" d="M0 4.51172C0 4.39088 0.0979387 4.29297 0.21875 4.29297H24.2266C24.3474 4.29297 24.4454 4.39088 24.4454 4.51172V14.6972C24.4454 14.8181 24.3474 14.916 24.2266 14.916H0.21875C0.0979387 14.916 0 14.8181 0 14.6972V4.51172Z" fill="url(#paint17_linear_0_212)"/>
<path id="Vector_20" d="M0 4.51172C0 4.39088 0.0979387 4.29297 0.21875 4.29297H24.2266C24.3474 4.29297 24.4454 4.39088 24.4454 4.51172V14.6972C24.4454 14.8181 24.3474 14.916 24.2266 14.916H0.21875C0.0979387 14.916 0 14.8181 0 14.6972V4.51172Z" fill="url(#paint18_linear_0_212)"/>
<path id="Vector_21" d="M0 4.51172C0 4.39088 0.0979387 4.29297 0.21875 4.29297H24.2266C24.3474 4.29297 24.4454 4.39088 24.4454 4.51172V14.6972C24.4454 14.8181 24.3474 14.916 24.2266 14.916H0.21875C0.0979387 14.916 0 14.8181 0 14.6972V4.51172Z" fill="url(#paint19_linear_0_212)"/>
<path id="Vector_22" d="M0 4.51172C0 4.39088 0.0979387 4.29297 0.21875 4.29297H24.2266C24.3474 4.29297 24.4454 4.39088 24.4454 4.51172V14.6972C24.4454 14.8181 24.3474 14.916 24.2266 14.916H0.21875C0.0979387 14.916 0 14.8181 0 14.6972V4.51172Z" fill="url(#paint20_radial_0_212)"/>
<g id="Group_4" filter="url(#filter3_iiii_0_212)">
<path id="Vector_23" d="M12.2225 15.7166C15.613 15.7166 18.3615 12.9681 18.3615 9.5776C18.3615 6.18712 15.613 3.4386 12.2225 3.4386C8.83202 3.4386 6.0835 6.18712 6.0835 9.5776C6.0835 12.9681 8.83202 15.7166 12.2225 15.7166Z" fill="url(#paint21_radial_0_212)"/>
</g>
<g id="Group_5" filter="url(#filter4_f_0_212)">
<path id="Vector_24" d="M12.2226 13.9255C14.6239 13.9255 16.5705 11.9789 16.5705 9.57761C16.5705 7.17635 14.6239 5.22974 12.2226 5.22974C9.82137 5.22974 7.87476 7.17635 7.87476 9.57761C7.87476 11.9789 9.82137 13.9255 12.2226 13.9255Z" stroke="url(#paint22_linear_0_212)" stroke-width="0.2625"/>
<path id="Vector_25" d="M12.2226 13.9255C14.6239 13.9255 16.5705 11.9789 16.5705 9.57761C16.5705 7.17635 14.6239 5.22974 12.2226 5.22974C9.82137 5.22974 7.87476 7.17635 7.87476 9.57761C7.87476 11.9789 9.82137 13.9255 12.2226 13.9255Z" stroke="url(#paint23_linear_0_212)" stroke-width="0.2625"/>
</g>
<path id="Vector_26" d="M12.2226 13.9255C14.6239 13.9255 16.5705 11.9789 16.5705 9.57761C16.5705 7.17635 14.6239 5.22974 12.2226 5.22974C9.82137 5.22974 7.87476 7.17635 7.87476 9.57761C7.87476 11.9789 9.82137 13.9255 12.2226 13.9255Z" fill="url(#paint24_radial_0_212)"/>
<path id="Vector_27" d="M12.2226 13.9255C14.6239 13.9255 16.5705 11.9789 16.5705 9.57761C16.5705 7.17635 14.6239 5.22974 12.2226 5.22974C9.82137 5.22974 7.87476 7.17635 7.87476 9.57761C7.87476 11.9789 9.82137 13.9255 12.2226 13.9255Z" fill="url(#paint25_linear_0_212)"/>
<g id="Group_6" filter="url(#filter5_f_0_212)">
<path id="Vector_28" d="M12.2226 13.3855C14.3257 13.3855 16.0306 11.6806 16.0306 9.57753C16.0306 7.47443 14.3257 5.76953 12.2226 5.76953C10.1195 5.76953 8.41455 7.47443 8.41455 9.57753C8.41455 11.6806 10.1195 13.3855 12.2226 13.3855Z" fill="url(#paint26_radial_0_212)"/>
<path id="Vector_29" d="M12.2226 13.3855C14.3257 13.3855 16.0306 11.6806 16.0306 9.57753C16.0306 7.47443 14.3257 5.76953 12.2226 5.76953C10.1195 5.76953 8.41455 7.47443 8.41455 9.57753C8.41455 11.6806 10.1195 13.3855 12.2226 13.3855Z" fill="url(#paint27_radial_0_212)"/>
</g>
<path id="Vector_30" d="M12.2228 11.7239C13.4082 11.7239 14.3692 10.7629 14.3692 9.57753C14.3692 8.39212 13.4082 7.43115 12.2228 7.43115C11.0374 7.43115 10.0764 8.39212 10.0764 9.57753C10.0764 10.7629 11.0374 11.7239 12.2228 11.7239Z" fill="url(#paint28_linear_0_212)"/>
<path id="Vector_31" d="M12.2228 11.7239C13.4082 11.7239 14.3692 10.7629 14.3692 9.57753C14.3692 8.39212 13.4082 7.43115 12.2228 7.43115C11.0374 7.43115 10.0764 8.39212 10.0764 9.57753C10.0764 10.7629 11.0374 11.7239 12.2228 11.7239Z" fill="url(#paint29_radial_0_212)"/>
<path id="Vector_32" d="M12.2228 11.7239C13.4082 11.7239 14.3692 10.7629 14.3692 9.57753C14.3692 8.39212 13.4082 7.43115 12.2228 7.43115C11.0374 7.43115 10.0764 8.39212 10.0764 9.57753C10.0764 10.7629 11.0374 11.7239 12.2228 11.7239Z" fill="url(#paint30_radial_0_212)"/>
<path id="Vector_33" d="M14.5267 8.5816C14.8581 8.34975 14.8928 7.82731 14.6042 7.4147C14.3156 7.00209 13.8129 6.85555 13.4815 7.0874C13.15 7.31925 13.1153 7.84169 13.404 8.2543C13.6926 8.66691 14.1953 8.81345 14.5267 8.5816Z" fill="url(#paint31_linear_0_212)"/>
<g id="Group_7" filter="url(#filter6_f_0_212)">
<path id="Vector_34" d="M24.0222 4.57349H23.6118V14.636H24.0222V4.57349Z" fill="var(--fill-0, #8D8D92)"/>
</g>
</g>
<defs>
<filter id="filter0_i_0_212" x="16.6523" y="0" width="5.1611" height="1.6079" filterUnits="userSpaceOnUse" color-interpolation-filters="sRGB">
<feFlood flood-opacity="0" result="BackgroundImageFix"/>
<feBlend mode="normal" in="SourceGraphic" in2="BackgroundImageFix" result="shape"/>
<feColorMatrix in="SourceAlpha" type="matrix" values="0 0 0 0 0 0 0 0 0 0 0 0 0 0 0 0 0 0 127 0" result="hardAlpha"/>
<feOffset dy="0.13125"/>
<feGaussianBlur stdDeviation="0.175"/>
<feComposite in2="hardAlpha" operator="arithmetic" k2="-1" k3="1"/>
<feColorMatrix type="matrix" values="0 0 0 0 0.701961 0 0 0 0 0.709804 0 0 0 0 0.713726 0 0 0 1 0"/>
<feBlend mode="normal" in2="shape" result="effect1_innerShadow_0_212"/>
</filter>
<filter id="filter1_i_0_212" x="2.66602" y="0" width="3.47266" height="1.6079" filterUnits="userSpaceOnUse" color-interpolation-filters="sRGB">
<feFlood flood-opacity="0" result="BackgroundImageFix"/>
<feBlend mode="normal" in="SourceGraphic" in2="BackgroundImageFix" result="shape"/>
<feColorMatrix in="SourceAlpha" type="matrix" values="0 0 0 0 0 0 0 0 0 0 0 0 0 0 0 0 0 0 127 0" result="hardAlpha"/>
<feOffset dy="0.13125"/>
<feGaussianBlur stdDeviation="0.175"/>
<feComposite in2="hardAlpha" operator="arithmetic" k2="-1" k3="1"/>
<feColorMatrix type="matrix" values="0 0 0 0 0.701961 0 0 0 0 0.709804 0 0 0 0 0.713726 0 0 0 1 0"/>
<feBlend mode="normal" in2="shape" result="effect1_innerShadow_0_212"/>
</filter>
<filter id="filter2_i_0_212" x="0" y="0.868164" width="24.4454" height="3.51234" filterUnits="userSpaceOnUse" color-interpolation-filters="sRGB">
<feFlood flood-opacity="0" result="BackgroundImageFix"/>
<feBlend mode="normal" in="SourceGraphic" in2="BackgroundImageFix" result="shape"/>
<feColorMatrix in="SourceAlpha" type="matrix" values="0 0 0 0 0 0 0 0 0 0 0 0 0 0 0 0 0 0 127 0" result="hardAlpha"/>
<feOffset dy="0.0875"/>
<feGaussianBlur stdDeviation="0.13125"/>
<feComposite in2="hardAlpha" operator="arithmetic" k2="-1" k3="1"/>
<feColorMatrix type="matrix" values="0 0 0 0 0.796078 0 0 0 0 0.8 0 0 0 0 0.803922 0 0 0 1 0"/>
<feBlend mode="normal" in2="shape" result="effect1_innerShadow_0_212"/>
</filter>
<filter id="filter3_iiii_0_212" x="5.95225" y="3.30735" width="12.5405" height="12.5405" filterUnits="userSpaceOnUse" color-interpolation-filters="sRGB">
<feFlood flood-opacity="0" result="BackgroundImageFix"/>
<feBlend mode="normal" in="SourceGraphic" in2="BackgroundImageFix" result="shape"/>
<feColorMatrix in="SourceAlpha" type="matrix" values="0 0 0 0 0 0 0 0 0 0 0 0 0 0 0 0 0 0 127 0" result="hardAlpha"/>
<feOffset dy="-0.13125"/>
<feGaussianBlur stdDeviation="0.065625"/>
<feComposite in2="hardAlpha" operator="arithmetic" k2="-1" k3="1"/>
<feColorMatrix type="matrix" values="0 0 0 0 0.545098 0 0 0 0 0.529412 0 0 0 0 0.580392 0 0 0 1 0"/>
<feBlend mode="normal" in2="shape" result="effect1_innerShadow_0_212"/>
<feColorMatrix in="SourceAlpha" type="matrix" values="0 0 0 0 0 0 0 0 0 0 0 0 0 0 0 0 0 0 127 0" result="hardAlpha"/>
<feOffset dx="0.13125"/>
<feGaussianBlur stdDeviation="0.065625"/>
<feComposite in2="hardAlpha" operator="arithmetic" k2="-1" k3="1"/>
<feColorMatrix type="matrix" values="0 0 0 0 0.564706 0 0 0 0 0.54902 0 0 0 0 0.6 0 0 0 1 0"/>
<feBlend mode="normal" in2="effect1_innerShadow_0_212" result="effect2_innerShadow_0_212"/>
<feColorMatrix in="SourceAlpha" type="matrix" values="0 0 0 0 0 0 0 0 0 0 0 0 0 0 0 0 0 0 127 0" result="hardAlpha"/>
<feOffset dy="0.13125"/>
<feGaussianBlur stdDeviation="0.065625"/>
<feComposite in2="hardAlpha" operator="arithmetic" k2="-1" k3="1"/>
<feColorMatrix type="matrix" values="0 0 0 0 0.619608 0 0 0 0 0.623529 0 0 0 0 0.631373 0 0 0 1 0"/>
<feBlend mode="normal" in2="effect2_innerShadow_0_212" result="effect3_innerShadow_0_212"/>
<feColorMatrix in="SourceAlpha" type="matrix" values="0 0 0 0 0 0 0 0 0 0 0 0 0 0 0 0 0 0 127 0" result="hardAlpha"/>
<feOffset dx="-0.13125" dy="0.0875"/>
<feGaussianBlur stdDeviation="0.109375"/>
<feComposite in2="hardAlpha" operator="arithmetic" k2="-1" k3="1"/>
<feColorMatrix type="matrix" values="0 0 0 0 0.803922 0 0 0 0 0.803922 0 0 0 0 0.823529 0 0 0 1 0"/>
<feBlend mode="normal" in2="effect3_innerShadow_0_212" result="effect4_innerShadow_0_212"/>
</filter>
<filter id="filter4_f_0_212" x="7.39351" y="4.74849" width="9.65825" height="9.65825" filterUnits="userSpaceOnUse" color-interpolation-filters="sRGB">
<feFlood flood-opacity="0" result="BackgroundImageFix"/>
<feBlend mode="normal" in="SourceGraphic" in2="BackgroundImageFix" result="shape"/>
<feGaussianBlur stdDeviation="0.175" result="effect1_foregroundBlur_0_212"/>
</filter>
<filter id="filter5_f_0_212" x="7.7583" y="5.11328" width="8.9285" height="8.9285" filterUnits="userSpaceOnUse" color-interpolation-filters="sRGB">
<feFlood flood-opacity="0" result="BackgroundImageFix"/>
<feBlend mode="normal" in="SourceGraphic" in2="BackgroundImageFix" result="shape"/>
<feGaussianBlur stdDeviation="0.328125" result="effect1_foregroundBlur_0_212"/>
</filter>
<filter id="filter6_f_0_212" x="23.0431" y="4.00474" width="1.54788" height="11.2" filterUnits="userSpaceOnUse" color-interpolation-filters="sRGB">
<feFlood flood-opacity="0" result="BackgroundImageFix"/>
<feBlend mode="normal" in="SourceGraphic" in2="BackgroundImageFix" result="shape"/>
<feGaussianBlur stdDeviation="0.284375" result="effect1_foregroundBlur_0_212"/>
</filter>
<linearGradient id="paint0_linear_0_212" x1="16.9529" y1="0.738325" x2="22.2309" y2="0.738325" gradientUnits="userSpaceOnUse">
<stop offset="0.197" stop-color="#949597"/>
<stop offset="0.624" stop-color="#C1C2C4"/>
</linearGradient>
<radialGradient id="paint1_radial_0_212" cx="0" cy="0" r="1" gradientUnits="userSpaceOnUse" gradientTransform="translate(20.4809 0.383075) rotate(90) scale(0.191406 1.47656)">
<stop stop-color="#CFD0D2"/>
<stop offset="1" stop-color="#CFD0D2" stop-opacity="0"/>
</radialGradient>
<linearGradient id="paint2_linear_0_212" x1="2.86804" y1="0.738325" x2="6.41966" y2="0.738325" gradientUnits="userSpaceOnUse">
<stop offset="0.197" stop-color="#949597"/>
<stop offset="0.624" stop-color="#C1C2C4"/>
</linearGradient>
<radialGradient id="paint3_radial_0_212" cx="0" cy="0" r="1" gradientUnits="userSpaceOnUse" gradientTransform="translate(5.24191 0.383075) rotate(90) scale(0.191406 0.993501)">
<stop stop-color="#CFD0D2"/>
<stop offset="1" stop-color="#CFD0D2" stop-opacity="0"/>
</radialGradient>
<linearGradient id="paint4_linear_0_212" x1="12.2227" y1="0.867814" x2="12.2227" y2="2.29669" gradientUnits="userSpaceOnUse">
<stop stop-color="#D8D8DC"/>
<stop offset="1" stop-color="#D8D8DC" stop-opacity="0"/>
</linearGradient>
<linearGradient id="paint5_linear_0_212" x1="-0.00021875" y1="3.77369" x2="1.36741" y2="3.77369" gradientUnits="userSpaceOnUse">
<stop offset="0.22" stop-color="#C6C3CC"/>
<stop offset="1" stop-color="#C6C3CC" stop-opacity="0"/>
</linearGradient>
<linearGradient id="paint6_linear_0_212" x1="24.4455" y1="3.99244" x2="22.2029" y2="3.99244" gradientUnits="userSpaceOnUse">
<stop offset="0.15" stop-color="#F9F7FE"/>
<stop offset="1" stop-color="#D3CDDD" stop-opacity="0"/>
</linearGradient>
<radialGradient id="paint7_radial_0_212" cx="0" cy="0" r="1" gradientUnits="userSpaceOnUse" gradientTransform="translate(24.4449 1.53227) rotate(135.463) scale(1.49609 1.81649)">
<stop offset="0.15" stop-color="#F9F7FE"/>
<stop offset="1" stop-color="#F9F7FE" stop-opacity="0"/>
</radialGradient>
<linearGradient id="paint8_linear_0_212" x1="13.6445" y1="4.29344" x2="13.6445" y2="3.99244" gradientUnits="userSpaceOnUse">
<stop stop-color="#B6ADC6"/>
<stop offset="1" stop-color="#B6ADC6" stop-opacity="0"/>
</linearGradient>
<linearGradient id="paint9_linear_0_212" x1="12.2227" y1="14.9159" x2="12.2227" y2="16.5154" gradientUnits="userSpaceOnUse">
<stop stop-color="#CFC6DE"/>
<stop offset="1" stop-color="#C3B4D7"/>
</linearGradient>
<linearGradient id="paint10_linear_0_212" x1="13.4258" y1="16.5154" x2="13.4258" y2="15.2852" gradientUnits="userSpaceOnUse">
<stop stop-color="#AC91C9"/>
<stop offset="1" stop-color="#C2B3D6" stop-opacity="0"/>
</linearGradient>
<linearGradient id="paint11_linear_0_212" x1="12.2227" y1="14.9159" x2="12.2227" y2="15.3674" gradientUnits="userSpaceOnUse">
<stop stop-color="#CFCBD7"/>
<stop offset="1" stop-color="#CFCBD7" stop-opacity="0"/>
</linearGradient>
<radialGradient id="paint12_radial_0_212" cx="0" cy="0" r="1" gradientUnits="userSpaceOnUse" gradientTransform="translate(23.8435 14.5747) rotate(90) scale(1.6953 1.09837)">
<stop offset="0.242" stop-color="#F7F4FE"/>
<stop offset="1" stop-color="#C8BCDB" stop-opacity="0"/>
</radialGradient>
<radialGradient id="paint13_radial_0_212" cx="0" cy="0" r="1" gradientUnits="userSpaceOnUse" gradientTransform="translate(10.6914 12.4966) rotate(90) scale(4.01953 5.67273)">
<stop offset="0.645" stop-color="#9884AF"/>
<stop offset="1" stop-color="#9884AF" stop-opacity="0"/>
</radialGradient>
<linearGradient id="paint14_linear_0_212" x1="15.9685" y1="9.60466" x2="23.8435" y2="9.60466" gradientUnits="userSpaceOnUse">
<stop stop-color="#66636F"/>
<stop offset="1" stop-color="#6B6873"/>
</linearGradient>
<linearGradient id="paint15_linear_0_212" x1="-0.000218747" y1="11.0747" x2="2.35178" y2="11.1018" gradientUnits="userSpaceOnUse">
<stop offset="0.342" stop-color="#5E5C64"/>
<stop offset="1" stop-color="#5E5C64" stop-opacity="0"/>
</linearGradient>
<linearGradient id="paint16_linear_0_212" x1="-0.300344" y1="9.76216" x2="0.711156" y2="9.76216" gradientUnits="userSpaceOnUse">
<stop stop-color="#8F8F91"/>
<stop offset="1" stop-color="#6D6C71" stop-opacity="0"/>
</linearGradient>
<linearGradient id="paint17_linear_0_212" x1="12.2227" y1="4.29341" x2="12.2227" y2="4.94966" gradientUnits="userSpaceOnUse">
<stop stop-color="#706F76"/>
<stop offset="1" stop-color="#706F76" stop-opacity="0"/>
</linearGradient>
<linearGradient id="paint18_linear_0_212" x1="12.2227" y1="4.29341" x2="12.2227" y2="4.58041" gradientUnits="userSpaceOnUse">
<stop stop-color="#5F5E65"/>
<stop offset="1" stop-color="#5F5E65" stop-opacity="0"/>
</linearGradient>
<linearGradient id="paint19_linear_0_212" x1="15.1215" y1="14.9159" x2="15.1215" y2="14.383" gradientUnits="userSpaceOnUse">
<stop stop-color="#5C536A"/>
<stop offset="1" stop-color="#5C536A" stop-opacity="0"/>
</linearGradient>
<radialGradient id="paint20_radial_0_212" cx="0" cy="0" r="1" gradientUnits="userSpaceOnUse" gradientTransform="translate(10.1449 11.2652) rotate(53.678) scale(7.43237 7.404)">
<stop offset="0.597" stop-color="#4B4357"/>
<stop offset="1" stop-color="#524C5D" stop-opacity="0"/>
</radialGradient>
<radialGradient id="paint21_radial_0_212" cx="0" cy="0" r="1" gradientUnits="userSpaceOnUse" gradientTransform="translate(16.8984 6.69932) rotate(143.867) scale(9.78443)">
<stop stop-color="#A6A2AE"/>
<stop offset="1" stop-color="#A6A2AF"/>
</radialGradient>
<linearGradient id="paint22_linear_0_212" x1="15.0935" y1="5.03111" x2="12.2226" y2="13.9246" gradientUnits="userSpaceOnUse">
<stop stop-color="#6A6375"/>
<stop offset="1" stop-color="#6A6375" stop-opacity="0"/>
</linearGradient>
<linearGradient id="paint23_linear_0_212" x1="9.46113" y1="12.9341" x2="11.0466" y2="10.7737" gradientUnits="userSpaceOnUse">
<stop offset="0.363" stop-color="#B7B6BD"/>
<stop offset="1" stop-color="#B7B6BD" stop-opacity="0"/>
</linearGradient>
<radialGradient id="paint24_radial_0_212" cx="0" cy="0" r="1" gradientUnits="userSpaceOnUse" gradientTransform="translate(14.6019 8.42147) rotate(143.911) scale(5.61693 5.24807)">
<stop offset="0.068" stop-color="#67616D"/>
<stop offset="1" stop-color="#4D3E5C"/>
</radialGradient>
<linearGradient id="paint25_linear_0_212" x1="15.2309" y1="5.22974" x2="9.16013" y2="12.9884" gradientUnits="userSpaceOnUse">
<stop stop-color="#2C2634"/>
<stop offset="0.599" stop-color="#40344C"/>
</linearGradient>
<radialGradient id="paint26_radial_0_212" cx="0" cy="0" r="1" gradientUnits="userSpaceOnUse" gradientTransform="translate(14.3059 8.56516) rotate(143.911) scale(4.91923 4.59619)">
<stop offset="0.068" stop-color="#67616D"/>
<stop offset="1" stop-color="#4D3E5C"/>
</radialGradient>
<radialGradient id="paint27_radial_0_212" cx="0" cy="0" r="1" gradientUnits="userSpaceOnUse" gradientTransform="translate(14.3004 7.98445) rotate(147.397) scale(6.39429 6.18697)">
<stop offset="0.78" stop-color="#554863" stop-opacity="0"/>
<stop offset="0.985" stop-color="#554863"/>
</radialGradient>
<linearGradient id="paint28_linear_0_212" x1="13.3437" y1="11.5664" x2="10.5279" y2="7.82053" gradientUnits="userSpaceOnUse">
<stop stop-color="#463755"/>
<stop offset="1" stop-color="#473F51"/>
</linearGradient>
<radialGradient id="paint29_radial_0_212" cx="0" cy="0" r="1" gradientUnits="userSpaceOnUse" gradientTransform="translate(10.8007 11.1834) rotate(-48.614) scale(3.68096 2.52418)">
<stop stop-color="#544E5C"/>
<stop offset="1" stop-color="#544E5C" stop-opacity="0"/>
</radialGradient>
<radialGradient id="paint30_radial_0_212" cx="0" cy="0" r="1" gradientUnits="userSpaceOnUse" gradientTransform="translate(14.3693 7.76524) rotate(146.088) scale(1.96043)">
<stop stop-color="#544E5C"/>
<stop offset="1" stop-color="#544E5C" stop-opacity="0"/>
</radialGradient>
<linearGradient id="paint31_linear_0_212" x1="14.0039" y1="7.16405" x2="14.3273" y2="8.74992" gradientUnits="userSpaceOnUse">
<stop offset="0.051" stop-color="#F3F2F4"/>
<stop offset="1" stop-color="#F3F2F4" stop-opacity="0"/>
</linearGradient>
</defs>
</svg>
