<svg preserveAspectRatio="none" width="100%" height="100%" overflow="visible" style="display: block;" viewBox="0 0 24.5909 20.1797" fill="none" xmlns="http://www.w3.org/2000/svg">
<g id="Group 9">
<g id="Group" filter="url(#filter0_i_0_149)">
<path id="Vector" d="M16.6523 4.18915C16.6523 3.89917 16.8874 3.66406 17.1773 3.66406H21.2884C21.5784 3.66406 21.8134 3.89917 21.8134 4.18915V5.14071H16.6523V4.18915Z" fill="url(#paint0_linear_0_149)"/>
<path id="Vector_2" d="M16.6523 4.18915C16.6523 3.89917 16.8874 3.66406 17.1773 3.66406H21.2884C21.5784 3.66406 21.8134 3.89917 21.8134 4.18915V5.14071H16.6523V4.18915Z" fill="url(#paint1_radial_0_149)"/>
</g>
<g id="Group_2" filter="url(#filter1_i_0_149)">
<path id="Vector_3" d="M2.66602 4.14531C2.66602 3.87957 2.88148 3.66406 3.14727 3.66406H5.65743C5.92321 3.66406 6.13868 3.87957 6.13868 4.1454V5.14071H2.66602V4.14531Z" fill="url(#paint2_linear_0_149)"/>
<path id="Vector_4" d="M2.66602 4.14531C2.66602 3.87957 2.88148 3.66406 3.14727 3.66406H5.65743C5.92321 3.66406 6.13868 3.87957 6.13868 4.1454V5.14071H2.66602V4.14531Z" fill="url(#paint3_radial_0_149)"/>
</g>
<path id="Vector_5" d="M0 18.6353C0 19.4882 0.691478 20.1797 1.54445 20.1797H22.9009C23.7538 20.1797 24.4454 19.4882 24.4454 18.6353C24.4454 18.6048 24.4206 18.5801 24.3901 18.5801H0.05516C0.0246925 18.5801 0 18.6048 0 18.6353Z" fill="url(#paint4_linear_0_149)"/>
<path id="Vector_6" d="M0 18.6353C0 19.4882 0.691478 20.1797 1.54445 20.1797H22.9009C23.7538 20.1797 24.4454 19.4882 24.4454 18.6353C24.4454 18.6048 24.4206 18.5801 24.3901 18.5801H0.05516C0.0246925 18.5801 0 18.6048 0 18.6353Z" fill="url(#paint5_linear_0_149)"/>
<path id="Vector_7" d="M0 18.6353C0 19.4882 0.691478 20.1797 1.54445 20.1797H22.9009C23.7538 20.1797 24.4454 19.4882 24.4454 18.6353C24.4454 18.6048 24.4206 18.5801 24.3901 18.5801H0.05516C0.0246925 18.5801 0 18.6048 0 18.6353Z" fill="url(#paint6_linear_0_149)"/>
<path id="Vector_8" d="M0 18.6353C0 19.4882 0.691478 20.1797 1.54445 20.1797H22.9009C23.7538 20.1797 24.4454 19.4882 24.4454 18.6353C24.4454 18.6048 24.4206 18.5801 24.3901 18.5801H0.05516C0.0246925 18.5801 0 18.6048 0 18.6353Z" fill="url(#paint7_radial_0_149)"/>
<path id="Vector_9" d="M0 18.6353C0 19.4882 0.691478 20.1797 1.54445 20.1797H22.9009C23.7538 20.1797 24.4454 19.4882 24.4454 18.6353C24.4454 18.6048 24.4206 18.5801 24.3901 18.5801H0.05516C0.0246925 18.5801 0 18.6048 0 18.6353Z" fill="url(#paint8_radial_0_149)"/>
<path id="Vector_10" d="M0 8.17578C0 8.05494 0.0979387 7.95703 0.21875 7.95703H24.2266C24.3474 7.95703 24.4454 8.05494 24.4454 8.17578V18.3613C24.4454 18.4821 24.3474 18.5801 24.2266 18.5801H0.21875C0.0979387 18.5801 0 18.4821 0 18.3613V8.17578Z" fill="url(#paint9_linear_0_149)"/>
<path id="Vector_11" d="M0 8.17578C0 8.05494 0.0979387 7.95703 0.21875 7.95703H24.2266C24.3474 7.95703 24.4454 8.05494 24.4454 8.17578V18.3613C24.4454 18.4821 24.3474 18.5801 24.2266 18.5801H0.21875C0.0979387 18.5801 0 18.4821 0 18.3613V8.17578Z" fill="url(#paint10_linear_0_149)"/>
<path id="Vector_12" d="M0 8.17578C0 8.05494 0.0979387 7.95703 0.21875 7.95703H24.2266C24.3474 7.95703 24.4454 8.05494 24.4454 8.17578V18.3613C24.4454 18.4821 24.3474 18.5801 24.2266 18.5801H0.21875C0.0979387 18.5801 0 18.4821 0 18.3613V8.17578Z" fill="url(#paint11_linear_0_149)"/>
<path id="Vector_13" d="M0 8.17578C0 8.05494 0.0979387 7.95703 0.21875 7.95703H24.2266C24.3474 7.95703 24.4454 8.05494 24.4454 8.17578V18.3613C24.4454 18.4821 24.3474 18.5801 24.2266 18.5801H0.21875C0.0979387 18.5801 0 18.4821 0 18.3613V8.17578Z" fill="url(#paint12_linear_0_149)"/>
<path id="Vector_14" d="M0 8.17578C0 8.05494 0.0979387 7.95703 0.21875 7.95703H24.2266C24.3474 7.95703 24.4454 8.05494 24.4454 8.17578V18.3613C24.4454 18.4821 24.3474 18.5801 24.2266 18.5801H0.21875C0.0979387 18.5801 0 18.4821 0 18.3613V8.17578Z" fill="url(#paint13_linear_0_149)"/>
<path id="Vector_15" d="M0 8.17578C0 8.05494 0.0979387 7.95703 0.21875 7.95703H24.2266C24.3474 7.95703 24.4454 8.05494 24.4454 8.17578V18.3613C24.4454 18.4821 24.3474 18.5801 24.2266 18.5801H0.21875C0.0979387 18.5801 0 18.4821 0 18.3613V8.17578Z" fill="url(#paint14_linear_0_149)"/>
<path id="Vector_16" d="M0 8.17578C0 8.05494 0.0979387 7.95703 0.21875 7.95703H24.2266C24.3474 7.95703 24.4454 8.05494 24.4454 8.17578V18.3613C24.4454 18.4821 24.3474 18.5801 24.2266 18.5801H0.21875C0.0979387 18.5801 0 18.4821 0 18.3613V8.17578Z" fill="url(#paint15_radial_0_149)"/>
<g id="Group_3" filter="url(#filter2_f_0_149)">
<path id="Vector_17" d="M24.0222 8.23755H23.6118V18.3H24.0222V8.23755Z" fill="var(--fill-0, #8D8D92)"/>
</g>
<g id="Group_4" filter="url(#filter3_f_0_149)">
<path id="Vector_18" d="M6.34467 7.77136C6.16839 8.03552 6.00263 8.32839 5.84933 8.65328L5.83978 8.65292C5.68239 8.99216 5.33875 9.22745 4.94015 9.22745C4.54164 9.22745 4.19806 8.99225 4.04061 8.65319L4.03781 8.65328C3.88451 8.32839 3.71875 8.03552 3.54248 7.77136H6.34467Z" fill="var(--fill-0, #4E474A)"/>
</g>
<g id="Group_5" filter="url(#filter4_i_0_149)">
<path id="Vector_19" d="M0 6.28223C0 5.31579 0.783501 4.53223 1.75 4.53223H22.6954C23.6618 4.53223 24.4454 5.31579 24.4454 6.28223V7.73831C24.4454 7.85915 24.3474 7.95706 24.2266 7.95706H0.21875C0.0979387 7.95706 0 7.85915 0 7.73831V6.28223Z" fill="var(--fill-0, #DAD4E6)"/>
<path id="Vector_20" d="M0 6.28223C0 5.31579 0.783501 4.53223 1.75 4.53223H22.6954C23.6618 4.53223 24.4454 5.31579 24.4454 6.28223V7.73831C24.4454 7.85915 24.3474 7.95706 24.2266 7.95706H0.21875C0.0979387 7.95706 0 7.85915 0 7.73831V6.28223Z" fill="url(#paint16_linear_0_149)"/>
<path id="Vector_21" d="M0 6.28223C0 5.31579 0.783501 4.53223 1.75 4.53223H22.6954C23.6618 4.53223 24.4454 5.31579 24.4454 6.28223V7.73831C24.4454 7.85915 24.3474 7.95706 24.2266 7.95706H0.21875C0.0979387 7.95706 0 7.85915 0 7.73831V6.28223Z" fill="url(#paint17_linear_0_149)"/>
<path id="Vector_22" d="M0 6.28223C0 5.31579 0.783501 4.53223 1.75 4.53223H22.6954C23.6618 4.53223 24.4454 5.31579 24.4454 6.28223V7.73831C24.4454 7.85915 24.3474 7.95706 24.2266 7.95706H0.21875C0.0979387 7.95706 0 7.85915 0 7.73831V6.28223Z" fill="url(#paint18_linear_0_149)"/>
<path id="Vector_23" d="M0 6.28223C0 5.31579 0.783501 4.53223 1.75 4.53223H22.6954C23.6618 4.53223 24.4454 5.31579 24.4454 6.28223V7.73831C24.4454 7.85915 24.3474 7.95706 24.2266 7.95706H0.21875C0.0979387 7.95706 0 7.85915 0 7.73831V6.28223Z" fill="url(#paint19_radial_0_149)"/>
<path id="Vector_24" d="M0 6.28223C0 5.31579 0.783501 4.53223 1.75 4.53223H22.6954C23.6618 4.53223 24.4454 5.31579 24.4454 6.28223V7.73831C24.4454 7.85915 24.3474 7.95706 24.2266 7.95706H0.21875C0.0979387 7.95706 0 7.85915 0 7.73831V6.28223Z" fill="url(#paint20_linear_0_149)"/>
</g>
<g id="Group_6" filter="url(#filter5_iiii_0_149)">
<path id="Vector_25" d="M12.2225 19.3807C15.613 19.3807 18.3615 16.6321 18.3615 13.2417C18.3615 9.85118 15.613 7.10266 12.2225 7.10266C8.83202 7.10266 6.0835 9.85118 6.0835 13.2417C6.0835 16.6321 8.83202 19.3807 12.2225 19.3807Z" fill="url(#paint21_radial_0_149)"/>
</g>
<g id="Group_7" filter="url(#filter6_f_0_149)">
<path id="Vector_26" d="M12.2226 17.5895C14.6239 17.5895 16.5705 15.6429 16.5705 13.2417C16.5705 10.8404 14.6239 8.8938 12.2226 8.8938C9.82137 8.8938 7.87476 10.8404 7.87476 13.2417C7.87476 15.6429 9.82137 17.5895 12.2226 17.5895Z" stroke="url(#paint22_linear_0_149)" stroke-width="0.2625"/>
<path id="Vector_27" d="M12.2226 17.5895C14.6239 17.5895 16.5705 15.6429 16.5705 13.2417C16.5705 10.8404 14.6239 8.8938 12.2226 8.8938C9.82137 8.8938 7.87476 10.8404 7.87476 13.2417C7.87476 15.6429 9.82137 17.5895 12.2226 17.5895Z" stroke="url(#paint23_linear_0_149)" stroke-width="0.2625"/>
</g>
<path id="Vector_28" d="M12.2226 17.5895C14.6239 17.5895 16.5705 15.6429 16.5705 13.2417C16.5705 10.8404 14.6239 8.8938 12.2226 8.8938C9.82137 8.8938 7.87476 10.8404 7.87476 13.2417C7.87476 15.6429 9.82137 17.5895 12.2226 17.5895Z" fill="url(#paint24_radial_0_149)"/>
<path id="Vector_29" d="M12.2226 17.5895C14.6239 17.5895 16.5705 15.6429 16.5705 13.2417C16.5705 10.8404 14.6239 8.8938 12.2226 8.8938C9.82137 8.8938 7.87476 10.8404 7.87476 13.2417C7.87476 15.6429 9.82137 17.5895 12.2226 17.5895Z" fill="url(#paint25_linear_0_149)"/>
<g id="Group_8" filter="url(#filter7_f_0_149)">
<path id="Vector_30" d="M12.2226 17.0496C14.3257 17.0496 16.0306 15.3447 16.0306 13.2416C16.0306 11.1385 14.3257 9.43359 12.2226 9.43359C10.1195 9.43359 8.41455 11.1385 8.41455 13.2416C8.41455 15.3447 10.1195 17.0496 12.2226 17.0496Z" fill="url(#paint26_radial_0_149)"/>
<path id="Vector_31" d="M12.2226 17.0496C14.3257 17.0496 16.0306 15.3447 16.0306 13.2416C16.0306 11.1385 14.3257 9.43359 12.2226 9.43359C10.1195 9.43359 8.41455 11.1385 8.41455 13.2416C8.41455 15.3447 10.1195 17.0496 12.2226 17.0496Z" fill="url(#paint27_radial_0_149)"/>
</g>
<path id="Vector_32" d="M12.2228 15.388C13.4082 15.388 14.3692 14.427 14.3692 13.2416C14.3692 12.0562 13.4082 11.0952 12.2228 11.0952C11.0374 11.0952 10.0764 12.0562 10.0764 13.2416C10.0764 14.427 11.0374 15.388 12.2228 15.388Z" fill="url(#paint28_linear_0_149)"/>
<path id="Vector_33" d="M12.2228 15.388C13.4082 15.388 14.3692 14.427 14.3692 13.2416C14.3692 12.0562 13.4082 11.0952 12.2228 11.0952C11.0374 11.0952 10.0764 12.0562 10.0764 13.2416C10.0764 14.427 11.0374 15.388 12.2228 15.388Z" fill="url(#paint29_radial_0_149)"/>
<path id="Vector_34" d="M12.2228 15.388C13.4082 15.388 14.3692 14.427 14.3692 13.2416C14.3692 12.0562 13.4082 11.0952 12.2228 11.0952C11.0374 11.0952 10.0764 12.0562 10.0764 13.2416C10.0764 14.427 11.0374 15.388 12.2228 15.388Z" fill="url(#paint30_radial_0_149)"/>
<path id="Vector_35" d="M14.5267 12.2457C14.8581 12.0138 14.8928 11.4914 14.6042 11.0788C14.3156 10.6662 13.8129 10.5196 13.4815 10.7515C13.15 10.9833 13.1153 11.5058 13.404 11.9184C13.6926 12.331 14.1953 12.4775 14.5267 12.2457Z" fill="url(#paint31_linear_0_149)"/>
<g id="Group_9" filter="url(#filter8_f_0_149)">
<path id="Vector_36" d="M3.58226 7.8203C2.94482 6.86524 2.13041 6.42301 1.31101 6.06899C0.935304 5.92811 0.807362 5.80579 0.807362 5.38089C0.807362 5.29085 0.784865 5.08059 0.807362 4.99764C1.09946 4.77898 1.4967 4.7725 1.88967 4.7725L9.11121 4.53223C9.18296 4.62104 9.11121 4.60958 9.11121 4.7725C9.11121 5.17754 8.85615 5.30835 8.50798 5.46218L8.50781 5.46419C7.66011 5.82119 6.92978 6.7234 6.27561 7.8203H3.58226Z" fill="var(--fill-0, #A99A99)"/>
</g>
<g id="Group_10" filter="url(#filter9_i_0_149)">
<path id="Vector_37" d="M5.31152 0.143555C5.71012 0.143555 6.05376 0.378825 6.21114 0.718062L6.2207 0.717773C6.93848 2.23877 7.92973 3.05905 8.99268 3.50687L8.99277 3.50888C9.34102 3.66262 9.58401 4.01096 9.58401 4.416C9.58401 4.82112 9.34102 5.16946 8.99277 5.3232L8.99268 5.32521C7.92973 5.77295 6.93848 6.59326 6.2207 8.11427C6.09991 8.37021 5.81738 8.68844 5.31152 8.68844C4.91301 8.68844 4.56943 8.45333 4.41199 8.11418L4.40918 8.11427C3.70153 6.6147 2.72815 5.79622 1.68218 5.34437C1.30646 5.20341 1.03906 4.84098 1.03906 4.416C1.03906 3.9911 1.30646 3.62858 1.68218 3.48762C2.72815 3.03577 3.70153 2.21733 4.40918 0.717773L4.41199 0.717861C4.56943 0.378728 4.91301 0.143555 5.31152 0.143555Z" fill="url(#paint32_radial_0_149)"/>
<path id="Vector_38" d="M5.31152 0.143555C5.71012 0.143555 6.05376 0.378825 6.21114 0.718062L6.2207 0.717773C6.93848 2.23877 7.92973 3.05905 8.99268 3.50687L8.99277 3.50888C9.34102 3.66262 9.58401 4.01096 9.58401 4.416C9.58401 4.82112 9.34102 5.16946 8.99277 5.3232L8.99268 5.32521C7.92973 5.77295 6.93848 6.59326 6.2207 8.11427C6.09991 8.37021 5.81738 8.68844 5.31152 8.68844C4.91301 8.68844 4.56943 8.45333 4.41199 8.11418L4.40918 8.11427C3.70153 6.6147 2.72815 5.79622 1.68218 5.34437C1.30646 5.20341 1.03906 4.84098 1.03906 4.416C1.03906 3.9911 1.30646 3.62858 1.68218 3.48762C2.72815 3.03577 3.70153 2.21733 4.40918 0.717773L4.41199 0.717861C4.56943 0.378728 4.91301 0.143555 5.31152 0.143555Z" fill="url(#paint33_radial_0_149)"/>
</g>
<g id="Group_11" filter="url(#filter10_f_0_149)">
<path id="Vector_39" d="M5.31152 1.3125C5.60106 1.3125 5.85068 1.4834 5.965 1.72982L5.97195 1.72961C6.49334 2.83443 7.21337 3.43031 7.98555 3.75563L7.98564 3.75703C8.23852 3.86877 8.415 4.12173 8.415 4.41599C8.415 4.71026 8.23852 4.96331 7.98564 5.07496L7.98555 5.07644C7.21337 5.40168 6.49334 5.99756 5.97195 7.10242L5.965 7.10224C5.85068 7.34864 5.60106 7.51953 5.31152 7.51953C5.02204 7.51953 4.77246 7.34873 4.6581 7.10233L4.65606 7.10242C4.14202 6.01313 3.43496 5.41857 2.67516 5.09036C2.40225 4.98798 2.20801 4.72469 2.20801 4.41599C2.20801 4.10729 2.40225 3.84401 2.67516 3.74163C3.43496 3.41342 4.14202 2.81886 4.65606 1.72961L4.6581 1.72967C4.77246 1.48333 5.02204 1.3125 5.31152 1.3125Z" fill="url(#paint34_radial_0_149)"/>
</g>
</g>
<defs>
<filter id="filter0_i_0_149" x="16.6523" y="3.66406" width="5.1611" height="1.6079" filterUnits="userSpaceOnUse" color-interpolation-filters="sRGB">
<feFlood flood-opacity="0" result="BackgroundImageFix"/>
<feBlend mode="normal" in="SourceGraphic" in2="BackgroundImageFix" result="shape"/>
<feColorMatrix in="SourceAlpha" type="matrix" values="0 0 0 0 0 0 0 0 0 0 0 0 0 0 0 0 0 0 127 0" result="hardAlpha"/>
<feOffset dy="0.13125"/>
<feGaussianBlur stdDeviation="0.175"/>
<feComposite in2="hardAlpha" operator="arithmetic" k2="-1" k3="1"/>
<feColorMatrix type="matrix" values="0 0 0 0 0.701961 0 0 0 0 0.709804 0 0 0 0 0.713726 0 0 0 1 0"/>
<feBlend mode="normal" in2="shape" result="effect1_innerShadow_0_149"/>
</filter>
<filter id="filter1_i_0_149" x="2.66602" y="3.66406" width="3.47266" height="1.6079" filterUnits="userSpaceOnUse" color-interpolation-filters="sRGB">
<feFlood flood-opacity="0" result="BackgroundImageFix"/>
<feBlend mode="normal" in="SourceGraphic" in2="BackgroundImageFix" result="shape"/>
<feColorMatrix in="SourceAlpha" type="matrix" values="0 0 0 0 0 0 0 0 0 0 0 0 0 0 0 0 0 0 127 0" result="hardAlpha"/>
<feOffset dy="0.13125"/>
<feGaussianBlur stdDeviation="0.175"/>
<feComposite in2="hardAlpha" operator="arithmetic" k2="-1" k3="1"/>
<feColorMatrix type="matrix" values="0 0 0 0 0.701961 0 0 0 0 0.709804 0 0 0 0 0.713726 0 0 0 1 0"/>
<feBlend mode="normal" in2="shape" result="effect1_innerShadow_0_149"/>
</filter>
<filter id="filter2_f_0_149" x="23.0431" y="7.6688" width="1.54788" height="11.2" filterUnits="userSpaceOnUse" color-interpolation-filters="sRGB">
<feFlood flood-opacity="0" result="BackgroundImageFix"/>
<feBlend mode="normal" in="SourceGraphic" in2="BackgroundImageFix" result="shape"/>
<feGaussianBlur stdDeviation="0.284375" result="effect1_foregroundBlur_0_149"/>
</filter>
<filter id="filter3_f_0_149" x="2.97373" y="7.20261" width="3.93969" height="2.59359" filterUnits="userSpaceOnUse" color-interpolation-filters="sRGB">
<feFlood flood-opacity="0" result="BackgroundImageFix"/>
<feBlend mode="normal" in="SourceGraphic" in2="BackgroundImageFix" result="shape"/>
<feGaussianBlur stdDeviation="0.284375" result="effect1_foregroundBlur_0_149"/>
</filter>
<filter id="filter4_i_0_149" x="0" y="4.53223" width="24.4454" height="3.51234" filterUnits="userSpaceOnUse" color-interpolation-filters="sRGB">
<feFlood flood-opacity="0" result="BackgroundImageFix"/>
<feBlend mode="normal" in="SourceGraphic" in2="BackgroundImageFix" result="shape"/>
<feColorMatrix in="SourceAlpha" type="matrix" values="0 0 0 0 0 0 0 0 0 0 0 0 0 0 0 0 0 0 127 0" result="hardAlpha"/>
<feOffset dy="0.0875"/>
<feGaussianBlur stdDeviation="0.13125"/>
<feComposite in2="hardAlpha" operator="arithmetic" k2="-1" k3="1"/>
<feColorMatrix type="matrix" values="0 0 0 0 0.796078 0 0 0 0 0.8 0 0 0 0 0.803922 0 0 0 1 0"/>
<feBlend mode="normal" in2="shape" result="effect1_innerShadow_0_149"/>
</filter>
<filter id="filter5_iiii_0_149" x="5.95225" y="6.97141" width="12.5405" height="12.5405" filterUnits="userSpaceOnUse" color-interpolation-filters="sRGB">
<feFlood flood-opacity="0" result="BackgroundImageFix"/>
<feBlend mode="normal" in="SourceGraphic" in2="BackgroundImageFix" result="shape"/>
<feColorMatrix in="SourceAlpha" type="matrix" values="0 0 0 0 0 0 0 0 0 0 0 0 0 0 0 0 0 0 127 0" result="hardAlpha"/>
<feOffset dy="-0.13125"/>
<feGaussianBlur stdDeviation="0.065625"/>
<feComposite in2="hardAlpha" operator="arithmetic" k2="-1" k3="1"/>
<feColorMatrix type="matrix" values="0 0 0 0 0.545098 0 0 0 0 0.529412 0 0 0 0 0.580392 0 0 0 1 0"/>
<feBlend mode="normal" in2="shape" result="effect1_innerShadow_0_149"/>
<feColorMatrix in="SourceAlpha" type="matrix" values="0 0 0 0 0 0 0 0 0 0 0 0 0 0 0 0 0 0 127 0" result="hardAlpha"/>
<feOffset dx="0.13125"/>
<feGaussianBlur stdDeviation="0.065625"/>
<feComposite in2="hardAlpha" operator="arithmetic" k2="-1" k3="1"/>
<feColorMatrix type="matrix" values="0 0 0 0 0.564706 0 0 0 0 0.54902 0 0 0 0 0.6 0 0 0 1 0"/>
<feBlend mode="normal" in2="effect1_innerShadow_0_149" result="effect2_innerShadow_0_149"/>
<feColorMatrix in="SourceAlpha" type="matrix" values="0 0 0 0 0 0 0 0 0 0 0 0 0 0 0 0 0 0 127 0" result="hardAlpha"/>
<feOffset dy="0.13125"/>
<feGaussianBlur stdDeviation="0.065625"/>
<feComposite in2="hardAlpha" operator="arithmetic" k2="-1" k3="1"/>
<feColorMatrix type="matrix" values="0 0 0 0 0.619608 0 0 0 0 0.623529 0 0 0 0 0.631373 0 0 0 1 0"/>
<feBlend mode="normal" in2="effect2_innerShadow_0_149" result="effect3_innerShadow_0_149"/>
<feColorMatrix in="SourceAlpha" type="matrix" values="0 0 0 0 0 0 0 0 0 0 0 0 0 0 0 0 0 0 127 0" result="hardAlpha"/>
<feOffset dx="-0.13125" dy="0.0875"/>
<feGaussianBlur stdDeviation="0.109375"/>
<feComposite in2="hardAlpha" operator="arithmetic" k2="-1" k3="1"/>
<feColorMatrix type="matrix" values="0 0 0 0 0.803922 0 0 0 0 0.803922 0 0 0 0 0.823529 0 0 0 1 0"/>
<feBlend mode="normal" in2="effect3_innerShadow_0_149" result="effect4_innerShadow_0_149"/>
</filter>
<filter id="filter6_f_0_149" x="7.39351" y="8.41255" width="9.65825" height="9.65825" filterUnits="userSpaceOnUse" color-interpolation-filters="sRGB">
<feFlood flood-opacity="0" result="BackgroundImageFix"/>
<feBlend mode="normal" in="SourceGraphic" in2="BackgroundImageFix" result="shape"/>
<feGaussianBlur stdDeviation="0.175" result="effect1_foregroundBlur_0_149"/>
</filter>
<filter id="filter7_f_0_149" x="7.7583" y="8.77734" width="8.9285" height="8.9285" filterUnits="userSpaceOnUse" color-interpolation-filters="sRGB">
<feFlood flood-opacity="0" result="BackgroundImageFix"/>
<feBlend mode="normal" in="SourceGraphic" in2="BackgroundImageFix" result="shape"/>
<feGaussianBlur stdDeviation="0.328125" result="effect1_foregroundBlur_0_149"/>
</filter>
<filter id="filter8_f_0_149" x="0.141113" y="3.87598" width="9.65823" height="4.60057" filterUnits="userSpaceOnUse" color-interpolation-filters="sRGB">
<feFlood flood-opacity="0" result="BackgroundImageFix"/>
<feBlend mode="normal" in="SourceGraphic" in2="BackgroundImageFix" result="shape"/>
<feGaussianBlur stdDeviation="0.328125" result="effect1_foregroundBlur_0_149"/>
</filter>
<filter id="filter9_i_0_149" x="1.03906" y="-0.0751953" width="8.76369" height="8.76364" filterUnits="userSpaceOnUse" color-interpolation-filters="sRGB">
<feFlood flood-opacity="0" result="BackgroundImageFix"/>
<feBlend mode="normal" in="SourceGraphic" in2="BackgroundImageFix" result="shape"/>
<feColorMatrix in="SourceAlpha" type="matrix" values="0 0 0 0 0 0 0 0 0 0 0 0 0 0 0 0 0 0 127 0" result="hardAlpha"/>
<feOffset dx="0.21875" dy="-0.21875"/>
<feGaussianBlur stdDeviation="0.328125"/>
<feComposite in2="hardAlpha" operator="arithmetic" k2="-1" k3="1"/>
<feColorMatrix type="matrix" values="0 0 0 0 0.823529 0 0 0 0 0.666667 0 0 0 0 0.254902 0 0 0 1 0"/>
<feBlend mode="normal" in2="shape" result="effect1_innerShadow_0_149"/>
</filter>
<filter id="filter10_f_0_149" x="0.895508" y="0" width="8.832" height="8.83203" filterUnits="userSpaceOnUse" color-interpolation-filters="sRGB">
<feFlood flood-opacity="0" result="BackgroundImageFix"/>
<feBlend mode="normal" in="SourceGraphic" in2="BackgroundImageFix" result="shape"/>
<feGaussianBlur stdDeviation="0.65625" result="effect1_foregroundBlur_0_149"/>
</filter>
<linearGradient id="paint0_linear_0_149" x1="16.9529" y1="4.40239" x2="22.2309" y2="4.40239" gradientUnits="userSpaceOnUse">
<stop offset="0.197" stop-color="#949597"/>
<stop offset="0.624" stop-color="#C1C2C4"/>
</linearGradient>
<radialGradient id="paint1_radial_0_149" cx="0" cy="0" r="1" gradientUnits="userSpaceOnUse" gradientTransform="translate(20.4809 4.04714) rotate(90) scale(0.191406 1.47656)">
<stop stop-color="#CFD0D2"/>
<stop offset="1" stop-color="#CFD0D2" stop-opacity="0"/>
</radialGradient>
<linearGradient id="paint2_linear_0_149" x1="2.86804" y1="4.40239" x2="6.41966" y2="4.40239" gradientUnits="userSpaceOnUse">
<stop offset="0.197" stop-color="#949597"/>
<stop offset="0.624" stop-color="#C1C2C4"/>
</linearGradient>
<radialGradient id="paint3_radial_0_149" cx="0" cy="0" r="1" gradientUnits="userSpaceOnUse" gradientTransform="translate(5.24191 4.04714) rotate(90) scale(0.191406 0.993501)">
<stop stop-color="#CFD0D2"/>
<stop offset="1" stop-color="#CFD0D2" stop-opacity="0"/>
</radialGradient>
<linearGradient id="paint4_linear_0_149" x1="12.2227" y1="18.58" x2="12.2227" y2="20.1795" gradientUnits="userSpaceOnUse">
<stop stop-color="#CFC6DE"/>
<stop offset="1" stop-color="#C3B4D7"/>
</linearGradient>
<linearGradient id="paint5_linear_0_149" x1="13.4258" y1="20.1795" x2="13.4258" y2="18.9492" gradientUnits="userSpaceOnUse">
<stop stop-color="#AC91C9"/>
<stop offset="1" stop-color="#C2B3D6" stop-opacity="0"/>
</linearGradient>
<linearGradient id="paint6_linear_0_149" x1="12.2227" y1="18.58" x2="12.2227" y2="19.0315" gradientUnits="userSpaceOnUse">
<stop stop-color="#CFCBD7"/>
<stop offset="1" stop-color="#CFCBD7" stop-opacity="0"/>
</linearGradient>
<radialGradient id="paint7_radial_0_149" cx="0" cy="0" r="1" gradientUnits="userSpaceOnUse" gradientTransform="translate(23.8435 18.2387) rotate(90) scale(1.6953 1.09837)">
<stop offset="0.242" stop-color="#F7F4FE"/>
<stop offset="1" stop-color="#C8BCDB" stop-opacity="0"/>
</radialGradient>
<radialGradient id="paint8_radial_0_149" cx="0" cy="0" r="1" gradientUnits="userSpaceOnUse" gradientTransform="translate(10.6914 16.1606) rotate(90) scale(4.01953 5.67273)">
<stop offset="0.645" stop-color="#9884AF"/>
<stop offset="1" stop-color="#9884AF" stop-opacity="0"/>
</radialGradient>
<linearGradient id="paint9_linear_0_149" x1="15.9685" y1="13.2687" x2="23.8435" y2="13.2687" gradientUnits="userSpaceOnUse">
<stop stop-color="#66636F"/>
<stop offset="1" stop-color="#6B6873"/>
</linearGradient>
<linearGradient id="paint10_linear_0_149" x1="-0.000218747" y1="14.7387" x2="2.35178" y2="14.7658" gradientUnits="userSpaceOnUse">
<stop offset="0.342" stop-color="#5E5C64"/>
<stop offset="1" stop-color="#5E5C64" stop-opacity="0"/>
</linearGradient>
<linearGradient id="paint11_linear_0_149" x1="-0.300344" y1="13.4262" x2="0.711156" y2="13.4262" gradientUnits="userSpaceOnUse">
<stop stop-color="#8F8F91"/>
<stop offset="1" stop-color="#6D6C71" stop-opacity="0"/>
</linearGradient>
<linearGradient id="paint12_linear_0_149" x1="12.2227" y1="7.95747" x2="12.2227" y2="8.61372" gradientUnits="userSpaceOnUse">
<stop stop-color="#706F76"/>
<stop offset="1" stop-color="#706F76" stop-opacity="0"/>
</linearGradient>
<linearGradient id="paint13_linear_0_149" x1="12.2227" y1="7.95747" x2="12.2227" y2="8.24447" gradientUnits="userSpaceOnUse">
<stop stop-color="#5F5E65"/>
<stop offset="1" stop-color="#5F5E65" stop-opacity="0"/>
</linearGradient>
<linearGradient id="paint14_linear_0_149" x1="15.1215" y1="18.58" x2="15.1215" y2="18.0471" gradientUnits="userSpaceOnUse">
<stop stop-color="#5C536A"/>
<stop offset="1" stop-color="#5C536A" stop-opacity="0"/>
</linearGradient>
<radialGradient id="paint15_radial_0_149" cx="0" cy="0" r="1" gradientUnits="userSpaceOnUse" gradientTransform="translate(10.1449 14.9293) rotate(53.678) scale(7.43237 7.404)">
<stop offset="0.597" stop-color="#4B4357"/>
<stop offset="1" stop-color="#524C5D" stop-opacity="0"/>
</radialGradient>
<linearGradient id="paint16_linear_0_149" x1="12.2227" y1="4.53188" x2="12.2227" y2="5.96075" gradientUnits="userSpaceOnUse">
<stop stop-color="#D8D8DC"/>
<stop offset="1" stop-color="#D8D8DC" stop-opacity="0"/>
</linearGradient>
<linearGradient id="paint17_linear_0_149" x1="-0.00021875" y1="7.43775" x2="1.36741" y2="7.43775" gradientUnits="userSpaceOnUse">
<stop offset="0.22" stop-color="#C6C3CC"/>
<stop offset="1" stop-color="#C6C3CC" stop-opacity="0"/>
</linearGradient>
<linearGradient id="paint18_linear_0_149" x1="24.4455" y1="7.6565" x2="22.2029" y2="7.6565" gradientUnits="userSpaceOnUse">
<stop offset="0.15" stop-color="#F9F7FE"/>
<stop offset="1" stop-color="#D3CDDD" stop-opacity="0"/>
</linearGradient>
<radialGradient id="paint19_radial_0_149" cx="0" cy="0" r="1" gradientUnits="userSpaceOnUse" gradientTransform="translate(24.4449 5.19633) rotate(135.463) scale(1.49609 1.81649)">
<stop offset="0.15" stop-color="#F9F7FE"/>
<stop offset="1" stop-color="#F9F7FE" stop-opacity="0"/>
</radialGradient>
<linearGradient id="paint20_linear_0_149" x1="13.6445" y1="7.9575" x2="13.6445" y2="7.6565" gradientUnits="userSpaceOnUse">
<stop stop-color="#B6ADC6"/>
<stop offset="1" stop-color="#B6ADC6" stop-opacity="0"/>
</linearGradient>
<radialGradient id="paint21_radial_0_149" cx="0" cy="0" r="1" gradientUnits="userSpaceOnUse" gradientTransform="translate(16.8984 10.3634) rotate(143.867) scale(9.78443)">
<stop stop-color="#A6A2AE"/>
<stop offset="1" stop-color="#A6A2AF"/>
</radialGradient>
<linearGradient id="paint22_linear_0_149" x1="15.0935" y1="8.69517" x2="12.2226" y2="17.5887" gradientUnits="userSpaceOnUse">
<stop stop-color="#6A6375"/>
<stop offset="1" stop-color="#6A6375" stop-opacity="0"/>
</linearGradient>
<linearGradient id="paint23_linear_0_149" x1="9.46113" y1="16.5982" x2="11.0466" y2="14.4378" gradientUnits="userSpaceOnUse">
<stop offset="0.363" stop-color="#B7B6BD"/>
<stop offset="1" stop-color="#B7B6BD" stop-opacity="0"/>
</linearGradient>
<radialGradient id="paint24_radial_0_149" cx="0" cy="0" r="1" gradientUnits="userSpaceOnUse" gradientTransform="translate(14.6019 12.0855) rotate(143.911) scale(5.61693 5.24807)">
<stop offset="0.068" stop-color="#67616D"/>
<stop offset="1" stop-color="#4D3E5C"/>
</radialGradient>
<linearGradient id="paint25_linear_0_149" x1="15.2309" y1="8.8938" x2="9.16013" y2="16.6524" gradientUnits="userSpaceOnUse">
<stop stop-color="#2C2634"/>
<stop offset="0.599" stop-color="#40344C"/>
</linearGradient>
<radialGradient id="paint26_radial_0_149" cx="0" cy="0" r="1" gradientUnits="userSpaceOnUse" gradientTransform="translate(14.3059 12.2292) rotate(143.911) scale(4.91923 4.59619)">
<stop offset="0.068" stop-color="#67616D"/>
<stop offset="1" stop-color="#4D3E5C"/>
</radialGradient>
<radialGradient id="paint27_radial_0_149" cx="0" cy="0" r="1" gradientUnits="userSpaceOnUse" gradientTransform="translate(14.3004 11.6485) rotate(147.397) scale(6.39429 6.18697)">
<stop offset="0.78" stop-color="#554863" stop-opacity="0"/>
<stop offset="0.985" stop-color="#554863"/>
</radialGradient>
<linearGradient id="paint28_linear_0_149" x1="13.3437" y1="15.2305" x2="10.5279" y2="11.4846" gradientUnits="userSpaceOnUse">
<stop stop-color="#463755"/>
<stop offset="1" stop-color="#473F51"/>
</linearGradient>
<radialGradient id="paint29_radial_0_149" cx="0" cy="0" r="1" gradientUnits="userSpaceOnUse" gradientTransform="translate(10.8007 14.8475) rotate(-48.614) scale(3.68096 2.52418)">
<stop stop-color="#544E5C"/>
<stop offset="1" stop-color="#544E5C" stop-opacity="0"/>
</radialGradient>
<radialGradient id="paint30_radial_0_149" cx="0" cy="0" r="1" gradientUnits="userSpaceOnUse" gradientTransform="translate(14.3693 11.4293) rotate(146.088) scale(1.96043)">
<stop stop-color="#544E5C"/>
<stop offset="1" stop-color="#544E5C" stop-opacity="0"/>
</radialGradient>
<linearGradient id="paint31_linear_0_149" x1="14.0039" y1="10.8281" x2="14.3273" y2="12.414" gradientUnits="userSpaceOnUse">
<stop offset="0.051" stop-color="#F3F2F4"/>
<stop offset="1" stop-color="#F3F2F4" stop-opacity="0"/>
</linearGradient>
<radialGradient id="paint32_radial_0_149" cx="0" cy="0" r="1" gradientUnits="userSpaceOnUse" gradientTransform="translate(8.01216 1.7231) rotate(140.711) scale(3.10902 5.44079)">
<stop stop-color="#FFFF9C"/>
<stop offset="1" stop-color="#EAC73C"/>
</radialGradient>
<radialGradient id="paint33_radial_0_149" cx="0" cy="0" r="1" gradientUnits="userSpaceOnUse" gradientTransform="translate(7.38303 1.83247) rotate(136.736) scale(1.27669 2.3187)">
<stop offset="0.172" stop-color="#FFFCA0"/>
<stop offset="1" stop-color="#FFFCA0" stop-opacity="0"/>
</radialGradient>
<radialGradient id="paint34_radial_0_149" cx="0" cy="0" r="1" gradientUnits="userSpaceOnUse" gradientTransform="translate(5.31103 4.41634) rotate(90) scale(5.29102)">
<stop offset="0.127" stop-color="#FFEDD9"/>
<stop offset="1" stop-color="#FFEDD9" stop-opacity="0"/>
</radialGradient>
</defs>
</svg>
