<svg width="73" height="80" viewBox="0 0 73 80" fill="none" xmlns="http://www.w3.org/2000/svg">
<path d="M23.1797 25.2178C23.8666 20.1097 23.6649 15.782 23.246 12.8513C23.0855 11.728 24.1578 10.7372 25.2348 11.094C41.4658 16.4687 48.9353 22.8673 54.0447 31.9051C58.8139 40.7274 58.1191 50.8807 46.1495 56.4622C34.9119 61.7023 22.9616 57.7264 18.2927 44.7697C15.5024 37.0263 15.7515 30.0199 16.4895 25.574C16.7192 24.1904 18.2093 23.4771 19.4872 24.0552L22.6742 25.4973C22.8938 25.5967 23.1475 25.4567 23.1797 25.2178Z" fill="url(#paint0_radial_33_618)"/>
<path d="M23.1797 25.2178C23.8666 20.1097 23.6649 15.782 23.246 12.8513C23.0855 11.728 24.1578 10.7372 25.2348 11.094C41.4658 16.4687 48.9353 22.8673 54.0447 31.9051C58.8139 40.7274 58.1191 50.8807 46.1495 56.4622C34.9119 61.7023 22.9616 57.7264 18.2927 44.7697C15.5024 37.0263 15.7515 30.0199 16.4895 25.574C16.7192 24.1904 18.2093 23.4771 19.4872 24.0552L22.6742 25.4973C22.8938 25.5967 23.1475 25.4567 23.1797 25.2178Z" fill="url(#paint1_radial_33_618)"/>
<path d="M23.1797 25.2178C23.8666 20.1097 23.6649 15.782 23.246 12.8513C23.0855 11.728 24.1578 10.7372 25.2348 11.094C41.4658 16.4687 48.9353 22.8673 54.0447 31.9051C58.8139 40.7274 58.1191 50.8807 46.1495 56.4622C34.9119 61.7023 22.9616 57.7264 18.2927 44.7697C15.5024 37.0263 15.7515 30.0199 16.4895 25.574C16.7192 24.1904 18.2093 23.4771 19.4872 24.0552L22.6742 25.4973C22.8938 25.5967 23.1475 25.4567 23.1797 25.2178Z" fill="url(#paint2_linear_33_618)"/>
<path d="M23.1797 25.2178C23.8666 20.1097 23.6649 15.782 23.246 12.8513C23.0855 11.728 24.1578 10.7372 25.2348 11.094C41.4658 16.4687 48.9353 22.8673 54.0447 31.9051C58.8139 40.7274 58.1191 50.8807 46.1495 56.4622C34.9119 61.7023 22.9616 57.7264 18.2927 44.7697C15.5024 37.0263 15.7515 30.0199 16.4895 25.574C16.7192 24.1904 18.2093 23.4771 19.4872 24.0552L22.6742 25.4973C22.8938 25.5967 23.1475 25.4567 23.1797 25.2178Z" fill="url(#paint3_radial_33_618)"/>
<path d="M23.1797 25.2178C23.8666 20.1097 23.6649 15.782 23.246 12.8513C23.0855 11.728 24.1578 10.7372 25.2348 11.094C41.4658 16.4687 48.9353 22.8673 54.0447 31.9051C58.8139 40.7274 58.1191 50.8807 46.1495 56.4622C34.9119 61.7023 22.9616 57.7264 18.2927 44.7697C15.5024 37.0263 15.7515 30.0199 16.4895 25.574C16.7192 24.1904 18.2093 23.4771 19.4872 24.0552L22.6742 25.4973C22.8938 25.5967 23.1475 25.4567 23.1797 25.2178Z" fill="url(#paint4_radial_33_618)"/>
<path d="M23.1797 25.2178C23.8666 20.1097 23.6649 15.782 23.246 12.8513C23.0855 11.728 24.1578 10.7372 25.2348 11.094C41.4658 16.4687 48.9353 22.8673 54.0447 31.9051C58.8139 40.7274 58.1191 50.8807 46.1495 56.4622C34.9119 61.7023 22.9616 57.7264 18.2927 44.7697C15.5024 37.0263 15.7515 30.0199 16.4895 25.574C16.7192 24.1904 18.2093 23.4771 19.4872 24.0552L22.6742 25.4973C22.8938 25.5967 23.1475 25.4567 23.1797 25.2178Z" fill="url(#paint5_radial_33_618)"/>
<path d="M23.1797 25.2178C23.8666 20.1097 23.6649 15.782 23.246 12.8513C23.0855 11.728 24.1578 10.7372 25.2348 11.094C41.4658 16.4687 48.9353 22.8673 54.0447 31.9051C58.8139 40.7274 58.1191 50.8807 46.1495 56.4622C34.9119 61.7023 22.9616 57.7264 18.2927 44.7697C15.5024 37.0263 15.7515 30.0199 16.4895 25.574C16.7192 24.1904 18.2093 23.4771 19.4872 24.0552L22.6742 25.4973C22.8938 25.5967 23.1475 25.4567 23.1797 25.2178Z" fill="url(#paint6_radial_33_618)"/>
<g filter="url(#filter0_d_33_618)">
<path d="M23.1797 25.2178C23.8666 20.1097 23.6649 15.782 23.246 12.8513C23.0855 11.728 24.1578 10.7372 25.2348 11.094C41.4658 16.4687 48.9353 22.8673 54.0447 31.9051C58.8139 40.7274 58.1191 50.8807 46.1495 56.4622C34.9119 61.7023 22.9616 57.7264 18.2927 44.7697C15.5024 37.0263 15.7515 30.0199 16.4895 25.574C16.7192 24.1904 18.2093 23.4771 19.4872 24.0552L22.6742 25.4973C22.8938 25.5967 23.1475 25.4567 23.1797 25.2178Z" fill="url(#paint7_radial_33_618)" shape-rendering="crispEdges"/>
<path d="M21.2659 13.1341C20.9209 10.7187 23.2101 8.31577 25.8639 9.19482L25.8635 9.19612C41.9201 14.5131 49.8687 20.9312 55.2709 30.0317L55.7857 30.9208L55.7953 30.9368L55.8045 30.9541C58.3455 35.6548 59.5436 40.9155 58.3151 45.8793C57.0687 50.9158 53.4151 55.2812 46.9951 58.2749C40.9541 61.0919 34.5834 61.4882 29.0251 59.3004C23.4481 57.1052 18.9149 52.3969 16.4108 45.4479C13.4769 37.306 13.7371 29.9393 14.5161 25.2465C14.9817 22.4424 17.9543 21.1661 20.3117 22.2325L20.3121 22.2334L21.4407 22.7448C21.7902 18.7968 21.5997 15.4699 21.2659 13.1341Z" stroke="white" stroke-width="4" shape-rendering="crispEdges"/>
</g>
<g filter="url(#filter1_i_33_618)">
<path d="M27.6496 44.9843C27.4151 38.9042 29.1753 31.2344 30.7124 26.8021C31.1467 25.5497 32.4915 24.9039 33.7546 25.306C41.8715 27.8896 45.7858 31.8218 49.8034 36.6508C53.9831 41.6749 56.7777 51.6071 45.4238 56.9015C35.6461 61.461 27.9928 53.8918 27.6496 44.9843Z" fill="url(#paint8_radial_33_618)"/>
<path d="M27.6496 44.9843C27.4151 38.9042 29.1753 31.2344 30.7124 26.8021C31.1467 25.5497 32.4915 24.9039 33.7546 25.306C41.8715 27.8896 45.7858 31.8218 49.8034 36.6508C53.9831 41.6749 56.7777 51.6071 45.4238 56.9015C35.6461 61.461 27.9928 53.8918 27.6496 44.9843Z" fill="url(#paint9_radial_33_618)"/>
<path d="M27.6496 44.9843C27.4151 38.9042 29.1753 31.2344 30.7124 26.8021C31.1467 25.5497 32.4915 24.9039 33.7546 25.306C41.8715 27.8896 45.7858 31.8218 49.8034 36.6508C53.9831 41.6749 56.7777 51.6071 45.4238 56.9015C35.6461 61.461 27.9928 53.8918 27.6496 44.9843Z" fill="url(#paint10_radial_33_618)"/>
</g>
<path d="M27.6496 44.9843C27.4151 38.9042 29.1753 31.2344 30.7124 26.8021C31.1467 25.5497 32.4915 24.9039 33.7546 25.306C41.8715 27.8896 45.7858 31.8218 49.8034 36.6508C53.9831 41.6749 56.7777 51.6071 45.4238 56.9015C35.6461 61.461 27.9928 53.8918 27.6496 44.9843Z" fill="url(#paint11_linear_33_618)"/>
<path d="M27.6496 44.9843C27.4151 38.9042 29.1753 31.2344 30.7124 26.8021C31.1467 25.5497 32.4915 24.9039 33.7546 25.306C41.8715 27.8896 45.7858 31.8218 49.8034 36.6508C53.9831 41.6749 56.7777 51.6071 45.4238 56.9015C35.6461 61.461 27.9928 53.8918 27.6496 44.9843Z" fill="url(#paint12_radial_33_618)"/>
<g filter="url(#filter2_f_33_618)">
<path d="M23.9542 30.0554C25.1593 22.7235 24.5754 15.6725 24.5615 13.8719C27.1175 21.9358 26.8307 28.8463 24.7475 38.5446C23.081 46.3034 24.5865 51.5781 25.1813 52.7552C19.5706 44.2645 22.4479 39.2203 23.9542 30.0554Z" fill="url(#paint13_linear_33_618)"/>
</g>
<g filter="url(#filter3_f_33_618)">
<path d="M17.8707 25.5746C16.9724 29.216 16.1573 38.5347 20.0825 46.6784C18.2663 37.2956 21.9432 32.3572 17.8707 25.5746Z" fill="url(#paint14_linear_33_618)"/>
</g>
<defs>
<filter id="filter0_d_33_618" x="0" y="0" width="72.8017" height="79.7026" filterUnits="userSpaceOnUse" color-interpolation-filters="sRGB">
<feFlood flood-opacity="0" result="BackgroundImageFix"/>
<feColorMatrix in="SourceAlpha" type="matrix" values="0 0 0 0 0 0 0 0 0 0 0 0 0 0 0 0 0 0 127 0" result="hardAlpha"/>
<feOffset dy="5"/>
<feGaussianBlur stdDeviation="6"/>
<feComposite in2="hardAlpha" operator="out"/>
<feColorMatrix type="matrix" values="0 0 0 0 0.0196078 0 0 0 0 0.0196078 0 0 0 0 0.0784314 0 0 0 0.2 0"/>
<feBlend mode="normal" in2="BackgroundImageFix" result="effect1_dropShadow_33_618"/>
<feBlend mode="normal" in="SourceGraphic" in2="effect1_dropShadow_33_618" result="shape"/>
</filter>
<filter id="filter1_i_33_618" x="27.6284" y="25.187" width="26.7306" height="33.0826" filterUnits="userSpaceOnUse" color-interpolation-filters="sRGB">
<feFlood flood-opacity="0" result="BackgroundImageFix"/>
<feBlend mode="normal" in="SourceGraphic" in2="BackgroundImageFix" result="shape"/>
<feColorMatrix in="SourceAlpha" type="matrix" values="0 0 0 0 0 0 0 0 0 0 0 0 0 0 0 0 0 0 127 0" result="hardAlpha"/>
<feOffset dx="0.904968"/>
<feGaussianBlur stdDeviation="0.452484"/>
<feComposite in2="hardAlpha" operator="arithmetic" k2="-1" k3="1"/>
<feColorMatrix type="matrix" values="0 0 0 0 0.952941 0 0 0 0 0.615686 0 0 0 0 0.364706 0 0 0 1 0"/>
<feBlend mode="normal" in2="shape" result="effect1_innerShadow_33_618"/>
</filter>
<filter id="filter2_f_33_618" x="19.6023" y="11.6094" width="9.05456" height="43.4081" filterUnits="userSpaceOnUse" color-interpolation-filters="sRGB">
<feFlood flood-opacity="0" result="BackgroundImageFix"/>
<feBlend mode="normal" in="SourceGraphic" in2="BackgroundImageFix" result="shape"/>
<feGaussianBlur stdDeviation="1.13121" result="effect1_foregroundBlur_33_618"/>
</filter>
<filter id="filter3_f_33_618" x="14.413" y="22.8597" width="8.3844" height="26.5336" filterUnits="userSpaceOnUse" color-interpolation-filters="sRGB">
<feFlood flood-opacity="0" result="BackgroundImageFix"/>
<feBlend mode="normal" in="SourceGraphic" in2="BackgroundImageFix" result="shape"/>
<feGaussianBlur stdDeviation="1.35745" result="effect1_foregroundBlur_33_618"/>
</filter>
<radialGradient id="paint0_radial_33_618" cx="0" cy="0" r="1" gradientUnits="userSpaceOnUse" gradientTransform="translate(50.2049 34.1537) rotate(155.526) scale(30.9477 46.6712)">
<stop stop-color="#FF953D"/>
<stop offset="1" stop-color="#FF5141"/>
</radialGradient>
<radialGradient id="paint1_radial_33_618" cx="0" cy="0" r="1" gradientUnits="userSpaceOnUse" gradientTransform="translate(24.7378 37.909) rotate(177.063) scale(18.7222 32.3064)">
<stop stop-color="#CE5327"/>
<stop offset="1" stop-color="#CE5327" stop-opacity="0"/>
</radialGradient>
<linearGradient id="paint2_linear_33_618" x1="48.7318" y1="55.258" x2="44.8323" y2="46.8955" gradientUnits="userSpaceOnUse">
<stop stop-color="#FF7583"/>
<stop offset="1" stop-color="#FF7583" stop-opacity="0"/>
</linearGradient>
<radialGradient id="paint3_radial_33_618" cx="0" cy="0" r="1" gradientUnits="userSpaceOnUse" gradientTransform="translate(14.8901 39.9798) rotate(-0.984998) scale(5.61922 46.5137)">
<stop stop-color="#FFAA7B"/>
<stop offset="1" stop-color="#FFAA7B" stop-opacity="0"/>
</radialGradient>
<radialGradient id="paint4_radial_33_618" cx="0" cy="0" r="1" gradientTransform="matrix(4.2487 5.50108 -6.86408 5.30142 15.8021 23.2955)" gradientUnits="userSpaceOnUse">
<stop stop-color="#FF5E47"/>
<stop offset="1" stop-color="#FF5E47" stop-opacity="0"/>
</radialGradient>
<radialGradient id="paint5_radial_33_618" cx="0" cy="0" r="1" gradientUnits="userSpaceOnUse" gradientTransform="translate(23.744 9.83854) rotate(62.8819) scale(18.348 16.983)">
<stop stop-color="#FF2F3C"/>
<stop offset="1" stop-color="#FF2F3C" stop-opacity="0"/>
</radialGradient>
<radialGradient id="paint6_radial_33_618" cx="0" cy="0" r="1" gradientTransform="matrix(4.16087 0.0238443 -0.0478782 8.35004 22.2222 17.406)" gradientUnits="userSpaceOnUse">
<stop stop-color="#FF846C"/>
<stop offset="1" stop-color="#FF846C" stop-opacity="0"/>
</radialGradient>
<radialGradient id="paint7_radial_33_618" cx="0" cy="0" r="1" gradientUnits="userSpaceOnUse" gradientTransform="translate(22.4652 24.1026) rotate(88.224) scale(4.12369 0.944978)">
<stop stop-color="#FFA682"/>
<stop offset="1" stop-color="#FFA682" stop-opacity="0"/>
</radialGradient>
<radialGradient id="paint8_radial_33_618" cx="0" cy="0" r="1" gradientUnits="userSpaceOnUse" gradientTransform="translate(49.1773 43.9312) rotate(166.442) scale(18.152 22.6045)">
<stop stop-color="#FFDA2F"/>
<stop offset="1" stop-color="#FF8E41"/>
</radialGradient>
<radialGradient id="paint9_radial_33_618" cx="0" cy="0" r="1" gradientUnits="userSpaceOnUse" gradientTransform="translate(22.6622 24.7735) rotate(44.044) scale(25.597 22.2403)">
<stop stop-color="#FD5639"/>
<stop offset="1" stop-color="#FE5533" stop-opacity="0"/>
</radialGradient>
<radialGradient id="paint10_radial_33_618" cx="0" cy="0" r="1" gradientUnits="userSpaceOnUse" gradientTransform="translate(43.0878 39.2873) rotate(149.239) scale(17.7349 43.4229)">
<stop offset="0.628" stop-color="#D7812D" stop-opacity="0"/>
<stop offset="1" stop-color="#D7812D"/>
</radialGradient>
<linearGradient id="paint11_linear_33_618" x1="30.9377" y1="24.9486" x2="33.7273" y2="30.931" gradientUnits="userSpaceOnUse">
<stop stop-color="#F95131"/>
<stop offset="1" stop-color="#F95131" stop-opacity="0"/>
</linearGradient>
<radialGradient id="paint12_radial_33_618" cx="0" cy="0" r="1" gradientUnits="userSpaceOnUse" gradientTransform="translate(47.8374 33.4261) rotate(118.063) scale(29.0578 21.0267)">
<stop offset="0.772" stop-color="#F18A52" stop-opacity="0"/>
<stop offset="1" stop-color="#F18A52"/>
</radialGradient>
<linearGradient id="paint13_linear_33_618" x1="23.6031" y1="15.6737" x2="25.6945" y2="51.5978" gradientUnits="userSpaceOnUse">
<stop stop-color="#FF7558"/>
<stop offset="1" stop-color="#F38758"/>
</linearGradient>
<linearGradient id="paint14_linear_33_618" x1="17.6298" y1="26.2257" x2="19.8059" y2="47.8474" gradientUnits="userSpaceOnUse">
<stop stop-color="#FF815B"/>
<stop offset="1" stop-color="#FF9C6D"/>
</linearGradient>
</defs>
</svg>
