<svg preserveAspectRatio="none" width="100%" height="100%" overflow="visible" style="display: block;" viewBox="0 0 28 28" fill="none" xmlns="http://www.w3.org/2000/svg">
<g id="worker">
<g id="Group" filter="url(#filter0_i_0_152)">
<path id="Vector" d="M6.35429 18.5168C7.85865 18.5168 9.07817 17.2973 9.07817 15.7929C9.07817 14.2886 7.85865 13.069 6.35429 13.069C4.84994 13.069 3.63042 14.2886 3.63042 15.7929C3.63042 17.2973 4.84994 18.5168 6.35429 18.5168Z" fill="url(#paint0_radial_0_152)"/>
</g>
<g id="Group_2" filter="url(#filter1_f_0_152)">
<path id="Vector_2" d="M6.35423 17.416C7.25066 17.416 7.97736 16.6893 7.97736 15.7928C7.97736 14.8964 7.25066 14.1697 6.35423 14.1697C5.45781 14.1697 4.73111 14.8964 4.73111 15.7928C4.73111 16.6893 5.45781 17.416 6.35423 17.416Z" fill="url(#paint1_linear_0_152)"/>
</g>
<g id="Group_3" filter="url(#filter2_i_0_152)">
<path id="Vector_3" d="M21.8776 18.5168C23.382 18.5168 24.6015 17.2973 24.6015 15.7929C24.6015 14.2886 23.382 13.069 21.8776 13.069C20.3733 13.069 19.1538 14.2886 19.1538 15.7929C19.1538 17.2973 20.3733 18.5168 21.8776 18.5168Z" fill="url(#paint2_linear_0_152)"/>
<path id="Vector_4" d="M21.8776 18.5168C23.382 18.5168 24.6015 17.2973 24.6015 15.7929C24.6015 14.2886 23.382 13.069 21.8776 13.069C20.3733 13.069 19.1538 14.2886 19.1538 15.7929C19.1538 17.2973 20.3733 18.5168 21.8776 18.5168Z" fill="url(#paint3_radial_0_152)"/>
</g>
<g id="Group_4" filter="url(#filter3_f_0_152)">
<path id="Vector_5" d="M21.8776 17.416C22.774 17.416 23.5007 16.6893 23.5007 15.7928C23.5007 14.8964 22.774 14.1697 21.8776 14.1697C20.9812 14.1697 20.2545 14.8964 20.2545 15.7928C20.2545 16.6893 20.9812 17.416 21.8776 17.416Z" fill="var(--fill-0, #E4AF9A)"/>
<path id="Vector_6" d="M21.8776 17.416C22.774 17.416 23.5007 16.6893 23.5007 15.7928C23.5007 14.8964 22.774 14.1697 21.8776 14.1697C20.9812 14.1697 20.2545 14.8964 20.2545 15.7928C20.2545 16.6893 20.9812 17.416 21.8776 17.416Z" fill="url(#paint4_radial_0_152)"/>
<path id="Vector_7" d="M21.8776 17.416C22.774 17.416 23.5007 16.6893 23.5007 15.7928C23.5007 14.8964 22.774 14.1697 21.8776 14.1697C20.9812 14.1697 20.2545 14.8964 20.2545 15.7928C20.2545 16.6893 20.9812 17.416 21.8776 17.416Z" fill="url(#paint5_radial_0_152)"/>
</g>
<g id="Group_5" filter="url(#filter4_i_0_152)">
<path id="Vector_8" d="M5.68526 12.4463C5.68526 12.0112 5.86031 11.489 6.21041 11.2279L6.47298 10.9668C6.91062 10.6187 7.08567 10.0965 7.08567 9.57441V8.18197C7.08567 7.74684 7.34824 7.39873 7.78587 7.3117C8.83618 7.05062 11.0243 6.61548 14.1753 6.61548C17.3261 6.61548 19.5143 7.05062 20.5646 7.3117C20.9147 7.39873 21.2649 7.74684 21.2649 8.18197V9.57441C21.2649 10.0965 21.5274 10.6187 21.8775 10.9668C22.6968 11.5409 22.6458 11.8567 22.5777 12.5333C22.4902 13.4036 22.4026 14.883 22.4026 14.883C22.4126 14.883 22.4224 14.883 22.4322 14.8827L21.9984 21.3418C21.7365 24.2293 19.4665 26.2418 16.7599 26.2418H11.5214C8.72752 26.2418 6.54481 24.2293 6.28288 21.3418C6.05538 18.3779 5.95579 15.4052 5.68526 12.4463Z" fill="url(#paint6_linear_0_152)"/>
<path id="Vector_9" d="M5.68526 12.4463C5.68526 12.0112 5.86031 11.489 6.21041 11.2279L6.47298 10.9668C6.91062 10.6187 7.08567 10.0965 7.08567 9.57441V8.18197C7.08567 7.74684 7.34824 7.39873 7.78587 7.3117C8.83618 7.05062 11.0243 6.61548 14.1753 6.61548C17.3261 6.61548 19.5143 7.05062 20.5646 7.3117C20.9147 7.39873 21.2649 7.74684 21.2649 8.18197V9.57441C21.2649 10.0965 21.5274 10.6187 21.8775 10.9668C22.6968 11.5409 22.6458 11.8567 22.5777 12.5333C22.4902 13.4036 22.4026 14.883 22.4026 14.883C22.4126 14.883 22.4224 14.883 22.4322 14.8827L21.9984 21.3418C21.7365 24.2293 19.4665 26.2418 16.7599 26.2418H11.5214C8.72752 26.2418 6.54481 24.2293 6.28288 21.3418C6.05538 18.3779 5.95579 15.4052 5.68526 12.4463Z" fill="url(#paint7_radial_0_152)"/>
<path id="Vector_10" d="M5.68526 12.4463C5.68526 12.0112 5.86031 11.489 6.21041 11.2279L6.47298 10.9668C6.91062 10.6187 7.08567 10.0965 7.08567 9.57441V8.18197C7.08567 7.74684 7.34824 7.39873 7.78587 7.3117C8.83618 7.05062 11.0243 6.61548 14.1753 6.61548C17.3261 6.61548 19.5143 7.05062 20.5646 7.3117C20.9147 7.39873 21.2649 7.74684 21.2649 8.18197V9.57441C21.2649 10.0965 21.5274 10.6187 21.8775 10.9668C22.6968 11.5409 22.6458 11.8567 22.5777 12.5333C22.4902 13.4036 22.4026 14.883 22.4026 14.883C22.4126 14.883 22.4224 14.883 22.4322 14.8827L21.9984 21.3418C21.7365 24.2293 19.4665 26.2418 16.7599 26.2418H11.5214C8.72752 26.2418 6.54481 24.2293 6.28288 21.3418C6.05538 18.3779 5.95579 15.4052 5.68526 12.4463Z" fill="url(#paint8_linear_0_152)"/>
<path id="Vector_11" d="M5.68526 12.4463C5.68526 12.0112 5.86031 11.489 6.21041 11.2279L6.47298 10.9668C6.91062 10.6187 7.08567 10.0965 7.08567 9.57441V8.18197C7.08567 7.74684 7.34824 7.39873 7.78587 7.3117C8.83618 7.05062 11.0243 6.61548 14.1753 6.61548C17.3261 6.61548 19.5143 7.05062 20.5646 7.3117C20.9147 7.39873 21.2649 7.74684 21.2649 8.18197V9.57441C21.2649 10.0965 21.5274 10.6187 21.8775 10.9668C22.6968 11.5409 22.6458 11.8567 22.5777 12.5333C22.4902 13.4036 22.4026 14.883 22.4026 14.883C22.4126 14.883 22.4224 14.883 22.4322 14.8827L21.9984 21.3418C21.7365 24.2293 19.4665 26.2418 16.7599 26.2418H11.5214C8.72752 26.2418 6.54481 24.2293 6.28288 21.3418C6.05538 18.3779 5.95579 15.4052 5.68526 12.4463Z" fill="url(#paint9_radial_0_152)"/>
<path id="Vector_12" d="M5.68526 12.4463C5.68526 12.0112 5.86031 11.489 6.21041 11.2279L6.47298 10.9668C6.91062 10.6187 7.08567 10.0965 7.08567 9.57441V8.18197C7.08567 7.74684 7.34824 7.39873 7.78587 7.3117C8.83618 7.05062 11.0243 6.61548 14.1753 6.61548C17.3261 6.61548 19.5143 7.05062 20.5646 7.3117C20.9147 7.39873 21.2649 7.74684 21.2649 8.18197V9.57441C21.2649 10.0965 21.5274 10.6187 21.8775 10.9668C22.6968 11.5409 22.6458 11.8567 22.5777 12.5333C22.4902 13.4036 22.4026 14.883 22.4026 14.883C22.4126 14.883 22.4224 14.883 22.4322 14.8827L21.9984 21.3418C21.7365 24.2293 19.4665 26.2418 16.7599 26.2418H11.5214C8.72752 26.2418 6.54481 24.2293 6.28288 21.3418C6.05538 18.3779 5.95579 15.4052 5.68526 12.4463Z" fill="url(#paint10_radial_0_152)"/>
</g>
<g id="Group_6" filter="url(#filter5_f_0_152)">
<path id="Vector_13" d="M20.5693 6.61548L15.5477 8.28967C14.6927 8.57472 14.2061 9.47484 14.4359 10.3463C14.6555 11.1793 15.4609 11.7186 16.3149 11.6042L21.3076 10.9358L20.5693 6.61548Z" fill="url(#paint11_linear_0_152)"/>
</g>
<g id="Group_7" filter="url(#filter6_i_0_152)">
<path id="Vector_14" d="M21.9651 5.2231L22.6653 5.57121C23.8906 6.1804 24.5909 7.57284 24.3283 9.05231L23.3655 14.0129C23.2796 14.5252 22.941 14.8699 22.4323 14.8828C22.4225 14.883 22.4127 14.883 22.4027 14.883C22.4027 14.883 22.4903 13.4036 22.5778 12.5333C22.6488 11.8266 22.5254 11.6111 21.8776 10.9668C21.5274 10.6187 21.2649 10.0965 21.2649 9.57442V8.18198C21.2649 7.74684 20.9147 7.39874 20.5646 7.31171C19.5144 7.05063 17.3262 6.61549 14.1753 6.61549C11.0244 6.61549 8.83624 7.05063 7.78592 7.31171C7.34829 7.39874 7.08572 7.74684 7.08572 8.18198V9.57442C7.08572 10.0965 6.91067 10.6187 6.47304 10.9668L6.21046 11.2279C5.86036 11.489 5.68531 12.0112 5.68531 12.4463C5.77284 13.4036 5.86036 14.7961 5.86036 14.7961C5.83343 14.7961 5.80673 14.7951 5.78031 14.7934C5.29124 14.7599 4.89308 14.4212 4.81005 13.9258L3.84727 8.96525C3.67221 7.57284 4.37242 6.1804 5.59777 5.57121L6.29798 5.2231C6.73561 4.96202 7.17324 4.61391 7.61086 4.26581L9.18632 2.61229C10.1491 1.74201 11.5495 1.48094 12.7749 2.09012C13.6501 2.3512 14.6129 2.3512 15.4882 2.09012C16.8011 1.65498 18.289 2.00309 19.3393 2.9604L20.6521 4.2658C21.0023 4.70094 21.4399 4.96202 21.9651 5.2231Z" fill="var(--fill-0, #242324)"/>
<path id="Vector_15" d="M21.9651 5.2231L22.6653 5.57121C23.8906 6.1804 24.5909 7.57284 24.3283 9.05231L23.3655 14.0129C23.2796 14.5252 22.941 14.8699 22.4323 14.8828C22.4225 14.883 22.4127 14.883 22.4027 14.883C22.4027 14.883 22.4903 13.4036 22.5778 12.5333C22.6488 11.8266 22.5254 11.6111 21.8776 10.9668C21.5274 10.6187 21.2649 10.0965 21.2649 9.57442V8.18198C21.2649 7.74684 20.9147 7.39874 20.5646 7.31171C19.5144 7.05063 17.3262 6.61549 14.1753 6.61549C11.0244 6.61549 8.83624 7.05063 7.78592 7.31171C7.34829 7.39874 7.08572 7.74684 7.08572 8.18198V9.57442C7.08572 10.0965 6.91067 10.6187 6.47304 10.9668L6.21046 11.2279C5.86036 11.489 5.68531 12.0112 5.68531 12.4463C5.77284 13.4036 5.86036 14.7961 5.86036 14.7961C5.83343 14.7961 5.80673 14.7951 5.78031 14.7934C5.29124 14.7599 4.89308 14.4212 4.81005 13.9258L3.84727 8.96525C3.67221 7.57284 4.37242 6.1804 5.59777 5.57121L6.29798 5.2231C6.73561 4.96202 7.17324 4.61391 7.61086 4.26581L9.18632 2.61229C10.1491 1.74201 11.5495 1.48094 12.7749 2.09012C13.6501 2.3512 14.6129 2.3512 15.4882 2.09012C16.8011 1.65498 18.289 2.00309 19.3393 2.9604L20.6521 4.2658C21.0023 4.70094 21.4399 4.96202 21.9651 5.2231Z" fill="url(#paint12_radial_0_152)"/>
<path id="Vector_16" d="M21.9651 5.2231L22.6653 5.57121C23.8906 6.1804 24.5909 7.57284 24.3283 9.05231L23.3655 14.0129C23.2796 14.5252 22.941 14.8699 22.4323 14.8828C22.4225 14.883 22.4127 14.883 22.4027 14.883C22.4027 14.883 22.4903 13.4036 22.5778 12.5333C22.6488 11.8266 22.5254 11.6111 21.8776 10.9668C21.5274 10.6187 21.2649 10.0965 21.2649 9.57442V8.18198C21.2649 7.74684 20.9147 7.39874 20.5646 7.31171C19.5144 7.05063 17.3262 6.61549 14.1753 6.61549C11.0244 6.61549 8.83624 7.05063 7.78592 7.31171C7.34829 7.39874 7.08572 7.74684 7.08572 8.18198V9.57442C7.08572 10.0965 6.91067 10.6187 6.47304 10.9668L6.21046 11.2279C5.86036 11.489 5.68531 12.0112 5.68531 12.4463C5.77284 13.4036 5.86036 14.7961 5.86036 14.7961C5.83343 14.7961 5.80673 14.7951 5.78031 14.7934C5.29124 14.7599 4.89308 14.4212 4.81005 13.9258L3.84727 8.96525C3.67221 7.57284 4.37242 6.1804 5.59777 5.57121L6.29798 5.2231C6.73561 4.96202 7.17324 4.61391 7.61086 4.26581L9.18632 2.61229C10.1491 1.74201 11.5495 1.48094 12.7749 2.09012C13.6501 2.3512 14.6129 2.3512 15.4882 2.09012C16.8011 1.65498 18.289 2.00309 19.3393 2.9604L20.6521 4.2658C21.0023 4.70094 21.4399 4.96202 21.9651 5.2231Z" fill="url(#paint13_radial_0_152)"/>
<path id="Vector_17" d="M21.9651 5.2231L22.6653 5.57121C23.8906 6.1804 24.5909 7.57284 24.3283 9.05231L23.3655 14.0129C23.2796 14.5252 22.941 14.8699 22.4323 14.8828C22.4225 14.883 22.4127 14.883 22.4027 14.883C22.4027 14.883 22.4903 13.4036 22.5778 12.5333C22.6488 11.8266 22.5254 11.6111 21.8776 10.9668C21.5274 10.6187 21.2649 10.0965 21.2649 9.57442V8.18198C21.2649 7.74684 20.9147 7.39874 20.5646 7.31171C19.5144 7.05063 17.3262 6.61549 14.1753 6.61549C11.0244 6.61549 8.83624 7.05063 7.78592 7.31171C7.34829 7.39874 7.08572 7.74684 7.08572 8.18198V9.57442C7.08572 10.0965 6.91067 10.6187 6.47304 10.9668L6.21046 11.2279C5.86036 11.489 5.68531 12.0112 5.68531 12.4463C5.77284 13.4036 5.86036 14.7961 5.86036 14.7961C5.83343 14.7961 5.80673 14.7951 5.78031 14.7934C5.29124 14.7599 4.89308 14.4212 4.81005 13.9258L3.84727 8.96525C3.67221 7.57284 4.37242 6.1804 5.59777 5.57121L6.29798 5.2231C6.73561 4.96202 7.17324 4.61391 7.61086 4.26581L9.18632 2.61229C10.1491 1.74201 11.5495 1.48094 12.7749 2.09012C13.6501 2.3512 14.6129 2.3512 15.4882 2.09012C16.8011 1.65498 18.289 2.00309 19.3393 2.9604L20.6521 4.2658C21.0023 4.70094 21.4399 4.96202 21.9651 5.2231Z" fill="url(#paint14_radial_0_152)"/>
<path id="Vector_18" d="M21.9651 5.2231L22.6653 5.57121C23.8906 6.1804 24.5909 7.57284 24.3283 9.05231L23.3655 14.0129C23.2796 14.5252 22.941 14.8699 22.4323 14.8828C22.4225 14.883 22.4127 14.883 22.4027 14.883C22.4027 14.883 22.4903 13.4036 22.5778 12.5333C22.6488 11.8266 22.5254 11.6111 21.8776 10.9668C21.5274 10.6187 21.2649 10.0965 21.2649 9.57442V8.18198C21.2649 7.74684 20.9147 7.39874 20.5646 7.31171C19.5144 7.05063 17.3262 6.61549 14.1753 6.61549C11.0244 6.61549 8.83624 7.05063 7.78592 7.31171C7.34829 7.39874 7.08572 7.74684 7.08572 8.18198V9.57442C7.08572 10.0965 6.91067 10.6187 6.47304 10.9668L6.21046 11.2279C5.86036 11.489 5.68531 12.0112 5.68531 12.4463C5.77284 13.4036 5.86036 14.7961 5.86036 14.7961C5.83343 14.7961 5.80673 14.7951 5.78031 14.7934C5.29124 14.7599 4.89308 14.4212 4.81005 13.9258L3.84727 8.96525C3.67221 7.57284 4.37242 6.1804 5.59777 5.57121L6.29798 5.2231C6.73561 4.96202 7.17324 4.61391 7.61086 4.26581L9.18632 2.61229C10.1491 1.74201 11.5495 1.48094 12.7749 2.09012C13.6501 2.3512 14.6129 2.3512 15.4882 2.09012C16.8011 1.65498 18.289 2.00309 19.3393 2.9604L20.6521 4.2658C21.0023 4.70094 21.4399 4.96202 21.9651 5.2231Z" fill="url(#paint15_radial_0_152)"/>
</g>
<g id="Group_8" filter="url(#filter7_f_0_152)">
<path id="Vector_19" d="M13.6526 15.5938L12.3139 18.3671C12.148 18.9375 12.5462 19.508 13.1103 19.508H14.3134C14.8775 19.508 15.2757 18.9288 15.1098 18.3671L14.2968 15.5938C14.1225 14.9795 13.835 14.9795 13.6526 15.5938Z" fill="var(--fill-0, #D89992)"/>
</g>
<g id="Group_9" filter="url(#filter8_f_0_152)">
<path id="Vector_20" d="M13.4782 15.3276L12.6111 18.1009C12.4342 18.6714 12.8589 19.2419 13.4604 19.2419H14.7433C15.3449 19.2419 15.7695 18.6626 15.5926 18.1009L14.7256 15.3276C14.5398 14.7133 13.6728 14.7133 13.4782 15.3276Z" fill="var(--fill-0, #FBC4B1)"/>
<path id="Vector_21" d="M13.4782 15.3276L12.6111 18.1009C12.4342 18.6714 12.8589 19.2419 13.4604 19.2419H14.7433C15.3449 19.2419 15.7695 18.6626 15.5926 18.1009L14.7256 15.3276C14.5398 14.7133 13.6728 14.7133 13.4782 15.3276Z" fill="url(#paint16_linear_0_152)"/>
<path id="Vector_22" d="M13.4782 15.3276L12.6111 18.1009C12.4342 18.6714 12.8589 19.2419 13.4604 19.2419H14.7433C15.3449 19.2419 15.7695 18.6626 15.5926 18.1009L14.7256 15.3276C14.5398 14.7133 13.6728 14.7133 13.4782 15.3276Z" fill="url(#paint17_linear_0_152)"/>
<path id="Vector_23" d="M13.4782 15.3276L12.6111 18.1009C12.4342 18.6714 12.8589 19.2419 13.4604 19.2419H14.7433C15.3449 19.2419 15.7695 18.6626 15.5926 18.1009L14.7256 15.3276C14.5398 14.7133 13.6728 14.7133 13.4782 15.3276Z" fill="url(#paint18_linear_0_152)"/>
<path id="Vector_24" d="M13.4782 15.3276L12.6111 18.1009C12.4342 18.6714 12.8589 19.2419 13.4604 19.2419H14.7433C15.3449 19.2419 15.7695 18.6626 15.5926 18.1009L14.7256 15.3276C14.5398 14.7133 13.6728 14.7133 13.4782 15.3276Z" fill="url(#paint19_radial_0_152)"/>
</g>
<path id="Vector_25" d="M13.4782 15.3276L12.6111 18.1009C12.4342 18.6714 12.8589 19.2419 13.4604 19.2419H14.7433C15.3449 19.2419 15.7695 18.6626 15.5926 18.1009L14.7256 15.3276C14.5398 14.7133 13.6728 14.7133 13.4782 15.3276Z" fill="url(#paint20_linear_0_152)"/>
<path id="Vector_26" d="M11.8619 20.3258C11.7306 20.2591 11.5938 20.3 11.5119 20.3862C11.4298 20.4726 11.3988 20.6089 11.4825 20.7301C12.0368 21.5698 13.0023 22.1294 14.1018 22.1294C15.2014 22.1294 16.1671 21.5696 16.7213 20.7297C16.8043 20.6051 16.7744 20.469 16.6915 20.383C16.6091 20.2975 16.4727 20.2591 16.3422 20.3256C15.6946 20.6631 14.9311 20.8566 14.1018 20.8566C13.2807 20.8566 12.5095 20.6634 11.8619 20.3258Z" fill="var(--fill-0, #88024E)" stroke="url(#paint21_linear_0_152)" stroke-width="0.0875"/>
<g id="Group_10" filter="url(#filter9_i_0_152)">
<path id="Vector_27" d="M20.1711 11.3549L20.1691 11.3532L20.1661 11.3507L20.1588 11.3447L20.1392 11.3292C20.124 11.3173 20.1044 11.3023 20.0806 11.2848C20.0329 11.2499 19.968 11.2047 19.8865 11.1538C19.724 11.052 19.4934 10.9252 19.2016 10.8098C18.6158 10.5782 17.7793 10.3917 16.766 10.5517C16.2909 10.6267 15.9666 11.0726 16.0416 11.5477C16.1166 12.0228 16.5626 12.3471 17.0376 12.2721C17.6867 12.1696 18.2064 12.2893 18.5613 12.4296C18.7398 12.5002 18.8756 12.5757 18.962 12.6298C19.0049 12.6567 19.035 12.6779 19.0512 12.6898C19.0581 12.6948 19.0623 12.6981 19.0642 12.6995C19.4335 13.0006 19.9774 12.949 20.2833 12.5819C20.5911 12.2124 20.5407 11.6628 20.1711 11.3549Z" fill="var(--fill-0, #1E1E1E)"/>
</g>
<g id="Group_11" filter="url(#filter10_i_0_152)">
<path id="Vector_28" d="M7.9443 11.3554L7.94556 11.3544L7.94692 11.3532L7.94997 11.3507L7.95728 11.3447L7.97685 11.3292C7.99207 11.3173 8.01166 11.3023 8.03551 11.2848C8.08316 11.2499 8.14813 11.2047 8.22957 11.1538C8.39204 11.052 8.62268 10.9252 8.91441 10.8098C9.50022 10.5782 10.3367 10.3917 11.3501 10.5517C11.8252 10.6267 12.1495 11.0726 12.0745 11.5477C11.9995 12.0228 11.5536 12.3471 11.0785 12.2721C10.4294 12.1696 9.90964 12.2893 9.55482 12.4296C9.37624 12.5002 9.24044 12.5757 9.15407 12.6298C9.11111 12.6567 9.0811 12.6779 9.06482 12.6898C9.05809 12.6948 9.05371 12.6981 9.05196 12.6995C8.68255 13.0006 8.13865 12.949 7.8328 12.5819C7.5249 12.2124 7.57482 11.6633 7.9443 11.3554Z" fill="var(--fill-0, #1E1E1E)"/>
</g>
<path id="Vector_29" d="M17.9981 13.4587C19.0636 13.4587 19.9636 14.1932 20.2084 15.1859C20.2812 15.4705 20.0628 15.7418 19.7716 15.7418H16.1319C15.9003 15.7418 15.715 15.5301 15.7613 15.2985C15.9664 14.2528 16.8863 13.4587 17.9981 13.4587Z" fill="var(--fill-0, white)"/>
<path id="Vector_30" d="M17.6605 13.9021C18.4679 13.9021 19.1164 14.5573 19.1164 15.358C19.1164 15.4904 19.0966 15.6227 19.0635 15.7418H16.2509C16.2178 15.6161 16.198 15.4904 16.198 15.358C16.198 14.5573 16.8532 13.9021 17.6605 13.9021Z" fill="url(#paint22_radial_0_152)"/>
<path id="Vector_31" d="M16.8267 15.358C16.8267 14.8948 17.1973 14.5242 17.6605 14.5242C18.1238 14.5242 18.4943 14.8948 18.4943 15.358C18.4943 15.4971 18.4612 15.6294 18.4017 15.7419H16.926C16.8597 15.6294 16.8267 15.4971 16.8267 15.358Z" fill="var(--fill-0, black)"/>
<g id="Group_12" filter="url(#filter11_f_0_152)">
<path id="Vector_32" d="M17.5534 14.2099C17.6571 14.3486 17.4404 14.5178 17.1938 14.7021C16.9473 14.8864 16.7644 15.0162 16.6607 14.8774C16.557 14.7387 16.6727 14.4768 16.9192 14.2925C17.1657 14.1082 17.4496 14.0712 17.5534 14.2099Z" fill="var(--fill-0, #C7A7A3)"/>
<path id="Vector_33" d="M17.5534 14.2099C17.6571 14.3486 17.4404 14.5178 17.1938 14.7021C16.9473 14.8864 16.7644 15.0162 16.6607 14.8774C16.557 14.7387 16.6727 14.4768 16.9192 14.2925C17.1657 14.1082 17.4496 14.0712 17.5534 14.2099Z" fill="url(#paint23_radial_0_152)"/>
</g>
<g id="Group_13" filter="url(#filter12_f_0_152)">
<path id="Vector_34" d="M18.9574 15.1663C18.9036 14.79 18.6834 14.5063 18.58 14.4115L18.156 14.8768L18.3473 15.2491L18.9574 15.1663Z" fill="url(#paint24_linear_0_152)"/>
</g>
<path id="Vector_35" d="M10.1971 13.4587C9.13158 13.4587 8.2315 14.1932 7.98663 15.186C7.91383 15.4706 8.13222 15.7419 8.42342 15.7419H12.0634C12.2951 15.7419 12.4803 15.5302 12.434 15.2985C12.2288 14.2528 11.3023 13.4587 10.1971 13.4587Z" fill="var(--fill-0, white)"/>
<path id="Vector_36" d="M10.5346 13.9019C9.72719 13.9019 9.07855 14.5571 9.07855 15.3579C9.07855 15.4903 9.09841 15.6227 9.13158 15.7418H11.9443C11.9773 15.6161 11.9972 15.4903 11.9972 15.3579C11.9906 14.5571 11.342 13.9019 10.5346 13.9019Z" fill="url(#paint25_radial_0_152)"/>
<path id="Vector_37" d="M11.3686 15.358C11.3686 14.8948 10.9979 14.5241 10.5347 14.5241C10.0714 14.5241 9.70073 14.8948 9.70073 15.358C9.70073 15.497 9.73389 15.6293 9.79339 15.7419H11.2693C11.3288 15.6293 11.3686 15.497 11.3686 15.358Z" fill="var(--fill-0, black)"/>
<g id="Group_14" filter="url(#filter13_f_0_152)">
<path id="Vector_38" d="M11.8647 15.187C11.8647 14.7165 11.4821 14.4028 11.3787 14.308L10.9082 14.763L11.1978 15.3524L11.8647 15.187Z" fill="url(#paint26_linear_0_152)"/>
</g>
<g id="Group_15" filter="url(#filter14_f_0_152)">
<path id="Vector_39" d="M10.2455 14.8086C10.5555 14.6443 10.7394 14.3838 10.6561 14.2267C10.5729 14.0695 10.254 14.0753 9.94403 14.2395C9.63401 14.4037 9.45018 14.6643 9.53343 14.8214C9.61669 14.9786 9.9355 14.9728 10.2455 14.8086Z" fill="var(--fill-0, #C7A7A3)" fill-opacity="0.9"/>
<path id="Vector_40" d="M10.2455 14.8086C10.5555 14.6443 10.7394 14.3838 10.6561 14.2267C10.5729 14.0695 10.254 14.0753 9.94403 14.2395C9.63401 14.4037 9.45018 14.6643 9.53343 14.8214C9.61669 14.9786 9.9355 14.9728 10.2455 14.8086Z" fill="url(#paint27_radial_0_152)"/>
</g>
<g id="Group_16" filter="url(#filter15_f_0_152)">
<path id="Vector_41" d="M16.8116 11.1189C17.5133 10.9962 18.8819 11.0313 19.8293 11.7681" stroke="url(#paint28_linear_0_152)" stroke-width="0.4375" stroke-linecap="round"/>
</g>
<g id="Group_17" filter="url(#filter16_f_0_152)">
<path id="Vector_42" d="M8.29466 11.9651C8.82853 11.4933 9.9942 10.9964 11.4393 11.2268" stroke="url(#paint29_linear_0_152)" stroke-width="0.4375" stroke-linecap="round"/>
</g>
<g id="Group_18" filter="url(#filter17_f_0_152)">
<path id="Vector_43" d="M6.70534 7.94229V9.40682C6.69257 9.64937 6.59047 10.1918 6.28415 10.4215" stroke="url(#paint30_linear_0_152)" stroke-width="0.21875" stroke-linecap="round"/>
</g>
</g>
<defs>
<filter id="filter0_i_0_152" x="3.63042" y="13.069" width="5.62275" height="5.44775" filterUnits="userSpaceOnUse" color-interpolation-filters="sRGB">
<feFlood flood-opacity="0" result="BackgroundImageFix"/>
<feBlend mode="normal" in="SourceGraphic" in2="BackgroundImageFix" result="shape"/>
<feColorMatrix in="SourceAlpha" type="matrix" values="0 0 0 0 0 0 0 0 0 0 0 0 0 0 0 0 0 0 127 0" result="hardAlpha"/>
<feOffset dx="0.175"/>
<feGaussianBlur stdDeviation="0.13125"/>
<feComposite in2="hardAlpha" operator="arithmetic" k2="-1" k3="1"/>
<feColorMatrix type="matrix" values="0 0 0 0 0.917647 0 0 0 0 0.694118 0 0 0 0 0.607843 0 0 0 1 0"/>
<feBlend mode="normal" in2="shape" result="effect1_innerShadow_0_152"/>
</filter>
<filter id="filter1_f_0_152" x="4.29361" y="13.7322" width="4.12125" height="4.12125" filterUnits="userSpaceOnUse" color-interpolation-filters="sRGB">
<feFlood flood-opacity="0" result="BackgroundImageFix"/>
<feBlend mode="normal" in="SourceGraphic" in2="BackgroundImageFix" result="shape"/>
<feGaussianBlur stdDeviation="0.21875" result="effect1_foregroundBlur_0_152"/>
</filter>
<filter id="filter2_i_0_152" x="19.1538" y="12.8503" width="5.6665" height="5.6665" filterUnits="userSpaceOnUse" color-interpolation-filters="sRGB">
<feFlood flood-opacity="0" result="BackgroundImageFix"/>
<feBlend mode="normal" in="SourceGraphic" in2="BackgroundImageFix" result="shape"/>
<feColorMatrix in="SourceAlpha" type="matrix" values="0 0 0 0 0 0 0 0 0 0 0 0 0 0 0 0 0 0 127 0" result="hardAlpha"/>
<feOffset dx="0.21875" dy="-0.21875"/>
<feGaussianBlur stdDeviation="0.21875"/>
<feComposite in2="hardAlpha" operator="arithmetic" k2="-1" k3="1"/>
<feColorMatrix type="matrix" values="0 0 0 0 0.843137 0 0 0 0 0.623529 0 0 0 0 0.580392 0 0 0 1 0"/>
<feBlend mode="normal" in2="shape" result="effect1_innerShadow_0_152"/>
</filter>
<filter id="filter3_f_0_152" x="19.817" y="13.7322" width="4.12125" height="4.12125" filterUnits="userSpaceOnUse" color-interpolation-filters="sRGB">
<feFlood flood-opacity="0" result="BackgroundImageFix"/>
<feBlend mode="normal" in="SourceGraphic" in2="BackgroundImageFix" result="shape"/>
<feGaussianBlur stdDeviation="0.21875" result="effect1_foregroundBlur_0_152"/>
</filter>
<filter id="filter4_i_0_152" x="5.68526" y="6.61548" width="16.9271" height="19.8451" filterUnits="userSpaceOnUse" color-interpolation-filters="sRGB">
<feFlood flood-opacity="0" result="BackgroundImageFix"/>
<feBlend mode="normal" in="SourceGraphic" in2="BackgroundImageFix" result="shape"/>
<feColorMatrix in="SourceAlpha" type="matrix" values="0 0 0 0 0 0 0 0 0 0 0 0 0 0 0 0 0 0 127 0" result="hardAlpha"/>
<feOffset dy="0.21875"/>
<feGaussianBlur stdDeviation="0.328125"/>
<feComposite in2="hardAlpha" operator="arithmetic" k2="-1" k3="1"/>
<feColorMatrix type="matrix" values="0 0 0 0 0.819608 0 0 0 0 0.615686 0 0 0 0 0.509804 0 0 0 1 0"/>
<feBlend mode="normal" in2="shape" result="effect1_innerShadow_0_152"/>
</filter>
<filter id="filter5_f_0_152" x="12.6291" y="4.86548" width="10.4285" height="8.50402" filterUnits="userSpaceOnUse" color-interpolation-filters="sRGB">
<feFlood flood-opacity="0" result="BackgroundImageFix"/>
<feBlend mode="normal" in="SourceGraphic" in2="BackgroundImageFix" result="shape"/>
<feGaussianBlur stdDeviation="0.875" result="effect1_foregroundBlur_0_152"/>
</filter>
<filter id="filter6_i_0_152" x="3.82065" y="1.32062" width="20.5625" height="13.5624" filterUnits="userSpaceOnUse" color-interpolation-filters="sRGB">
<feFlood flood-opacity="0" result="BackgroundImageFix"/>
<feBlend mode="normal" in="SourceGraphic" in2="BackgroundImageFix" result="shape"/>
<feColorMatrix in="SourceAlpha" type="matrix" values="0 0 0 0 0 0 0 0 0 0 0 0 0 0 0 0 0 0 127 0" result="hardAlpha"/>
<feOffset dy="-0.4375"/>
<feGaussianBlur stdDeviation="0.328125"/>
<feComposite in2="hardAlpha" operator="arithmetic" k2="-1" k3="1"/>
<feColorMatrix type="matrix" values="0 0 0 0 0.0392157 0 0 0 0 0.00784314 0 0 0 0 0.0196078 0 0 0 1 0"/>
<feBlend mode="normal" in2="shape" result="effect1_innerShadow_0_152"/>
</filter>
<filter id="filter7_f_0_152" x="11.6197" y="14.4768" width="4.18432" height="5.68748" filterUnits="userSpaceOnUse" color-interpolation-filters="sRGB">
<feFlood flood-opacity="0" result="BackgroundImageFix"/>
<feBlend mode="normal" in="SourceGraphic" in2="BackgroundImageFix" result="shape"/>
<feGaussianBlur stdDeviation="0.328125" result="effect1_foregroundBlur_0_152"/>
</filter>
<filter id="filter8_f_0_152" x="12.3519" y="14.6481" width="3.49996" height="4.81248" filterUnits="userSpaceOnUse" color-interpolation-filters="sRGB">
<feFlood flood-opacity="0" result="BackgroundImageFix"/>
<feBlend mode="normal" in="SourceGraphic" in2="BackgroundImageFix" result="shape"/>
<feGaussianBlur stdDeviation="0.109375" result="effect1_foregroundBlur_0_152"/>
</filter>
<filter id="filter9_i_0_152" x="16.0308" y="10.1419" width="4.67283" height="2.75338" filterUnits="userSpaceOnUse" color-interpolation-filters="sRGB">
<feFlood flood-opacity="0" result="BackgroundImageFix"/>
<feBlend mode="normal" in="SourceGraphic" in2="BackgroundImageFix" result="shape"/>
<feColorMatrix in="SourceAlpha" type="matrix" values="0 0 0 0 0 0 0 0 0 0 0 0 0 0 0 0 0 0 127 0" result="hardAlpha"/>
<feOffset dx="0.21875" dy="-0.35"/>
<feGaussianBlur stdDeviation="0.2625"/>
<feComposite in2="hardAlpha" operator="arithmetic" k2="-1" k3="1"/>
<feColorMatrix type="matrix" values="0 0 0 0 0.0431373 0 0 0 0 0.0196078 0 0 0 0 0.027451 0 0 0 1 0"/>
<feBlend mode="normal" in2="shape" result="effect1_innerShadow_0_152"/>
</filter>
<filter id="filter10_i_0_152" x="7.63094" y="10.1419" width="4.67307" height="2.75338" filterUnits="userSpaceOnUse" color-interpolation-filters="sRGB">
<feFlood flood-opacity="0" result="BackgroundImageFix"/>
<feBlend mode="normal" in="SourceGraphic" in2="BackgroundImageFix" result="shape"/>
<feColorMatrix in="SourceAlpha" type="matrix" values="0 0 0 0 0 0 0 0 0 0 0 0 0 0 0 0 0 0 127 0" result="hardAlpha"/>
<feOffset dx="0.21875" dy="-0.35"/>
<feGaussianBlur stdDeviation="0.2625"/>
<feComposite in2="hardAlpha" operator="arithmetic" k2="-1" k3="1"/>
<feColorMatrix type="matrix" values="0 0 0 0 0.0431373 0 0 0 0 0.0196078 0 0 0 0 0.027451 0 0 0 1 0"/>
<feBlend mode="normal" in2="shape" result="effect1_innerShadow_0_152"/>
</filter>
<filter id="filter11_f_0_152" x="16.5352" y="14.0384" width="1.13232" height="0.984668" filterUnits="userSpaceOnUse" color-interpolation-filters="sRGB">
<feFlood flood-opacity="0" result="BackgroundImageFix"/>
<feBlend mode="normal" in="SourceGraphic" in2="BackgroundImageFix" result="shape"/>
<feGaussianBlur stdDeviation="0.04375" result="effect1_foregroundBlur_0_152"/>
</filter>
<filter id="filter12_f_0_152" x="17.981" y="14.2365" width="1.15132" height="1.18755" filterUnits="userSpaceOnUse" color-interpolation-filters="sRGB">
<feFlood flood-opacity="0" result="BackgroundImageFix"/>
<feBlend mode="normal" in="SourceGraphic" in2="BackgroundImageFix" result="shape"/>
<feGaussianBlur stdDeviation="0.0875" result="effect1_foregroundBlur_0_152"/>
</filter>
<filter id="filter13_f_0_152" x="10.7332" y="14.133" width="1.30646" height="1.3944" filterUnits="userSpaceOnUse" color-interpolation-filters="sRGB">
<feFlood flood-opacity="0" result="BackgroundImageFix"/>
<feBlend mode="normal" in="SourceGraphic" in2="BackgroundImageFix" result="shape"/>
<feGaussianBlur stdDeviation="0.0875" result="effect1_foregroundBlur_0_152"/>
</filter>
<filter id="filter14_f_0_152" x="9.4259" y="14.025" width="1.33774" height="0.998168" filterUnits="userSpaceOnUse" color-interpolation-filters="sRGB">
<feFlood flood-opacity="0" result="BackgroundImageFix"/>
<feBlend mode="normal" in="SourceGraphic" in2="BackgroundImageFix" result="shape"/>
<feGaussianBlur stdDeviation="0.04375" result="effect1_foregroundBlur_0_152"/>
</filter>
<filter id="filter15_f_0_152" x="16.1553" y="10.4085" width="4.33025" height="2.01589" filterUnits="userSpaceOnUse" color-interpolation-filters="sRGB">
<feFlood flood-opacity="0" result="BackgroundImageFix"/>
<feBlend mode="normal" in="SourceGraphic" in2="BackgroundImageFix" result="shape"/>
<feGaussianBlur stdDeviation="0.21875" result="effect1_foregroundBlur_0_152"/>
</filter>
<filter id="filter16_f_0_152" x="7.63841" y="10.5124" width="4.45714" height="2.10891" filterUnits="userSpaceOnUse" color-interpolation-filters="sRGB">
<feFlood flood-opacity="0" result="BackgroundImageFix"/>
<feBlend mode="normal" in="SourceGraphic" in2="BackgroundImageFix" result="shape"/>
<feGaussianBlur stdDeviation="0.21875" result="effect1_foregroundBlur_0_152"/>
</filter>
<filter id="filter17_f_0_152" x="5.95602" y="7.61417" width="1.07745" height="3.13544" filterUnits="userSpaceOnUse" color-interpolation-filters="sRGB">
<feFlood flood-opacity="0" result="BackgroundImageFix"/>
<feBlend mode="normal" in="SourceGraphic" in2="BackgroundImageFix" result="shape"/>
<feGaussianBlur stdDeviation="0.109375" result="effect1_foregroundBlur_0_152"/>
</filter>
<radialGradient id="paint0_radial_0_152" cx="0" cy="0" r="1" gradientUnits="userSpaceOnUse" gradientTransform="translate(3.63042 15.7938) scale(2.86348 5.01112)">
<stop offset="0.351" stop-color="#CF9888"/>
<stop offset="1" stop-color="#BE8C77"/>
</radialGradient>
<linearGradient id="paint1_linear_0_152" x1="6.35423" y1="16.2478" x2="5.30948" y2="16.2478" gradientUnits="userSpaceOnUse">
<stop stop-color="#BA7C6B"/>
<stop offset="1" stop-color="#BE8474"/>
</linearGradient>
<linearGradient id="paint2_linear_0_152" x1="23.6504" y1="14.0123" x2="22.3143" y2="18.151" gradientUnits="userSpaceOnUse">
<stop stop-color="#FBD3BD"/>
<stop offset="1" stop-color="#F0B8A4"/>
</linearGradient>
<radialGradient id="paint3_radial_0_152" cx="0" cy="0" r="1" gradientUnits="userSpaceOnUse" gradientTransform="translate(22.4849 15.3607) rotate(-36.0599) scale(1.66869 1.90459)">
<stop offset="0.543" stop-color="#D9AA94"/>
<stop offset="1" stop-color="#D9AA94" stop-opacity="0"/>
</radialGradient>
<radialGradient id="paint4_radial_0_152" cx="0" cy="0" r="1" gradientUnits="userSpaceOnUse" gradientTransform="translate(21.8102 17.1325) rotate(-61.4674) scale(2.80553 1.64208)">
<stop offset="0.755" stop-color="#D6A38D" stop-opacity="0"/>
<stop offset="0.916" stop-color="#D6A38D"/>
</radialGradient>
<radialGradient id="paint5_radial_0_152" cx="0" cy="0" r="1" gradientUnits="userSpaceOnUse" gradientTransform="translate(21.8777 15.7932) rotate(44.708) scale(0.595315 0.767436)">
<stop stop-color="#D5A58E"/>
<stop offset="1" stop-color="#D5A58E" stop-opacity="0"/>
</radialGradient>
<linearGradient id="paint6_linear_0_152" x1="20.6876" y1="16.429" x2="8.22587" y2="18.2857" gradientUnits="userSpaceOnUse">
<stop stop-color="#FFDAC0"/>
<stop offset="1" stop-color="#DAA594"/>
</linearGradient>
<radialGradient id="paint7_radial_0_152" cx="0" cy="0" r="1" gradientUnits="userSpaceOnUse" gradientTransform="translate(15.9135 13.1166) rotate(100.62) scale(13.3537 18.1269)">
<stop offset="0.746" stop-color="#B57995" stop-opacity="0"/>
<stop offset="1" stop-color="#B57995"/>
</radialGradient>
<linearGradient id="paint8_linear_0_152" x1="5.29725" y1="20.8276" x2="8.36762" y2="20.7182" gradientUnits="userSpaceOnUse">
<stop stop-color="#E8AD97"/>
<stop offset="1" stop-color="#E8AD97" stop-opacity="0"/>
</linearGradient>
<radialGradient id="paint9_radial_0_152" cx="0" cy="0" r="1" gradientUnits="userSpaceOnUse" gradientTransform="translate(17.9296 13.7182) rotate(-90) scale(2.13281 2.625)">
<stop stop-color="#F5B7A7"/>
<stop offset="1" stop-color="#F5B7A7" stop-opacity="0"/>
</radialGradient>
<radialGradient id="paint10_radial_0_152" cx="0" cy="0" r="1" gradientUnits="userSpaceOnUse" gradientTransform="translate(10.4921 13.664) rotate(-90) scale(2.26953 2.82237)">
<stop stop-color="#D0958D"/>
<stop offset="1" stop-color="#D0958D" stop-opacity="0"/>
</radialGradient>
<linearGradient id="paint11_linear_0_152" x1="13.2343" y1="11.5587" x2="26.5238" y2="6.80049" gradientUnits="userSpaceOnUse">
<stop stop-color="#FFDEC4"/>
<stop offset="1" stop-color="#FFDEC4" stop-opacity="0"/>
</linearGradient>
<radialGradient id="paint12_radial_0_152" cx="0" cy="0" r="1" gradientUnits="userSpaceOnUse" gradientTransform="translate(21.1926 9.093) rotate(-74.8989) scale(4.99698 1.85304)">
<stop stop-color="#464344"/>
<stop offset="1" stop-color="#464344" stop-opacity="0"/>
</radialGradient>
<radialGradient id="paint13_radial_0_152" cx="0" cy="0" r="1" gradientUnits="userSpaceOnUse" gradientTransform="translate(18.5115 6.22125) rotate(5.25785) scale(6.2675 3.36999)">
<stop offset="0.122" stop-color="#4A4648"/>
<stop offset="1" stop-color="#4A4648" stop-opacity="0"/>
</radialGradient>
<radialGradient id="paint14_radial_0_152" cx="0" cy="0" r="1" gradientUnits="userSpaceOnUse" gradientTransform="translate(14.1015 1.75875) rotate(90) scale(2.73997 4.24344)">
<stop stop-color="#423D3F"/>
<stop offset="1" stop-color="#423D3F" stop-opacity="0"/>
</radialGradient>
<radialGradient id="paint15_radial_0_152" cx="0" cy="0" r="1" gradientUnits="userSpaceOnUse" gradientTransform="translate(3.57924 12.8835) rotate(-36.235) scale(6.21854 9.74242)">
<stop stop-color="#463C39"/>
<stop offset="1" stop-color="#463C39" stop-opacity="0"/>
</radialGradient>
<linearGradient id="paint16_linear_0_152" x1="12.6919" y1="17.5044" x2="14.2223" y2="17.5044" gradientUnits="userSpaceOnUse">
<stop stop-color="#DFA790"/>
<stop offset="1" stop-color="#DFA790" stop-opacity="0"/>
</linearGradient>
<linearGradient id="paint17_linear_0_152" x1="15.6328" y1="18.0302" x2="13.9598" y2="18.0066" gradientUnits="userSpaceOnUse">
<stop stop-color="#FFDFC4"/>
<stop offset="1" stop-color="#FFDFC4" stop-opacity="0"/>
</linearGradient>
<linearGradient id="paint18_linear_0_152" x1="14.4192" y1="19.2421" x2="14.4192" y2="18.3067" gradientUnits="userSpaceOnUse">
<stop stop-color="#DC9C96"/>
<stop offset="1" stop-color="#DC9C96" stop-opacity="0"/>
</linearGradient>
<radialGradient id="paint19_radial_0_152" cx="0" cy="0" r="1" gradientUnits="userSpaceOnUse" gradientTransform="translate(14.6362 18.4144) rotate(90) scale(0.321291 1.03223)">
<stop stop-color="#FFD7C1"/>
<stop offset="1" stop-color="#FFD7C1" stop-opacity="0"/>
</radialGradient>
<linearGradient id="paint20_linear_0_152" x1="14.3072" y1="19.3104" x2="14.3072" y2="19.0365" gradientUnits="userSpaceOnUse">
<stop stop-color="#D6938E"/>
<stop offset="1" stop-color="#D6938E" stop-opacity="0"/>
</linearGradient>
<linearGradient id="paint21_linear_0_152" x1="12.4092" y1="21.8776" x2="13.1197" y2="20.755" gradientUnits="userSpaceOnUse">
<stop stop-color="#D9A4A4"/>
<stop offset="0.663" stop-color="#D9A4A4" stop-opacity="0"/>
</linearGradient>
<radialGradient id="paint22_radial_0_152" cx="0" cy="0" r="1" gradientUnits="userSpaceOnUse" gradientTransform="translate(17.6575 14.6798) rotate(90) scale(1.32355 2.10526)">
<stop offset="0.802" stop-color="#7D574A"/>
<stop offset="1" stop-color="#664944"/>
</radialGradient>
<radialGradient id="paint23_radial_0_152" cx="0" cy="0" r="1" gradientUnits="userSpaceOnUse" gradientTransform="translate(17.2846 14.818) rotate(-127.812) scale(0.61712 0.849634)">
<stop offset="0.766" stop-color="#FFE6E2" stop-opacity="0"/>
<stop offset="0.966" stop-color="#FFE6E2"/>
</radialGradient>
<linearGradient id="paint24_linear_0_152" x1="18.9263" y1="14.7683" x2="18.4144" y2="15.0833" gradientUnits="userSpaceOnUse">
<stop stop-color="#B4948D"/>
<stop offset="1" stop-color="#B4948D" stop-opacity="0"/>
</linearGradient>
<radialGradient id="paint25_radial_0_152" cx="0" cy="0" r="1" gradientUnits="userSpaceOnUse" gradientTransform="translate(10.5376 14.6798) rotate(90) scale(1.32362 2.10537)">
<stop offset="0.802" stop-color="#7D574A"/>
<stop offset="1" stop-color="#664944"/>
</radialGradient>
<linearGradient id="paint26_linear_0_152" x1="11.7512" y1="14.7683" x2="11.2393" y2="15.0833" gradientUnits="userSpaceOnUse">
<stop stop-color="#B4948D"/>
<stop offset="1" stop-color="#B4948D" stop-opacity="0"/>
</linearGradient>
<radialGradient id="paint27_radial_0_152" cx="0" cy="0" r="1" gradientUnits="userSpaceOnUse" gradientTransform="translate(10.3135 14.9895) rotate(-118.811) scale(0.806127 0.969001)">
<stop offset="0.766" stop-color="#FFE6E2" stop-opacity="0"/>
<stop offset="0.966" stop-color="#FFE6E2"/>
</radialGradient>
<linearGradient id="paint28_linear_0_152" x1="18.9526" y1="11.277" x2="18.2666" y2="9.87608" gradientUnits="userSpaceOnUse">
<stop stop-color="#353435"/>
<stop offset="1" stop-color="#353435" stop-opacity="0"/>
</linearGradient>
<linearGradient id="paint29_linear_0_152" x1="10.2962" y1="11.0688" x2="8.35541" y2="10.255" gradientUnits="userSpaceOnUse">
<stop stop-color="#353435"/>
<stop offset="1" stop-color="#353435" stop-opacity="0"/>
</linearGradient>
<linearGradient id="paint30_linear_0_152" x1="6.49513" y1="7.78134" x2="6.49513" y2="11.3006" gradientUnits="userSpaceOnUse">
<stop stop-color="#3C393A"/>
<stop offset="1" stop-color="#3C393A" stop-opacity="0"/>
</linearGradient>
</defs>
</svg>
