<svg preserveAspectRatio="none" width="100%" height="100%" overflow="visible" style="display: block;" viewBox="0 0 28 28" fill="none" xmlns="http://www.w3.org/2000/svg">
<g id="woman">
<g id="Group" filter="url(#filter0_i_0_66)">
<path id="Vector" fill-rule="evenodd" clip-rule="evenodd" d="M25.7217 17.9623C26.0684 17.2524 26.25 16.4599 26.25 15.6344C26.25 14.872 26.0931 14.1568 25.8119 13.5048H25.8205C25.6894 13.2094 25.5419 12.9305 25.3618 12.6678L25.3585 12.6627C24.7972 11.8043 24.5 10.7971 24.5 9.77357V9.75704C24.5 6.78538 22.0896 4.375 19.118 4.375C18.8207 4.375 18.5401 4.24293 18.375 3.99529C17.401 2.64151 15.7993 1.75 13.9998 1.75C12.2003 1.75 10.5989 2.64151 9.62482 3.99529C9.45971 4.22642 9.1791 4.375 8.88186 4.375C8.83549 4.375 8.78929 4.37559 8.74319 4.37676C5.83556 4.45037 3.49983 6.83175 3.49983 9.75704V9.77357C3.49983 10.7971 3.20266 11.8043 2.64134 12.6627L2.6376 12.6687C2.07866 13.5259 1.75 14.5309 1.75 15.6344C1.75 16.4764 1.94811 17.2524 2.2783 17.9623C2.39387 18.1934 2.39387 18.474 2.2783 18.7052C1.94811 19.3986 1.75 20.1745 1.75 21C1.75 23.9057 4.09433 26.25 7 26.25H21C23.9057 26.25 26.25 23.9057 26.25 21C26.25 20.1745 26.0519 19.3986 25.7217 18.7052C25.6062 18.474 25.6062 18.1934 25.7217 17.9623ZM5.72096 13.6027H5.70087L7.65638 17.4453C7.85753 22.0173 9.6418 17.4453 13.9998 17.4453C18.3578 17.4453 20.2583 22.5341 20.4595 17.9623L22.3125 12.7466C22.2249 10.7158 20.7532 10.5732 20.4595 10.5732H15.2064C13.1321 10.5732 11.1747 9.55797 10.0037 7.84353C9.80289 7.56057 9.38464 7.6105 9.25085 7.92676L9.11698 8.24301C8.74897 9.15845 8.04633 9.85757 7.17641 10.257C7.15131 10.2653 7.12204 10.2778 7.09277 10.2903C7.06349 10.3028 7.0342 10.3153 7.00912 10.3236C6.62434 10.5234 5.72096 11.1226 5.6875 12.6705L5.70423 13.1699L5.72096 13.6027Z" fill="url(#paint0_linear_0_66)"/>
<path id="Vector_2" fill-rule="evenodd" clip-rule="evenodd" d="M25.7217 17.9623C26.0684 17.2524 26.25 16.4599 26.25 15.6344C26.25 14.872 26.0931 14.1568 25.8119 13.5048H25.8205C25.6894 13.2094 25.5419 12.9305 25.3618 12.6678L25.3585 12.6627C24.7972 11.8043 24.5 10.7971 24.5 9.77357V9.75704C24.5 6.78538 22.0896 4.375 19.118 4.375C18.8207 4.375 18.5401 4.24293 18.375 3.99529C17.401 2.64151 15.7993 1.75 13.9998 1.75C12.2003 1.75 10.5989 2.64151 9.62482 3.99529C9.45971 4.22642 9.1791 4.375 8.88186 4.375C8.83549 4.375 8.78929 4.37559 8.74319 4.37676C5.83556 4.45037 3.49983 6.83175 3.49983 9.75704V9.77357C3.49983 10.7971 3.20266 11.8043 2.64134 12.6627L2.6376 12.6687C2.07866 13.5259 1.75 14.5309 1.75 15.6344C1.75 16.4764 1.94811 17.2524 2.2783 17.9623C2.39387 18.1934 2.39387 18.474 2.2783 18.7052C1.94811 19.3986 1.75 20.1745 1.75 21C1.75 23.9057 4.09433 26.25 7 26.25H21C23.9057 26.25 26.25 23.9057 26.25 21C26.25 20.1745 26.0519 19.3986 25.7217 18.7052C25.6062 18.474 25.6062 18.1934 25.7217 17.9623ZM5.72096 13.6027H5.70087L7.65638 17.4453C7.85753 22.0173 9.6418 17.4453 13.9998 17.4453C18.3578 17.4453 20.2583 22.5341 20.4595 17.9623L22.3125 12.7466C22.2249 10.7158 20.7532 10.5732 20.4595 10.5732H15.2064C13.1321 10.5732 11.1747 9.55797 10.0037 7.84353C9.80289 7.56057 9.38464 7.6105 9.25085 7.92676L9.11698 8.24301C8.74897 9.15845 8.04633 9.85757 7.17641 10.257C7.15131 10.2653 7.12204 10.2778 7.09277 10.2903C7.06349 10.3028 7.0342 10.3153 7.00912 10.3236C6.62434 10.5234 5.72096 11.1226 5.6875 12.6705L5.70423 13.1699L5.72096 13.6027Z" fill="url(#paint1_radial_0_66)"/>
<path id="Vector_3" fill-rule="evenodd" clip-rule="evenodd" d="M25.7217 17.9623C26.0684 17.2524 26.25 16.4599 26.25 15.6344C26.25 14.872 26.0931 14.1568 25.8119 13.5048H25.8205C25.6894 13.2094 25.5419 12.9305 25.3618 12.6678L25.3585 12.6627C24.7972 11.8043 24.5 10.7971 24.5 9.77357V9.75704C24.5 6.78538 22.0896 4.375 19.118 4.375C18.8207 4.375 18.5401 4.24293 18.375 3.99529C17.401 2.64151 15.7993 1.75 13.9998 1.75C12.2003 1.75 10.5989 2.64151 9.62482 3.99529C9.45971 4.22642 9.1791 4.375 8.88186 4.375C8.83549 4.375 8.78929 4.37559 8.74319 4.37676C5.83556 4.45037 3.49983 6.83175 3.49983 9.75704V9.77357C3.49983 10.7971 3.20266 11.8043 2.64134 12.6627L2.6376 12.6687C2.07866 13.5259 1.75 14.5309 1.75 15.6344C1.75 16.4764 1.94811 17.2524 2.2783 17.9623C2.39387 18.1934 2.39387 18.474 2.2783 18.7052C1.94811 19.3986 1.75 20.1745 1.75 21C1.75 23.9057 4.09433 26.25 7 26.25H21C23.9057 26.25 26.25 23.9057 26.25 21C26.25 20.1745 26.0519 19.3986 25.7217 18.7052C25.6062 18.474 25.6062 18.1934 25.7217 17.9623ZM5.72096 13.6027H5.70087L7.65638 17.4453C7.85753 22.0173 9.6418 17.4453 13.9998 17.4453C18.3578 17.4453 20.2583 22.5341 20.4595 17.9623L22.3125 12.7466C22.2249 10.7158 20.7532 10.5732 20.4595 10.5732H15.2064C13.1321 10.5732 11.1747 9.55797 10.0037 7.84353C9.80289 7.56057 9.38464 7.6105 9.25085 7.92676L9.11698 8.24301C8.74897 9.15845 8.04633 9.85757 7.17641 10.257C7.15131 10.2653 7.12204 10.2778 7.09277 10.2903C7.06349 10.3028 7.0342 10.3153 7.00912 10.3236C6.62434 10.5234 5.72096 11.1226 5.6875 12.6705L5.70423 13.1699L5.72096 13.6027Z" fill="url(#paint2_radial_0_66)"/>
<path id="Vector_4" fill-rule="evenodd" clip-rule="evenodd" d="M25.7217 17.9623C26.0684 17.2524 26.25 16.4599 26.25 15.6344C26.25 14.872 26.0931 14.1568 25.8119 13.5048H25.8205C25.6894 13.2094 25.5419 12.9305 25.3618 12.6678L25.3585 12.6627C24.7972 11.8043 24.5 10.7971 24.5 9.77357V9.75704C24.5 6.78538 22.0896 4.375 19.118 4.375C18.8207 4.375 18.5401 4.24293 18.375 3.99529C17.401 2.64151 15.7993 1.75 13.9998 1.75C12.2003 1.75 10.5989 2.64151 9.62482 3.99529C9.45971 4.22642 9.1791 4.375 8.88186 4.375C8.83549 4.375 8.78929 4.37559 8.74319 4.37676C5.83556 4.45037 3.49983 6.83175 3.49983 9.75704V9.77357C3.49983 10.7971 3.20266 11.8043 2.64134 12.6627L2.6376 12.6687C2.07866 13.5259 1.75 14.5309 1.75 15.6344C1.75 16.4764 1.94811 17.2524 2.2783 17.9623C2.39387 18.1934 2.39387 18.474 2.2783 18.7052C1.94811 19.3986 1.75 20.1745 1.75 21C1.75 23.9057 4.09433 26.25 7 26.25H21C23.9057 26.25 26.25 23.9057 26.25 21C26.25 20.1745 26.0519 19.3986 25.7217 18.7052C25.6062 18.474 25.6062 18.1934 25.7217 17.9623ZM5.72096 13.6027H5.70087L7.65638 17.4453C7.85753 22.0173 9.6418 17.4453 13.9998 17.4453C18.3578 17.4453 20.2583 22.5341 20.4595 17.9623L22.3125 12.7466C22.2249 10.7158 20.7532 10.5732 20.4595 10.5732H15.2064C13.1321 10.5732 11.1747 9.55797 10.0037 7.84353C9.80289 7.56057 9.38464 7.6105 9.25085 7.92676L9.11698 8.24301C8.74897 9.15845 8.04633 9.85757 7.17641 10.257C7.15131 10.2653 7.12204 10.2778 7.09277 10.2903C7.06349 10.3028 7.0342 10.3153 7.00912 10.3236C6.62434 10.5234 5.72096 11.1226 5.6875 12.6705L5.70423 13.1699L5.72096 13.6027Z" fill="url(#paint3_radial_0_66)"/>
<path id="Vector_5" fill-rule="evenodd" clip-rule="evenodd" d="M25.7217 17.9623C26.0684 17.2524 26.25 16.4599 26.25 15.6344C26.25 14.872 26.0931 14.1568 25.8119 13.5048H25.8205C25.6894 13.2094 25.5419 12.9305 25.3618 12.6678L25.3585 12.6627C24.7972 11.8043 24.5 10.7971 24.5 9.77357V9.75704C24.5 6.78538 22.0896 4.375 19.118 4.375C18.8207 4.375 18.5401 4.24293 18.375 3.99529C17.401 2.64151 15.7993 1.75 13.9998 1.75C12.2003 1.75 10.5989 2.64151 9.62482 3.99529C9.45971 4.22642 9.1791 4.375 8.88186 4.375C8.83549 4.375 8.78929 4.37559 8.74319 4.37676C5.83556 4.45037 3.49983 6.83175 3.49983 9.75704V9.77357C3.49983 10.7971 3.20266 11.8043 2.64134 12.6627L2.6376 12.6687C2.07866 13.5259 1.75 14.5309 1.75 15.6344C1.75 16.4764 1.94811 17.2524 2.2783 17.9623C2.39387 18.1934 2.39387 18.474 2.2783 18.7052C1.94811 19.3986 1.75 20.1745 1.75 21C1.75 23.9057 4.09433 26.25 7 26.25H21C23.9057 26.25 26.25 23.9057 26.25 21C26.25 20.1745 26.0519 19.3986 25.7217 18.7052C25.6062 18.474 25.6062 18.1934 25.7217 17.9623ZM5.72096 13.6027H5.70087L7.65638 17.4453C7.85753 22.0173 9.6418 17.4453 13.9998 17.4453C18.3578 17.4453 20.2583 22.5341 20.4595 17.9623L22.3125 12.7466C22.2249 10.7158 20.7532 10.5732 20.4595 10.5732H15.2064C13.1321 10.5732 11.1747 9.55797 10.0037 7.84353C9.80289 7.56057 9.38464 7.6105 9.25085 7.92676L9.11698 8.24301C8.74897 9.15845 8.04633 9.85757 7.17641 10.257C7.15131 10.2653 7.12204 10.2778 7.09277 10.2903C7.06349 10.3028 7.0342 10.3153 7.00912 10.3236C6.62434 10.5234 5.72096 11.1226 5.6875 12.6705L5.70423 13.1699L5.72096 13.6027Z" fill="url(#paint4_radial_0_66)"/>
<path id="Vector_6" fill-rule="evenodd" clip-rule="evenodd" d="M25.7217 17.9623C26.0684 17.2524 26.25 16.4599 26.25 15.6344C26.25 14.872 26.0931 14.1568 25.8119 13.5048H25.8205C25.6894 13.2094 25.5419 12.9305 25.3618 12.6678L25.3585 12.6627C24.7972 11.8043 24.5 10.7971 24.5 9.77357V9.75704C24.5 6.78538 22.0896 4.375 19.118 4.375C18.8207 4.375 18.5401 4.24293 18.375 3.99529C17.401 2.64151 15.7993 1.75 13.9998 1.75C12.2003 1.75 10.5989 2.64151 9.62482 3.99529C9.45971 4.22642 9.1791 4.375 8.88186 4.375C8.83549 4.375 8.78929 4.37559 8.74319 4.37676C5.83556 4.45037 3.49983 6.83175 3.49983 9.75704V9.77357C3.49983 10.7971 3.20266 11.8043 2.64134 12.6627L2.6376 12.6687C2.07866 13.5259 1.75 14.5309 1.75 15.6344C1.75 16.4764 1.94811 17.2524 2.2783 17.9623C2.39387 18.1934 2.39387 18.474 2.2783 18.7052C1.94811 19.3986 1.75 20.1745 1.75 21C1.75 23.9057 4.09433 26.25 7 26.25H21C23.9057 26.25 26.25 23.9057 26.25 21C26.25 20.1745 26.0519 19.3986 25.7217 18.7052C25.6062 18.474 25.6062 18.1934 25.7217 17.9623ZM5.72096 13.6027H5.70087L7.65638 17.4453C7.85753 22.0173 9.6418 17.4453 13.9998 17.4453C18.3578 17.4453 20.2583 22.5341 20.4595 17.9623L22.3125 12.7466C22.2249 10.7158 20.7532 10.5732 20.4595 10.5732H15.2064C13.1321 10.5732 11.1747 9.55797 10.0037 7.84353C9.80289 7.56057 9.38464 7.6105 9.25085 7.92676L9.11698 8.24301C8.74897 9.15845 8.04633 9.85757 7.17641 10.257C7.15131 10.2653 7.12204 10.2778 7.09277 10.2903C7.06349 10.3028 7.0342 10.3153 7.00912 10.3236C6.62434 10.5234 5.72096 11.1226 5.6875 12.6705L5.70423 13.1699L5.72096 13.6027Z" fill="url(#paint5_radial_0_66)"/>
<path id="Vector_7" fill-rule="evenodd" clip-rule="evenodd" d="M25.7217 17.9623C26.0684 17.2524 26.25 16.4599 26.25 15.6344C26.25 14.872 26.0931 14.1568 25.8119 13.5048H25.8205C25.6894 13.2094 25.5419 12.9305 25.3618 12.6678L25.3585 12.6627C24.7972 11.8043 24.5 10.7971 24.5 9.77357V9.75704C24.5 6.78538 22.0896 4.375 19.118 4.375C18.8207 4.375 18.5401 4.24293 18.375 3.99529C17.401 2.64151 15.7993 1.75 13.9998 1.75C12.2003 1.75 10.5989 2.64151 9.62482 3.99529C9.45971 4.22642 9.1791 4.375 8.88186 4.375C8.83549 4.375 8.78929 4.37559 8.74319 4.37676C5.83556 4.45037 3.49983 6.83175 3.49983 9.75704V9.77357C3.49983 10.7971 3.20266 11.8043 2.64134 12.6627L2.6376 12.6687C2.07866 13.5259 1.75 14.5309 1.75 15.6344C1.75 16.4764 1.94811 17.2524 2.2783 17.9623C2.39387 18.1934 2.39387 18.474 2.2783 18.7052C1.94811 19.3986 1.75 20.1745 1.75 21C1.75 23.9057 4.09433 26.25 7 26.25H21C23.9057 26.25 26.25 23.9057 26.25 21C26.25 20.1745 26.0519 19.3986 25.7217 18.7052C25.6062 18.474 25.6062 18.1934 25.7217 17.9623ZM5.72096 13.6027H5.70087L7.65638 17.4453C7.85753 22.0173 9.6418 17.4453 13.9998 17.4453C18.3578 17.4453 20.2583 22.5341 20.4595 17.9623L22.3125 12.7466C22.2249 10.7158 20.7532 10.5732 20.4595 10.5732H15.2064C13.1321 10.5732 11.1747 9.55797 10.0037 7.84353C9.80289 7.56057 9.38464 7.6105 9.25085 7.92676L9.11698 8.24301C8.74897 9.15845 8.04633 9.85757 7.17641 10.257C7.15131 10.2653 7.12204 10.2778 7.09277 10.2903C7.06349 10.3028 7.0342 10.3153 7.00912 10.3236C6.62434 10.5234 5.72096 11.1226 5.6875 12.6705L5.70423 13.1699L5.72096 13.6027Z" fill="url(#paint6_radial_0_66)"/>
<path id="Vector_8" fill-rule="evenodd" clip-rule="evenodd" d="M25.7217 17.9623C26.0684 17.2524 26.25 16.4599 26.25 15.6344C26.25 14.872 26.0931 14.1568 25.8119 13.5048H25.8205C25.6894 13.2094 25.5419 12.9305 25.3618 12.6678L25.3585 12.6627C24.7972 11.8043 24.5 10.7971 24.5 9.77357V9.75704C24.5 6.78538 22.0896 4.375 19.118 4.375C18.8207 4.375 18.5401 4.24293 18.375 3.99529C17.401 2.64151 15.7993 1.75 13.9998 1.75C12.2003 1.75 10.5989 2.64151 9.62482 3.99529C9.45971 4.22642 9.1791 4.375 8.88186 4.375C8.83549 4.375 8.78929 4.37559 8.74319 4.37676C5.83556 4.45037 3.49983 6.83175 3.49983 9.75704V9.77357C3.49983 10.7971 3.20266 11.8043 2.64134 12.6627L2.6376 12.6687C2.07866 13.5259 1.75 14.5309 1.75 15.6344C1.75 16.4764 1.94811 17.2524 2.2783 17.9623C2.39387 18.1934 2.39387 18.474 2.2783 18.7052C1.94811 19.3986 1.75 20.1745 1.75 21C1.75 23.9057 4.09433 26.25 7 26.25H21C23.9057 26.25 26.25 23.9057 26.25 21C26.25 20.1745 26.0519 19.3986 25.7217 18.7052C25.6062 18.474 25.6062 18.1934 25.7217 17.9623ZM5.72096 13.6027H5.70087L7.65638 17.4453C7.85753 22.0173 9.6418 17.4453 13.9998 17.4453C18.3578 17.4453 20.2583 22.5341 20.4595 17.9623L22.3125 12.7466C22.2249 10.7158 20.7532 10.5732 20.4595 10.5732H15.2064C13.1321 10.5732 11.1747 9.55797 10.0037 7.84353C9.80289 7.56057 9.38464 7.6105 9.25085 7.92676L9.11698 8.24301C8.74897 9.15845 8.04633 9.85757 7.17641 10.257C7.15131 10.2653 7.12204 10.2778 7.09277 10.2903C7.06349 10.3028 7.0342 10.3153 7.00912 10.3236C6.62434 10.5234 5.72096 11.1226 5.6875 12.6705L5.70423 13.1699L5.72096 13.6027Z" fill="url(#paint7_radial_0_66)"/>
<path id="Vector_9" fill-rule="evenodd" clip-rule="evenodd" d="M25.7217 17.9623C26.0684 17.2524 26.25 16.4599 26.25 15.6344C26.25 14.872 26.0931 14.1568 25.8119 13.5048H25.8205C25.6894 13.2094 25.5419 12.9305 25.3618 12.6678L25.3585 12.6627C24.7972 11.8043 24.5 10.7971 24.5 9.77357V9.75704C24.5 6.78538 22.0896 4.375 19.118 4.375C18.8207 4.375 18.5401 4.24293 18.375 3.99529C17.401 2.64151 15.7993 1.75 13.9998 1.75C12.2003 1.75 10.5989 2.64151 9.62482 3.99529C9.45971 4.22642 9.1791 4.375 8.88186 4.375C8.83549 4.375 8.78929 4.37559 8.74319 4.37676C5.83556 4.45037 3.49983 6.83175 3.49983 9.75704V9.77357C3.49983 10.7971 3.20266 11.8043 2.64134 12.6627L2.6376 12.6687C2.07866 13.5259 1.75 14.5309 1.75 15.6344C1.75 16.4764 1.94811 17.2524 2.2783 17.9623C2.39387 18.1934 2.39387 18.474 2.2783 18.7052C1.94811 19.3986 1.75 20.1745 1.75 21C1.75 23.9057 4.09433 26.25 7 26.25H21C23.9057 26.25 26.25 23.9057 26.25 21C26.25 20.1745 26.0519 19.3986 25.7217 18.7052C25.6062 18.474 25.6062 18.1934 25.7217 17.9623ZM5.72096 13.6027H5.70087L7.65638 17.4453C7.85753 22.0173 9.6418 17.4453 13.9998 17.4453C18.3578 17.4453 20.2583 22.5341 20.4595 17.9623L22.3125 12.7466C22.2249 10.7158 20.7532 10.5732 20.4595 10.5732H15.2064C13.1321 10.5732 11.1747 9.55797 10.0037 7.84353C9.80289 7.56057 9.38464 7.6105 9.25085 7.92676L9.11698 8.24301C8.74897 9.15845 8.04633 9.85757 7.17641 10.257C7.15131 10.2653 7.12204 10.2778 7.09277 10.2903C7.06349 10.3028 7.0342 10.3153 7.00912 10.3236C6.62434 10.5234 5.72096 11.1226 5.6875 12.6705L5.70423 13.1699L5.72096 13.6027Z" fill="url(#paint8_radial_0_66)"/>
<path id="Vector_10" fill-rule="evenodd" clip-rule="evenodd" d="M25.7217 17.9623C26.0684 17.2524 26.25 16.4599 26.25 15.6344C26.25 14.872 26.0931 14.1568 25.8119 13.5048H25.8205C25.6894 13.2094 25.5419 12.9305 25.3618 12.6678L25.3585 12.6627C24.7972 11.8043 24.5 10.7971 24.5 9.77357V9.75704C24.5 6.78538 22.0896 4.375 19.118 4.375C18.8207 4.375 18.5401 4.24293 18.375 3.99529C17.401 2.64151 15.7993 1.75 13.9998 1.75C12.2003 1.75 10.5989 2.64151 9.62482 3.99529C9.45971 4.22642 9.1791 4.375 8.88186 4.375C8.83549 4.375 8.78929 4.37559 8.74319 4.37676C5.83556 4.45037 3.49983 6.83175 3.49983 9.75704V9.77357C3.49983 10.7971 3.20266 11.8043 2.64134 12.6627L2.6376 12.6687C2.07866 13.5259 1.75 14.5309 1.75 15.6344C1.75 16.4764 1.94811 17.2524 2.2783 17.9623C2.39387 18.1934 2.39387 18.474 2.2783 18.7052C1.94811 19.3986 1.75 20.1745 1.75 21C1.75 23.9057 4.09433 26.25 7 26.25H21C23.9057 26.25 26.25 23.9057 26.25 21C26.25 20.1745 26.0519 19.3986 25.7217 18.7052C25.6062 18.474 25.6062 18.1934 25.7217 17.9623ZM5.72096 13.6027H5.70087L7.65638 17.4453C7.85753 22.0173 9.6418 17.4453 13.9998 17.4453C18.3578 17.4453 20.2583 22.5341 20.4595 17.9623L22.3125 12.7466C22.2249 10.7158 20.7532 10.5732 20.4595 10.5732H15.2064C13.1321 10.5732 11.1747 9.55797 10.0037 7.84353C9.80289 7.56057 9.38464 7.6105 9.25085 7.92676L9.11698 8.24301C8.74897 9.15845 8.04633 9.85757 7.17641 10.257C7.15131 10.2653 7.12204 10.2778 7.09277 10.2903C7.06349 10.3028 7.0342 10.3153 7.00912 10.3236C6.62434 10.5234 5.72096 11.1226 5.6875 12.6705L5.70423 13.1699L5.72096 13.6027Z" fill="url(#paint9_radial_0_66)"/>
<path id="Vector_11" fill-rule="evenodd" clip-rule="evenodd" d="M25.7217 17.9623C26.0684 17.2524 26.25 16.4599 26.25 15.6344C26.25 14.872 26.0931 14.1568 25.8119 13.5048H25.8205C25.6894 13.2094 25.5419 12.9305 25.3618 12.6678L25.3585 12.6627C24.7972 11.8043 24.5 10.7971 24.5 9.77357V9.75704C24.5 6.78538 22.0896 4.375 19.118 4.375C18.8207 4.375 18.5401 4.24293 18.375 3.99529C17.401 2.64151 15.7993 1.75 13.9998 1.75C12.2003 1.75 10.5989 2.64151 9.62482 3.99529C9.45971 4.22642 9.1791 4.375 8.88186 4.375C8.83549 4.375 8.78929 4.37559 8.74319 4.37676C5.83556 4.45037 3.49983 6.83175 3.49983 9.75704V9.77357C3.49983 10.7971 3.20266 11.8043 2.64134 12.6627L2.6376 12.6687C2.07866 13.5259 1.75 14.5309 1.75 15.6344C1.75 16.4764 1.94811 17.2524 2.2783 17.9623C2.39387 18.1934 2.39387 18.474 2.2783 18.7052C1.94811 19.3986 1.75 20.1745 1.75 21C1.75 23.9057 4.09433 26.25 7 26.25H21C23.9057 26.25 26.25 23.9057 26.25 21C26.25 20.1745 26.0519 19.3986 25.7217 18.7052C25.6062 18.474 25.6062 18.1934 25.7217 17.9623ZM5.72096 13.6027H5.70087L7.65638 17.4453C7.85753 22.0173 9.6418 17.4453 13.9998 17.4453C18.3578 17.4453 20.2583 22.5341 20.4595 17.9623L22.3125 12.7466C22.2249 10.7158 20.7532 10.5732 20.4595 10.5732H15.2064C13.1321 10.5732 11.1747 9.55797 10.0037 7.84353C9.80289 7.56057 9.38464 7.6105 9.25085 7.92676L9.11698 8.24301C8.74897 9.15845 8.04633 9.85757 7.17641 10.257C7.15131 10.2653 7.12204 10.2778 7.09277 10.2903C7.06349 10.3028 7.0342 10.3153 7.00912 10.3236C6.62434 10.5234 5.72096 11.1226 5.6875 12.6705L5.70423 13.1699L5.72096 13.6027Z" fill="url(#paint10_radial_0_66)"/>
</g>
<g id="Group_2" filter="url(#filter1_i_0_66)">
<path id="Vector_12" d="M6.35603 18.2875C7.80578 18.2875 8.981 17.1122 8.981 15.6625C8.981 14.2127 7.80578 13.0375 6.35603 13.0375C4.90628 13.0375 3.73103 14.2127 3.73103 15.6625C3.73103 17.1122 4.90628 18.2875 6.35603 18.2875Z" fill="url(#paint11_linear_0_66)"/>
</g>
<g id="Group_3" filter="url(#filter2_i_0_66)">
<path id="Vector_13" d="M21.875 18.2875C23.3248 18.2875 24.5 17.1122 24.5 15.6625C24.5 14.2127 23.3248 13.0375 21.875 13.0375C20.4252 13.0375 19.25 14.2127 19.25 15.6625C19.25 17.1122 20.4252 18.2875 21.875 18.2875Z" fill="url(#paint12_radial_0_66)"/>
<path id="Vector_14" d="M21.875 18.2875C23.3248 18.2875 24.5 17.1122 24.5 15.6625C24.5 14.2127 23.3248 13.0375 21.875 13.0375C20.4252 13.0375 19.25 14.2127 19.25 15.6625C19.25 17.1122 20.4252 18.2875 21.875 18.2875Z" fill="url(#paint13_radial_0_66)"/>
</g>
<g id="Group_4" filter="url(#filter3_f_0_66)">
<path id="Vector_15" d="M21.875 17.4148C22.8428 17.4148 23.6273 16.6303 23.6273 15.6626C23.6273 14.6948 22.8428 13.9103 21.875 13.9103C20.9073 13.9103 20.1228 14.6948 20.1228 15.6626C20.1228 16.6303 20.9073 17.4148 21.875 17.4148Z" fill="var(--fill-0, #F6BCA5)"/>
<path id="Vector_16" d="M21.875 17.4148C22.8428 17.4148 23.6273 16.6303 23.6273 15.6626C23.6273 14.6948 22.8428 13.9103 21.875 13.9103C20.9073 13.9103 20.1228 14.6948 20.1228 15.6626C20.1228 16.6303 20.9073 17.4148 21.875 17.4148Z" fill="url(#paint14_radial_0_66)"/>
</g>
<g id="Group_5" filter="url(#filter4_f_0_66)">
<path id="Vector_17" d="M6.38746 17.4148C7.35521 17.4148 8.13972 16.6303 8.13972 15.6626C8.13972 14.6948 7.35521 13.9103 6.38746 13.9103C5.41971 13.9103 4.63519 14.6948 4.63519 15.6626C4.63519 16.6303 5.41971 17.4148 6.38746 17.4148Z" fill="var(--fill-0, #C58C80)"/>
<path id="Vector_18" d="M6.38746 17.4148C7.35521 17.4148 8.13972 16.6303 8.13972 15.6626C8.13972 14.6948 7.35521 13.9103 6.38746 13.9103C5.41971 13.9103 4.63519 14.6948 4.63519 15.6626C4.63519 16.6303 5.41971 17.4148 6.38746 17.4148Z" fill="url(#paint15_radial_0_66)"/>
</g>
<g id="Group_6" filter="url(#filter5_i_0_66)">
<path id="Vector_19" d="M5.70087 13.6026H5.72096L5.70423 13.1698L5.6875 12.6705C5.72096 11.1225 6.62434 10.5233 7.00912 10.3236C7.03421 10.3152 7.06349 10.3027 7.09277 10.2903C7.12204 10.2778 7.15131 10.2653 7.17641 10.257C8.04633 9.85754 8.74897 9.15841 9.11698 8.24297L9.25085 7.92672C9.38464 7.61047 9.80289 7.56053 10.0037 7.8435C11.1747 9.55794 13.1321 10.5732 15.2064 10.5732H20.4595C20.7532 10.5732 22.2249 10.7157 22.3125 12.7465L22.1188 17.7597C21.9176 22.3317 18.3473 25.4016 13.9893 25.4016C9.63121 25.4016 6.06098 22.3317 5.85983 17.7597L5.70087 13.6026Z" fill="url(#paint16_radial_0_66)"/>
<path id="Vector_20" d="M5.70087 13.6026H5.72096L5.70423 13.1698L5.6875 12.6705C5.72096 11.1225 6.62434 10.5233 7.00912 10.3236C7.03421 10.3152 7.06349 10.3027 7.09277 10.2903C7.12204 10.2778 7.15131 10.2653 7.17641 10.257C8.04633 9.85754 8.74897 9.15841 9.11698 8.24297L9.25085 7.92672C9.38464 7.61047 9.80289 7.56053 10.0037 7.8435C11.1747 9.55794 13.1321 10.5732 15.2064 10.5732H20.4595C20.7532 10.5732 22.2249 10.7157 22.3125 12.7465L22.1188 17.7597C21.9176 22.3317 18.3473 25.4016 13.9893 25.4016C9.63121 25.4016 6.06098 22.3317 5.85983 17.7597L5.70087 13.6026Z" fill="url(#paint17_radial_0_66)"/>
<path id="Vector_21" d="M5.70087 13.6026H5.72096L5.70423 13.1698L5.6875 12.6705C5.72096 11.1225 6.62434 10.5233 7.00912 10.3236C7.03421 10.3152 7.06349 10.3027 7.09277 10.2903C7.12204 10.2778 7.15131 10.2653 7.17641 10.257C8.04633 9.85754 8.74897 9.15841 9.11698 8.24297L9.25085 7.92672C9.38464 7.61047 9.80289 7.56053 10.0037 7.8435C11.1747 9.55794 13.1321 10.5732 15.2064 10.5732H20.4595C20.7532 10.5732 22.2249 10.7157 22.3125 12.7465L22.1188 17.7597C21.9176 22.3317 18.3473 25.4016 13.9893 25.4016C9.63121 25.4016 6.06098 22.3317 5.85983 17.7597L5.70087 13.6026Z" fill="url(#paint18_radial_0_66)"/>
<path id="Vector_22" d="M5.70087 13.6026H5.72096L5.70423 13.1698L5.6875 12.6705C5.72096 11.1225 6.62434 10.5233 7.00912 10.3236C7.03421 10.3152 7.06349 10.3027 7.09277 10.2903C7.12204 10.2778 7.15131 10.2653 7.17641 10.257C8.04633 9.85754 8.74897 9.15841 9.11698 8.24297L9.25085 7.92672C9.38464 7.61047 9.80289 7.56053 10.0037 7.8435C11.1747 9.55794 13.1321 10.5732 15.2064 10.5732H20.4595C20.7532 10.5732 22.2249 10.7157 22.3125 12.7465L22.1188 17.7597C21.9176 22.3317 18.3473 25.4016 13.9893 25.4016C9.63121 25.4016 6.06098 22.3317 5.85983 17.7597L5.70087 13.6026Z" fill="url(#paint19_radial_0_66)"/>
<path id="Vector_23" d="M5.70087 13.6026H5.72096L5.70423 13.1698L5.6875 12.6705C5.72096 11.1225 6.62434 10.5233 7.00912 10.3236C7.03421 10.3152 7.06349 10.3027 7.09277 10.2903C7.12204 10.2778 7.15131 10.2653 7.17641 10.257C8.04633 9.85754 8.74897 9.15841 9.11698 8.24297L9.25085 7.92672C9.38464 7.61047 9.80289 7.56053 10.0037 7.8435C11.1747 9.55794 13.1321 10.5732 15.2064 10.5732H20.4595C20.7532 10.5732 22.2249 10.7157 22.3125 12.7465L22.1188 17.7597C21.9176 22.3317 18.3473 25.4016 13.9893 25.4016C9.63121 25.4016 6.06098 22.3317 5.85983 17.7597L5.70087 13.6026Z" fill="url(#paint20_radial_0_66)"/>
<path id="Vector_24" d="M5.70087 13.6026H5.72096L5.70423 13.1698L5.6875 12.6705C5.72096 11.1225 6.62434 10.5233 7.00912 10.3236C7.03421 10.3152 7.06349 10.3027 7.09277 10.2903C7.12204 10.2778 7.15131 10.2653 7.17641 10.257C8.04633 9.85754 8.74897 9.15841 9.11698 8.24297L9.25085 7.92672C9.38464 7.61047 9.80289 7.56053 10.0037 7.8435C11.1747 9.55794 13.1321 10.5732 15.2064 10.5732H20.4595C20.7532 10.5732 22.2249 10.7157 22.3125 12.7465L22.1188 17.7597C21.9176 22.3317 18.3473 25.4016 13.9893 25.4016C9.63121 25.4016 6.06098 22.3317 5.85983 17.7597L5.70087 13.6026Z" fill="url(#paint21_radial_0_66)"/>
<path id="Vector_25" d="M5.70087 13.6026H5.72096L5.70423 13.1698L5.6875 12.6705C5.72096 11.1225 6.62434 10.5233 7.00912 10.3236C7.03421 10.3152 7.06349 10.3027 7.09277 10.2903C7.12204 10.2778 7.15131 10.2653 7.17641 10.257C8.04633 9.85754 8.74897 9.15841 9.11698 8.24297L9.25085 7.92672C9.38464 7.61047 9.80289 7.56053 10.0037 7.8435C11.1747 9.55794 13.1321 10.5732 15.2064 10.5732H20.4595C20.7532 10.5732 22.2249 10.7157 22.3125 12.7465L22.1188 17.7597C21.9176 22.3317 18.3473 25.4016 13.9893 25.4016C9.63121 25.4016 6.06098 22.3317 5.85983 17.7597L5.70087 13.6026Z" fill="url(#paint22_radial_0_66)"/>
</g>
<path id="Vector_26" d="M5.70087 13.6026H5.72096L5.70423 13.1698L5.6875 12.6705C5.72096 11.1225 6.62434 10.5233 7.00912 10.3236C7.03421 10.3152 7.06349 10.3027 7.09277 10.2903C7.12204 10.2778 7.15131 10.2653 7.17641 10.257C8.04633 9.85754 8.74897 9.15841 9.11698 8.24297L9.25085 7.92672C9.38464 7.61047 9.80289 7.56053 10.0037 7.8435C11.1747 9.55794 13.1321 10.5732 15.2064 10.5732H20.4595C20.7532 10.5732 22.2249 10.7157 22.3125 12.7465L22.1188 17.7597C21.9176 22.3317 18.3473 25.4016 13.9893 25.4016C9.63121 25.4016 6.06098 22.3317 5.85983 17.7597L5.70087 13.6026Z" fill="url(#paint23_radial_0_66)"/>
<g id="Group_7" filter="url(#filter6_f_0_66)">
<path id="Vector_27" d="M13.3596 15.2991L12.2445 18.0724C12.0675 18.6429 12.4922 19.2134 13.0937 19.2134H14.3766C14.9782 19.2134 15.4029 18.6342 15.2259 18.0724L14.3589 15.2991C14.1731 14.6848 13.5542 14.6848 13.3596 15.2991Z" fill="var(--fill-0, #D19590)"/>
</g>
<g id="Group_8" filter="url(#filter7_f_0_66)">
<path id="Vector_28" d="M13.3763 15.0733L12.5092 17.8466C12.3323 18.417 12.757 18.9875 13.3585 18.9875H14.6414C15.243 18.9875 15.6676 18.4083 15.4907 17.8466L14.6237 15.0733C14.4379 14.459 13.5709 14.459 13.3763 15.0733Z" fill="var(--fill-0, #F1C4B2)"/>
<path id="Vector_29" d="M13.3763 15.0733L12.5092 17.8466C12.3323 18.417 12.757 18.9875 13.3585 18.9875H14.6414C15.243 18.9875 15.6676 18.4083 15.4907 17.8466L14.6237 15.0733C14.4379 14.459 13.5709 14.459 13.3763 15.0733Z" fill="url(#paint24_radial_0_66)"/>
<path id="Vector_30" d="M13.3763 15.0733L12.5092 17.8466C12.3323 18.417 12.757 18.9875 13.3585 18.9875H14.6414C15.243 18.9875 15.6676 18.4083 15.4907 17.8466L14.6237 15.0733C14.4379 14.459 13.5709 14.459 13.3763 15.0733Z" fill="url(#paint25_linear_0_66)"/>
<path id="Vector_31" d="M13.3763 15.0733L12.5092 17.8466C12.3323 18.417 12.757 18.9875 13.3585 18.9875H14.6414C15.243 18.9875 15.6676 18.4083 15.4907 17.8466L14.6237 15.0733C14.4379 14.459 13.5709 14.459 13.3763 15.0733Z" fill="url(#paint26_linear_0_66)"/>
<path id="Vector_32" d="M13.3763 15.0733L12.5092 17.8466C12.3323 18.417 12.757 18.9875 13.3585 18.9875H14.6414C15.243 18.9875 15.6676 18.4083 15.4907 17.8466L14.6237 15.0733C14.4379 14.459 13.5709 14.459 13.3763 15.0733Z" fill="url(#paint27_radial_0_66)"/>
</g>
<path id="Vector_33" d="M13.3763 15.0733L12.5092 17.8466C12.3323 18.417 12.757 18.9875 13.3585 18.9875H14.6414C15.243 18.9875 15.6676 18.4083 15.4907 17.8466L14.6237 15.0733C14.4379 14.459 13.5709 14.459 13.3763 15.0733Z" fill="url(#paint28_linear_0_66)"/>
<path id="Vector_34" d="M13.3763 15.0733L12.5092 17.8466C12.3323 18.417 12.757 18.9875 13.3585 18.9875H14.6414C15.243 18.9875 15.6676 18.4083 15.4907 17.8466L14.6237 15.0733C14.4379 14.459 13.5709 14.459 13.3763 15.0733Z" fill="url(#paint29_radial_0_66)"/>
<path id="Vector_35" d="M11.7014 19.8114C11.5668 19.7414 11.4266 19.7845 11.3429 19.8745C11.2592 19.9647 11.2279 20.1061 11.313 20.232C11.8814 21.1127 12.8717 21.7 13.9999 21.7C15.1283 21.7 16.1188 21.1126 16.6871 20.2316C16.7714 20.1021 16.7412 19.9608 16.6568 19.8711C16.5727 19.7818 16.4329 19.7415 16.2989 19.8112C15.6344 20.1656 14.851 20.3686 13.9999 20.3686C13.1574 20.3686 12.366 20.1657 11.7014 19.8114Z" fill="var(--fill-0, #88024E)" stroke="url(#paint30_linear_0_66)" stroke-width="0.0875"/>
<g id="Group_9" filter="url(#filter8_i_0_66)">
<path id="Vector_36" d="M15.8631 14.7341C16.2962 13.9726 16.9543 13.3711 18.3711 13.3711C18.9914 13.3711 19.5896 13.5429 20.1213 13.9726C20.5598 14.3269 20.5011 14.7804 20.1615 14.9502L19.2544 15.4681C18.191 15.1243 17.0151 15.0778 15.8631 14.7341Z" fill="var(--fill-0, #2D2B2E)"/>
</g>
<g id="Group_10" filter="url(#filter9_i_0_66)">
<path id="Vector_37" d="M12.1372 14.7341C11.7042 13.9726 11.0459 13.3711 9.62914 13.3711C9.00885 13.3711 8.4107 13.5429 7.87902 13.9726C7.44047 14.3269 7.4992 14.7804 7.83881 14.9502L8.74592 15.4681C9.8093 15.1243 10.9851 15.0778 12.1372 14.7341Z" fill="var(--fill-0, #272528)"/>
</g>
<g id="Group_11" filter="url(#filter10_i_0_66)">
<path id="Vector_38" d="M8.45727 12.7622L8.45011 12.7663C8.45034 12.7662 8.44988 12.7664 8.45011 12.7663C8.24304 12.8899 7.97401 12.8231 7.84987 12.6162C7.72555 12.409 7.79299 12.1401 8.00018 12.0158L8.00112 12.0153L8.0028 12.0142L8.00762 12.0114L8.02297 12.0025C8.03572 11.9952 8.05346 11.9852 8.07589 11.9731C8.12075 11.9488 8.18457 11.9156 8.2651 11.8772C8.42585 11.8006 8.65498 11.7024 8.93419 11.6134C9.48868 11.4364 10.264 11.2875 11.101 11.4352C11.339 11.4772 11.4979 11.7042 11.4559 11.9421C11.4139 12.1801 11.187 12.3389 10.949 12.2969C10.2985 12.1821 9.67391 12.2958 9.20019 12.447C8.96543 12.5219 8.77345 12.6042 8.64158 12.6671C8.57582 12.6985 8.52548 12.7247 8.49275 12.7425C8.4764 12.7513 8.46448 12.758 8.45727 12.7622Z" fill="var(--fill-0, #1E1E1E)"/>
</g>
<g id="Group_12" filter="url(#filter11_i_0_66)">
<path id="Vector_39" fill-rule="evenodd" clip-rule="evenodd" d="M20.0874 12.0158C20.0874 12.0158 20.0876 12.016 19.8626 12.3911L20.0874 12.0158C20.2946 12.1401 20.362 12.409 20.2377 12.6162C20.1135 12.8231 19.8454 12.8903 19.6383 12.7668L19.6375 12.7663L19.6304 12.7622C19.6231 12.758 19.6112 12.7513 19.5948 12.7425C19.5621 12.7247 19.5118 12.6985 19.446 12.6671C19.3142 12.6042 19.1222 12.5219 18.8874 12.447C18.4137 12.2958 17.7891 12.1821 17.1386 12.2969C16.9006 12.3389 16.6737 12.1801 16.6317 11.9421C16.5897 11.7042 16.7486 11.4772 16.9865 11.4352C17.8236 11.2875 18.5989 11.4364 19.1534 11.6134C19.4326 11.7024 19.6618 11.8006 19.8225 11.8772C19.903 11.9156 19.9669 11.9488 20.0117 11.9731C20.0342 11.9852 20.0518 11.9952 20.0646 12.0025L20.0799 12.0114L20.0847 12.0142L20.0865 12.0153L20.0874 12.0158Z" fill="var(--fill-0, #1E1E1E)"/>
</g>
<path id="Vector_40" d="M17.9005 13.4669C18.9659 13.4669 19.866 14.2015 20.1108 15.1942C20.1836 15.4787 19.9653 15.75 19.6741 15.75H16.0343C15.8026 15.75 15.6174 15.5383 15.6637 15.3067C15.8689 14.2611 16.7887 13.4669 17.9005 13.4669Z" fill="var(--fill-0, white)"/>
<path id="Vector_41" d="M17.563 13.9103C18.3704 13.9103 19.0189 14.5655 19.0189 15.3662C19.0189 15.4986 18.9991 15.631 18.966 15.7501H16.1535C16.1204 15.6243 16.1006 15.4986 16.1006 15.3662C16.1006 14.5655 16.7557 13.9103 17.563 13.9103Z" fill="url(#paint31_radial_0_66)"/>
<path id="Vector_42" d="M16.7291 15.3661C16.7291 14.9029 17.0998 14.5323 17.563 14.5323C18.0262 14.5323 18.3969 14.9029 18.3969 15.3661C18.3969 15.5051 18.3637 15.6375 18.3042 15.75H16.8285C16.7623 15.6375 16.7291 15.5051 16.7291 15.3661Z" fill="var(--fill-0, black)"/>
<g id="Group_13" filter="url(#filter12_f_0_66)">
<path id="Vector_43" d="M17.4559 14.2181C17.5596 14.3567 17.3429 14.5259 17.0963 14.7102C16.8498 14.8945 16.6669 15.0242 16.5631 14.8855C16.4594 14.7467 16.5752 14.4849 16.8217 14.3006C17.0683 14.1163 17.3522 14.0793 17.4559 14.2181Z" fill="var(--fill-0, #C7A7A3)"/>
<path id="Vector_44" d="M17.4559 14.2181C17.5596 14.3567 17.3429 14.5259 17.0963 14.7102C16.8498 14.8945 16.6669 15.0242 16.5631 14.8855C16.4594 14.7467 16.5752 14.4849 16.8217 14.3006C17.0683 14.1163 17.3522 14.0793 17.4559 14.2181Z" fill="url(#paint32_radial_0_66)"/>
</g>
<g id="Group_14" filter="url(#filter13_f_0_66)">
<path id="Vector_45" d="M18.8598 15.1744C18.806 14.7981 18.5858 14.5144 18.4824 14.4197L18.0584 14.8849L18.2498 15.2572L18.8598 15.1744Z" fill="url(#paint33_linear_0_66)"/>
</g>
<path id="Vector_46" d="M10.0994 13.4669C9.03403 13.4669 8.13397 14.2015 7.88911 15.1942C7.81632 15.4787 8.0347 15.75 8.32588 15.75H11.9656C12.1973 15.75 12.3826 15.5383 12.3363 15.3067C12.1311 14.2611 11.2046 13.4669 10.0994 13.4669Z" fill="var(--fill-0, white)"/>
<path id="Vector_47" d="M10.4369 13.9103C9.62958 13.9103 8.98103 14.5655 8.98103 15.3662C8.98103 15.4986 9.0009 15.6309 9.03397 15.7501H11.8466C11.8796 15.6243 11.8995 15.4986 11.8995 15.3662C11.8929 14.5655 11.2443 13.9103 10.4369 13.9103Z" fill="url(#paint34_radial_0_66)"/>
<path id="Vector_48" d="M11.2707 15.3661C11.2707 14.9029 10.9001 14.5323 10.4369 14.5323C9.97365 14.5323 9.603 14.9029 9.603 15.3661C9.603 15.5052 9.63616 15.6375 9.69566 15.75H11.1714C11.231 15.6375 11.2707 15.5052 11.2707 15.3661Z" fill="var(--fill-0, black)"/>
<g id="Group_15" filter="url(#filter14_f_0_66)">
<path id="Vector_49" d="M11.767 15.1952C11.767 14.7247 11.3844 14.411 11.281 14.3163L10.8105 14.7712L11.1 15.3606L11.767 15.1952Z" fill="url(#paint35_linear_0_66)"/>
</g>
<g id="Group_16" filter="url(#filter15_f_0_66)">
<path id="Vector_50" d="M10.1485 14.8166C10.4585 14.6523 10.6424 14.3918 10.5591 14.2346C10.4758 14.0775 10.157 14.0833 9.84701 14.2475C9.537 14.4117 9.35316 14.6723 9.43642 14.8294C9.51967 14.9866 9.83848 14.9808 10.1485 14.8166Z" fill="var(--fill-0, #C7A7A3)" fill-opacity="0.9"/>
<path id="Vector_51" d="M10.1485 14.8166C10.4585 14.6523 10.6424 14.3918 10.5591 14.2346C10.4758 14.0775 10.157 14.0833 9.84701 14.2475C9.537 14.4117 9.35316 14.6723 9.43642 14.8294C9.51967 14.9866 9.83848 14.9808 10.1485 14.8166Z" fill="url(#paint36_radial_0_66)"/>
</g>
<g id="Group_17" filter="url(#filter16_f_0_66)">
<path id="Vector_52" d="M17.1641 11.7918C17.6902 11.6638 18.9987 11.7279 19.8733 12.3536" stroke="var(--stroke-0, #323233)" stroke-width="0.35" stroke-linecap="round"/>
</g>
<g id="Group_18" filter="url(#filter17_f_0_66)">
<path id="Vector_53" d="M10.9797 11.7918C10.4535 11.6638 9.14507 11.7279 8.27042 12.3536" stroke="var(--stroke-0, #323233)" stroke-width="0.35" stroke-linecap="round"/>
</g>
<g id="Group_19" filter="url(#filter18_if_0_66)">
<path id="Vector_54" d="M5.73041 5.89339C6.65328 4.91582 8.39976 4.91427 9.20667 5.0601L9.85215 7.16556C9.43977 7.10177 9.07218 7.2476 8.76287 7.54839C8.0313 9.6046 5.51744 10.7385 4.35195 11.0484C4.10989 8.61479 4.52941 7.16556 5.73041 5.89339Z" fill="var(--fill-0, #232121)"/>
<path id="Vector_55" d="M5.73041 5.89339C6.65328 4.91582 8.39976 4.91427 9.20667 5.0601L9.85215 7.16556C9.43977 7.10177 9.07218 7.2476 8.76287 7.54839C8.0313 9.6046 5.51744 10.7385 4.35195 11.0484C4.10989 8.61479 4.52941 7.16556 5.73041 5.89339Z" fill="url(#paint37_radial_0_66)"/>
</g>
<g id="Group_20" filter="url(#filter19_if_0_66)">
<path id="Vector_56" d="M13.0158 2.95319C11.168 2.54524 9.50883 4.38874 9.31738 5.07234C11.0333 10.8556 15.3747 10.5387 19.6603 10.0625C22.2258 9.77755 22.5041 10.9467 22.7228 11.5118C22.7228 5.09612 17.2673 3.89174 13.0625 2.96351L13.0158 2.95319Z" fill="var(--fill-0, #2A2A2A)"/>
<path id="Vector_57" d="M13.0158 2.95319C11.168 2.54524 9.50883 4.38874 9.31738 5.07234C11.0333 10.8556 15.3747 10.5387 19.6603 10.0625C22.2258 9.77755 22.5041 10.9467 22.7228 11.5118C22.7228 5.09612 17.2673 3.89174 13.0625 2.96351L13.0158 2.95319Z" fill="url(#paint38_radial_0_66)"/>
<path id="Vector_58" d="M13.0158 2.95319C11.168 2.54524 9.50883 4.38874 9.31738 5.07234C11.0333 10.8556 15.3747 10.5387 19.6603 10.0625C22.2258 9.77755 22.5041 10.9467 22.7228 11.5118C22.7228 5.09612 17.2673 3.89174 13.0625 2.96351L13.0158 2.95319Z" fill="url(#paint39_radial_0_66)"/>
</g>
<g id="Group_21" filter="url(#filter20_f_0_66)">
<path id="Vector_59" d="M9.28331 4.99023C9.32128 5.38671 9.66612 6.87695 10.172 7.7793" stroke="url(#paint40_linear_0_66)" stroke-width="0.175" stroke-linecap="round"/>
</g>
<g id="Group_22" filter="url(#filter21_f_0_66)">
<path id="Vector_60" d="M18.2957 8.77383L15.6002 9.26969C14.9105 9.39657 14.2745 8.86693 14.2745 8.16556C14.2745 7.54556 14.7764 7.04294 15.3963 7.04294H19.215C21.4735 7.04294 22.221 9.31904 22.3125 10.0968L22.0344 9.84343C21.0238 8.92214 19.6406 8.52646 18.2957 8.77383Z" fill="var(--fill-0, #4B4648)"/>
</g>
</g>
<defs>
<filter id="filter0_i_0_66" x="1.75" y="1.09375" width="24.7188" height="25.1562" filterUnits="userSpaceOnUse" color-interpolation-filters="sRGB">
<feFlood flood-opacity="0" result="BackgroundImageFix"/>
<feBlend mode="normal" in="SourceGraphic" in2="BackgroundImageFix" result="shape"/>
<feColorMatrix in="SourceAlpha" type="matrix" values="0 0 0 0 0 0 0 0 0 0 0 0 0 0 0 0 0 0 127 0" result="hardAlpha"/>
<feOffset dx="0.21875" dy="-0.65625"/>
<feGaussianBlur stdDeviation="0.65625"/>
<feComposite in2="hardAlpha" operator="arithmetic" k2="-1" k3="1"/>
<feColorMatrix type="matrix" values="0 0 0 0 0.121569 0 0 0 0 0.0705882 0 0 0 0 0.164706 0 0 0 1 0"/>
<feBlend mode="normal" in2="shape" result="effect1_innerShadow_0_66"/>
</filter>
<filter id="filter1_i_0_66" x="3.73103" y="13.0375" width="5.38121" height="5.25" filterUnits="userSpaceOnUse" color-interpolation-filters="sRGB">
<feFlood flood-opacity="0" result="BackgroundImageFix"/>
<feBlend mode="normal" in="SourceGraphic" in2="BackgroundImageFix" result="shape"/>
<feColorMatrix in="SourceAlpha" type="matrix" values="0 0 0 0 0 0 0 0 0 0 0 0 0 0 0 0 0 0 127 0" result="hardAlpha"/>
<feOffset dx="0.13125"/>
<feGaussianBlur stdDeviation="0.21875"/>
<feComposite in2="hardAlpha" operator="arithmetic" k2="-1" k3="1"/>
<feColorMatrix type="matrix" values="0 0 0 0 0.894118 0 0 0 0 0.682353 0 0 0 0 0.6 0 0 0 1 0"/>
<feBlend mode="normal" in2="shape" result="effect1_innerShadow_0_66"/>
</filter>
<filter id="filter2_i_0_66" x="19.25" y="12.8188" width="5.25" height="5.46875" filterUnits="userSpaceOnUse" color-interpolation-filters="sRGB">
<feFlood flood-opacity="0" result="BackgroundImageFix"/>
<feBlend mode="normal" in="SourceGraphic" in2="BackgroundImageFix" result="shape"/>
<feColorMatrix in="SourceAlpha" type="matrix" values="0 0 0 0 0 0 0 0 0 0 0 0 0 0 0 0 0 0 127 0" result="hardAlpha"/>
<feOffset dy="-0.21875"/>
<feGaussianBlur stdDeviation="0.21875"/>
<feComposite in2="hardAlpha" operator="arithmetic" k2="-1" k3="1"/>
<feColorMatrix type="matrix" values="0 0 0 0 0.784314 0 0 0 0 0.572549 0 0 0 0 0.513726 0 0 0 1 0"/>
<feBlend mode="normal" in2="shape" result="effect1_innerShadow_0_66"/>
</filter>
<filter id="filter3_f_0_66" x="19.6853" y="13.4728" width="4.37955" height="4.37955" filterUnits="userSpaceOnUse" color-interpolation-filters="sRGB">
<feFlood flood-opacity="0" result="BackgroundImageFix"/>
<feBlend mode="normal" in="SourceGraphic" in2="BackgroundImageFix" result="shape"/>
<feGaussianBlur stdDeviation="0.21875" result="effect1_foregroundBlur_0_66"/>
</filter>
<filter id="filter4_f_0_66" x="4.28519" y="13.5603" width="4.20452" height="4.20455" filterUnits="userSpaceOnUse" color-interpolation-filters="sRGB">
<feFlood flood-opacity="0" result="BackgroundImageFix"/>
<feBlend mode="normal" in="SourceGraphic" in2="BackgroundImageFix" result="shape"/>
<feGaussianBlur stdDeviation="0.175" result="effect1_foregroundBlur_0_66"/>
</filter>
<filter id="filter5_i_0_66" x="5.6875" y="7.65764" width="16.625" height="18.094" filterUnits="userSpaceOnUse" color-interpolation-filters="sRGB">
<feFlood flood-opacity="0" result="BackgroundImageFix"/>
<feBlend mode="normal" in="SourceGraphic" in2="BackgroundImageFix" result="shape"/>
<feColorMatrix in="SourceAlpha" type="matrix" values="0 0 0 0 0 0 0 0 0 0 0 0 0 0 0 0 0 0 127 0" result="hardAlpha"/>
<feOffset dy="0.35"/>
<feGaussianBlur stdDeviation="0.2625"/>
<feComposite in2="hardAlpha" operator="arithmetic" k2="-1" k3="1"/>
<feColorMatrix type="matrix" values="0 0 0 0 0.807843 0 0 0 0 0.592157 0 0 0 0 0.52549 0 0 0 1 0"/>
<feBlend mode="normal" in2="shape" result="effect1_innerShadow_0_66"/>
</filter>
<filter id="filter6_f_0_66" x="11.7665" y="14.4009" width="3.93746" height="5.25007" filterUnits="userSpaceOnUse" color-interpolation-filters="sRGB">
<feFlood flood-opacity="0" result="BackgroundImageFix"/>
<feBlend mode="normal" in="SourceGraphic" in2="BackgroundImageFix" result="shape"/>
<feGaussianBlur stdDeviation="0.21875" result="effect1_foregroundBlur_0_66"/>
</filter>
<filter id="filter7_f_0_66" x="12.25" y="14.3938" width="3.49996" height="4.81248" filterUnits="userSpaceOnUse" color-interpolation-filters="sRGB">
<feFlood flood-opacity="0" result="BackgroundImageFix"/>
<feBlend mode="normal" in="SourceGraphic" in2="BackgroundImageFix" result="shape"/>
<feGaussianBlur stdDeviation="0.109375" result="effect1_foregroundBlur_0_66"/>
</filter>
<filter id="filter8_i_0_66" x="15.6881" y="13.3711" width="4.74508" height="2.09703" filterUnits="userSpaceOnUse" color-interpolation-filters="sRGB">
<feFlood flood-opacity="0" result="BackgroundImageFix"/>
<feBlend mode="normal" in="SourceGraphic" in2="BackgroundImageFix" result="shape"/>
<feColorMatrix in="SourceAlpha" type="matrix" values="0 0 0 0 0 0 0 0 0 0 0 0 0 0 0 0 0 0 127 0" result="hardAlpha"/>
<feOffset dx="-0.175"/>
<feGaussianBlur stdDeviation="0.175"/>
<feComposite in2="hardAlpha" operator="arithmetic" k2="-1" k3="1"/>
<feColorMatrix type="matrix" values="0 0 0 0 0.0941176 0 0 0 0 0.0666667 0 0 0 0 0.117647 0 0 0 1 0"/>
<feBlend mode="normal" in2="shape" result="effect1_innerShadow_0_66"/>
</filter>
<filter id="filter9_i_0_66" x="7.56706" y="13.3711" width="4.74509" height="2.09703" filterUnits="userSpaceOnUse" color-interpolation-filters="sRGB">
<feFlood flood-opacity="0" result="BackgroundImageFix"/>
<feBlend mode="normal" in="SourceGraphic" in2="BackgroundImageFix" result="shape"/>
<feColorMatrix in="SourceAlpha" type="matrix" values="0 0 0 0 0 0 0 0 0 0 0 0 0 0 0 0 0 0 127 0" result="hardAlpha"/>
<feOffset dx="0.175"/>
<feGaussianBlur stdDeviation="0.109375"/>
<feComposite in2="hardAlpha" operator="arithmetic" k2="-1" k3="1"/>
<feColorMatrix type="matrix" values="0 0 0 0 0.0862745 0 0 0 0 0.054902 0 0 0 0 0.113725 0 0 0 1 0"/>
<feBlend mode="normal" in2="shape" result="effect1_innerShadow_0_66"/>
</filter>
<filter id="filter10_i_0_66" x="7.78752" y="11.2" width="3.85006" height="1.62831" filterUnits="userSpaceOnUse" color-interpolation-filters="sRGB">
<feFlood flood-opacity="0" result="BackgroundImageFix"/>
<feBlend mode="normal" in="SourceGraphic" in2="BackgroundImageFix" result="shape"/>
<feColorMatrix in="SourceAlpha" type="matrix" values="0 0 0 0 0 0 0 0 0 0 0 0 0 0 0 0 0 0 127 0" result="hardAlpha"/>
<feOffset dx="0.175" dy="-0.175"/>
<feGaussianBlur stdDeviation="0.13125"/>
<feComposite in2="hardAlpha" operator="arithmetic" k2="-1" k3="1"/>
<feColorMatrix type="matrix" values="0 0 0 0 0.0431373 0 0 0 0 0.0235294 0 0 0 0 0.0313726 0 0 0 1 0"/>
<feBlend mode="normal" in2="shape" result="effect1_innerShadow_0_66"/>
</filter>
<filter id="filter11_i_0_66" x="16.625" y="11.2" width="3.85005" height="1.62867" filterUnits="userSpaceOnUse" color-interpolation-filters="sRGB">
<feFlood flood-opacity="0" result="BackgroundImageFix"/>
<feBlend mode="normal" in="SourceGraphic" in2="BackgroundImageFix" result="shape"/>
<feColorMatrix in="SourceAlpha" type="matrix" values="0 0 0 0 0 0 0 0 0 0 0 0 0 0 0 0 0 0 127 0" result="hardAlpha"/>
<feOffset dx="0.175" dy="-0.175"/>
<feGaussianBlur stdDeviation="0.13125"/>
<feComposite in2="hardAlpha" operator="arithmetic" k2="-1" k3="1"/>
<feColorMatrix type="matrix" values="0 0 0 0 0.0431373 0 0 0 0 0.0235294 0 0 0 0 0.0313726 0 0 0 1 0"/>
<feBlend mode="normal" in2="shape" result="effect1_innerShadow_0_66"/>
</filter>
<filter id="filter12_f_0_66" x="16.4376" y="14.0465" width="1.13232" height="0.984628" filterUnits="userSpaceOnUse" color-interpolation-filters="sRGB">
<feFlood flood-opacity="0" result="BackgroundImageFix"/>
<feBlend mode="normal" in="SourceGraphic" in2="BackgroundImageFix" result="shape"/>
<feGaussianBlur stdDeviation="0.04375" result="effect1_foregroundBlur_0_66"/>
</filter>
<filter id="filter13_f_0_66" x="17.8834" y="14.2447" width="1.15141" height="1.18755" filterUnits="userSpaceOnUse" color-interpolation-filters="sRGB">
<feFlood flood-opacity="0" result="BackgroundImageFix"/>
<feBlend mode="normal" in="SourceGraphic" in2="BackgroundImageFix" result="shape"/>
<feGaussianBlur stdDeviation="0.0875" result="effect1_foregroundBlur_0_66"/>
</filter>
<filter id="filter14_f_0_66" x="10.6355" y="14.1413" width="1.30646" height="1.39431" filterUnits="userSpaceOnUse" color-interpolation-filters="sRGB">
<feFlood flood-opacity="0" result="BackgroundImageFix"/>
<feBlend mode="normal" in="SourceGraphic" in2="BackgroundImageFix" result="shape"/>
<feGaussianBlur stdDeviation="0.0875" result="effect1_foregroundBlur_0_66"/>
</filter>
<filter id="filter15_f_0_66" x="9.32889" y="14.033" width="1.33774" height="0.998169" filterUnits="userSpaceOnUse" color-interpolation-filters="sRGB">
<feFlood flood-opacity="0" result="BackgroundImageFix"/>
<feBlend mode="normal" in="SourceGraphic" in2="BackgroundImageFix" result="shape"/>
<feGaussianBlur stdDeviation="0.04375" result="effect1_foregroundBlur_0_66"/>
</filter>
<filter id="filter16_f_0_66" x="16.639" y="11.2124" width="3.75932" height="1.66619" filterUnits="userSpaceOnUse" color-interpolation-filters="sRGB">
<feFlood flood-opacity="0" result="BackgroundImageFix"/>
<feBlend mode="normal" in="SourceGraphic" in2="BackgroundImageFix" result="shape"/>
<feGaussianBlur stdDeviation="0.175" result="effect1_foregroundBlur_0_66"/>
</filter>
<filter id="filter17_f_0_66" x="7.7454" y="11.2124" width="3.75932" height="1.66619" filterUnits="userSpaceOnUse" color-interpolation-filters="sRGB">
<feFlood flood-opacity="0" result="BackgroundImageFix"/>
<feBlend mode="normal" in="SourceGraphic" in2="BackgroundImageFix" result="shape"/>
<feGaussianBlur stdDeviation="0.175" result="effect1_foregroundBlur_0_66"/>
</filter>
<filter id="filter18_if_0_66" x="3.62999" y="4.3342" width="6.87841" height="7.3704" filterUnits="userSpaceOnUse" color-interpolation-filters="sRGB">
<feFlood flood-opacity="0" result="BackgroundImageFix"/>
<feBlend mode="normal" in="SourceGraphic" in2="BackgroundImageFix" result="shape"/>
<feColorMatrix in="SourceAlpha" type="matrix" values="0 0 0 0 0 0 0 0 0 0 0 0 0 0 0 0 0 0 127 0" result="hardAlpha"/>
<feOffset dx="0.4375" dy="0.4375"/>
<feGaussianBlur stdDeviation="0.4375"/>
<feComposite in2="hardAlpha" operator="arithmetic" k2="-1" k3="1"/>
<feColorMatrix type="matrix" values="0 0 0 0 0.352941 0 0 0 0 0.341176 0 0 0 0 0.341176 0 0 0 1 0"/>
<feBlend mode="normal" in2="shape" result="effect1_innerShadow_0_66"/>
<feGaussianBlur stdDeviation="0.328125" result="effect2_foregroundBlur_0_66"/>
</filter>
<filter id="filter19_if_0_66" x="8.66113" y="2.23866" width="14.7179" height="9.92939" filterUnits="userSpaceOnUse" color-interpolation-filters="sRGB">
<feFlood flood-opacity="0" result="BackgroundImageFix"/>
<feBlend mode="normal" in="SourceGraphic" in2="BackgroundImageFix" result="shape"/>
<feColorMatrix in="SourceAlpha" type="matrix" values="0 0 0 0 0 0 0 0 0 0 0 0 0 0 0 0 0 0 127 0" result="hardAlpha"/>
<feOffset dx="-0.2625" dy="0.175"/>
<feGaussianBlur stdDeviation="0.35"/>
<feComposite in2="hardAlpha" operator="arithmetic" k2="-1" k3="1"/>
<feColorMatrix type="matrix" values="0 0 0 0 0.345098 0 0 0 0 0.329412 0 0 0 0 0.333333 0 0 0 1 0"/>
<feBlend mode="normal" in2="shape" result="effect1_innerShadow_0_66"/>
<feGaussianBlur stdDeviation="0.328125" result="effect2_foregroundBlur_0_66"/>
</filter>
<filter id="filter20_f_0_66" x="9.0208" y="4.72773" width="1.41376" height="3.31408" filterUnits="userSpaceOnUse" color-interpolation-filters="sRGB">
<feFlood flood-opacity="0" result="BackgroundImageFix"/>
<feBlend mode="normal" in="SourceGraphic" in2="BackgroundImageFix" result="shape"/>
<feGaussianBlur stdDeviation="0.0875" result="effect1_foregroundBlur_0_66"/>
</filter>
<filter id="filter21_f_0_66" x="12.7433" y="5.51169" width="11.1005" height="6.11639" filterUnits="userSpaceOnUse" color-interpolation-filters="sRGB">
<feFlood flood-opacity="0" result="BackgroundImageFix"/>
<feBlend mode="normal" in="SourceGraphic" in2="BackgroundImageFix" result="shape"/>
<feGaussianBlur stdDeviation="0.765625" result="effect1_foregroundBlur_0_66"/>
</filter>
<linearGradient id="paint0_linear_0_66" x1="21.6562" y1="4.32075" x2="10.5551" y2="24.8832" gradientUnits="userSpaceOnUse">
<stop stop-color="#393134"/>
<stop offset="1" stop-color="#1A1718"/>
</linearGradient>
<radialGradient id="paint1_radial_0_66" cx="0" cy="0" r="1" gradientUnits="userSpaceOnUse" gradientTransform="translate(13.5082 19.7426) rotate(97.539) scale(7.50235 9.37195)">
<stop offset="0.591" stop-color="#171418"/>
<stop offset="1" stop-color="#171418" stop-opacity="0"/>
</radialGradient>
<radialGradient id="paint2_radial_0_66" cx="0" cy="0" r="1" gradientUnits="userSpaceOnUse" gradientTransform="translate(8.9145 20.1801) rotate(146.004) scale(5.67287 7.4537)">
<stop offset="0.258" stop-color="#181518"/>
<stop offset="1" stop-color="#181518" stop-opacity="0"/>
</radialGradient>
<radialGradient id="paint3_radial_0_66" cx="0" cy="0" r="1" gradientUnits="userSpaceOnUse" gradientTransform="translate(6.09816 16.0229) rotate(127.405) scale(3.5111 2.69603)">
<stop offset="0.334" stop-color="#040101"/>
<stop offset="1" stop-color="#040101" stop-opacity="0"/>
</radialGradient>
<radialGradient id="paint4_radial_0_66" cx="0" cy="0" r="1" gradientUnits="userSpaceOnUse" gradientTransform="translate(6.83638 12.7146) rotate(121.43) scale(4.03772 2.84421)">
<stop offset="0.321" stop-color="#040002"/>
<stop offset="1" stop-color="#040002" stop-opacity="0"/>
</radialGradient>
<radialGradient id="paint5_radial_0_66" cx="0" cy="0" r="1" gradientUnits="userSpaceOnUse" gradientTransform="translate(8.25839 2.51509) rotate(62.272) scale(4.81902 6.68954)">
<stop stop-color="#474445"/>
<stop offset="1" stop-color="#474445" stop-opacity="0"/>
</radialGradient>
<radialGradient id="paint6_radial_0_66" cx="0" cy="0" r="1" gradientUnits="userSpaceOnUse" gradientTransform="translate(23.5163 5.90551) rotate(134.998) scale(3.32552 4.64736)">
<stop stop-color="#4A4446"/>
<stop offset="1" stop-color="#4A4446" stop-opacity="0"/>
</radialGradient>
<radialGradient id="paint7_radial_0_66" cx="0" cy="0" r="1" gradientUnits="userSpaceOnUse" gradientTransform="translate(26.25 14.2739) rotate(163.779) scale(3.13237 6.53232)">
<stop stop-color="#3B3638"/>
<stop offset="1" stop-color="#3B3638" stop-opacity="0"/>
</radialGradient>
<radialGradient id="paint8_radial_0_66" cx="0" cy="0" r="1" gradientUnits="userSpaceOnUse" gradientTransform="translate(25.2656 19.852) rotate(165.963) scale(4.735 6.03169)">
<stop stop-color="#464444"/>
<stop offset="1" stop-color="#464444" stop-opacity="0"/>
</radialGradient>
<radialGradient id="paint9_radial_0_66" cx="0" cy="0" r="1" gradientUnits="userSpaceOnUse" gradientTransform="translate(21.7201 10.3022) rotate(-108.843) scale(4.56836 3.61331)">
<stop stop-color="#575455"/>
<stop offset="1" stop-color="#575455" stop-opacity="0"/>
</radialGradient>
<radialGradient id="paint10_radial_0_66" cx="0" cy="0" r="1" gradientUnits="userSpaceOnUse" gradientTransform="translate(3.98033 14.2141) rotate(5.988) scale(2.4669 3.99709)">
<stop stop-color="#413733"/>
<stop offset="1" stop-color="#413733" stop-opacity="0"/>
</radialGradient>
<linearGradient id="paint11_linear_0_66" x1="3.731" y1="15.8051" x2="8.55837" y2="15.8051" gradientUnits="userSpaceOnUse">
<stop stop-color="#CC9987"/>
<stop offset="1" stop-color="#AC7864"/>
</linearGradient>
<radialGradient id="paint12_radial_0_66" cx="0" cy="0" r="1" gradientUnits="userSpaceOnUse" gradientTransform="translate(21.3552 17.2541) rotate(-48.1041) scale(4.46325 5.44943)">
<stop offset="0.444" stop-color="#E5B1A5"/>
<stop offset="0.944" stop-color="#FFD8C1"/>
</radialGradient>
<radialGradient id="paint13_radial_0_66" cx="0" cy="0" r="1" gradientUnits="userSpaceOnUse" gradientTransform="translate(22.2714 12.9203) rotate(29.271) scale(2.46068 0.695671)">
<stop stop-color="#DBA98B"/>
<stop offset="1" stop-color="#DBA98B" stop-opacity="0"/>
</radialGradient>
<radialGradient id="paint14_radial_0_66" cx="0" cy="0" r="1" gradientUnits="userSpaceOnUse" gradientTransform="translate(21.1645 15.8463) rotate(-4.25415) scale(2.46998 1.93085)">
<stop offset="0.719" stop-color="#F4B89E" stop-opacity="0"/>
<stop offset="1" stop-color="#F5B99D"/>
</radialGradient>
<radialGradient id="paint15_radial_0_66" cx="0" cy="0" r="1" gradientUnits="userSpaceOnUse" gradientTransform="translate(6.49423 15.6626) rotate(180) scale(1.96875 1.5531)">
<stop offset="0.667" stop-color="#BC8272" stop-opacity="0"/>
<stop offset="1" stop-color="#BC8272"/>
</radialGradient>
<radialGradient id="paint16_radial_0_66" cx="0" cy="0" r="1" gradientUnits="userSpaceOnUse" gradientTransform="translate(18.6638 14.7857) rotate(155.244) scale(11.6834 15.638)">
<stop stop-color="#FFD7BF"/>
<stop offset="1" stop-color="#D59F97"/>
</radialGradient>
<radialGradient id="paint17_radial_0_66" cx="0" cy="0" r="1" gradientUnits="userSpaceOnUse" gradientTransform="translate(19.3038 17.0085) rotate(172.574) scale(5.69417 6.28535)">
<stop stop-color="#FFDEBF"/>
<stop offset="1" stop-color="#FFDEBF" stop-opacity="0"/>
</radialGradient>
<radialGradient id="paint18_radial_0_66" cx="0" cy="0" r="1" gradientUnits="userSpaceOnUse" gradientTransform="translate(10.1176 26.7426) rotate(-70.9588) scale(6.53739 8.29473)">
<stop stop-color="#B87C92"/>
<stop offset="1" stop-color="#B87C92" stop-opacity="0"/>
</radialGradient>
<radialGradient id="paint19_radial_0_66" cx="0" cy="0" r="1" gradientUnits="userSpaceOnUse" gradientTransform="translate(14.8802 15.0412) rotate(97.761) scale(10.9809 12.7108)">
<stop offset="0.673" stop-color="#B47896" stop-opacity="0"/>
<stop offset="1" stop-color="#B47896"/>
</radialGradient>
<radialGradient id="paint20_radial_0_66" cx="0" cy="0" r="1" gradientUnits="userSpaceOnUse" gradientTransform="translate(16.954 17.6091) rotate(168.897) scale(11.4805 19.7659)">
<stop offset="0.795" stop-color="#E2A895" stop-opacity="0"/>
<stop offset="1" stop-color="#E2A895"/>
</radialGradient>
<radialGradient id="paint21_radial_0_66" cx="0" cy="0" r="1" gradientUnits="userSpaceOnUse" gradientTransform="translate(17.7538 14.1032) rotate(-90) scale(1.87732 2.30399)">
<stop stop-color="#F6BAA9"/>
<stop offset="1" stop-color="#F6BAA9" stop-opacity="0"/>
</radialGradient>
<radialGradient id="paint22_radial_0_66" cx="0" cy="0" r="1" gradientUnits="userSpaceOnUse" gradientTransform="translate(10.6129 13.7296) rotate(-90) scale(2.14119 2.45394)">
<stop stop-color="#D09790"/>
<stop offset="1" stop-color="#D09790" stop-opacity="0"/>
</radialGradient>
<radialGradient id="paint23_radial_0_66" cx="0" cy="0" r="1" gradientUnits="userSpaceOnUse" gradientTransform="translate(22.3125 16.5296) rotate(180) scale(2.09676 10.515)">
<stop stop-color="#FFD8BC"/>
<stop offset="1" stop-color="#FFD8BC" stop-opacity="0"/>
</radialGradient>
<radialGradient id="paint24_radial_0_66" cx="0" cy="0" r="1" gradientUnits="userSpaceOnUse" gradientTransform="translate(15.2792 17.7153) rotate(-102.564) scale(3.41633 1.05288)">
<stop offset="0.017" stop-color="#FFDCC5"/>
<stop offset="1" stop-color="#FFDCC5" stop-opacity="0"/>
</radialGradient>
<linearGradient id="paint25_linear_0_66" x1="12.4687" y1="17.8343" x2="14" y2="17.8343" gradientUnits="userSpaceOnUse">
<stop stop-color="#DFA791"/>
<stop offset="1" stop-color="#DFA791" stop-opacity="0"/>
</linearGradient>
<linearGradient id="paint26_linear_0_66" x1="14" y1="19.138" x2="14" y2="18.1423" gradientUnits="userSpaceOnUse">
<stop stop-color="#D29394"/>
<stop offset="1" stop-color="#D29394" stop-opacity="0"/>
</linearGradient>
<radialGradient id="paint27_radial_0_66" cx="0" cy="0" r="1" gradientUnits="userSpaceOnUse" gradientTransform="translate(14.889 18.06) rotate(180) scale(1.27148 0.355469)">
<stop stop-color="#FFD6C2"/>
<stop offset="1" stop-color="#FFD6C2" stop-opacity="0"/>
</radialGradient>
<linearGradient id="paint28_linear_0_66" x1="14.1277" y1="19.0952" x2="14.1277" y2="18.8677" gradientUnits="userSpaceOnUse">
<stop stop-color="#CC8C8D"/>
<stop offset="1" stop-color="#CC8C8D" stop-opacity="0"/>
</linearGradient>
<radialGradient id="paint29_radial_0_66" cx="0" cy="0" r="1" gradientUnits="userSpaceOnUse" gradientTransform="translate(14.6151 17.0897) rotate(145.529) scale(2.71337 3.26106)">
<stop offset="0.778" stop-color="#CC8C8D" stop-opacity="0"/>
<stop offset="1" stop-color="#CC8C8D"/>
</radialGradient>
<linearGradient id="paint30_linear_0_66" x1="12.2639" y1="21.4375" x2="13.0156" y2="20.2755" gradientUnits="userSpaceOnUse">
<stop stop-color="#D9A4A4"/>
<stop offset="0.663" stop-color="#D9A4A4" stop-opacity="0"/>
</linearGradient>
<radialGradient id="paint31_radial_0_66" cx="0" cy="0" r="1" gradientUnits="userSpaceOnUse" gradientTransform="translate(17.5595 14.6887) rotate(90) scale(1.32355 2.10525)">
<stop offset="0.802" stop-color="#7D574A"/>
<stop offset="1" stop-color="#664944"/>
</radialGradient>
<radialGradient id="paint32_radial_0_66" cx="0" cy="0" r="1" gradientUnits="userSpaceOnUse" gradientTransform="translate(17.1876 14.826) rotate(-127.812) scale(0.617128 0.849631)">
<stop offset="0.766" stop-color="#FFE6E2" stop-opacity="0"/>
<stop offset="0.966" stop-color="#FFE6E2"/>
</radialGradient>
<linearGradient id="paint33_linear_0_66" x1="18.8291" y1="14.7761" x2="18.3172" y2="15.092" gradientUnits="userSpaceOnUse">
<stop stop-color="#B4948D"/>
<stop offset="1" stop-color="#B4948D" stop-opacity="0"/>
</linearGradient>
<radialGradient id="paint34_radial_0_66" cx="0" cy="0" r="1" gradientUnits="userSpaceOnUse" gradientTransform="translate(10.4405 14.6887) rotate(90) scale(1.32356 2.10527)">
<stop offset="0.802" stop-color="#7D574A"/>
<stop offset="1" stop-color="#664944"/>
</radialGradient>
<linearGradient id="paint35_linear_0_66" x1="11.6541" y1="14.7762" x2="11.1413" y2="15.092" gradientUnits="userSpaceOnUse">
<stop stop-color="#B4948D"/>
<stop offset="1" stop-color="#B4948D" stop-opacity="0"/>
</linearGradient>
<radialGradient id="paint36_radial_0_66" cx="0" cy="0" r="1" gradientUnits="userSpaceOnUse" gradientTransform="translate(10.2166 14.9974) rotate(-118.811) scale(0.806085 0.968949)">
<stop offset="0.766" stop-color="#FFE6E2" stop-opacity="0"/>
<stop offset="0.966" stop-color="#FFE6E2"/>
</radialGradient>
<radialGradient id="paint37_radial_0_66" cx="0" cy="0" r="1" gradientUnits="userSpaceOnUse" gradientTransform="translate(4.76963 11.2289) rotate(-65.3915) scale(4.94415 2.5293)">
<stop stop-color="#433838"/>
<stop offset="1" stop-color="#433838" stop-opacity="0"/>
</radialGradient>
<radialGradient id="paint38_radial_0_66" cx="0" cy="0" r="1" gradientUnits="userSpaceOnUse" gradientTransform="translate(17.1173 2.73424) rotate(115.684) scale(7.94946 12.9969)">
<stop offset="0.639" stop-color="#1F0D24" stop-opacity="0"/>
<stop offset="1" stop-color="#1F0D24"/>
</radialGradient>
<radialGradient id="paint39_radial_0_66" cx="0" cy="0" r="1" gradientUnits="userSpaceOnUse" gradientTransform="translate(14.343 3.33729) rotate(98.746) scale(2.25663 4.85502)">
<stop stop-color="#4C4749"/>
<stop offset="1" stop-color="#4C4749" stop-opacity="0"/>
</radialGradient>
<linearGradient id="paint40_linear_0_66" x1="9.28375" y1="5.55097" x2="10.1719" y2="7.62909" gradientUnits="userSpaceOnUse">
<stop stop-color="#1A1316"/>
<stop offset="1" stop-color="#24182D"/>
</linearGradient>
</defs>
</svg>
