<svg preserveAspectRatio="none" width="100%" height="100%" overflow="visible" style="display: block;" viewBox="0 0 24.3906 24.3906" fill="none" xmlns="http://www.w3.org/2000/svg">
<g id="Group" filter="url(#filter0_ii_0_62)">
<path id="Vector" d="M21.2406 0H3.15C1.4103 0 0 1.4103 0 3.15V21.2406C0 22.9803 1.4103 24.3906 3.15 24.3906H21.2406C22.9803 24.3906 24.3906 22.9803 24.3906 21.2406V3.15C24.3906 1.4103 22.9803 0 21.2406 0Z" fill="url(#paint0_linear_0_62)"/>
<path id="Vector_2" d="M21.2406 0H3.15C1.4103 0 0 1.4103 0 3.15V21.2406C0 22.9803 1.4103 24.3906 3.15 24.3906H21.2406C22.9803 24.3906 24.3906 22.9803 24.3906 21.2406V3.15C24.3906 1.4103 22.9803 0 21.2406 0Z" fill="url(#paint1_radial_0_62)"/>
</g>
<defs>
<filter id="filter0_ii_0_62" x="0" y="-0.875" width="26.1406" height="25.2656" filterUnits="userSpaceOnUse" color-interpolation-filters="sRGB">
<feFlood flood-opacity="0" result="BackgroundImageFix"/>
<feBlend mode="normal" in="SourceGraphic" in2="BackgroundImageFix" result="shape"/>
<feColorMatrix in="SourceAlpha" type="matrix" values="0 0 0 0 0 0 0 0 0 0 0 0 0 0 0 0 0 0 127 0" result="hardAlpha"/>
<feOffset dx="1.75" dy="-0.875"/>
<feGaussianBlur stdDeviation="1.3125"/>
<feComposite in2="hardAlpha" operator="arithmetic" k2="-1" k3="1"/>
<feColorMatrix type="matrix" values="0 0 0 0 0.298039 0 0 0 0 0.235294 0 0 0 0 0.6 0 0 0 1 0"/>
<feBlend mode="normal" in2="shape" result="effect1_innerShadow_0_62"/>
<feColorMatrix in="SourceAlpha" type="matrix" values="0 0 0 0 0 0 0 0 0 0 0 0 0 0 0 0 0 0 127 0" result="hardAlpha"/>
<feOffset dy="-0.875"/>
<feGaussianBlur stdDeviation="1.3125"/>
<feComposite in2="hardAlpha" operator="arithmetic" k2="-1" k3="1"/>
<feColorMatrix type="matrix" values="0 0 0 0 0.352941 0 0 0 0 0.211765 0 0 0 0 0.709804 0 0 0 1 0"/>
<feBlend mode="normal" in2="effect1_innerShadow_0_62" result="effect2_innerShadow_0_62"/>
</filter>
<linearGradient id="paint0_linear_0_62" x1="12.1958" y1="3.12725" x2="12.1958" y2="32.2236" gradientUnits="userSpaceOnUse">
<stop stop-color="#9865EE"/>
<stop offset="1" stop-color="#7764C6"/>
</linearGradient>
<radialGradient id="paint1_radial_0_62" cx="0" cy="0" r="1" gradientUnits="userSpaceOnUse" gradientTransform="translate(22.4499 1.83138) rotate(136.771) scale(1.87639 2.19158)">
<stop stop-color="#BB8DFF"/>
<stop offset="1" stop-color="#BB8DFF" stop-opacity="0"/>
</radialGradient>
</defs>
</svg>
