<svg preserveAspectRatio="none" width="100%" height="100%" overflow="visible" style="display: block;" viewBox="0 0 20.4688 20.4688" fill="none" xmlns="http://www.w3.org/2000/svg">
<g id="Group 12">
<g id="Group" filter="url(#filter0_i_0_58)">
<path id="Vector" fill-rule="evenodd" clip-rule="evenodd" d="M0.234375 10.2344C0.234375 15.7487 4.72009 20.2344 10.2344 20.2344C15.7487 20.2344 20.2344 15.7487 20.2344 10.2344C20.2344 4.72009 15.7487 0.234375 10.2344 0.234375C4.72009 0.234375 0.234375 4.72009 0.234375 10.2344ZM1.84755 9.52009C1.76401 9.52009 1.69819 9.44866 1.70658 9.36552C1.82838 8.15945 2.20095 7.02659 2.77125 6.02009C2.79637 5.97573 2.84355 5.94866 2.89451 5.94866H5.1369C5.23815 5.94866 5.30735 6.05109 5.27122 6.14566C4.8788 7.17309 4.63351 8.26259 4.5511 9.38609C4.54558 9.46138 4.48323 9.52009 4.40774 9.52009H1.84755ZM6.12716 9.52009C6.0443 9.52009 5.97873 9.4498 5.9858 9.36723C6.08645 8.19773 6.38945 7.07138 6.87145 6.03052C6.89466 5.98038 6.94502 5.94866 7.00016 5.94866H9.37723C9.45616 5.94866 9.52009 6.01259 9.52009 6.09152V9.37723C9.52009 9.45616 9.45616 9.52009 9.37723 9.52009H6.12716ZM9.52009 11.0915C9.52009 11.0126 9.45616 10.9487 9.37723 10.9487H6.12716C6.0443 10.9487 5.97873 11.0189 5.9858 11.1015C6.08645 12.271 6.38945 13.3974 6.87145 14.4382C6.89466 14.4884 6.94502 14.5201 7.00016 14.5201H9.37723C9.45616 14.5201 9.52009 14.4562 9.52009 14.3772V11.0915ZM9.52009 16.0915C9.52009 16.0126 9.45616 15.9487 9.37723 15.9487H8.0123C7.89688 15.9487 7.82959 16.0782 7.89816 16.171C8.30466 16.7218 8.76973 17.2336 9.28823 17.6974C9.37873 17.7784 9.52009 17.7132 9.52009 17.5917V16.0915ZM12.7739 18.1438C12.6717 18.2503 12.7721 18.4242 12.9123 18.378C14.251 17.9371 15.4447 17.1749 16.4018 16.1828C16.4876 16.0939 16.4233 15.9487 16.2997 15.9487H14.5059C14.4549 15.9487 14.4078 15.9759 14.3819 16.0199C13.9332 16.7841 13.3944 17.4971 12.7739 18.1438ZM15.1974 14.323C15.1613 14.4176 15.2304 14.5201 15.3317 14.5201L17.5529 14.5204C17.6166 14.5204 17.6756 14.4865 17.7069 14.431C18.2716 13.4289 18.6411 12.3023 18.7622 11.1032C18.7706 11.0201 18.7047 10.9487 18.6212 10.9487H16.061C15.9855 10.9487 15.9232 11.0074 15.9177 11.0827C15.8352 12.2062 15.5899 13.2959 15.1974 14.323ZM14.3416 10.9487C14.4244 10.9487 14.49 11.0189 14.4829 11.1015C14.3823 12.271 14.0793 13.3974 13.5973 14.4382C13.5741 14.4884 13.5238 14.5201 13.4686 14.5201H11.0915C11.0126 14.5201 10.9487 14.4562 10.9487 14.3772V11.0915C10.9487 11.0126 11.0126 10.9487 11.0915 10.9487H14.3416ZM15.9177 9.38609C15.9232 9.46138 15.9855 9.52009 16.061 9.52009H18.6212C18.7047 9.52009 18.7706 9.44866 18.7622 9.36552C18.6411 8.16645 18.2716 7.03987 17.7069 6.03773C17.6756 5.98223 17.6166 5.94838 17.5529 5.94839L15.3318 5.94866C15.2306 5.94866 15.1614 6.05109 15.1975 6.14566C15.5899 7.17309 15.8352 8.26259 15.9177 9.38609ZM13.4686 5.94866C13.5237 5.94866 13.5741 5.98038 13.5972 6.03052C14.0793 7.07138 14.3823 8.19773 14.4829 9.36723C14.49 9.4498 14.4244 9.52009 14.3416 9.52009H11.0915C11.0126 9.52009 10.9487 9.45616 10.9487 9.37723V6.09152C10.9487 6.01259 11.0126 5.94866 11.0915 5.94866H13.4686ZM14.3825 4.44878C14.4083 4.49281 14.4554 4.52009 14.5065 4.52009H16.2997C16.4233 4.52009 16.4876 4.37481 16.4018 4.28591C15.4457 3.29497 14.2536 2.53328 12.9167 2.09216C12.7766 2.04594 12.676 2.2196 12.778 2.32617C13.3971 2.973 13.9347 3.68547 14.3825 4.44878ZM11.1805 2.77133C11.09 2.69035 10.9487 2.75565 10.9487 2.8771V4.37723C10.9487 4.45613 11.0126 4.52009 11.0915 4.52009H12.4564C12.5719 4.52009 12.6392 4.3906 12.5706 4.29773C12.164 3.74697 11.699 3.2352 11.1805 2.77133ZM9.52009 2.87708C9.52009 2.75563 9.37873 2.69033 9.28823 2.7713C8.76973 3.23518 8.30473 3.74696 7.89816 4.29773C7.82959 4.3906 7.89688 4.52009 8.0123 4.52009H9.37723C9.45616 4.52009 9.52009 4.45613 9.52009 4.37723V2.87708ZM11.0915 15.9487C11.0126 15.9487 10.9487 16.0126 10.9487 16.0915V17.5917C10.9487 17.7132 11.09 17.7784 11.1805 17.6974C11.699 17.2336 12.1641 16.7218 12.5707 16.171C12.6392 16.0782 12.5719 15.9487 12.4564 15.9487H11.0915ZM2.77125 14.4487C2.79637 14.493 2.84355 14.5201 2.89451 14.5201H5.13892C5.24021 14.5201 5.30941 14.4175 5.27319 14.3229C4.87978 13.2953 4.63385 12.2057 4.55121 11.0827C4.54567 11.0074 4.48331 10.9487 4.40784 10.9487H1.84755C1.76401 10.9487 1.69819 11.0201 1.70658 11.1032C1.82838 12.3093 2.20095 13.4422 2.77125 14.4487ZM7.56209 18.3799C7.70223 18.4259 7.80259 18.2522 7.70045 18.1457C7.07895 17.498 6.53937 16.7844 6.08987 16.0199C6.06409 15.9759 6.01702 15.9487 5.96595 15.9487H4.16899C4.04547 15.9487 3.98118 16.0939 4.06695 16.1828C5.02538 17.1762 6.22109 17.9392 7.56209 18.3799ZM5.96223 4.52009C6.0133 4.52009 6.06038 4.49281 6.08623 4.44878C6.53409 3.68547 7.07166 2.97302 7.69066 2.32618C7.79266 2.21962 7.69216 2.04595 7.55209 2.09218C6.21516 2.5333 5.02299 3.29498 4.06694 4.28591C3.98118 4.37481 4.04547 4.52009 4.16899 4.52009H5.96223Z" fill="url(#paint0_linear_0_58)"/>
</g>
<path id="Vector_2" fill-rule="evenodd" clip-rule="evenodd" d="M10.2344 20.2344C4.72009 20.2344 0.234375 15.7487 0.234375 10.2344C0.234375 4.72009 4.72009 0.234375 10.2344 0.234375C15.7487 0.234375 20.2344 4.72009 20.2344 10.2344C20.2344 15.7487 15.7487 20.2344 10.2344 20.2344ZM10.2344 19.8995C15.2887 19.8995 20.0112 15.2887 20.0112 10.2344C20.0112 5.17998 15.2887 0.546861 10.2344 0.546861C5.17998 0.546861 0.524554 5.17998 0.524554 10.2344C0.524554 15.2887 5.17998 19.8995 10.2344 19.8995Z" fill="url(#paint1_linear_0_58)"/>
<g id="Group_2" filter="url(#filter1_f_0_58)">
<path id="Vector_3" fill-rule="evenodd" clip-rule="evenodd" d="M10.2344 20.1117C4.78779 20.1117 0.357143 15.6809 0.357143 10.2344C0.357143 4.78779 4.78779 0.357143 10.2344 0.357143C15.6809 0.357143 20.1117 4.78779 20.1117 10.2344C20.1117 15.6809 15.6809 20.1117 10.2344 20.1117ZM10.2344 19.6652C15.4429 19.6652 19.6652 15.4429 19.6652 10.2344C19.6652 5.02589 15.4429 0.803579 10.2344 0.803579C5.02589 0.803579 0.803579 5.02589 0.803579 10.2344C0.803579 15.4429 5.02589 19.6652 10.2344 19.6652Z" fill="url(#paint2_radial_0_58)"/>
</g>
<g id="Group_3" filter="url(#filter2_f_0_58)">
<path id="Vector_4" d="M10.4576 1.52902V18.9397" stroke="url(#paint3_linear_0_58)" stroke-width="0.535714" stroke-linecap="round"/>
</g>
<g id="Group_4" filter="url(#filter3_f_0_58)">
<path id="Vector_5" d="M11.0379 1.43973C12.4665 2.37723 15.3237 5.46652 15.3237 10.3237C15.3237 15.1808 12.1094 18.5677 10.5022 19.654" stroke="url(#paint4_linear_0_58)" stroke-width="0.535714" stroke-linecap="round"/>
</g>
<g id="Group_5" filter="url(#filter4_f_0_58)">
<path id="Vector_6" d="M9.69866 1.43973C8.27009 2.37723 5.41295 5.46652 5.41295 10.3237C5.41295 15.1808 8.62723 18.5677 10.2344 19.654" stroke="url(#paint5_linear_0_58)" stroke-width="0.535714" stroke-linecap="round"/>
</g>
<g id="Group_6" filter="url(#filter5_f_0_58)">
<path id="Vector_7" d="M3.58259 4.96652H17.3772" stroke="url(#paint6_linear_0_58)" stroke-width="0.535714" stroke-linecap="round"/>
</g>
<g id="Group_7" filter="url(#filter6_f_0_58)">
<path id="Vector_8" d="M3.53795 15.0558H17.3772" stroke="url(#paint7_linear_0_58)" stroke-opacity="0.75" stroke-width="0.535714" stroke-linecap="round"/>
</g>
<g id="Group_8" filter="url(#filter7_f_0_58)">
<path id="Vector_9" d="M1.43973 10.0112H19.5201" stroke="url(#paint8_linear_0_58)" stroke-opacity="0.75" stroke-width="0.535714" stroke-linecap="round"/>
</g>
</g>
<defs>
<filter id="filter0_i_0_58" x="0.234375" y="-0.122768" width="20.3571" height="20.3571" filterUnits="userSpaceOnUse" color-interpolation-filters="sRGB">
<feFlood flood-opacity="0" result="BackgroundImageFix"/>
<feBlend mode="normal" in="SourceGraphic" in2="BackgroundImageFix" result="shape"/>
<feColorMatrix in="SourceAlpha" type="matrix" values="0 0 0 0 0 0 0 0 0 0 0 0 0 0 0 0 0 0 127 0" result="hardAlpha"/>
<feOffset dx="0.357143" dy="-0.357143"/>
<feGaussianBlur stdDeviation="0.267857"/>
<feComposite in2="hardAlpha" operator="arithmetic" k2="-1" k3="1"/>
<feColorMatrix type="matrix" values="0 0 0 0 0.211765 0 0 0 0 0.54902 0 0 0 0 0.901961 0 0 0 1 0"/>
<feBlend mode="normal" in2="shape" result="effect1_innerShadow_0_58"/>
</filter>
<filter id="filter1_f_0_58" x="-7.45058e-09" y="-7.45058e-09" width="20.4688" height="20.4688" filterUnits="userSpaceOnUse" color-interpolation-filters="sRGB">
<feFlood flood-opacity="0" result="BackgroundImageFix"/>
<feBlend mode="normal" in="SourceGraphic" in2="BackgroundImageFix" result="shape"/>
<feGaussianBlur stdDeviation="0.178571" result="effect1_foregroundBlur_0_58"/>
</filter>
<filter id="filter2_f_0_58" x="9.65402" y="0.725446" width="1.60714" height="19.0179" filterUnits="userSpaceOnUse" color-interpolation-filters="sRGB">
<feFlood flood-opacity="0" result="BackgroundImageFix"/>
<feBlend mode="normal" in="SourceGraphic" in2="BackgroundImageFix" result="shape"/>
<feGaussianBlur stdDeviation="0.267857" result="effect1_foregroundBlur_0_58"/>
</filter>
<filter id="filter3_f_0_58" x="9.69863" y="0.63613" width="6.4286" height="19.8215" filterUnits="userSpaceOnUse" color-interpolation-filters="sRGB">
<feFlood flood-opacity="0" result="BackgroundImageFix"/>
<feBlend mode="normal" in="SourceGraphic" in2="BackgroundImageFix" result="shape"/>
<feGaussianBlur stdDeviation="0.267857" result="effect1_foregroundBlur_0_58"/>
</filter>
<filter id="filter4_f_0_58" x="4.60937" y="0.63613" width="6.4286" height="19.8215" filterUnits="userSpaceOnUse" color-interpolation-filters="sRGB">
<feFlood flood-opacity="0" result="BackgroundImageFix"/>
<feBlend mode="normal" in="SourceGraphic" in2="BackgroundImageFix" result="shape"/>
<feGaussianBlur stdDeviation="0.267857" result="effect1_foregroundBlur_0_58"/>
</filter>
<filter id="filter5_f_0_58" x="2.77902" y="4.16295" width="15.4018" height="1.60714" filterUnits="userSpaceOnUse" color-interpolation-filters="sRGB">
<feFlood flood-opacity="0" result="BackgroundImageFix"/>
<feBlend mode="normal" in="SourceGraphic" in2="BackgroundImageFix" result="shape"/>
<feGaussianBlur stdDeviation="0.267857" result="effect1_foregroundBlur_0_58"/>
</filter>
<filter id="filter6_f_0_58" x="2.73438" y="14.2522" width="15.4464" height="1.60714" filterUnits="userSpaceOnUse" color-interpolation-filters="sRGB">
<feFlood flood-opacity="0" result="BackgroundImageFix"/>
<feBlend mode="normal" in="SourceGraphic" in2="BackgroundImageFix" result="shape"/>
<feGaussianBlur stdDeviation="0.267857" result="effect1_foregroundBlur_0_58"/>
</filter>
<filter id="filter7_f_0_58" x="0.636161" y="9.20759" width="19.6875" height="1.60714" filterUnits="userSpaceOnUse" color-interpolation-filters="sRGB">
<feFlood flood-opacity="0" result="BackgroundImageFix"/>
<feBlend mode="normal" in="SourceGraphic" in2="BackgroundImageFix" result="shape"/>
<feGaussianBlur stdDeviation="0.267857" result="effect1_foregroundBlur_0_58"/>
</filter>
<linearGradient id="paint0_linear_0_58" x1="17.0201" y1="1.43937" x2="5.7258" y2="20.2344" gradientUnits="userSpaceOnUse">
<stop stop-color="#5CCFFF"/>
<stop offset="1" stop-color="#44B3FF"/>
</linearGradient>
<linearGradient id="paint1_linear_0_58" x1="16.7079" y1="1.97509" x2="2.64509" y2="22.1094" gradientUnits="userSpaceOnUse">
<stop stop-color="#B5F5F5"/>
<stop offset="1" stop-color="#3A6DD3"/>
</linearGradient>
<radialGradient id="paint2_radial_0_58" cx="0" cy="0" r="1" gradientUnits="userSpaceOnUse" gradientTransform="translate(17.5118 4.83295) rotate(128.166) scale(19.4336)">
<stop offset="0.489" stop-color="#7FFFFF"/>
<stop offset="1" stop-color="#3C68D0"/>
</radialGradient>
<linearGradient id="paint3_linear_0_58" x1="-nan" y1="-nan" x2="-nan" y2="-nan" gradientUnits="userSpaceOnUse">
<stop stop-color="#76F6FF"/>
<stop offset="1" stop-color="#76F6FF" stop-opacity="0"/>
</linearGradient>
<linearGradient id="paint4_linear_0_58" x1="12.9129" y1="1.44009" x2="12.9129" y2="24.8379" gradientUnits="userSpaceOnUse">
<stop stop-color="#76F6FF"/>
<stop offset="1" stop-color="#76F6FF" stop-opacity="0"/>
</linearGradient>
<linearGradient id="paint5_linear_0_58" x1="-2.04277" y1="5.27937" x2="17.3772" y2="20.6808" gradientUnits="userSpaceOnUse">
<stop stop-color="#76F6FF"/>
<stop offset="1" stop-color="#76F6FF" stop-opacity="0"/>
</linearGradient>
<linearGradient id="paint6_linear_0_58" x1="-nan" y1="-nan" x2="-nan" y2="-nan" gradientUnits="userSpaceOnUse">
<stop stop-color="#76F6FF"/>
<stop offset="1" stop-color="#76F6FF" stop-opacity="0"/>
</linearGradient>
<linearGradient id="paint7_linear_0_58" x1="-nan" y1="-nan" x2="-nan" y2="-nan" gradientUnits="userSpaceOnUse">
<stop stop-color="#76F6FF"/>
<stop offset="1" stop-color="#76F6FF" stop-opacity="0"/>
</linearGradient>
<linearGradient id="paint8_linear_0_58" x1="-nan" y1="-nan" x2="-nan" y2="-nan" gradientUnits="userSpaceOnUse">
<stop stop-color="#76F6FF"/>
<stop offset="1" stop-color="#76F6FF" stop-opacity="0"/>
</linearGradient>
</defs>
</svg>
