<svg width="20" height="21" viewBox="0 0 20 21" fill="none" xmlns="http://www.w3.org/2000/svg">
<g clip-path="url(#clip0_33_1521)">
<path d="M19.9895 10.4248C19.9895 9.58628 19.9214 8.97439 19.7742 8.33984H10.1992V12.1245H15.8195C15.7062 13.065 15.0943 14.4814 13.7346 15.4332L13.7155 15.5599L16.7429 17.9052L16.9527 17.9261C18.8789 16.1471 19.9895 13.5295 19.9895 10.4248Z" fill="#4285F4"/>
<path d="M10.1993 20.3963C12.9527 20.3963 15.2643 19.4897 16.9527 17.9261L13.7346 15.4331C12.8734 16.0337 11.7176 16.4529 10.1993 16.4529C7.50242 16.4529 5.21352 14.674 4.39759 12.2151L4.27799 12.2252L1.13003 14.6615L1.08887 14.7759C2.76588 18.1073 6.2106 20.3963 10.1993 20.3963Z" fill="#34A853"/>
<path d="M4.39748 12.2151C4.18219 11.5806 4.05759 10.9007 4.05759 10.1982C4.05759 9.49559 4.18219 8.81574 4.38615 8.18119L4.38045 8.04605L1.19304 5.57068L1.08876 5.62028C0.397576 7.00272 0.000976562 8.55514 0.000976562 10.1982C0.000976562 11.8412 0.397576 13.3935 1.08876 14.776L4.39748 12.2151Z" fill="#FBBC05"/>
<path d="M10.1993 3.94327C12.1142 3.94327 13.406 4.77045 14.1425 5.4617L17.0207 2.65152C15.253 1.00849 12.9527 0 10.1993 0C6.2106 0 2.76588 2.2889 1.08887 5.62028L4.38626 8.18119C5.21352 5.7223 7.50242 3.94327 10.1993 3.94327Z" fill="#EB4335"/>
</g>
<defs>
<clipPath id="clip0_33_1521">
<rect width="20" height="20.4666" fill="white"/>
</clipPath>
</defs>
</svg>
