<svg width="25" height="25" viewBox="0 0 25 25" fill="none" xmlns="http://www.w3.org/2000/svg">
<g filter="url(#filter0_iii_33_1103)">
<path d="M12.2062 0C5.4775 0 0 5.4775 0 12.2062C0 18.935 5.4775 24.4125 12.2062 24.4125C18.935 24.4125 24.4125 18.9437 24.4125 12.2062C24.4125 5.46875 18.9437 0 12.2062 0ZM21.7787 12.2062C21.7787 14.2778 21.1115 16.1966 19.9852 17.7623C19.9078 17.8698 19.7527 17.8803 19.659 17.7866L6.62612 4.76225C6.53232 4.66851 6.54273 4.51338 6.65038 4.43594C8.21604 3.30965 10.1348 2.6425 12.2062 2.6425C17.4825 2.63375 21.7787 6.93 21.7787 12.2062ZM2.63375 12.2062C2.63375 10.1264 3.30897 8.20728 4.43597 6.64154C4.51343 6.53393 4.6685 6.5235 4.76226 6.61725L17.7948 19.6497C17.8887 19.7437 17.8781 19.8991 17.7701 19.9765C16.1967 21.1035 14.2778 21.7787 12.2062 21.7787C6.93 21.7787 2.63375 17.4825 2.63375 12.2062Z" fill="url(#paint0_linear_33_1103)"/>
</g>
<defs>
<filter id="filter0_iii_33_1103" x="-0.2625" y="-0.35" width="25.025" height="25.025" filterUnits="userSpaceOnUse" color-interpolation-filters="sRGB">
<feFlood flood-opacity="0" result="BackgroundImageFix"/>
<feBlend mode="normal" in="SourceGraphic" in2="BackgroundImageFix" result="shape"/>
<feColorMatrix in="SourceAlpha" type="matrix" values="0 0 0 0 0 0 0 0 0 0 0 0 0 0 0 0 0 0 127 0" result="hardAlpha"/>
<feOffset dy="-0.35"/>
<feGaussianBlur stdDeviation="0.175"/>
<feComposite in2="hardAlpha" operator="arithmetic" k2="-1" k3="1"/>
<feColorMatrix type="matrix" values="0 0 0 0 0.882353 0 0 0 0 0.113725 0 0 0 0 0.333333 0 0 0 1 0"/>
<feBlend mode="normal" in2="shape" result="effect1_innerShadow_33_1103"/>
<feColorMatrix in="SourceAlpha" type="matrix" values="0 0 0 0 0 0 0 0 0 0 0 0 0 0 0 0 0 0 127 0" result="hardAlpha"/>
<feOffset dx="0.35"/>
<feGaussianBlur stdDeviation="0.175"/>
<feComposite in2="hardAlpha" operator="arithmetic" k2="-1" k3="1"/>
<feColorMatrix type="matrix" values="0 0 0 0 0.827451 0 0 0 0 0.168627 0 0 0 0 0.172549 0 0 0 1 0"/>
<feBlend mode="normal" in2="effect1_innerShadow_33_1103" result="effect2_innerShadow_33_1103"/>
<feColorMatrix in="SourceAlpha" type="matrix" values="0 0 0 0 0 0 0 0 0 0 0 0 0 0 0 0 0 0 127 0" result="hardAlpha"/>
<feOffset dx="-0.2625" dy="0.2625"/>
<feGaussianBlur stdDeviation="0.13125"/>
<feComposite in2="hardAlpha" operator="arithmetic" k2="-1" k3="1"/>
<feColorMatrix type="matrix" values="0 0 0 0 1 0 0 0 0 0.458824 0 0 0 0 0.568627 0 0 0 1 0"/>
<feBlend mode="normal" in2="effect2_innerShadow_33_1103" result="effect3_innerShadow_33_1103"/>
</filter>
<linearGradient id="paint0_linear_33_1103" x1="23.0778" y1="12.2062" x2="7.76533" y2="12.2062" gradientUnits="userSpaceOnUse">
<stop stop-color="#FF5075"/>
<stop offset="1" stop-color="#FF4B51"/>
</linearGradient>
</defs>
</svg>
