<svg width="146" height="141" viewBox="0 0 146 141" fill="none" xmlns="http://www.w3.org/2000/svg">
<g opacity="0.5" filter="url(#filter0_d_33_844)">
<rect width="63" height="63" rx="13" transform="matrix(-0.978148 -0.207912 -0.207912 0.978148 112.926 46.0829)" fill="white" shape-rendering="crispEdges"/>
<path d="M75.0587 56.0952C74.2645 59.8317 70.5917 62.2169 66.8552 61.4227C63.1187 60.6285 60.7335 56.9556 61.5277 53.2191C62.3219 49.4826 65.9948 47.0974 69.7313 47.8916C73.4678 48.6859 75.853 52.3587 75.0587 56.0952Z" fill="#F1F5F9"/>
<path d="M102.415 93.7304L106.19 75.9709L101.922 71.0836C99.5243 68.338 95.4073 67.9245 92.5114 70.1384L77.5691 81.5621C74.636 83.8045 70.4589 83.3479 68.0795 80.5248L62.977 74.4707C60.9912 72.1146 57.6863 71.3563 54.8719 72.6109L42.0483 78.3277L41.5254 80.7878C39.937 88.2608 44.7073 95.6066 52.1803 97.195L86.0079 104.385C93.4809 105.974 100.827 101.203 102.415 93.7304Z" fill="#E2E8F0"/>
<path d="M41.5254 80.7878L48.7157 46.9602C50.3041 39.4873 57.6499 34.7169 65.1228 36.3053L98.9504 43.4956C106.423 45.084 111.194 52.4298 109.605 59.9027L102.415 93.7304M41.5254 80.7878C39.937 88.2608 44.7073 95.6066 52.1803 97.195L86.0079 104.385C93.4809 105.974 100.827 101.203 102.415 93.7304M41.5254 80.7878L42.0483 78.3277L54.8719 72.6109C57.6863 71.3562 60.9912 72.1146 62.977 74.4707L68.0795 80.5248C70.4589 83.3479 74.636 83.8045 77.5691 81.5621L92.5114 70.1384C95.4073 67.9245 99.5243 68.338 101.922 71.0836L106.19 75.9709L102.415 93.7304M75.0587 56.0952C74.2645 59.8317 70.5917 62.2169 66.8552 61.4227C63.1187 60.6285 60.7335 56.9556 61.5277 53.2191C62.3219 49.4826 65.9948 47.0974 69.7313 47.8916C73.4678 48.6859 75.853 52.3587 75.0587 56.0952Z" stroke="#CBD5E1" stroke-width="2" stroke-linejoin="round"/>
</g>
<g filter="url(#filter1_d_33_844)">
<rect width="63" height="63" rx="13" transform="matrix(-0.990268 0.139173 0.139173 0.990268 78.375 25.7682)" fill="white" shape-rendering="crispEdges"/>
<path d="M46.2156 48.1282C46.7472 51.9109 44.1116 55.4085 40.3288 55.9401C36.546 56.4718 33.0485 53.8362 32.5169 50.0534C31.9852 46.2706 34.6208 42.7731 38.4036 42.2414C42.1864 41.7098 45.6839 44.3454 46.2156 48.1282Z" fill="#F1F5F9"/>
<path d="M84.7941 74.1372L82.2673 56.1576L76.5852 53.0248C73.393 51.2648 69.3828 52.2844 67.4188 55.3553L57.2848 71.2006C55.2955 74.3109 51.2141 75.3106 48.0126 73.4715L41.1472 69.5277C38.4753 67.9929 35.1104 68.4106 32.8949 70.5521L22.7999 80.31L23.1499 82.8007C24.2132 90.3663 31.2083 95.6375 38.7739 94.5742L73.0206 89.7611C80.5862 88.6978 85.8574 81.7028 84.7941 74.1372Z" fill="#E2E8F0"/>
<path d="M23.1499 82.8007L18.3368 48.5539C17.2736 40.9883 22.5447 33.9933 30.1103 32.93L64.3571 28.1169C71.9227 27.0537 78.9178 32.3248 79.981 39.8904L84.7941 74.1372M23.1499 82.8007C24.2132 90.3663 31.2083 95.6375 38.7739 94.5742L73.0206 89.7611C80.5862 88.6978 85.8574 81.7028 84.7941 74.1372M23.1499 82.8007L22.7999 80.31L32.8949 70.5521C35.1104 68.4106 38.4753 67.9929 41.1472 69.5277L48.0126 73.4715C51.2141 75.3106 55.2955 74.3109 57.2848 71.2006L67.4188 55.3553C69.3828 52.2844 73.393 51.2648 76.5852 53.0248L82.2673 56.1576L84.7941 74.1372M46.2156 48.1282C46.7472 51.911 44.1116 55.4085 40.3288 55.9401C36.546 56.4718 33.0485 53.8362 32.5169 50.0534C31.9852 46.2706 34.6208 42.7731 38.4036 42.2414C42.1864 41.7098 45.6839 44.3454 46.2156 48.1282Z" stroke="#CBD5E1" stroke-opacity="0.85" stroke-width="2" stroke-linejoin="round"/>
</g>
<g filter="url(#filter2_d_33_844)">
<path fill-rule="evenodd" clip-rule="evenodd" d="M69.8008 81.7682C69.8008 75.0372 75.2573 69.5807 81.9883 69.5807C88.7193 69.5807 94.1758 75.0372 94.1758 81.7682C94.1758 88.4992 88.7193 93.9557 81.9883 93.9557C75.2573 93.9557 69.8008 88.4992 69.8008 81.7682ZM82.9258 78.0182C82.9258 77.5004 82.506 77.0807 81.9883 77.0807C81.4705 77.0807 81.0508 77.5004 81.0508 78.0182V80.8307H78.2383C77.7205 80.8307 77.3008 81.2504 77.3008 81.7682C77.3008 82.286 77.7205 82.7057 78.2383 82.7057H81.0508V85.5182C81.0508 86.036 81.4705 86.4557 81.9883 86.4557C82.506 86.4557 82.9258 86.036 82.9258 85.5182V82.7057H85.7383C86.256 82.7057 86.6758 82.286 86.6758 81.7682C86.6758 81.2504 86.256 80.8307 85.7383 80.8307H82.9258V78.0182Z" fill="#94A3B8"/>
<path d="M81.9883 77.0807C82.506 77.0807 82.9258 77.5004 82.9258 78.0182V80.8307H85.7383C86.256 80.8307 86.6758 81.2504 86.6758 81.7682C86.6758 82.286 86.256 82.7057 85.7383 82.7057H82.9258V85.5182C82.9258 86.036 82.506 86.4557 81.9883 86.4557C81.4705 86.4557 81.0508 86.036 81.0508 85.5182V82.7057H78.2383C77.7205 82.7057 77.3008 82.286 77.3008 81.7682C77.3008 81.2504 77.7205 80.8307 78.2383 80.8307H81.0508V78.0182C81.0508 77.5004 81.4705 77.0807 81.9883 77.0807Z" fill="white"/>
</g>
<defs>
<filter id="filter0_d_33_844" x="3.20459" y="-2.0155" width="144.722" height="144.722" filterUnits="userSpaceOnUse" color-interpolation-filters="sRGB">
<feFlood flood-opacity="0" result="BackgroundImageFix"/>
<feColorMatrix in="SourceAlpha" type="matrix" values="0 0 0 0 0 0 0 0 0 0 0 0 0 0 0 0 0 0 127 0" result="hardAlpha"/>
<feOffset/>
<feGaussianBlur stdDeviation="17.5"/>
<feComposite in2="hardAlpha" operator="out"/>
<feColorMatrix type="matrix" values="0 0 0 0 0.0196078 0 0 0 0 0.0196078 0 0 0 0 0.0784314 0 0 0 0.1 0"/>
<feBlend mode="normal" in2="BackgroundImageFix" result="effect1_dropShadow_33_844"/>
<feBlend mode="normal" in="SourceGraphic" in2="effect1_dropShadow_33_844" result="shape"/>
</filter>
<filter id="filter1_d_33_844" x="-1.21172" y="13.5682" width="105.555" height="105.555" filterUnits="userSpaceOnUse" color-interpolation-filters="sRGB">
<feFlood flood-opacity="0" result="BackgroundImageFix"/>
<feColorMatrix in="SourceAlpha" type="matrix" values="0 0 0 0 0 0 0 0 0 0 0 0 0 0 0 0 0 0 127 0" result="hardAlpha"/>
<feOffset dy="5"/>
<feGaussianBlur stdDeviation="8.6"/>
<feComposite in2="hardAlpha" operator="out"/>
<feColorMatrix type="matrix" values="0 0 0 0 0.0196078 0 0 0 0 0.0196078 0 0 0 0 0.0784314 0 0 0 0.08 0"/>
<feBlend mode="normal" in2="BackgroundImageFix" result="effect1_dropShadow_33_844"/>
<feBlend mode="normal" in="SourceGraphic" in2="effect1_dropShadow_33_844" result="shape"/>
</filter>
<filter id="filter2_d_33_844" x="59.5008" y="59.2807" width="44.975" height="44.975" filterUnits="userSpaceOnUse" color-interpolation-filters="sRGB">
<feFlood flood-opacity="0" result="BackgroundImageFix"/>
<feColorMatrix in="SourceAlpha" type="matrix" values="0 0 0 0 0 0 0 0 0 0 0 0 0 0 0 0 0 0 127 0" result="hardAlpha"/>
<feOffset/>
<feGaussianBlur stdDeviation="5.15"/>
<feComposite in2="hardAlpha" operator="out"/>
<feColorMatrix type="matrix" values="0 0 0 0 1 0 0 0 0 1 0 0 0 0 1 0 0 0 1 0"/>
<feBlend mode="normal" in2="BackgroundImageFix" result="effect1_dropShadow_33_844"/>
<feBlend mode="normal" in="SourceGraphic" in2="effect1_dropShadow_33_844" result="shape"/>
</filter>
</defs>
</svg>
