<svg width="20" height="21" viewBox="0 0 20 21" fill="none" xmlns="http://www.w3.org/2000/svg">
<g filter="url(#filter0_ii_33_1091)">
<path d="M4.42971 0C4.91298 0 5.30471 0.391755 5.30471 0.875C5.30471 1.35825 4.91298 1.75 4.42971 1.75H3.08648C3.00908 1.75 2.96979 1.84309 3.02379 1.89854L4.50768 3.42257C4.54171 3.45753 4.5978 3.4579 4.63228 3.4234L5.53361 2.52206C5.8753 2.18036 6.42935 2.18036 6.77104 2.52206C7.11273 2.86377 7.11273 3.41779 6.77104 3.7595L5.85159 4.67899C5.81773 4.71284 5.81738 4.76761 5.85071 4.80191L6.48456 5.45291C6.5151 5.48424 6.56401 5.48817 6.59954 5.46271C7.45975 4.84689 8.51369 4.48438 9.65233 4.48438C10.8024 4.48438 11.8662 4.85424 12.7311 5.48144C12.7669 5.50734 12.8164 5.50331 12.847 5.47146L16.2715 1.89804C16.3248 1.84241 16.2854 1.75 16.2084 1.75H14.8613C14.3781 1.75 13.9863 1.35825 13.9863 0.875C13.9863 0.391755 14.3781 0 14.8613 0H18.4023C18.8856 0 19.2773 0.391755 19.2773 0.875V4.41602C19.2773 4.8993 18.8856 5.29104 18.4023 5.29104C17.9191 5.29104 17.5273 4.8993 17.5273 4.41602V3.33463C17.5273 3.25578 17.4313 3.21716 17.3767 3.27409L14.0517 6.74362C14.0231 6.77338 14.0194 6.81905 14.042 6.85352C14.5859 7.68057 14.9023 8.67055 14.9023 9.73438C14.9023 12.3101 13.0474 14.4527 10.6005 14.899C10.5584 14.9067 10.5273 14.9431 10.5273 14.9859V16.5375C10.5273 16.5858 10.5665 16.625 10.6148 16.625H11.8398C12.3231 16.625 12.7148 17.0167 12.7148 17.5C12.7148 17.9833 12.3231 18.375 11.8398 18.375H10.6148C10.5665 18.375 10.5273 18.4142 10.5273 18.4625V19.25C10.5273 19.7333 10.1356 20.125 9.65233 20.125C9.16906 20.125 8.77733 19.7333 8.77733 19.25V18.4625C8.77733 18.4142 8.73813 18.375 8.68983 18.375H7.46483C6.98156 18.375 6.58983 17.9833 6.58983 17.5C6.58983 17.0167 6.98156 16.625 7.46483 16.625H8.68983C8.73813 16.625 8.77733 16.5858 8.77733 16.5375V14.9859C8.77733 14.9431 8.74626 14.9067 8.70426 14.899C6.25733 14.4527 4.40233 12.3101 4.40233 9.73438C4.40233 8.65865 4.7259 7.65852 5.28091 6.82596C5.30401 6.79122 5.30016 6.74503 5.27103 6.7151L4.61486 6.04109C4.58083 6.00618 4.52474 6.00583 4.49026 6.0403L3.67746 6.85309C3.33575 7.19478 2.78173 7.19478 2.44003 6.85309C2.09832 6.5114 2.09832 5.95735 2.44003 5.61566L3.27098 4.78467C3.30482 4.75086 3.30519 4.69609 3.27179 4.66179L1.90019 3.25312C1.84541 3.19686 1.75 3.23564 1.75 3.31416V4.42969C1.75 4.91295 1.35825 5.30469 0.875 5.30469C0.391746 5.30469 0 4.91295 0 4.42969V0.875C0 0.391755 0.391746 0 0.875 0H4.42971ZM6.15233 9.73438C6.15233 11.6673 7.71936 13.2344 9.65233 13.2344C11.5854 13.2344 13.1523 11.6673 13.1523 9.73438C13.1523 7.80141 11.5854 6.23438 9.65233 6.23438C7.71936 6.23438 6.15233 7.80141 6.15233 9.73438Z" fill="#FCF2FF"/>
</g>
<defs>
<filter id="filter0_ii_33_1091" x="-0.35" y="-0.35" width="19.9773" height="20.825" filterUnits="userSpaceOnUse" color-interpolation-filters="sRGB">
<feFlood flood-opacity="0" result="BackgroundImageFix"/>
<feBlend mode="normal" in="SourceGraphic" in2="BackgroundImageFix" result="shape"/>
<feColorMatrix in="SourceAlpha" type="matrix" values="0 0 0 0 0 0 0 0 0 0 0 0 0 0 0 0 0 0 127 0" result="hardAlpha"/>
<feOffset dx="-0.35" dy="0.35"/>
<feGaussianBlur stdDeviation="0.328125"/>
<feComposite in2="hardAlpha" operator="arithmetic" k2="-1" k3="1"/>
<feColorMatrix type="matrix" values="0 0 0 0 0.913725 0 0 0 0 0.886275 0 0 0 0 0.968627 0 0 0 1 0"/>
<feBlend mode="normal" in2="shape" result="effect1_innerShadow_33_1091"/>
<feColorMatrix in="SourceAlpha" type="matrix" values="0 0 0 0 0 0 0 0 0 0 0 0 0 0 0 0 0 0 127 0" result="hardAlpha"/>
<feOffset dx="0.35" dy="-0.35"/>
<feGaussianBlur stdDeviation="0.175"/>
<feComposite in2="hardAlpha" operator="arithmetic" k2="-1" k3="1"/>
<feColorMatrix type="matrix" values="0 0 0 0 1 0 0 0 0 0.988235 0 0 0 0 1 0 0 0 1 0"/>
<feBlend mode="normal" in2="effect1_innerShadow_33_1091" result="effect2_innerShadow_33_1091"/>
</filter>
</defs>
</svg>
