<svg preserveAspectRatio="none" width="100%" height="100%" overflow="visible" style="display: block;" viewBox="0 0 24 24" fill="none" xmlns="http://www.w3.org/2000/svg">
<g id="Love">
<path id="Vector 49" d="M21.5791 8.02651L21.6455 8.42481C21.7977 9.33769 21.7242 10.2739 21.4315 11.1519L21.3145 11.503C20.9628 12.558 20.3703 13.5167 19.5839 14.3032L18.0361 15.851L13.3899 19.6524C12.5814 20.3139 11.4186 20.3139 10.6101 19.6524L5.9639 15.851L4.41606 14.3032C3.62965 13.5168 3.03713 12.558 2.68544 11.503L2.56842 11.1519C2.27576 10.2739 2.2023 9.33769 2.35445 8.42481L2.42083 8.02651C2.87164 5.32168 5.33194 3.42209 8.06282 3.67035C8.84834 3.74176 9.60759 3.98961 10.2839 4.39542L11.6819 5.23418C11.8777 5.35167 12.1223 5.35167 12.3181 5.23418L13.716 4.39542C14.3924 3.98961 15.1516 3.74176 15.9371 3.67035C18.668 3.42209 21.1283 5.32168 21.5791 8.02651Z" stroke="var(--stroke-0, #0F172A)" stroke-width="1.5" stroke-linecap="round"/>
</g>
</svg>
