<svg width="77" height="73" viewBox="0 0 77 73" fill="none" xmlns="http://www.w3.org/2000/svg">
<path d="M32.1959 51.721C32.9783 52.3582 34.0272 52.5155 34.9768 52.1745C41.3747 49.8778 52.8229 44.0121 58.5408 34.779C66.6431 22.8734 54.7934 10.1396 44.0363 15.8986C42.9143 16.4994 41.5188 17.1673 40.518 17.8567C40.0655 18.1683 39.3791 18.0872 39.0432 17.6525C38.1018 16.4347 36.5803 14.8173 35.5893 13.8575C28.4958 6.98798 12.5739 11.587 16.1221 28.0198C17.1988 35.305 26.3903 46.9921 32.1959 51.721Z" fill="url(#paint0_radial_33_641)"/>
<path d="M32.1959 51.721C32.9783 52.3582 34.0272 52.5155 34.9768 52.1745C41.3747 49.8778 52.8229 44.0121 58.5408 34.779C66.6431 22.8734 54.7934 10.1396 44.0363 15.8986C42.9143 16.4994 41.5188 17.1673 40.518 17.8567C40.0655 18.1683 39.3791 18.0872 39.0432 17.6525C38.1018 16.4347 36.5803 14.8173 35.5893 13.8575C28.4958 6.98798 12.5739 11.587 16.1221 28.0198C17.1988 35.305 26.3903 46.9921 32.1959 51.721Z" fill="url(#paint1_radial_33_641)"/>
<path d="M32.1959 51.721C32.9783 52.3582 34.0272 52.5155 34.9768 52.1745C41.3747 49.8778 52.8229 44.0121 58.5408 34.779C66.6431 22.8734 54.7934 10.1396 44.0363 15.8986C42.9143 16.4994 41.5188 17.1673 40.518 17.8567C40.0655 18.1683 39.3791 18.0872 39.0432 17.6525C38.1018 16.4347 36.5803 14.8173 35.5893 13.8575C28.4958 6.98798 12.5739 11.587 16.1221 28.0198C17.1988 35.305 26.3903 46.9921 32.1959 51.721Z" fill="url(#paint2_radial_33_641)"/>
<path d="M32.1959 51.721C32.9783 52.3582 34.0272 52.5155 34.9768 52.1745C41.3747 49.8778 52.8229 44.0121 58.5408 34.779C66.6431 22.8734 54.7934 10.1396 44.0363 15.8986C42.9143 16.4994 41.5188 17.1673 40.518 17.8567C40.0655 18.1683 39.3791 18.0872 39.0432 17.6525C38.1018 16.4347 36.5803 14.8173 35.5893 13.8575C28.4958 6.98798 12.5739 11.587 16.1221 28.0198C17.1988 35.305 26.3903 46.9921 32.1959 51.721Z" fill="url(#paint3_radial_33_641)"/>
<path d="M32.1959 51.721C32.9783 52.3582 34.0272 52.5155 34.9768 52.1745C41.3747 49.8778 52.8229 44.0121 58.5408 34.779C66.6431 22.8734 54.7934 10.1396 44.0363 15.8986C42.9143 16.4994 41.5188 17.1673 40.518 17.8567C40.0655 18.1683 39.3791 18.0872 39.0432 17.6525C38.1018 16.4347 36.5803 14.8173 35.5893 13.8575C28.4958 6.98798 12.5739 11.587 16.1221 28.0198C17.1988 35.305 26.3903 46.9921 32.1959 51.721Z" fill="url(#paint4_linear_33_641)"/>
<path d="M32.1959 51.721C32.9783 52.3582 34.0272 52.5155 34.9768 52.1745C41.3747 49.8778 52.8229 44.0121 58.5408 34.779C66.6431 22.8734 54.7934 10.1396 44.0363 15.8986C42.9143 16.4994 41.5188 17.1673 40.518 17.8567C40.0655 18.1683 39.3791 18.0872 39.0432 17.6525C38.1018 16.4347 36.5803 14.8173 35.5893 13.8575C28.4958 6.98798 12.5739 11.587 16.1221 28.0198C17.1988 35.305 26.3903 46.9921 32.1959 51.721Z" fill="url(#paint5_linear_33_641)"/>
<g filter="url(#filter0_d_33_641)">
<path d="M32.1959 51.721C32.9783 52.3582 34.0272 52.5155 34.9768 52.1745C41.3747 49.8778 52.8229 44.0121 58.5408 34.779C66.6431 22.8734 54.7934 10.1396 44.0363 15.8986C42.9143 16.4994 41.5188 17.1673 40.518 17.8567C40.0655 18.1683 39.3791 18.0872 39.0432 17.6525C38.1018 16.4347 36.5803 14.8173 35.5893 13.8575C28.4958 6.98798 12.5739 11.587 16.1221 28.0198C17.1988 35.305 26.3903 46.9921 32.1959 51.721Z" fill="url(#paint6_radial_33_641)" shape-rendering="crispEdges"/>
<path d="M43.1146 14.1772C49.4032 10.8105 56.044 12.8858 59.8607 17.4642C63.7038 22.0742 64.6952 29.1767 60.1757 35.845C54.2902 45.3147 42.9063 51.2861 36.2653 53.7809L35.6365 54.0121C34.0747 54.5729 32.3017 54.3248 30.9631 53.2347C27.8903 50.7317 24.0264 46.4862 20.7972 41.9632C17.6227 37.5168 14.8242 32.4758 14.1987 28.3548C12.303 19.4507 15.6624 13.2791 20.951 10.4754C26.0431 7.77598 32.7318 8.37227 36.9479 12.4552C37.8182 13.2981 39.088 14.6355 40.0754 15.8239C41.1012 15.2023 42.3076 14.6093 43.1146 14.1772Z" stroke="white" stroke-width="3.90436" shape-rendering="crispEdges"/>
</g>
<g filter="url(#filter1_f_33_641)">
<ellipse cx="31.5232" cy="19.9859" rx="1.95218" ry="4.75734" transform="rotate(43.0306 31.5232 19.9859)" fill="#E82746"/>
</g>
<g filter="url(#filter2_f_33_641)">
<path d="M38.6549 21.6485L36.7034 32.7158C36.4446 34.1835 38.0991 35.1926 39.2165 34.2063C42.6734 31.1546 45.7179 27.2394 43.7918 23.2631C43.0534 21.7387 41.3345 20.5423 39.7567 20.5483C39.1664 20.5505 38.7574 21.0672 38.6549 21.6485Z" fill="#FA1C56"/>
</g>
<g filter="url(#filter3_f_33_641)">
<path d="M56.0415 30.5502C59.399 28.2693 60.5876 24.1632 58.6962 21.379C56.8048 18.5948 52.5496 18.1869 49.192 20.4678C45.8345 22.7488 44.6459 26.8549 46.5373 29.6391C48.4287 32.4232 52.6839 32.8312 56.0415 30.5502Z" fill="url(#paint7_radial_33_641)"/>
</g>
<g filter="url(#filter4_f_33_641)">
<path d="M52.0111 17.1116C53.4826 17.5661 54.753 17.6838 54.8485 17.3743C54.9441 17.0649 53.8287 16.4456 52.3572 15.9911C50.8856 15.5365 49.6153 15.4189 49.5197 15.7284C49.4241 16.0378 50.5395 16.6571 52.0111 17.1116Z" fill="#FF7383"/>
</g>
<g filter="url(#filter5_f_33_641)">
<path d="M29.2968 12.9089C30.6604 13.1323 31.7956 13.1322 31.8322 12.9086C31.8688 12.6851 30.793 12.3228 29.4294 12.0994C28.0657 11.8761 26.9306 11.8762 26.894 12.0997C26.8573 12.3233 27.9331 12.6855 29.2968 12.9089Z" fill="#FF93BA" fill-opacity="0.5"/>
</g>
<g filter="url(#filter6_f_33_641)">
<path d="M37.0956 20.4054L34.6709 37.1217C25.4315 24.3073 24.6303 16.3112 29.2052 15.3554C33.5466 14.4484 36.3261 17.6564 37.0956 20.4054Z" fill="url(#paint8_radial_33_641)"/>
</g>
<g filter="url(#filter7_f_33_641)">
<path d="M36.4563 19.2893C35.128 18.8544 34.9055 17.65 34.9603 17.1021C35.5959 18.0505 36.3464 18.2525 36.6422 18.235L36.4563 19.2893Z" fill="#FF7383"/>
</g>
<defs>
<filter id="filter0_d_33_641" x="-7.62939e-06" y="0.0461383" width="76.8386" height="72.8015" filterUnits="userSpaceOnUse" color-interpolation-filters="sRGB">
<feFlood flood-opacity="0" result="BackgroundImageFix"/>
<feColorMatrix in="SourceAlpha" type="matrix" values="0 0 0 0 0 0 0 0 0 0 0 0 0 0 0 0 0 0 127 0" result="hardAlpha"/>
<feOffset dy="4.88045"/>
<feGaussianBlur stdDeviation="5.85654"/>
<feComposite in2="hardAlpha" operator="out"/>
<feColorMatrix type="matrix" values="0 0 0 0 0.0196078 0 0 0 0 0.0196078 0 0 0 0 0.0784314 0 0 0 0.2 0"/>
<feBlend mode="normal" in2="BackgroundImageFix" result="effect1_dropShadow_33_641"/>
<feBlend mode="normal" in="SourceGraphic" in2="effect1_dropShadow_33_641" result="shape"/>
</filter>
<filter id="filter1_f_33_641" x="26.2192" y="14.5039" width="10.608" height="10.9639" filterUnits="userSpaceOnUse" color-interpolation-filters="sRGB">
<feFlood flood-opacity="0" result="BackgroundImageFix"/>
<feBlend mode="normal" in="SourceGraphic" in2="BackgroundImageFix" result="shape"/>
<feGaussianBlur stdDeviation="0.878481" result="effect1_foregroundBlur_33_641"/>
</filter>
<filter id="filter2_f_33_641" x="33.382" y="17.254" width="14.3024" height="20.6396" filterUnits="userSpaceOnUse" color-interpolation-filters="sRGB">
<feFlood flood-opacity="0" result="BackgroundImageFix"/>
<feBlend mode="normal" in="SourceGraphic" in2="BackgroundImageFix" result="shape"/>
<feGaussianBlur stdDeviation="1.64715" result="effect1_foregroundBlur_33_641"/>
</filter>
<filter id="filter3_f_33_641" x="43.1671" y="16.5211" width="18.8993" height="17.9758" filterUnits="userSpaceOnUse" color-interpolation-filters="sRGB">
<feFlood flood-opacity="0" result="BackgroundImageFix"/>
<feBlend mode="normal" in="SourceGraphic" in2="BackgroundImageFix" result="shape"/>
<feGaussianBlur stdDeviation="1.23536" result="effect1_foregroundBlur_33_641"/>
</filter>
<filter id="filter4_f_33_641" x="46.2197" y="12.2613" width="11.9289" height="8.57999" filterUnits="userSpaceOnUse" color-interpolation-filters="sRGB">
<feFlood flood-opacity="0" result="BackgroundImageFix"/>
<feBlend mode="normal" in="SourceGraphic" in2="BackgroundImageFix" result="shape"/>
<feGaussianBlur stdDeviation="1.64715" result="effect1_foregroundBlur_33_641"/>
</filter>
<filter id="filter5_f_33_641" x="24.4223" y="9.46126" width="9.88152" height="6.08585" filterUnits="userSpaceOnUse" color-interpolation-filters="sRGB">
<feFlood flood-opacity="0" result="BackgroundImageFix"/>
<feBlend mode="normal" in="SourceGraphic" in2="BackgroundImageFix" result="shape"/>
<feGaussianBlur stdDeviation="1.23536" result="effect1_foregroundBlur_33_641"/>
</filter>
<filter id="filter6_f_33_641" x="21.5451" y="10.2572" width="20.492" height="31.8059" filterUnits="userSpaceOnUse" color-interpolation-filters="sRGB">
<feFlood flood-opacity="0" result="BackgroundImageFix"/>
<feBlend mode="normal" in="SourceGraphic" in2="BackgroundImageFix" result="shape"/>
<feGaussianBlur stdDeviation="2.47073" result="effect1_foregroundBlur_33_641"/>
</filter>
<filter id="filter7_f_33_641" x="33.3057" y="15.455" width="4.98364" height="5.48153" filterUnits="userSpaceOnUse" color-interpolation-filters="sRGB">
<feFlood flood-opacity="0" result="BackgroundImageFix"/>
<feBlend mode="normal" in="SourceGraphic" in2="BackgroundImageFix" result="shape"/>
<feGaussianBlur stdDeviation="0.823576" result="effect1_foregroundBlur_33_641"/>
</filter>
<radialGradient id="paint0_radial_33_641" cx="0" cy="0" r="1" gradientUnits="userSpaceOnUse" gradientTransform="translate(40.0171 13.6819) rotate(100) scale(37.859 40.194)">
<stop stop-color="#FC0000"/>
<stop offset="0.528" stop-color="#FF3B79"/>
<stop offset="1" stop-color="#F724B3"/>
</radialGradient>
<radialGradient id="paint1_radial_33_641" cx="0" cy="0" r="1" gradientUnits="userSpaceOnUse" gradientTransform="translate(49.9637 25.0179) rotate(144.402) scale(35.0262 65.6074)">
<stop offset="0.798" stop-color="#C82092" stop-opacity="0"/>
<stop offset="0.908" stop-color="#C82092"/>
</radialGradient>
<radialGradient id="paint2_radial_33_641" cx="0" cy="0" r="1" gradientUnits="userSpaceOnUse" gradientTransform="translate(43.2139 34.5756) rotate(-148.663) scale(37.4711 52.9708)">
<stop offset="0.41" stop-color="#B91D43" stop-opacity="0"/>
<stop offset="0.834" stop-color="#B91D43"/>
</radialGradient>
<radialGradient id="paint3_radial_33_641" cx="0" cy="0" r="1" gradientUnits="userSpaceOnUse" gradientTransform="translate(37.1529 26.8618) rotate(100) scale(32.6123 32.6123)">
<stop offset="0.671" stop-color="#FF7AF2" stop-opacity="0"/>
<stop offset="0.934" stop-color="#FFBCE6"/>
</radialGradient>
<linearGradient id="paint4_linear_33_641" x1="40.0345" y1="31.2453" x2="50.3051" y2="49.0058" gradientUnits="userSpaceOnUse">
<stop offset="0.694" stop-color="#FF7AF2" stop-opacity="0"/>
<stop offset="0.934" stop-color="#FFBCE6"/>
</linearGradient>
<linearGradient id="paint5_linear_33_641" x1="38.3102" y1="31.6052" x2="20.0269" y2="46.1022" gradientUnits="userSpaceOnUse">
<stop offset="0.694" stop-color="#FF7AF2" stop-opacity="0"/>
<stop offset="0.934" stop-color="#FFBCE6"/>
</linearGradient>
<radialGradient id="paint6_radial_33_641" cx="0" cy="0" r="1" gradientTransform="matrix(-2.45994 2.63996 -0.981328 -0.475275 31.4605 20.0448)" gradientUnits="userSpaceOnUse">
<stop stop-color="#FFA682"/>
<stop offset="1" stop-color="#FFA682" stop-opacity="0"/>
</radialGradient>
<radialGradient id="paint7_radial_33_641" cx="0" cy="0" r="1" gradientUnits="userSpaceOnUse" gradientTransform="translate(58.5732 21.2144) rotate(138.737) scale(12.01 15.9702)">
<stop stop-color="#FF7383"/>
<stop offset="1" stop-color="#FF7383" stop-opacity="0"/>
</radialGradient>
<radialGradient id="paint8_radial_33_641" cx="0" cy="0" r="1" gradientUnits="userSpaceOnUse" gradientTransform="translate(38.4194 27.1253) rotate(-125.591) scale(20.8959 37.0939)">
<stop stop-color="#FF6274"/>
<stop offset="1" stop-color="#FF6274" stop-opacity="0"/>
</radialGradient>
</defs>
</svg>

