<svg preserveAspectRatio="none" width="100%" height="100%" overflow="visible" style="display: block;" viewBox="0 0 98.65 98.65" fill="none" xmlns="http://www.w3.org/2000/svg">
<g id="Image, Picture" filter="url(#filter0_d_0_37)">
<rect x="17.825" y="12.825" width="63" height="63" rx="13" fill="var(--fill-0, white)" shape-rendering="crispEdges"/>
<g id="Vector">
<path d="M52.7833 30.4917C52.7833 34.3116 55.88 37.4083 59.7 37.4083C63.52 37.4083 66.6167 34.3116 66.6167 30.4917C66.6167 26.6717 63.52 23.575 59.7 23.575C55.88 23.575 52.7833 26.6717 52.7833 30.4917Z" fill="#F1F5F9"/>
<path d="M18.2 61.6167V43.4604L23.3908 39.5673C26.307 37.3802 30.42 37.8317 32.7923 40.5994L45.0329 54.8801C47.4357 57.6833 51.6165 58.1052 54.5309 55.8385L60.7806 50.9776C63.2129 49.0858 66.6032 49.0311 69.0952 50.8435L80.45 59.1015V61.6167C80.45 69.2566 74.2566 75.45 66.6167 75.45H32.0333C24.3934 75.45 18.2 69.2566 18.2 61.6167Z" fill="#E2E8F0"/>
<path d="M80.45 61.6167V27.0333C80.45 19.3934 74.2566 13.2 66.6167 13.2H32.0333C24.3934 13.2 18.2 19.3934 18.2 27.0333V61.6167M80.45 61.6167C80.45 69.2566 74.2566 75.45 66.6167 75.45H32.0333C24.3934 75.45 18.2 69.2566 18.2 61.6167M80.45 61.6167V59.1015L69.0952 50.8435C66.6032 49.0311 63.2129 49.0858 60.7806 50.9776L54.5309 55.8385C51.6165 58.1052 47.4357 57.6833 45.0329 54.8801L32.7923 40.5994C30.42 37.8317 26.307 37.3802 23.3908 39.5673L18.2 43.4604V61.6167M52.7833 30.4917C52.7833 34.3116 55.88 37.4083 59.7 37.4083C63.52 37.4083 66.6167 34.3116 66.6167 30.4917C66.6167 26.6717 63.52 23.575 59.7 23.575C55.88 23.575 52.7833 26.6717 52.7833 30.4917Z" stroke="var(--stroke-0, #CBD5E1)" stroke-opacity="0.85" stroke-width="2" stroke-linejoin="round"/>
</g>
</g>
<defs>
<filter id="filter0_d_0_37" x="0" y="0" width="98.65" height="98.65" filterUnits="userSpaceOnUse" color-interpolation-filters="sRGB">
<feFlood flood-opacity="0" result="BackgroundImageFix"/>
<feColorMatrix in="SourceAlpha" type="matrix" values="0 0 0 0 0 0 0 0 0 0 0 0 0 0 0 0 0 0 127 0" result="hardAlpha"/>
<feOffset dy="5"/>
<feGaussianBlur stdDeviation="8.6"/>
<feComposite in2="hardAlpha" operator="out"/>
<feColorMatrix type="matrix" values="0 0 0 0 0.0196078 0 0 0 0 0.0196078 0 0 0 0 0.0784314 0 0 0 0.08 0"/>
<feBlend mode="normal" in2="BackgroundImageFix" result="effect1_dropShadow_0_37"/>
<feBlend mode="normal" in="SourceGraphic" in2="effect1_dropShadow_0_37" result="shape"/>
</filter>
</defs>
</svg>
