<svg preserveAspectRatio="none" width="100%" height="100%" overflow="visible" style="display: block;" viewBox="0 0 20 20.0008" fill="none" xmlns="http://www.w3.org/2000/svg">
<g id="instagram" clip-path="url(#clip0_0_59)">
<path id="Vector" d="M6.66693 10.0004C6.66693 9.3411 6.86243 8.6966 7.22872 8.14842C7.595 7.60023 8.11562 7.17298 8.72473 6.92067C9.33384 6.66837 10.0041 6.60236 10.6507 6.73098C11.2973 6.8596 11.8913 7.17708 12.3575 7.64328C12.8237 8.10947 13.1412 8.70344 13.2698 9.35007C13.3984 9.99669 13.3324 10.6669 13.0801 11.2761C12.8278 11.8852 12.4006 12.4058 11.8524 12.7721C11.3042 13.1384 10.6597 13.3339 10.0004 13.3339C9.1163 13.3339 8.26842 12.9827 7.64328 12.3575C7.01813 11.7324 6.66693 10.8845 6.66693 10.0004ZM4.8647 10.0004C4.8647 11.016 5.16585 12.0088 5.73008 12.8532C6.29431 13.6977 7.09627 14.3559 8.03455 14.7446C8.97283 15.1332 10.0053 15.235 11.0014 15.0369C11.9975 14.8388 12.9125 14.3498 13.6307 13.6317C14.3488 12.9136 14.838 11.9986 15.0362 11.0026C15.2344 10.0065 15.1328 8.97401 14.7442 8.03568C14.3556 7.09735 13.6975 6.29532 12.8531 5.731C12.0088 5.16667 11.016 4.86541 10.0004 4.86529C9.32603 4.86526 8.65827 4.99807 8.03524 5.25612C7.41221 5.51418 6.84611 5.89242 6.36927 6.36927C5.89242 6.84611 5.51418 7.41221 5.25612 8.03524C4.99807 8.65827 4.86526 9.32603 4.86529 10.0004M14.1378 4.66175C14.1377 4.8991 14.208 5.13114 14.3398 5.32853C14.4716 5.52592 14.659 5.67979 14.8783 5.77069C15.0975 5.86159 15.3388 5.88544 15.5716 5.83921C15.8044 5.79298 16.0183 5.67876 16.1861 5.51098C16.354 5.34321 16.4684 5.12942 16.5148 4.89665C16.5611 4.66387 16.5375 4.42258 16.4467 4.20327C16.3559 3.98396 16.2022 3.79649 16.0049 3.66456C15.8076 3.53263 15.5756 3.46217 15.3382 3.4621C15.0201 3.46225 14.715 3.58868 14.49 3.81362C14.265 4.03855 14.1385 4.3436 14.1382 4.66175M5.96102 18.1405C5.32683 18.1333 4.69861 18.0169 4.10389 17.7966C3.66953 17.636 3.27654 17.3804 2.95365 17.0485C2.62121 16.7263 2.36554 16.3335 2.20558 15.8991C1.98486 15.3044 1.86825 14.6762 1.86086 14.0419C1.81242 12.9878 1.80203 12.6711 1.80203 10.0006C1.80203 7.33009 1.81242 7.0142 1.86086 5.95925C1.86882 5.32513 1.98514 4.69704 2.20479 4.10212C2.36534 3.66777 2.62093 3.27478 2.95286 2.95188C3.27519 2.61926 3.66835 2.36357 4.1031 2.20381C4.69804 1.98321 5.32654 1.86679 5.96102 1.85968C7.01518 1.81125 7.33186 1.80085 10.0004 1.80085C12.6689 1.80085 12.9868 1.81125 14.0417 1.85968C14.6758 1.86764 15.3039 1.98396 15.8989 2.20362C16.3334 2.36387 16.7264 2.61949 17.0491 2.95168C17.3813 3.27437 17.6369 3.66742 17.7972 4.10193C18.0176 4.69663 18.134 5.32486 18.1411 5.95906C18.1895 7.014 18.1999 7.3299 18.1999 10.0004C18.1999 12.6709 18.1903 12.9868 18.1411 14.0417C18.1334 14.6759 18.0171 15.304 17.7972 15.8989C17.6307 16.3301 17.3759 16.7218 17.0489 17.0486C16.722 17.3754 16.3302 17.6301 15.8989 17.7964C15.3042 18.0168 14.6759 18.1332 14.0417 18.1403C12.9876 18.1888 12.6709 18.1991 10.0004 18.1991C7.32989 18.1991 7.014 18.1897 5.96102 18.1405ZM5.87749 0.0605906C5.04792 0.0770022 4.22715 0.234075 3.45013 0.525119C2.78278 0.776239 2.17819 1.16984 1.6785 1.6785C1.16931 2.17773 0.775576 2.78235 0.524923 3.44994C0.233949 4.22703 0.0769438 5.04786 0.0605906 5.87749C0.011373 6.9438 0 7.2846 0 10.0004C0 12.7162 0.011373 13.057 0.0605906 14.1233C0.0770211 14.9529 0.234093 15.7736 0.525119 16.5506C0.775763 17.2182 1.16943 17.8229 1.6785 18.3223C2.17836 18.8307 2.78281 19.2243 3.44994 19.4759C4.22698 19.7668 5.04773 19.9239 5.87729 19.9404C6.94419 19.9888 7.2844 20.001 10.0002 20.001C12.716 20.001 13.0568 19.9896 14.1231 19.9404C14.9527 19.924 15.7734 19.7669 16.5505 19.4759C17.2149 19.219 17.8184 18.8261 18.3221 18.3223C18.8259 17.8186 19.2188 17.2151 19.4757 16.5506C19.7671 15.7737 19.9242 14.9529 19.9402 14.1233C19.9886 13.0562 19.999 12.7162 19.999 10.0004C19.999 7.2846 19.9876 6.9438 19.9402 5.87749C19.9238 5.04791 19.7667 4.22714 19.4757 3.45014C19.2242 2.78296 18.8306 2.17845 18.3223 1.6785C17.8231 1.16959 17.2188 0.775887 16.5516 0.524923C15.7746 0.233729 14.9537 0.0767164 14.1241 0.0605906C13.058 0.0121573 12.717 0 10.0004 0C7.28381 0 6.94341 0.011373 5.8767 0.0605906" fill="url(#paint0_radial_0_59)"/>
<path id="Vector_2" d="M6.66693 10.0004C6.66693 9.3411 6.86243 8.6966 7.22872 8.14842C7.595 7.60023 8.11562 7.17298 8.72473 6.92067C9.33384 6.66837 10.0041 6.60236 10.6507 6.73098C11.2973 6.8596 11.8913 7.17708 12.3575 7.64328C12.8237 8.10947 13.1412 8.70344 13.2698 9.35007C13.3984 9.99669 13.3324 10.6669 13.0801 11.2761C12.8278 11.8852 12.4006 12.4058 11.8524 12.7721C11.3042 13.1384 10.6597 13.3339 10.0004 13.3339C9.1163 13.3339 8.26842 12.9827 7.64328 12.3575C7.01813 11.7324 6.66693 10.8845 6.66693 10.0004ZM4.8647 10.0004C4.8647 11.016 5.16585 12.0088 5.73008 12.8532C6.29431 13.6977 7.09627 14.3559 8.03455 14.7446C8.97283 15.1332 10.0053 15.235 11.0014 15.0369C11.9975 14.8388 12.9125 14.3498 13.6307 13.6317C14.3488 12.9136 14.838 11.9986 15.0362 11.0026C15.2344 10.0065 15.1328 8.97401 14.7442 8.03568C14.3556 7.09735 13.6975 6.29532 12.8531 5.731C12.0088 5.16667 11.016 4.86541 10.0004 4.86529C9.32603 4.86526 8.65827 4.99807 8.03524 5.25612C7.41221 5.51418 6.84611 5.89242 6.36927 6.36927C5.89242 6.84611 5.51418 7.41221 5.25612 8.03524C4.99807 8.65827 4.86526 9.32603 4.86529 10.0004M14.1378 4.66175C14.1377 4.8991 14.208 5.13114 14.3398 5.32853C14.4716 5.52592 14.659 5.67979 14.8783 5.77069C15.0975 5.86159 15.3388 5.88544 15.5716 5.83921C15.8044 5.79298 16.0183 5.67876 16.1861 5.51098C16.354 5.34321 16.4684 5.12942 16.5148 4.89665C16.5611 4.66387 16.5375 4.42258 16.4467 4.20327C16.3559 3.98396 16.2022 3.79649 16.0049 3.66456C15.8076 3.53263 15.5756 3.46217 15.3382 3.4621C15.0201 3.46225 14.715 3.58868 14.49 3.81362C14.265 4.03855 14.1385 4.3436 14.1382 4.66175M5.96102 18.1405C5.32683 18.1333 4.69861 18.0169 4.10389 17.7966C3.66953 17.636 3.27654 17.3804 2.95365 17.0485C2.62121 16.7263 2.36554 16.3335 2.20558 15.8991C1.98486 15.3044 1.86825 14.6762 1.86086 14.0419C1.81242 12.9878 1.80203 12.6711 1.80203 10.0006C1.80203 7.33009 1.81242 7.0142 1.86086 5.95925C1.86882 5.32513 1.98514 4.69704 2.20479 4.10212C2.36534 3.66777 2.62093 3.27478 2.95286 2.95188C3.27519 2.61926 3.66835 2.36357 4.1031 2.20381C4.69804 1.98321 5.32654 1.86679 5.96102 1.85968C7.01518 1.81125 7.33186 1.80085 10.0004 1.80085C12.6689 1.80085 12.9868 1.81125 14.0417 1.85968C14.6758 1.86764 15.3039 1.98396 15.8989 2.20362C16.3334 2.36387 16.7264 2.61949 17.0491 2.95168C17.3813 3.27437 17.6369 3.66742 17.7972 4.10193C18.0176 4.69663 18.134 5.32486 18.1411 5.95906C18.1895 7.014 18.1999 7.3299 18.1999 10.0004C18.1999 12.6709 18.1903 12.9868 18.1411 14.0417C18.1334 14.6759 18.0171 15.304 17.7972 15.8989C17.6307 16.3301 17.3759 16.7218 17.0489 17.0486C16.722 17.3754 16.3302 17.6301 15.8989 17.7964C15.3042 18.0168 14.6759 18.1332 14.0417 18.1403C12.9876 18.1888 12.6709 18.1991 10.0004 18.1991C7.32989 18.1991 7.014 18.1897 5.96102 18.1405ZM5.87749 0.0605906C5.04792 0.0770022 4.22715 0.234075 3.45013 0.525119C2.78278 0.776239 2.17819 1.16984 1.6785 1.6785C1.16931 2.17773 0.775576 2.78235 0.524923 3.44994C0.233949 4.22703 0.0769438 5.04786 0.0605906 5.87749C0.011373 6.9438 0 7.2846 0 10.0004C0 12.7162 0.011373 13.057 0.0605906 14.1233C0.0770211 14.9529 0.234093 15.7736 0.525119 16.5506C0.775763 17.2182 1.16943 17.8229 1.6785 18.3223C2.17836 18.8307 2.78281 19.2243 3.44994 19.4759C4.22698 19.7668 5.04773 19.9239 5.87729 19.9404C6.94419 19.9888 7.2844 20.001 10.0002 20.001C12.716 20.001 13.0568 19.9896 14.1231 19.9404C14.9527 19.924 15.7734 19.7669 16.5505 19.4759C17.2149 19.219 17.8184 18.8261 18.3221 18.3223C18.8259 17.8186 19.2188 17.2151 19.4757 16.5506C19.7671 15.7737 19.9242 14.9529 19.9402 14.1233C19.9886 13.0562 19.999 12.7162 19.999 10.0004C19.999 7.2846 19.9876 6.9438 19.9402 5.87749C19.9238 5.04791 19.7667 4.22714 19.4757 3.45014C19.2242 2.78296 18.8306 2.17845 18.3223 1.6785C17.8231 1.16959 17.2188 0.775887 16.5516 0.524923C15.7746 0.233729 14.9537 0.0767164 14.1241 0.0605906C13.058 0.0121573 12.717 0 10.0004 0C7.28381 0 6.94341 0.011373 5.8767 0.0605906" fill="url(#paint1_radial_0_59)"/>
</g>
<defs>
<radialGradient id="paint0_radial_0_59" cx="0" cy="0" r="1" gradientUnits="userSpaceOnUse" gradientTransform="translate(2.65716 20.0953) scale(26.1083 26.1083)">
<stop offset="0.09" stop-color="#FA8F21"/>
<stop offset="0.78" stop-color="#D82D7E"/>
</radialGradient>
<radialGradient id="paint1_radial_0_59" cx="0" cy="0" r="1" gradientUnits="userSpaceOnUse" gradientTransform="translate(12.1297 20.9912) scale(20.5769 20.5769)">
<stop offset="0.64" stop-color="#8C3AAA" stop-opacity="0"/>
<stop offset="1" stop-color="#8C3AAA"/>
</radialGradient>
<clipPath id="clip0_0_59">
<rect width="20" height="20.0008" fill="white"/>
</clipPath>
</defs>
</svg>
