<svg width="24" height="24" viewBox="0 0 24 24" fill="none" xmlns="http://www.w3.org/2000/svg">
<g id="Love">
<path id="Vector 49" d="M2.42087 8.02639L2.35448 8.42469C2.20234 9.33756 2.2758 10.2738 2.56846 11.1518L2.68547 11.5028C3.03717 12.5579 3.62969 13.5166 4.4161 14.303L5.96394 15.8509L10.6101 19.6523C11.4186 20.3138 12.5814 20.3138 13.3899 19.6523L18.0361 15.8509L19.5839 14.303C20.3704 13.5166 20.9629 12.5579 21.3146 11.5028L21.4316 11.1518C21.7242 10.2738 21.7977 9.33756 21.6456 8.42469L21.5792 8.02639C21.1284 5.32155 18.6681 3.42196 15.9372 3.67023C15.1517 3.74164 14.3924 3.98949 13.7161 4.3953L12.3181 5.23406C12.1223 5.35154 11.8777 5.35154 11.6819 5.23406L10.284 4.3953C9.60762 3.98949 8.84837 3.74164 8.06286 3.67023C5.33197 3.42196 2.87167 5.32155 2.42087 8.02639Z" stroke="#0F172A" stroke-width="1.5" stroke-linecap="round"/>
</g>
</svg>
