<svg preserveAspectRatio="none" width="100%" height="100%" overflow="visible" style="display: block;" viewBox="0 0 16 16" fill="none" xmlns="http://www.w3.org/2000/svg">
<g id="Love">
<path id="Vector 49" d="M14.3861 5.35102L14.4304 5.61655C14.5318 6.22513 14.4828 6.84929 14.2877 7.4346L14.2097 7.66864C13.9753 8.37203 13.5803 9.01118 13.056 9.53545L12.0241 10.5673L8.92664 13.1016C8.38762 13.5426 7.61245 13.5426 7.07342 13.1016L3.97598 10.5673L2.94409 9.53545C2.41981 9.01118 2.0248 8.37203 1.79034 7.66864L1.71232 7.4346C1.51722 6.84929 1.46824 6.22513 1.56968 5.61655L1.61393 5.35102C1.91447 3.54779 3.55467 2.2814 5.37526 2.44691C5.89893 2.49451 6.4051 2.65975 6.856 2.93029L7.78796 3.48947C7.91849 3.56779 8.08157 3.56779 8.2121 3.48947L9.14406 2.93029C9.59496 2.65975 10.1011 2.49451 10.6248 2.44691C12.4454 2.2814 14.0856 3.54779 14.3861 5.35102Z" stroke="var(--stroke-0, #0F172A)" stroke-linecap="round"/>
</g>
</svg>
