<svg width="24" height="24" viewBox="0 0 24.3 23.4174" fill="none" xmlns="http://www.w3.org/2000/svg">
<g filter="url(#filter0_dd)">
<path fill-rule="evenodd" clip-rule="evenodd" d="M9.42605 1.25865C11.0616 0.113784 13.2384 0.113784 14.8739 1.25865L19.8739 4.75865C21.1437 5.64751 21.9 7.10001 21.9 8.65V14.2674C21.9 16.8907 19.7734 19.0174 17.15 19.0174H7.15C4.52665 19.0174 2.4 16.8907 2.4 14.2674V8.65C2.4 7.10001 3.15625 5.64751 4.42605 4.75865L9.42605 1.25865ZM9.15 13.5174C8.73579 13.5174 8.4 13.8532 8.4 14.2674C8.4 14.6816 8.73579 15.0174 9.15 15.0174H15.15C15.5642 15.0174 15.9 14.6816 15.9 14.2674C15.9 13.8532 15.5642 13.5174 15.15 13.5174H9.15Z" fill="currentColor"/>
</g>
<defs>
<filter id="filter0_dd" x="0" y="0" width="24.3" height="23.4174" filterUnits="userSpaceOnUse" color-interpolation-filters="sRGB">
<feFlood flood-opacity="0" result="BackgroundImageFix"/>
<feColorMatrix in="SourceAlpha" type="matrix" values="0 0 0 0 0 0 0 0 0 0 0 0 0 0 0 0 0 0 127 0" result="hardAlpha"/>
<feOffset dy="2"/>
<feGaussianBlur stdDeviation="1.2"/>
<feComposite in2="hardAlpha" operator="out"/>
<feColorMatrix type="matrix" values="0 0 0 0 0.4 0 0 0 0 0.639216 0 0 0 0 0.517647 0 0 0 0.25 0"/>
<feBlend mode="normal" in2="BackgroundImageFix" result="effect1_dropShadow"/>
<feColorMatrix in="SourceAlpha" type="matrix" values="0 0 0 0 0 0 0 0 0 0 0 0 0 0 0 0 0 0 127 0" result="hardAlpha"/>
<feOffset dy="0.5"/>
<feComposite in2="hardAlpha" operator="out"/>
<feColorMatrix type="matrix" values="0 0 0 0 1 0 0 0 0 1 0 0 0 0 1 0 0 0 0.5 0"/>
<feBlend mode="normal" in2="effect1_dropShadow" result="effect2_dropShadow"/>
<feBlend mode="normal" in="SourceGraphic" in2="effect2_dropShadow" result="shape"/>
</filter>
</defs>
</svg>
