<svg width="24" height="24" viewBox="0 0 19.5 19.5" fill="none" xmlns="http://www.w3.org/2000/svg">
<path fill-rule="evenodd" clip-rule="evenodd" d="M15.5 4V2.75C15.5 1.23122 14.2688 0 12.75 0H6.75C5.23122 0 4 1.23122 4 2.75V4H2.75C1.23122 4 0 5.23122 0 6.75V9.31352L4.68499 10.5912C5.47508 10.8067 6.27548 10.9709 7.08128 11.0837C7.37914 9.88684 8.461 9 9.75 9C11.039 9 12.1209 9.88684 12.4187 11.0837C13.2245 10.9709 14.0249 10.8067 14.815 10.5912L19.5 9.31352V6.75C19.5 5.23122 18.2688 4 16.75 4H15.5ZM5.5 4V2.75C5.5 2.05964 6.05964 1.5 6.75 1.5H12.75C13.4404 1.5 14 2.05964 14 2.75V4H5.5Z" fill="currentColor"/>
<path d="M19.5 10.8683V16.75C19.5 18.2688 18.2688 19.5 16.75 19.5H2.75C1.23122 19.5 0 18.2688 0 16.75V10.8683L4.29031 12.0384C5.2275 12.294 6.17817 12.4826 7.13523 12.6041C7.49453 13.7048 8.52939 14.5 9.75 14.5C10.9706 14.5 12.0055 13.7048 12.3648 12.6041C13.3218 12.4826 14.2725 12.294 15.2097 12.0384L19.5 10.8683Z" fill="currentColor"/>
</svg>
