<svg width="24" height="24" viewBox="0 0 19.5 17.5" fill="none" xmlns="http://www.w3.org/2000/svg">
<path fill-rule="evenodd" clip-rule="evenodd" d="M0 2.25V13.75C0 15.8211 1.67893 17.5 3.75 17.5H15.75C17.8211 17.5 19.5 15.8211 19.5 13.75V6.75C19.5 4.67893 17.8211 3 15.75 3H12.425C12.0775 1.28832 10.5642 0 8.75 0H2.25C1.00736 0 0 1.00736 0 2.25ZM10.872 3H2.25C1.83579 3 1.5 2.66421 1.5 2.25C1.5 1.83579 1.83579 1.5 2.25 1.5H8.75C9.72966 1.5 10.5631 2.12611 10.872 3ZM14.25 11.75C15.0784 11.75 15.75 11.0784 15.75 10.25C15.75 9.42157 15.0784 8.75 14.25 8.75C13.4216 8.75 12.75 9.42157 12.75 10.25C12.75 11.0784 13.4216 11.75 14.25 11.75ZM3 13.75C3 13.3358 3.33579 13 3.75 13H7.75C8.16421 13 8.5 13.3358 8.5 13.75C8.5 14.1642 8.16421 14.5 7.75 14.5H3.75C3.33579 14.5 3 14.1642 3 13.75Z" fill="currentColor"/>
</svg>
