<svg width="402" height="116" viewBox="0 0 402 116" fill="none" xmlns="http://www.w3.org/2000/svg">
<g filter="url(#filter0_d_33_3755)">
<path d="M20 39C20 25.7452 30.7452 15 44 15C57.2548 15 68 25.7452 68 39C68 52.2548 57.2548 63 44 63C30.7452 63 20 52.2548 20 39Z" fill="white"/>
<path d="M45.5 32L38.5 39L45.5 46" stroke="black" stroke-width="1.75" stroke-linecap="round" stroke-linejoin="round"/>
</g>
<path d="M274 39C274 25.7452 284.745 15 298 15C311.255 15 322 25.7452 322 39C322 52.2548 311.255 63 298 63C284.745 63 274 52.2548 274 39Z" fill="#0F172A"/>
<path d="M295.25 40.375L300.75 43.5833M300.75 34.4167L295.25 37.625M306.25 44.5C306.25 46.0188 305.019 47.25 303.5 47.25C301.981 47.25 300.75 46.0188 300.75 44.5C300.75 42.9812 301.981 41.75 303.5 41.75C305.019 41.75 306.25 42.9812 306.25 44.5ZM306.25 33.5C306.25 35.0188 305.019 36.25 303.5 36.25C301.981 36.25 300.75 35.0188 300.75 33.5C300.75 31.9812 301.981 30.75 303.5 30.75C305.019 30.75 306.25 31.9812 306.25 33.5ZM295.25 39C295.25 40.5188 294.019 41.75 292.5 41.75C290.981 41.75 289.75 40.5188 289.75 39C289.75 37.4812 290.981 36.25 292.5 36.25C294.019 36.25 295.25 37.4812 295.25 39Z" stroke="white" stroke-width="1.5" stroke-linecap="round"/>
<g filter="url(#filter1_d_33_3755)">
<path d="M334 39C334 25.7452 344.745 15 358 15C371.255 15 382 25.7452 382 39C382 52.2548 371.255 63 358 63C344.745 63 334 52.2548 334 39Z" fill="white" shape-rendering="crispEdges"/>
<path d="M348.421 35.0264L348.354 35.4247C348.202 36.3376 348.276 37.2738 348.568 38.1518L348.685 38.5028C349.037 39.5579 349.63 40.5166 350.416 41.303L351.964 42.8509L356.61 46.6523C357.419 47.3138 358.581 47.3138 359.39 46.6523L364.036 42.8509L365.584 41.303C366.37 40.5166 366.963 39.5579 367.315 38.5028L367.432 38.1518C367.724 37.2738 367.798 36.3376 367.646 35.4247L367.579 35.0264C367.128 32.3216 364.668 30.422 361.937 30.6702C361.152 30.7416 360.392 30.9895 359.716 31.3953L358.318 32.2341C358.122 32.3515 357.878 32.3515 357.682 32.2341L356.284 31.3953C355.608 30.9895 354.848 30.7416 354.063 30.6702C351.332 30.422 348.872 32.3216 348.421 35.0264Z" stroke="#0F172A" stroke-width="1.5" stroke-linecap="round"/>
</g>
<defs>
<filter id="filter0_d_33_3755" x="-15" y="-20" width="118" height="118" filterUnits="userSpaceOnUse" color-interpolation-filters="sRGB">
<feFlood flood-opacity="0" result="BackgroundImageFix"/>
<feColorMatrix in="SourceAlpha" type="matrix" values="0 0 0 0 0 0 0 0 0 0 0 0 0 0 0 0 0 0 127 0" result="hardAlpha"/>
<feOffset/>
<feGaussianBlur stdDeviation="17.5"/>
<feComposite in2="hardAlpha" operator="out"/>
<feColorMatrix type="matrix" values="0 0 0 0 0.0196078 0 0 0 0 0.0196078 0 0 0 0 0.0784314 0 0 0 0.1 0"/>
<feBlend mode="normal" in2="BackgroundImageFix" result="effect1_dropShadow_33_3755"/>
<feBlend mode="normal" in="SourceGraphic" in2="effect1_dropShadow_33_3755" result="shape"/>
</filter>
<filter id="filter1_d_33_3755" x="281.5" y="-37.5" width="153" height="153" filterUnits="userSpaceOnUse" color-interpolation-filters="sRGB">
<feFlood flood-opacity="0" result="BackgroundImageFix"/>
<feColorMatrix in="SourceAlpha" type="matrix" values="0 0 0 0 0 0 0 0 0 0 0 0 0 0 0 0 0 0 127 0" result="hardAlpha"/>
<feOffset/>
<feGaussianBlur stdDeviation="26.25"/>
<feComposite in2="hardAlpha" operator="out"/>
<feColorMatrix type="matrix" values="0 0 0 0 0.0196078 0 0 0 0 0.0196078 0 0 0 0 0.0784314 0 0 0 0.1 0"/>
<feBlend mode="normal" in2="BackgroundImageFix" result="effect1_dropShadow_33_3755"/>
<feBlend mode="normal" in="SourceGraphic" in2="effect1_dropShadow_33_3755" result="shape"/>
</filter>
</defs>
</svg>
