<svg width="140" height="36" viewBox="0 0 140 36" fill="none" xmlns="http://www.w3.org/2000/svg">
<g id="Frame 138">
<g id="Pill" filter="url(#filter0_dii_33_2549)">
<path d="M5.90424 10.9077C5.90424 6.48626 9.48852 2.90197 13.91 2.90197H101.973C106.394 2.90197 109.979 6.48626 109.979 10.9077V18.9134C109.979 23.3348 106.394 26.9191 101.973 26.9191H13.91C9.48852 26.9191 5.90424 23.3348 5.90424 18.9134V10.9077Z" fill="url(#paint0_linear_33_2549)"/>
<path d="M13.91 3.65251H101.973C105.98 3.65251 109.228 6.90077 109.228 10.9077V18.9134C109.228 22.9203 105.98 26.1686 101.973 26.1686H13.91C9.90303 26.1686 6.65478 22.9203 6.65478 18.9134V10.9077C6.65478 6.90077 9.90303 3.65251 13.91 3.65251Z" stroke="white" stroke-opacity="0.5" stroke-width="1.5"/>
<path id="Content Creator" d="M21.7996 13.2694H20.1064C19.8542 12.3807 19.1697 11.9124 18.2571 11.9124C16.8881 11.9124 16.0955 13.0292 16.0955 14.8425C16.0955 16.6678 16.8761 17.7486 18.2571 17.7486C19.1217 17.7486 19.8062 17.3043 20.0824 16.4517H21.7876C21.3553 18.1569 19.9503 19.0935 18.2811 19.0935C15.8914 19.0935 14.4383 17.4844 14.4383 14.8425C14.4383 12.2126 15.9154 10.5674 18.3051 10.5674C19.9983 10.5674 21.4273 11.4921 21.7996 13.2694ZM25.5872 19.0935C23.6778 19.0935 22.501 17.8086 22.501 15.7071C22.501 13.5216 23.7138 12.2967 25.5872 12.2967C27.4845 12.2967 28.6614 13.5936 28.6614 15.7071C28.6614 17.8687 27.4485 19.0935 25.5872 19.0935ZM25.5872 17.8206C26.5599 17.8206 27.0762 17.0761 27.0762 15.7071C27.0762 14.3381 26.5479 13.5696 25.5872 13.5696C24.6025 13.5696 24.0861 14.3261 24.0861 15.7071C24.0861 17.0641 24.6145 17.8206 25.5872 17.8206ZM29.6587 18.9134V12.4768H31.1958V13.3414C31.6161 12.6449 32.2886 12.2967 33.1052 12.2967C34.3901 12.2967 35.2667 13.0652 35.2667 14.6263V18.9134H33.7296V14.9386C33.7296 14.0619 33.3574 13.5696 32.5768 13.5696C31.7242 13.5696 31.1958 14.3141 31.1958 15.1787V18.9134H29.6587ZM36.7673 16.908V13.6657H35.9388V12.4768H36.7673V10.9998H38.3044V12.4768H39.6614V13.6657H38.3044V16.7759C38.3044 17.4484 38.4966 17.8086 39.3492 17.8086H39.6374V18.9374C39.4693 19.0215 39.121 19.0935 38.7007 19.0935C37.3918 19.0935 36.7673 18.349 36.7673 16.908ZM46.3143 16.8119C45.966 18.301 44.8132 19.0935 43.2761 19.0935C41.3307 19.0935 40.1418 17.8086 40.1418 15.7071C40.1418 13.5216 41.3427 12.2967 43.216 12.2967C45.1014 12.2967 46.2662 13.5696 46.2662 15.6471V16.0073H41.727C41.799 17.1842 42.3394 17.8326 43.2761 17.8326C43.9966 17.8326 44.489 17.4964 44.6931 16.8119H46.3143ZM43.216 13.5576C42.3995 13.5576 41.9071 14.074 41.763 15.0466H44.6571C44.513 14.086 44.0206 13.5576 43.216 13.5576ZM47.2996 18.9134V12.4768H48.8367V13.3414C49.257 12.6449 49.9295 12.2967 50.7461 12.2967C52.031 12.2967 52.9076 13.0652 52.9076 14.6263V18.9134H51.3705V14.9386C51.3705 14.0619 50.9983 13.5696 50.2177 13.5696C49.3651 13.5696 48.8367 14.3141 48.8367 15.1787V18.9134H47.2996ZM54.4082 16.908V13.6657H53.5796V12.4768H54.4082V10.9998H55.9453V12.4768H57.3023V13.6657H55.9453V16.7759C55.9453 17.4484 56.1375 17.8086 56.9901 17.8086H57.2783V18.9374C57.1102 19.0215 56.7619 19.0935 56.3416 19.0935C55.0327 19.0935 54.4082 18.349 54.4082 16.908ZM67.4542 13.2694H65.761C65.5088 12.3807 64.8243 11.9124 63.9117 11.9124C62.5427 11.9124 61.7502 13.0292 61.7502 14.8425C61.7502 16.6678 62.5307 17.7486 63.9117 17.7486C64.7763 17.7486 65.4608 17.3043 65.737 16.4517H67.4422C67.0099 18.1569 65.6049 19.0935 63.9357 19.0935C61.546 19.0935 60.093 17.4844 60.093 14.8425C60.093 12.2126 61.57 10.5674 63.9597 10.5674C65.6529 10.5674 67.082 11.4921 67.4542 13.2694ZM68.4558 18.9134V12.4768H69.9929V13.4135C70.4132 12.6449 71.0617 12.2967 71.7582 12.2967C72.0224 12.2967 72.2625 12.3687 72.3826 12.4768V13.8098C72.1785 13.7497 71.9503 13.7257 71.6741 13.7257C70.5093 13.7257 69.9929 14.4222 69.9929 15.491V18.9134H68.4558ZM78.8284 16.8119C78.4802 18.301 77.3273 19.0935 75.7902 19.0935C73.8449 19.0935 72.656 17.8086 72.656 15.7071C72.656 13.5216 73.8569 12.2967 75.7302 12.2967C77.6155 12.2967 78.7804 13.5696 78.7804 15.6471V16.0073H74.2411C74.3132 17.1842 74.8536 17.8326 75.7902 17.8326C76.5108 17.8326 77.0031 17.4964 77.2073 16.8119H78.8284ZM75.7302 13.5576C74.9136 13.5576 74.4213 14.074 74.2772 15.0466H77.1712C77.0271 14.086 76.5348 13.5576 75.7302 13.5576ZM81.3028 14.5903H79.7537C79.9579 13.1613 81.0026 12.2967 82.6238 12.2967C84.4131 12.2967 85.3257 13.3534 85.3257 14.8425V17.3403C85.3257 18.1329 85.3978 18.5772 85.5178 18.9134H83.9207C83.8366 18.6973 83.8006 18.385 83.7886 18.0368C83.2602 18.7813 82.4677 19.0935 81.6991 19.0935C80.4382 19.0935 79.5376 18.4691 79.5376 17.2322C79.5376 16.3556 80.0299 15.6951 81.0146 15.3709C81.8672 15.0827 82.6958 15.0106 83.7766 14.9986V14.8425C83.7766 14.0139 83.3803 13.5696 82.5277 13.5696C81.7952 13.5696 81.3989 13.9779 81.3028 14.5903ZM81.0867 17.1481C81.0867 17.6405 81.471 17.9527 82.0954 17.9527C83.0441 17.9527 83.7766 17.1842 83.7766 16.2235V15.9473C81.591 15.9833 81.0867 16.4997 81.0867 17.1481ZM86.8755 16.908V13.6657H86.0469V12.4768H86.8755V10.9998H88.4126V12.4768H89.7695V13.6657H88.4126V16.7759C88.4126 17.4484 88.6047 17.8086 89.4573 17.8086H89.7455V18.9374C89.5774 19.0215 89.2291 19.0935 88.8088 19.0935C87.4999 19.0935 86.8755 18.349 86.8755 16.908ZM93.3362 19.0935C91.4268 19.0935 90.25 17.8086 90.25 15.7071C90.25 13.5216 91.4628 12.2967 93.3362 12.2967C95.2335 12.2967 96.4104 13.5936 96.4104 15.7071C96.4104 17.8687 95.1975 19.0935 93.3362 19.0935ZM93.3362 17.8206C94.3089 17.8206 94.8252 17.0761 94.8252 15.7071C94.8252 14.3381 94.2969 13.5696 93.3362 13.5696C92.3515 13.5696 91.8351 14.3261 91.8351 15.7071C91.8351 17.0641 92.3635 17.8206 93.3362 17.8206ZM97.4077 18.9134V12.4768H98.9448V13.4135C99.3651 12.6449 100.014 12.2967 100.71 12.2967C100.974 12.2967 101.214 12.3687 101.335 12.4768V13.8098C101.13 13.7497 100.902 13.7257 100.626 13.7257C99.4612 13.7257 98.9448 14.4222 98.9448 15.491V18.9134H97.4077Z" fill="white"/>
</g>
<g id="Pill_2">
<path d="M123.989 3.65251H131.994C136.001 3.65251 139.249 6.90077 139.249 10.9077V18.9134C139.249 22.9203 136.001 26.1686 131.994 26.1686H123.989C119.982 26.1686 116.733 22.9203 116.733 18.9134V10.9077C116.733 6.90077 119.982 3.65251 123.989 3.65251Z" fill="white"/>
<path d="M123.989 3.65251H131.994C136.001 3.65251 139.249 6.90077 139.249 10.9077V18.9134C139.249 22.9203 136.001 26.1686 131.994 26.1686H123.989C119.982 26.1686 116.733 22.9203 116.733 18.9134V10.9077C116.733 6.90077 119.982 3.65251 123.989 3.65251Z" stroke="#E2E8F0" stroke-width="1.5"/>
<g id="tiktok">
<g id="Vector" style="mix-blend-mode:multiply">
<path d="M127.397 13.6283C126.658 13.5237 125.905 13.6475 125.239 13.9831C124.572 14.3187 124.025 14.85 123.669 15.5059C123.313 16.1617 123.166 16.9106 123.248 17.6523C123.329 18.394 123.636 19.0929 124.126 19.6554C124.617 20.2178 125.267 20.6169 125.991 20.7992C126.714 20.9814 127.476 20.938 128.175 20.6749C128.873 20.4118 129.474 19.9414 129.897 19.327C130.321 18.7125 130.546 17.9833 130.543 17.2372V13.2343C131.346 13.8083 132.309 14.1147 133.295 14.1099V12.1398C132.565 12.1398 131.865 11.8498 131.349 11.3337C130.833 10.8176 130.543 10.1177 130.543 9.38781H128.554V17.2559C128.554 17.6091 128.441 17.9529 128.233 18.2382C128.025 18.5236 127.732 18.7358 127.396 18.8444C127.06 18.9531 126.698 18.9527 126.363 18.8432C126.027 18.7337 125.734 18.5209 125.527 18.235C125.32 17.9492 125.208 17.6051 125.208 17.252C125.208 16.8988 125.32 16.5548 125.528 16.2691C125.735 15.9834 126.028 15.7708 126.364 15.6615C126.7 15.5523 127.061 15.5521 127.397 15.661V13.6283Z" fill="#FF004F"/>
</g>
<g id="Vector_2" style="mix-blend-mode:multiply">
<path d="M126.834 13.1593C126.096 13.0547 125.342 13.1785 124.676 13.514C124.01 13.8496 123.462 14.381 123.106 15.0368C122.75 15.6926 122.603 16.4416 122.685 17.1832C122.767 17.9249 123.073 18.6238 123.564 19.1863C124.054 19.7487 124.704 20.1478 125.428 20.3301C126.152 20.5123 126.914 20.4689 127.612 20.2058C128.31 19.9427 128.911 19.4723 129.334 18.8579C129.758 18.2434 129.983 17.5142 129.98 16.7681V12.7652C130.783 13.3392 131.746 13.6456 132.732 13.6408V11.6707C132.002 11.6707 131.302 11.3807 130.786 10.8647C130.27 10.3486 129.98 9.64859 129.98 8.91872H127.991V16.7868C127.991 17.14 127.878 17.4838 127.67 17.7692C127.462 18.0545 127.169 18.2667 126.833 18.3753C126.497 18.484 126.135 18.4836 125.8 18.3741C125.464 18.2647 125.172 18.0518 124.964 17.7659C124.757 17.4801 124.645 17.136 124.645 16.7829C124.645 16.4297 124.757 16.0857 124.965 15.8C125.172 15.5143 125.465 15.3017 125.801 15.1924C126.137 15.0832 126.498 15.083 126.834 15.192V13.1593Z" fill="#00F2EA"/>
</g>
</g>
</g>
</g>
<defs>
<filter id="filter0_dii_33_2549" x="2.43361e-05" y="-9.78215e-05" width="115.883" height="35.8256" filterUnits="userSpaceOnUse" color-interpolation-filters="sRGB">
<feFlood flood-opacity="0" result="BackgroundImageFix"/>
<feColorMatrix in="SourceAlpha" type="matrix" values="0 0 0 0 0 0 0 0 0 0 0 0 0 0 0 0 0 0 127 0" result="hardAlpha"/>
<feOffset dy="3"/>
<feGaussianBlur stdDeviation="2.95"/>
<feColorMatrix type="matrix" values="0 0 0 0 0.0303485 0 0 0 0 0.0252404 0 0 0 0 0.0865385 0 0 0 0.1 0"/>
<feBlend mode="normal" in2="BackgroundImageFix" result="effect1_dropShadow_33_2549"/>
<feBlend mode="normal" in="SourceGraphic" in2="effect1_dropShadow_33_2549" result="shape"/>
<feColorMatrix in="SourceAlpha" type="matrix" values="0 0 0 0 0 0 0 0 0 0 0 0 0 0 0 0 0 0 127 0" result="hardAlpha"/>
<feOffset dx="2" dy="2"/>
<feGaussianBlur stdDeviation="1.25"/>
<feComposite in2="hardAlpha" operator="arithmetic" k2="-1" k3="1"/>
<feColorMatrix type="matrix" values="0 0 0 0 1 0 0 0 0 1 0 0 0 0 1 0 0 0 0.25 0"/>
<feBlend mode="normal" in2="shape" result="effect2_innerShadow_33_2549"/>
<feColorMatrix in="SourceAlpha" type="matrix" values="0 0 0 0 0 0 0 0 0 0 0 0 0 0 0 0 0 0 127 0" result="hardAlpha"/>
<feOffset dy="-1"/>
<feGaussianBlur stdDeviation="2"/>
<feComposite in2="hardAlpha" operator="arithmetic" k2="-1" k3="1"/>
<feColorMatrix type="matrix" values="0 0 0 0 0.513726 0 0 0 0 0.0941176 0 0 0 0 0.262745 0 0 0 0.1 0"/>
<feBlend mode="normal" in2="effect2_innerShadow_33_2549" result="effect3_innerShadow_33_2549"/>
</filter>
<linearGradient id="paint0_linear_33_2549" x1="57.9414" y1="2.90197" x2="57.9414" y2="26.9191" gradientUnits="userSpaceOnUse">
<stop stop-color="#F5D0FE"/>
<stop offset="1" stop-color="#DB2777"/>
</linearGradient>
</defs>
</svg>
