<svg preserveAspectRatio="none" width="100%" height="100%" overflow="visible" style="display: block;" viewBox="0 0 44.975 44.975" fill="none" xmlns="http://www.w3.org/2000/svg">
<g id="Plus Circle">
<g id="Vector" filter="url(#filter0_d_0_34)">
<path fill-rule="evenodd" clip-rule="evenodd" d="M34.675 22.4875C34.675 15.7565 29.2185 10.3 22.4875 10.3C15.7565 10.3 10.3 15.7565 10.3 22.4875C10.3 29.2185 15.7565 34.675 22.4875 34.675C29.2185 34.675 34.675 29.2185 34.675 22.4875ZM21.55 18.7375C21.55 18.2197 21.9697 17.8 22.4875 17.8C23.0053 17.8 23.425 18.2197 23.425 18.7375V21.55H26.2375C26.7553 21.55 27.175 21.9697 27.175 22.4875C27.175 23.0053 26.7553 23.425 26.2375 23.425H23.425V26.2375C23.425 26.7553 23.0053 27.175 22.4875 27.175C21.9697 27.175 21.55 26.7553 21.55 26.2375V23.425H18.7375C18.2197 23.425 17.8 23.0053 17.8 22.4875C17.8 21.9697 18.2197 21.55 18.7375 21.55H21.55V18.7375Z" fill="var(--fill-0, #94A3B8)"/>
<path d="M22.4875 17.8C21.9697 17.8 21.55 18.2197 21.55 18.7375V21.55H18.7375C18.2197 21.55 17.8 21.9697 17.8 22.4875C17.8 23.0053 18.2197 23.425 18.7375 23.425H21.55V26.2375C21.55 26.7553 21.9697 27.175 22.4875 27.175C23.0053 27.175 23.425 26.7553 23.425 26.2375V23.425H26.2375C26.7553 23.425 27.175 23.0053 27.175 22.4875C27.175 21.9697 26.7553 21.55 26.2375 21.55H23.425V18.7375C23.425 18.2197 23.0053 17.8 22.4875 17.8Z" fill="white"/>
</g>
</g>
<defs>
<filter id="filter0_d_0_34" x="0" y="0" width="44.975" height="44.975" filterUnits="userSpaceOnUse" color-interpolation-filters="sRGB">
<feFlood flood-opacity="0" result="BackgroundImageFix"/>
<feColorMatrix in="SourceAlpha" type="matrix" values="0 0 0 0 0 0 0 0 0 0 0 0 0 0 0 0 0 0 127 0" result="hardAlpha"/>
<feOffset/>
<feGaussianBlur stdDeviation="5.15"/>
<feComposite in2="hardAlpha" operator="out"/>
<feColorMatrix type="matrix" values="0 0 0 0 1 0 0 0 0 1 0 0 0 0 1 0 0 0 1 0"/>
<feBlend mode="normal" in2="BackgroundImageFix" result="effect1_dropShadow_0_34"/>
<feBlend mode="normal" in="SourceGraphic" in2="effect1_dropShadow_0_34" result="shape"/>
</filter>
</defs>
</svg>
