<svg width="24" height="24" viewBox="0 0 24 24" fill="none" xmlns="http://www.w3.org/2000/svg">
<path d="M9 11C10.3807 11 11.5 9.88071 11.5 8.5C11.5 7.11929 10.3807 6 9 6C7.61929 6 6.5 7.11929 6.5 8.5C6.5 9.88071 7.61929 11 9 11ZM9 11V18M15 6V13M15 13C13.6193 13 12.5 14.1193 12.5 15.5C12.5 16.8807 13.6193 18 15 18C16.3807 18 17.5 16.8807 17.5 15.5C17.5 14.1193 16.3807 13 15 13ZM7 21H17C19.2091 21 21 19.2091 21 17V7C21 4.79086 19.2091 3 17 3H7C4.79086 3 3 4.79086 3 7V17C3 19.2091 4.79086 21 7 21Z" stroke="#0F172A" stroke-width="1.5" stroke-linecap="round" stroke-linejoin="round"/>
</svg>
