<svg preserveAspectRatio="none" width="100%" height="100%" overflow="visible" style="display: block;" viewBox="0 0 24 24" fill="none" xmlns="http://www.w3.org/2000/svg">
<g id="Share">
<path id="Vector" d="M14.7501 13.375L9.25008 16.5833M9.25008 7.41667L14.7501 10.625M3.75 17.5C3.75 19.0188 4.98122 20.25 6.5 20.25C8.01878 20.25 9.25 19.0188 9.25 17.5C9.25 15.9812 8.01878 14.75 6.5 14.75C4.98122 14.75 3.75 15.9812 3.75 17.5ZM3.75 6.5C3.75 8.01878 4.98122 9.25 6.5 9.25C8.01878 9.25 9.25 8.01878 9.25 6.5C9.25 4.98122 8.01878 3.75 6.5 3.75C4.98122 3.75 3.75 4.98122 3.75 6.5ZM14.75 12C14.75 13.5188 15.9812 14.75 17.5 14.75C19.0188 14.75 20.25 13.5188 20.25 12C20.25 10.4812 19.0188 9.25 17.5 9.25C15.9812 9.25 14.75 10.4812 14.75 12Z" stroke="var(--stroke-0, white)" stroke-width="1.5" stroke-linecap="round"/>
</g>
</svg>
