<svg width="24" height="24" viewBox="0 0 24 24" fill="none" xmlns="http://www.w3.org/2000/svg">
<g id="Share">
<path id="Vector" d="M9.24992 13.375L14.7499 16.5833M14.7499 7.41667L9.24992 10.625M20.25 17.5C20.25 19.0188 19.0188 20.25 17.5 20.25C15.9812 20.25 14.75 19.0188 14.75 17.5C14.75 15.9812 15.9812 14.75 17.5 14.75C19.0188 14.75 20.25 15.9812 20.25 17.5ZM20.25 6.5C20.25 8.01878 19.0188 9.25 17.5 9.25C15.9812 9.25 14.75 8.01878 14.75 6.5C14.75 4.98122 15.9812 3.75 17.5 3.75C19.0188 3.75 20.25 4.98122 20.25 6.5ZM9.25 12C9.25 13.5188 8.01878 14.75 6.5 14.75C4.98122 14.75 3.75 13.5188 3.75 12C3.75 10.4812 4.98122 9.25 6.5 9.25C8.01878 9.25 9.25 10.4812 9.25 12Z" stroke="white" stroke-width="1.5" stroke-linecap="round"/>
</g>
</svg>
