<svg preserveAspectRatio="none" width="100%" height="100%" overflow="visible" style="display: block;" viewBox="0 0 16 16" fill="none" xmlns="http://www.w3.org/2000/svg">
<g id="Share">
<path id="Vector" d="M9.83339 8.91667L6.16672 11.0556M6.16672 4.94444L9.83339 7.08333M2.5 11.6667C2.5 12.6792 3.32081 13.5 4.33333 13.5C5.34586 13.5 6.16667 12.6792 6.16667 11.6667C6.16667 10.6541 5.34586 9.83333 4.33333 9.83333C3.32081 9.83333 2.5 10.6541 2.5 11.6667ZM2.5 4.33333C2.5 5.34586 3.32081 6.16667 4.33333 6.16667C5.34586 6.16667 6.16667 5.34586 6.16667 4.33333C6.16667 3.32081 5.34586 2.5 4.33333 2.5C3.32081 2.5 2.5 3.32081 2.5 4.33333ZM9.83333 8C9.83333 9.01252 10.6541 9.83333 11.6667 9.83333C12.6792 9.83333 13.5 9.01252 13.5 8C13.5 6.98748 12.6792 6.16667 11.6667 6.16667C10.6541 6.16667 9.83333 6.98748 9.83333 8Z" stroke="var(--stroke-0, white)" stroke-linecap="round"/>
</g>
</svg>
