<svg width="16" height="16" viewBox="0 0 16 16" fill="none" xmlns="http://www.w3.org/2000/svg">
<path d="M6.16661 8.91667L9.83328 11.0556M9.83328 4.94444L6.16661 7.08333M13.5 11.6667C13.5 12.6792 12.6792 13.5 11.6667 13.5C10.6541 13.5 9.83333 12.6792 9.83333 11.6667C9.83333 10.6541 10.6541 9.83333 11.6667 9.83333C12.6792 9.83333 13.5 10.6541 13.5 11.6667ZM13.5 4.33333C13.5 5.34586 12.6792 6.16667 11.6667 6.16667C10.6541 6.16667 9.83333 5.34586 9.83333 4.33333C9.83333 3.32081 10.6541 2.5 11.6667 2.5C12.6792 2.5 13.5 3.32081 13.5 4.33333ZM6.16667 8C6.16667 9.01252 5.34586 9.83333 4.33333 9.83333C3.32081 9.83333 2.5 9.01252 2.5 8C2.5 6.98748 3.32081 6.16667 4.33333 6.16667C5.34586 6.16667 6.16667 6.98748 6.16667 8Z" stroke="white" stroke-linecap="round"/>
</svg>
