<svg width="24" height="24" viewBox="0 0 24 24" fill="none" xmlns="http://www.w3.org/2000/svg">
<path fill-rule="evenodd" clip-rule="evenodd" d="M14.078 9.24842C15.226 10.3964 15.226 12.2564 14.078 13.4044C12.93 14.5524 11.07 14.5524 9.92201 13.4044C8.77401 12.2564 8.77401 10.3964 9.92201 9.24842C11.07 8.10142 12.93 8.10142 14.078 9.24842Z" stroke="#0F172A" stroke-width="1.5" stroke-linecap="round" stroke-linejoin="round"/>
<path d="M20.1461 6.6577L20.5759 8.59163C20.8555 9.85 20.8694 11.1529 20.6166 12.4169C20.2167 14.4163 19.1682 16.2278 17.6338 17.5704L17.097 18.0401C16.3686 18.6774 15.5618 19.2191 14.6962 19.6519L12.3725 20.8137C12.138 20.931 11.8619 20.931 11.6274 20.8137L9.81057 19.9053C8.61135 19.3057 7.51664 18.5167 6.56857 17.5686L5.84874 16.8488C4.64131 15.6413 3.80322 14.1146 3.4328 12.4477C3.14773 11.1649 3.14773 9.8351 3.4328 8.55227L3.86012 6.62935C3.94736 6.23675 4.22707 5.91482 4.60364 5.77361L11.2977 3.26333C11.7505 3.09354 12.2495 3.09354 12.7022 3.26333L19.3691 5.76341C19.7626 5.91099 20.055 6.24742 20.1461 6.6577Z" stroke="#0F172A" stroke-width="1.5" stroke-linecap="round" stroke-linejoin="round"/>
</svg>
