<svg width="54" height="53" viewBox="0 0 54 53" fill="none" xmlns="http://www.w3.org/2000/svg">
<g filter="url(#filter0_d_33_667)">
<g filter="url(#filter1_iii_33_667)">
<path d="M26.8699 23.8442C26.7847 24.1751 26.4953 24.4219 26.1533 24.5929C25.1839 24.9284 24.4181 25.251 23.7844 25.5643C23.2235 25.8416 23.2289 26.7179 23.7917 26.9915C24.4492 27.3112 25.2748 27.6178 26.1917 27.9812C26.4382 28.079 26.7866 28.3551 26.8733 28.6945C27.1406 29.7403 27.5042 30.8475 27.9046 31.8696C28.2154 32.663 28.9838 32.6624 29.2961 31.8696C29.7016 30.8404 30.0096 29.7287 30.3572 28.671C30.4404 28.3444 30.6868 28.0861 31.0044 27.9736C31.8629 27.6695 32.6905 27.3263 33.365 27.0292C33.995 26.7517 34.008 25.8509 33.3859 25.5562C32.7216 25.2415 31.8953 24.8771 31.0003 24.5519C30.6853 24.4374 30.4429 24.1958 30.3309 23.8529C29.9537 22.6974 29.7146 21.7178 29.3138 20.7005C29.0015 19.9077 28.1815 19.9321 27.8692 20.7249C27.4699 21.7385 27.1911 22.7473 26.8699 23.8442Z" fill="url(#paint0_linear_33_667)"/>
</g>
<path d="M26.8699 23.8442C26.7847 24.1751 26.4953 24.4219 26.1533 24.5929C25.1839 24.9284 24.4181 25.251 23.7844 25.5643C23.2235 25.8416 23.2289 26.7179 23.7917 26.9915C24.4492 27.3112 25.2748 27.6178 26.1917 27.9812C26.4382 28.079 26.7866 28.3551 26.8733 28.6945C27.1406 29.7403 27.5042 30.8475 27.9046 31.8696C28.2154 32.663 28.9838 32.6624 29.2961 31.8696C29.7016 30.8404 30.0096 29.7287 30.3572 28.671C30.4404 28.3444 30.6868 28.0861 31.0044 27.9736C31.8629 27.6695 32.6905 27.3263 33.365 27.0292C33.995 26.7517 34.008 25.8509 33.3859 25.5562C32.7216 25.2415 31.8953 24.8771 31.0003 24.5519C30.6853 24.4374 30.4429 24.1958 30.3309 23.8529C29.9537 22.6974 29.7146 21.7178 29.3138 20.7005C29.0015 19.9077 28.1815 19.9321 27.8692 20.7249C27.4699 21.7385 27.1911 22.7473 26.8699 23.8442Z" fill="url(#paint1_linear_33_667)"/>
<g filter="url(#filter2_ii_33_667)">
<path d="M22.8433 21.1993C22.8159 21.3058 22.7228 21.3853 22.6127 21.4403C22.3007 21.5483 22.0542 21.6521 21.8502 21.7529C21.6697 21.8422 21.6714 22.1243 21.8526 22.2123C22.0642 22.3152 22.3299 22.4139 22.625 22.5309C22.7044 22.5623 22.8165 22.6512 22.8444 22.7604C22.9304 23.097 23.0475 23.4534 23.1763 23.7824C23.2764 24.0377 23.5237 24.0375 23.6242 23.7824C23.7547 23.4511 23.8538 23.0933 23.9657 22.7529C23.9925 22.6477 24.0718 22.5646 24.174 22.5284C24.4503 22.4305 24.7167 22.3201 24.9338 22.2244C25.1366 22.1351 25.1407 21.8452 24.9405 21.7504C24.7267 21.6491 24.4608 21.5318 24.1727 21.4271C24.0713 21.3903 23.9933 21.3125 23.9573 21.2021C23.8358 20.8302 23.7589 20.5149 23.6299 20.1875C23.5294 19.9323 23.2655 19.9402 23.1649 20.1954C23.0364 20.5216 22.9467 20.8463 22.8433 21.1993Z" fill="url(#paint2_linear_33_667)"/>
</g>
<path d="M22.8433 21.1993C22.8159 21.3058 22.7228 21.3853 22.6127 21.4403C22.3007 21.5483 22.0542 21.6521 21.8502 21.7529C21.6697 21.8422 21.6714 22.1243 21.8526 22.2123C22.0642 22.3152 22.3299 22.4139 22.625 22.5309C22.7044 22.5623 22.8165 22.6512 22.8444 22.7604C22.9304 23.097 23.0475 23.4534 23.1763 23.7824C23.2764 24.0377 23.5237 24.0375 23.6242 23.7824C23.7547 23.4511 23.8538 23.0933 23.9657 22.7529C23.9925 22.6477 24.0718 22.5646 24.174 22.5284C24.4503 22.4305 24.7167 22.3201 24.9338 22.2244C25.1366 22.1351 25.1407 21.8452 24.9405 21.7504C24.7267 21.6491 24.4608 21.5318 24.1727 21.4271C24.0713 21.3903 23.9933 21.3125 23.9573 21.2021C23.8358 20.8302 23.7589 20.5149 23.6299 20.1875C23.5294 19.9323 23.2655 19.9402 23.1649 20.1954C23.0364 20.5216 22.9467 20.8463 22.8433 21.1993Z" fill="url(#paint3_linear_33_667)"/>
<g filter="url(#filter3_i_33_667)">
<path d="M21.5723 28.3243C21.5341 28.4728 21.4042 28.5836 21.2507 28.6603C20.8156 28.8109 20.4719 28.9557 20.1875 29.0963C19.9357 29.2207 19.9382 29.614 20.1908 29.7368C20.4859 29.8803 20.8564 30.0179 21.2679 30.181C21.3786 30.2249 21.5349 30.3488 21.5739 30.5011C21.6938 30.9705 21.857 31.4675 22.0367 31.9262C22.1762 32.2823 22.5211 32.282 22.6612 31.9262C22.8432 31.4643 22.9815 30.9653 23.1375 30.4906C23.1748 30.344 23.2854 30.2281 23.4279 30.1776C23.8133 30.0411 24.1847 29.8871 24.4874 29.7537C24.7701 29.6292 24.776 29.2249 24.4968 29.0927C24.1987 28.9514 23.8278 28.7879 23.4261 28.6419C23.2847 28.5905 23.1759 28.4821 23.1257 28.3282C22.9564 27.8096 22.8491 27.3699 22.6692 26.9133C22.529 26.5575 22.161 26.5684 22.0208 26.9243C21.8416 27.3792 21.7165 27.832 21.5723 28.3243Z" fill="url(#paint4_radial_33_667)"/>
</g>
</g>
<defs>
<filter id="filter0_d_33_667" x="0" y="0" width="53.8451" height="52.4644" filterUnits="userSpaceOnUse" color-interpolation-filters="sRGB">
<feFlood flood-opacity="0" result="BackgroundImageFix"/>
<feColorMatrix in="SourceAlpha" type="matrix" values="0 0 0 0 0 0 0 0 0 0 0 0 0 0 0 0 0 0 127 0" result="hardAlpha"/>
<feOffset/>
<feGaussianBlur stdDeviation="10"/>
<feComposite in2="hardAlpha" operator="out"/>
<feColorMatrix type="matrix" values="0 0 0 0 0.996078 0 0 0 0 0.952941 0 0 0 0 0.780392 0 0 0 1 0"/>
<feBlend mode="normal" in2="BackgroundImageFix" result="effect1_dropShadow_33_667"/>
<feBlend mode="normal" in="SourceGraphic" in2="effect1_dropShadow_33_667" result="shape"/>
</filter>
<filter id="filter1_iii_33_667" x="23.1666" y="19.9929" width="10.8035" height="12.5965" filterUnits="userSpaceOnUse" color-interpolation-filters="sRGB">
<feFlood flood-opacity="0" result="BackgroundImageFix"/>
<feBlend mode="normal" in="SourceGraphic" in2="BackgroundImageFix" result="shape"/>
<feColorMatrix in="SourceAlpha" type="matrix" values="0 0 0 0 0 0 0 0 0 0 0 0 0 0 0 0 0 0 127 0" result="hardAlpha"/>
<feOffset dx="0.125" dy="-0.125"/>
<feGaussianBlur stdDeviation="0.125"/>
<feComposite in2="hardAlpha" operator="arithmetic" k2="-1" k3="1"/>
<feColorMatrix type="matrix" values="0 0 0 0 0.937255 0 0 0 0 0.482353 0 0 0 0 0.329412 0 0 0 1 0"/>
<feBlend mode="normal" in2="shape" result="effect1_innerShadow_33_667"/>
<feColorMatrix in="SourceAlpha" type="matrix" values="0 0 0 0 0 0 0 0 0 0 0 0 0 0 0 0 0 0 127 0" result="hardAlpha"/>
<feOffset dx="0.125" dy="0.125"/>
<feGaussianBlur stdDeviation="0.25"/>
<feComposite in2="hardAlpha" operator="arithmetic" k2="-1" k3="1"/>
<feColorMatrix type="matrix" values="0 0 0 0 0.737255 0 0 0 0 0.615686 0 0 0 0 0.415686 0 0 0 1 0"/>
<feBlend mode="normal" in2="effect1_innerShadow_33_667" result="effect2_innerShadow_33_667"/>
<feColorMatrix in="SourceAlpha" type="matrix" values="0 0 0 0 0 0 0 0 0 0 0 0 0 0 0 0 0 0 127 0" result="hardAlpha"/>
<feOffset dx="-0.2" dy="0.125"/>
<feGaussianBlur stdDeviation="0.1"/>
<feComposite in2="hardAlpha" operator="arithmetic" k2="-1" k3="1"/>
<feColorMatrix type="matrix" values="0 0 0 0 1 0 0 0 0 0.901961 0 0 0 0 0.458824 0 0 0 1 0"/>
<feBlend mode="normal" in2="effect2_innerShadow_33_667" result="effect3_innerShadow_33_667"/>
</filter>
<filter id="filter2_ii_33_667" x="21.6658" y="20" width="3.47256" height="4.02381" filterUnits="userSpaceOnUse" color-interpolation-filters="sRGB">
<feFlood flood-opacity="0" result="BackgroundImageFix"/>
<feBlend mode="normal" in="SourceGraphic" in2="BackgroundImageFix" result="shape"/>
<feColorMatrix in="SourceAlpha" type="matrix" values="0 0 0 0 0 0 0 0 0 0 0 0 0 0 0 0 0 0 127 0" result="hardAlpha"/>
<feOffset dx="0.05" dy="0.05"/>
<feGaussianBlur stdDeviation="0.05"/>
<feComposite in2="hardAlpha" operator="arithmetic" k2="-1" k3="1"/>
<feColorMatrix type="matrix" values="0 0 0 0 0.803922 0 0 0 0 0.6 0 0 0 0 0.262745 0 0 0 1 0"/>
<feBlend mode="normal" in2="shape" result="effect1_innerShadow_33_667"/>
<feColorMatrix in="SourceAlpha" type="matrix" values="0 0 0 0 0 0 0 0 0 0 0 0 0 0 0 0 0 0 127 0" result="hardAlpha"/>
<feOffset dx="-0.05" dy="0.05"/>
<feGaussianBlur stdDeviation="0.05"/>
<feComposite in2="hardAlpha" operator="arithmetic" k2="-1" k3="1"/>
<feColorMatrix type="matrix" values="0 0 0 0 1 0 0 0 0 0.882353 0 0 0 0 0.423529 0 0 0 1 0"/>
<feBlend mode="normal" in2="effect1_innerShadow_33_667" result="effect2_innerShadow_33_667"/>
</filter>
<filter id="filter3_i_33_667" x="20" y="26.5769" width="4.77788" height="5.61631" filterUnits="userSpaceOnUse" color-interpolation-filters="sRGB">
<feFlood flood-opacity="0" result="BackgroundImageFix"/>
<feBlend mode="normal" in="SourceGraphic" in2="BackgroundImageFix" result="shape"/>
<feColorMatrix in="SourceAlpha" type="matrix" values="0 0 0 0 0 0 0 0 0 0 0 0 0 0 0 0 0 0 127 0" result="hardAlpha"/>
<feOffset dx="0.075" dy="-0.075"/>
<feGaussianBlur stdDeviation="0.075"/>
<feComposite in2="hardAlpha" operator="arithmetic" k2="-1" k3="1"/>
<feColorMatrix type="matrix" values="0 0 0 0 1 0 0 0 0 0.458824 0 0 0 0 0.462745 0 0 0 1 0"/>
<feBlend mode="normal" in2="shape" result="effect1_innerShadow_33_667"/>
</filter>
<linearGradient id="paint0_linear_33_667" x1="32.0238" y1="23.9267" x2="26.4853" y2="29.7567" gradientUnits="userSpaceOnUse">
<stop stop-color="#FFCF5A"/>
<stop offset="1" stop-color="#FEA254"/>
</linearGradient>
<linearGradient id="paint1_linear_33_667" x1="26.3363" y1="32.9362" x2="29.3553" y2="26.5682" gradientUnits="userSpaceOnUse">
<stop stop-color="#FF886D"/>
<stop offset="1" stop-color="#FF886D" stop-opacity="0"/>
</linearGradient>
<linearGradient id="paint2_linear_33_667" x1="24.5023" y1="21.2257" x2="22.7198" y2="23.1022" gradientUnits="userSpaceOnUse">
<stop stop-color="#FFDA72"/>
<stop offset="1" stop-color="#F7A967"/>
</linearGradient>
<linearGradient id="paint3_linear_33_667" x1="23.4023" y1="24.2812" x2="23.4023" y2="22.2187" gradientUnits="userSpaceOnUse">
<stop stop-color="#FDA071"/>
<stop offset="1" stop-color="#FDA071" stop-opacity="0"/>
</linearGradient>
<radialGradient id="paint4_radial_33_667" cx="0" cy="0" r="1" gradientTransform="matrix(-2.1401 2.81733 -2.74355 -2.08405 23.9663 27.5749)" gradientUnits="userSpaceOnUse">
<stop offset="0.365" stop-color="#FFBC64"/>
<stop offset="1" stop-color="#FF8F6B"/>
</radialGradient>
</defs>
</svg>
