<svg width="16" height="16" viewBox="0 0 16 16" fill="none" xmlns="http://www.w3.org/2000/svg">
<g id="tiktok">
<g id="Vector" style="mix-blend-mode:multiply">
<path d="M7.40628 6.71895C6.668 6.61443 5.91541 6.73814 5.24944 7.07349C4.58346 7.40884 4.03593 7.93978 3.68028 8.59513C3.32462 9.25049 3.17783 9.99891 3.2596 10.7401C3.34137 11.4812 3.64779 12.1796 4.13776 12.7417C4.62773 13.3037 5.27784 13.7026 6.0009 13.8846C6.72396 14.0667 7.48542 14.0234 8.18316 13.7605C8.8809 13.4975 9.48156 13.0275 9.90461 12.4135C10.3277 11.7995 10.5529 11.0708 10.55 10.3252V6.3252C11.3519 6.8988 12.3142 7.20498 13.3 7.2002V5.23145C12.5707 5.23145 11.8712 4.94171 11.3555 4.42599C10.8398 3.91026 10.55 3.21079 10.55 2.48145H8.56253V10.3439C8.56181 10.6968 8.44947 11.0404 8.24157 11.3256C8.03368 11.6107 7.74089 11.8227 7.40514 11.9313C7.06939 12.0399 6.70789 12.0395 6.37239 11.9301C6.0369 11.8207 5.74462 11.608 5.5374 11.3223C5.33018 11.0367 5.21865 10.6929 5.21878 10.34C5.2189 9.9871 5.33068 9.64331 5.5381 9.35784C5.74553 9.07236 6.03796 8.85983 6.37353 8.75068C6.7091 8.64154 7.0706 8.64137 7.40628 8.7502V6.71895Z" fill="#FF004F"/>
</g>
<g id="Vector_2" style="mix-blend-mode:multiply">
<path d="M6.84378 6.2502C6.1055 6.14568 5.35291 6.26939 4.68694 6.60474C4.02096 6.94009 3.47343 7.47103 3.11778 8.12638C2.76212 8.78174 2.61533 9.53016 2.6971 10.2713C2.77887 11.0125 3.08529 11.7109 3.57526 12.2729C4.06523 12.835 4.71534 13.2338 5.4384 13.4159C6.16146 13.598 6.92292 13.5547 7.62066 13.2917C8.3184 13.0288 8.91906 12.5588 9.34211 11.9448C9.76516 11.3308 9.99036 10.6021 9.98753 9.85645V5.85645C10.7894 6.43005 11.7517 6.73623 12.7375 6.73145V4.7627C12.0082 4.7627 11.3087 4.47296 10.793 3.95724C10.2773 3.44151 9.98753 2.74204 9.98753 2.0127H8.00003V9.8752C7.99931 10.2281 7.88697 10.5717 7.67907 10.8568C7.47118 11.1419 7.17839 11.354 6.84264 11.4626C6.50689 11.5712 6.14539 11.5707 5.80989 11.4613C5.4744 11.352 5.18212 11.1392 4.9749 10.8536C4.76768 10.568 4.65615 10.2241 4.65628 9.87123C4.6564 9.51835 4.76818 9.17456 4.9756 8.88909C5.18303 8.60361 5.47546 8.39108 5.81103 8.28193C6.1466 8.17279 6.5081 8.17262 6.84378 8.28145V6.2502Z" fill="#00F2EA"/>
</g>
</g>
</svg>
