<svg preserveAspectRatio="none" width="100%" height="100%" overflow="visible" style="display: block;" viewBox="0 0 17.6093 20.1493" fill="none" xmlns="http://www.w3.org/2000/svg">
<g id="Vector" style="mix-blend-mode:multiply">
<path d="M7.29527 7.41563C6.00328 7.23273 4.68626 7.44922 3.5208 8.03608C2.35534 8.62293 1.39718 9.55209 0.774775 10.699C0.152374 11.8458 -0.1045 13.1556 0.0385958 14.4526C0.181692 15.7496 0.717918 16.9718 1.57537 17.9554C2.43282 18.939 3.5705 19.6369 4.83587 19.9556C6.10123 20.2743 7.43377 20.1984 8.65481 19.7383C9.87586 19.2781 10.927 18.4557 11.6674 17.3811C12.4077 16.3066 12.8018 15.0314 12.7968 13.7266V6.72656C14.2001 7.73037 15.8841 8.26618 17.6093 8.25781V4.8125C16.333 4.8125 15.1089 4.30547 14.2064 3.40295C13.3039 2.50043 12.7968 1.27635 12.7968 0H9.31871V13.7594C9.31746 14.3769 9.12086 14.9782 8.75704 15.4772C8.39322 15.9762 7.88085 16.3472 7.29328 16.5373C6.70572 16.7273 6.07309 16.7266 5.48598 16.5351C4.89886 16.3437 4.38737 15.9714 4.02474 15.4716C3.66211 14.9717 3.46693 14.37 3.46715 13.7524C3.46737 13.1349 3.66298 12.5333 4.02597 12.0337C4.38896 11.5341 4.90071 11.1622 5.48796 10.9712C6.07521 10.7802 6.70784 10.7799 7.29527 10.9703V7.41563Z" fill="var(--fill-0, #FF004F)"/>
</g>
</svg>
