<svg width="20" height="20" viewBox="0 0 20 20" fill="none" xmlns="http://www.w3.org/2000/svg">
<g id="UserCirclePlus">
<path id="Vector" d="M13.125 4.37501C13.125 4.20925 13.1908 4.05028 13.308 3.93307C13.4253 3.81586 13.5842 3.75001 13.75 3.75001H15V2.50001C15 2.33425 15.0658 2.17528 15.183 2.05807C15.3003 1.94086 15.4592 1.87501 15.625 1.87501C15.7908 1.87501 15.9497 1.94086 16.0669 2.05807C16.1841 2.17528 16.25 2.33425 16.25 2.50001V3.75001H17.5C17.6658 3.75001 17.8247 3.81586 17.9419 3.93307C18.0591 4.05028 18.125 4.20925 18.125 4.37501C18.125 4.54077 18.0591 4.69974 17.9419 4.81695C17.8247 4.93416 17.6658 5.00001 17.5 5.00001H16.25V6.25001C16.25 6.41577 16.1841 6.57474 16.0669 6.69195C15.9497 6.80916 15.7908 6.87501 15.625 6.87501C15.4592 6.87501 15.3003 6.80916 15.183 6.69195C15.0658 6.57474 15 6.41577 15 6.25001V5.00001H13.75C13.5842 5.00001 13.4253 4.93416 13.308 4.81695C13.1908 4.69974 13.125 4.54077 13.125 4.37501ZM18.0125 8.64688C18.298 10.3442 18.0368 12.0883 17.2664 13.6275C16.4961 15.1666 15.2565 16.4211 13.7267 17.2099C12.1969 17.9986 10.456 18.2807 8.75541 18.0156C7.0548 17.7504 5.48246 16.9516 4.26542 15.7346C3.04837 14.5175 2.2496 12.9452 1.98442 11.2446C1.71925 9.54397 2.0014 7.80309 2.79013 6.27329C3.57887 4.74348 4.83337 3.50393 6.37252 2.73358C7.91166 1.96324 9.6558 1.70197 11.3531 1.98751C11.5154 2.0162 11.6597 2.10779 11.7548 2.24236C11.8498 2.37693 11.8879 2.54359 11.8607 2.70609C11.8335 2.86859 11.7433 3.01378 11.6096 3.11008C11.4759 3.20638 11.3096 3.246 11.1469 3.22032C10.161 3.05448 9.1509 3.10546 8.18677 3.3697C7.22264 3.63394 6.32767 4.10511 5.56415 4.7504C4.80062 5.39569 4.18688 6.19961 3.76564 7.10622C3.3444 8.01282 3.12578 9.00032 3.12499 10C3.12351 11.683 3.74206 13.3075 4.86249 14.5633C5.55955 13.5532 6.53969 12.7717 7.67968 12.3172C7.06732 11.8349 6.62048 11.1737 6.4013 10.4257C6.18211 9.67767 6.20148 8.87992 6.4567 8.1434C6.71192 7.40688 7.19031 6.7682 7.82535 6.31617C8.46039 5.86415 9.2205 5.62124 9.99999 5.62124C10.7795 5.62124 11.5396 5.86415 12.1746 6.31617C12.8097 6.7682 13.2881 7.40688 13.5433 8.1434C13.7985 8.87992 13.8179 9.67767 13.5987 10.4257C13.3795 11.1737 12.9327 11.8349 12.3203 12.3172C13.4603 12.7717 14.4404 13.5532 15.1375 14.5633C16.2579 13.3075 16.8765 11.683 16.875 10C16.875 9.61574 16.8431 9.23213 16.7797 8.85313C16.7653 8.77183 16.7672 8.68849 16.7852 8.60791C16.8032 8.52734 16.837 8.45113 16.8846 8.3837C16.9323 8.31626 16.9928 8.25893 17.0627 8.21502C17.1326 8.17111 17.2106 8.14149 17.292 8.12786C17.3734 8.11424 17.4568 8.11688 17.5372 8.13565C17.6176 8.15441 17.6934 8.18892 17.7604 8.23717C17.8274 8.28543 17.8842 8.34649 17.9275 8.41681C17.9707 8.48713 17.9996 8.56533 18.0125 8.64688ZM9.99999 11.875C10.4944 11.875 10.9778 11.7284 11.3889 11.4537C11.8 11.179 12.1205 10.7885 12.3097 10.3317C12.4989 9.8749 12.5484 9.37224 12.452 8.88728C12.3555 8.40233 12.1174 7.95687 11.7678 7.60724C11.4181 7.25761 10.9727 7.01951 10.4877 6.92305C10.0028 6.82658 9.5001 6.87609 9.04328 7.06531C8.58647 7.25453 8.19602 7.57496 7.92132 7.98608C7.64661 8.39721 7.49999 8.88056 7.49999 9.37501C7.49999 10.0381 7.76338 10.6739 8.23222 11.1428C8.70106 11.6116 9.33695 11.875 9.99999 11.875ZM9.99999 16.875C11.5261 16.8765 13.0088 16.3678 14.2125 15.4297C13.7604 14.7226 13.1375 14.1406 12.4013 13.7376C11.6651 13.3345 10.8393 13.1232 9.99999 13.1232C9.16068 13.1232 8.33486 13.3345 7.59868 13.7376C6.86249 14.1406 6.23963 14.7226 5.78749 15.4297C6.99116 16.3678 8.47393 16.8765 9.99999 16.875Z" fill="#0F172A"/>
</g>
</svg>
