<svg width="20" height="16" viewBox="0 0 20 16" fill="none" xmlns="http://www.w3.org/2000/svg">
<path d="M8.25 8.25C8.25 7.42157 8.92157 6.75 9.75 6.75M13.75 8.25C13.75 10.4591 11.9591 12.25 9.75 12.25C7.54086 12.25 5.75 10.4591 5.75 8.25C5.75 6.04086 7.54086 4.25 9.75 4.25C11.9591 4.25 13.75 6.04086 13.75 8.25ZM6.04289 2.45711L7.45711 1.04289C7.64464 0.855357 7.899 0.75 8.16421 0.75H11.3358C11.601 0.75 11.8554 0.855357 12.0429 1.04289L13.4571 2.45711C13.6446 2.64464 13.899 2.75 14.1642 2.75H15.75C17.4069 2.75 18.75 4.09315 18.75 5.75V11.75C18.75 13.4069 17.4069 14.75 15.75 14.75H3.75C2.09315 14.75 0.75 13.4069 0.75 11.75V5.75C0.75 4.09315 2.09315 2.75 3.75 2.75H5.33579C5.601 2.75 5.85536 2.64464 6.04289 2.45711Z" stroke="#0F172A" stroke-width="1.5" stroke-linecap="round" stroke-linejoin="round"/>
</svg>
