<svg width="20" height="15" viewBox="0 0 20 15" fill="none" xmlns="http://www.w3.org/2000/svg">
<path fill-rule="evenodd" clip-rule="evenodd" d="M7.935 9.69583L7.93417 4.03667L13.3383 6.87583L7.935 9.69583ZM19.8 3.05583C19.8 3.05583 19.6042 1.66833 19.005 1.05667C18.2442 0.254167 17.3921 0.250417 17.0012 0.20375C14.2025 0 10.0046 0 10.0046 0H9.99542C9.99542 0 5.7975 0 2.99875 0.204167C2.6075 0.250417 1.75583 0.254167 0.994583 1.05667C0.395 1.66792 0.2 3.05583 0.2 3.05583C0.2 3.05583 0 4.68625 0 6.31583V7.84417C0 9.47417 0.2 11.1038 0.2 11.1038C0.2 11.1038 0.395 12.4917 0.994583 13.1029C1.75583 13.9054 2.755 13.8804 3.2 13.9642C4.8 14.1188 10 14.1667 10 14.1667C10 14.1667 14.2025 14.1604 17.0012 13.9563C17.3921 13.9092 18.2442 13.9054 19.005 13.1029C19.6046 12.4917 19.8 11.1038 19.8 11.1038C19.8 11.1038 20 9.47458 20 7.84417V6.31583C20 4.68625 19.8 3.05583 19.8 3.05583Z" fill="#CE1312"/>
</svg>
