<svg width="298" height="51" viewBox="0 0 298 51" fill="none" xmlns="http://www.w3.org/2000/svg">
<path fill-rule="evenodd" clip-rule="evenodd" d="M28.2004 0.00423813C28.582 0.00471458 28.9638 0.00498044 29.3454 0.00523534C30.3472 0.00620743 31.349 0.00863918 32.3507 0.0114679C33.5542 0.0145455 34.7577 0.0157138 35.9611 0.0172018C37.7868 0.0196727 39.6126 0.0247357 41.4383 0.0291683L41.6936 11.7723L44.2464 8.19829L45.5388 6.76231C46.9758 4.7284 46.9758 4.72834 46.7993 0.0291683H61.3505C61.3915 4.32502 61.3915 4.32508 61.4004 6.18194C61.4064 7.44003 61.4135 8.69809 61.4276 9.95612C61.4388 10.9724 61.4449 11.9887 61.4475 13.0051C61.4494 13.3893 61.4529 13.7736 61.4585 14.1579C61.5381 19.8719 59.6109 24.0475 56.1232 28.4895C55.2088 29.6541 54.3279 30.8414 53.4526 32.0355C53.2309 32.3375 53.231 32.3377 53.0046 32.6458C52.704 33.0554 52.4033 33.4649 52.1029 33.8746C49.9885 36.7581 47.8675 39.6366 45.7143 42.4913C45.2614 43.0926 44.8147 43.6978 44.3741 44.3082C42.7107 46.5925 41.2984 48.0506 38.6301 49.0439C38.4013 49.1315 38.1724 49.219 37.9366 49.3092C37.0318 49.5739 36.2959 49.6159 35.3546 49.6123C35.104 49.6124 35.1039 49.6125 34.8482 49.6126C34.3013 49.6122 33.7543 49.6084 33.2073 49.6043C32.8261 49.6034 32.4448 49.6026 32.0635 49.6021C31.0639 49.6002 30.0641 49.595 29.0644 49.5894C27.863 49.5832 26.6615 49.5809 25.46 49.5779C23.6382 49.573 21.8162 49.5633 19.9943 49.5545L19.739 37.8114L18.0318 40.1249C17.8569 40.3618 17.6821 40.5988 17.5018 40.8429C17.3599 41.0354 17.2178 41.2279 17.0715 41.4262C16.9285 41.62 16.7856 41.8139 16.6382 42.0136C14.3594 45.1362 14.881 44.6009 14.6333 49.5545H0.0820954C0.0513781 45.1642 0.0513777 45.1641 0.0447001 43.2736C0.0401456 41.9902 0.0349798 40.7069 0.0245067 39.4236C0.0161041 38.3874 0.0115174 37.351 0.00954856 36.3148C0.00814788 35.9221 0.00549742 35.5295 0.0013216 35.1369C-0.0593475 29.1888 1.9718 25.4496 5.47175 20.8352C6.2489 19.8055 7.0098 18.7639 7.77256 17.7236C8.98282 16.0789 10.203 14.442 11.4308 12.8104C12.4376 11.4707 13.4328 10.1226 14.4259 8.77268C14.5777 8.5671 14.7295 8.36149 14.8859 8.14968C15.5362 7.26841 16.1849 6.3863 16.8212 5.49486C19.2539 2.13407 21.7705 -0.00780889 26.0494 0.000249302C26.2164 0.000212029 26.3834 3.84011e-05 26.5555 0C27.1038 0.000177033 27.6521 0.00223298 28.2004 0.00423813ZM46.544 9.73C46.4399 9.85631 46.3388 9.97886 46.2378 10.1015C46.1087 10.2769 45.9833 10.4473 45.8579 10.6175C45.3204 11.3461 44.7896 12.0794 44.2624 12.8154C42.9508 14.6533 41.625 16.4778 40.2476 18.2671C40.0883 18.4729 39.9336 18.6727 39.7789 18.8724C39.0468 19.8227 38.2975 20.7529 37.5213 21.6676C36.0707 22.8899 34.5205 23.371 32.6417 23.4147C32.3055 23.4151 32.3054 23.4152 31.9758 23.4157C31.5418 23.424 31.1079 23.4319 30.6739 23.4394L29.041 23.4516L23.8236 23.5154V12.5381L19.5157 12.5062C18.8798 12.4996 18.2439 12.4924 17.608 12.4898C17.3477 12.489 17.3476 12.489 17.0925 12.4883C16.4342 12.479 15.8025 12.4935 15.1439 12.5381C14.6334 13.0486 14.6333 13.0487 14.5705 13.5301C14.571 13.7333 14.5715 13.9305 14.572 14.1277C14.5713 14.3608 14.5707 14.587 14.57 14.8133C14.5719 15.0696 14.5737 15.3184 14.5755 15.5672C14.5753 16.4004 14.5758 17.2337 14.5795 18.0669C14.5822 18.6635 14.584 19.2603 14.585 19.8569C14.5863 21.4178 14.5894 22.9787 14.595 24.5395C14.6007 26.1581 14.6043 27.7766 14.6069 29.3952C14.6125 32.8813 14.6215 36.3675 14.6333 39.8536H14.8886L15.4411 39.0988C17.0715 36.8182 17.0716 36.8181 18.7418 34.5665C19.246 33.8857 19.7482 33.2036 20.2456 32.5179C20.5817 32.0537 20.9191 31.5903 21.2575 31.1278C21.506 30.7886 21.5059 30.7884 21.7494 30.456C22.3284 29.6471 22.9116 28.8583 23.5683 28.1105C25.3463 26.4013 27.2416 26.0341 29.6555 25.9713C29.958 25.9668 29.9581 25.9669 30.2546 25.9625C30.6467 25.9532 31.039 25.9439 31.4311 25.9349C31.9312 25.9259 32.4167 25.9174 32.9022 25.9087L37.609 25.813V37.0455L41.9169 37.0774C42.5528 37.084 43.1889 37.0912 43.8248 37.0939C44.085 37.0947 44.0851 37.0946 44.3402 37.0954C44.9985 37.1047 45.6301 37.0902 46.2887 37.0455C46.7992 36.535 46.7993 36.5349 46.8621 36.0535C46.8616 35.8504 46.8613 35.6531 46.8608 35.456C46.8616 35.2229 46.8621 34.9966 46.8628 34.7704C46.861 34.514 46.8592 34.2651 46.8574 34.0162C46.8576 33.1831 46.8571 32.3499 46.8534 31.5167C46.8506 30.9201 46.8488 30.3234 46.8479 29.7268C46.8466 28.1659 46.8434 26.605 46.8379 25.0441C46.8321 23.4255 46.8284 21.8068 46.8257 20.1882C46.8201 16.7021 46.8111 13.2161 46.7993 9.73H46.544Z" fill="#FDFEFE"/>
<path d="M260.712 15.2824C262.336 16.8238 263.611 19.0149 264.047 21.2178C264.047 21.639 264.047 22.0602 264.047 22.4942C262.699 22.4942 261.351 22.4942 259.962 22.4942C259.752 22.0256 259.541 21.557 259.324 21.0742C258.143 18.7262 256.555 17.484 254.091 16.6227C251.384 15.8546 247.874 16.0328 245.411 17.3885C242.893 18.9058 241.024 21.182 240.242 24.0259C239.59 27.4612 239.931 30.9458 241.773 33.9661C243.222 35.9604 245.385 37.2388 247.788 37.7226C250.997 38.1372 253.892 37.787 256.644 36.0243C258.245 34.6592 258.815 33.1363 259.707 31.1739C256.843 31.1739 253.979 31.1739 251.027 31.1739C251.027 29.9945 251.027 28.8151 251.027 27.5999C255.661 27.5999 260.294 27.5999 265.068 27.5999C265.068 32.1491 265.068 36.6983 265.068 41.3853C263.804 41.3853 262.541 41.3853 261.239 41.3853C261.239 39.195 261.239 37.0046 261.239 34.7479C260.818 35.5903 260.396 36.4328 259.962 37.3007C258.375 39.6008 256.121 41.1294 253.403 41.7762C248.631 42.4531 244.217 41.701 240.218 38.9282C238.09 37.2264 236.803 34.7465 235.966 32.195C235.908 32.0272 235.85 31.8594 235.791 31.6865C234.685 27.7639 235.327 22.9538 237.242 19.4308C239.167 16.072 242.06 13.731 245.762 12.554C250.9 11.257 256.455 12.0041 260.712 15.2824Z" fill="#FBFDFC"/>
<path d="M71.8173 12.5381C73.2494 12.5381 74.6816 12.5381 76.1571 12.5381C76.1571 16.666 76.1571 20.794 76.1571 25.0471C82.307 25.0471 88.4568 25.0471 94.7929 25.0471C94.7929 20.9191 94.7929 16.7911 94.7929 12.5381C96.3093 12.5381 97.8257 12.5381 99.3881 12.5381C99.3881 22.0577 99.3881 31.5772 99.3881 41.3853C97.8717 41.3853 96.3553 41.3853 94.7929 41.3853C94.7929 37.2573 94.7929 33.1294 94.7929 28.8763C88.6431 28.8763 82.4933 28.8763 76.1571 28.8763C76.1571 33.0043 76.1571 37.1323 76.1571 41.3853C74.725 41.3853 73.2928 41.3853 71.8173 41.3853C71.8173 31.8657 71.8173 22.3461 71.8173 12.5381Z" fill="#F7FCFA"/>
<path d="M294.49 15.3941C296.36 17.1675 297.472 19.2056 298 21.7283C298 21.9811 298 22.2338 298 22.4942C296.568 22.4942 295.136 22.4942 293.66 22.4942C293.542 22.0677 293.542 22.0677 293.421 21.6326C292.733 19.8082 291.274 18.1649 289.544 17.2608C286.666 15.9818 283.066 15.8298 280.098 16.8939C277.425 18.1063 275.595 19.7696 274.449 22.4872C273.307 25.7604 273.387 29.1988 274.825 32.3705C276.178 34.8362 278.242 36.5752 280.898 37.4742C284.004 38.3108 287.351 37.9921 290.183 36.4621C291.923 35.2764 292.891 33.6073 293.66 31.6844C295.092 31.6844 296.524 31.6844 298 31.6844C297.441 34.7449 296.464 37.1965 293.994 39.1994C289.832 42.0162 284.891 42.517 280.018 41.6246C276.508 40.7377 273.503 38.6785 271.482 35.6733C270.677 34.3163 270.116 32.9379 269.663 31.4292C269.606 31.2557 269.548 31.0823 269.489 30.9036C268.389 27.0118 269.136 22.6529 270.993 19.1465C273.078 15.7898 276.109 13.7236 279.795 12.4742C284.898 11.3188 290.39 11.9338 294.49 15.3941Z" fill="#FAFDFC"/>
<path d="M204.055 12.5381C205.487 12.5381 206.919 12.5381 208.395 12.5381C208.399 13.1047 208.402 13.6713 208.406 14.2551C208.419 16.1351 208.436 18.015 208.455 19.8949C208.466 21.0338 208.476 22.1727 208.483 23.3117C208.49 24.4125 208.5 25.5132 208.513 26.6139C208.517 27.0322 208.52 27.4504 208.522 27.8687C208.534 30.7794 208.582 33.4921 210.506 35.8488C212.269 37.5679 214.843 37.9009 217.202 37.8751C217.383 37.8771 217.563 37.8791 217.75 37.8811C220.221 37.8721 222.764 37.1658 224.589 35.434C225.098 34.5586 225.453 33.6708 225.754 32.7056C225.821 32.4953 225.821 32.4953 225.888 32.2808C226.055 31.4591 226.055 30.646 226.062 29.811C226.064 29.6241 226.067 29.4372 226.07 29.2446C226.078 28.6286 226.084 28.0125 226.09 27.3965C226.096 26.9687 226.101 26.5409 226.106 26.1131C226.12 24.9883 226.133 23.8636 226.145 22.7388C226.158 21.5906 226.172 20.4424 226.186 19.2942C226.214 17.0422 226.24 14.7901 226.265 12.5381C227.697 12.5381 229.129 12.5381 230.605 12.5381C230.628 15.0393 230.646 17.5404 230.658 20.0418C230.663 21.2036 230.67 22.3653 230.682 23.5271C230.693 24.651 230.699 25.7748 230.702 26.8988C230.703 27.3248 230.707 27.7508 230.713 28.1768C230.762 32.0956 230.326 35.6232 227.541 38.6151C224.221 41.8047 220.101 42.0526 215.719 41.9757C212.207 41.8359 208.92 40.6735 206.487 38.0576C204.052 34.9248 203.943 31.1792 203.98 27.3965C203.982 26.9659 203.983 26.5353 203.983 26.1046C203.986 24.9816 203.994 23.8586 204.002 22.7355C204.01 21.5854 204.014 20.4353 204.018 19.2852C204.026 17.0361 204.039 14.7871 204.055 12.5381Z" fill="#FAFDFC"/>
<path d="M130.788 19.1755C132.22 19.1755 133.652 19.1755 135.128 19.1755C135.133 19.6147 135.138 20.0538 135.143 20.5063C135.161 21.9624 135.18 23.4185 135.201 24.8745C135.214 25.7567 135.226 26.6389 135.236 27.5212C135.247 28.537 135.262 29.5528 135.278 30.5686C135.281 30.8832 135.284 31.1979 135.287 31.5221C135.297 34.1622 135.297 34.1622 136.436 36.4711C137.978 37.6778 139.573 38.0461 141.51 37.8113C143.6 37.4154 144.971 36.3736 146.272 34.7226C147.973 31.9275 147.609 28.6545 147.605 25.4938C147.61 24.8805 147.615 24.2672 147.621 23.654C147.634 22.1611 147.638 20.6684 147.637 19.1755C149.069 19.1755 150.501 19.1755 151.977 19.1755C151.977 26.5047 151.977 33.834 151.977 41.3853C150.545 41.3853 149.113 41.3853 147.637 41.3853C147.553 39.3634 147.469 37.3416 147.382 35.2585C146.876 36.5221 146.876 36.5221 146.361 37.8113C145.128 39.848 143.566 41.2695 141.255 41.8959C138.24 42.1521 135.72 42.003 133.261 40.077C131.575 38.4897 130.847 36.5016 130.757 34.2181C130.758 33.9403 130.759 33.6625 130.759 33.3764C130.759 33.0596 130.759 32.7428 130.759 32.4165C130.761 32.0747 130.762 31.733 130.763 31.3913C130.764 31.0386 130.764 30.6859 130.764 30.3333C130.765 29.4091 130.768 28.485 130.771 27.5609C130.773 26.6162 130.774 25.6716 130.776 24.727C130.778 22.8765 130.783 21.026 130.788 19.1755Z" fill="#F7FCFA"/>
<path d="M178.271 19.1755C179.788 19.1755 181.304 19.1755 182.866 19.1755C183.502 20.4471 184.068 21.6125 184.568 22.924C184.627 23.0797 184.687 23.2353 184.748 23.3957C184.875 23.7271 185.002 24.0587 185.128 24.3905C185.462 25.2674 185.799 26.1429 186.136 27.0185C186.204 27.1952 186.272 27.3719 186.342 27.5539C187.017 29.3079 187.706 31.0558 188.403 32.8013C188.51 33.0726 188.618 33.3439 188.729 33.6235C188.877 33.9935 188.877 33.9935 189.028 34.3709C189.114 34.5866 189.2 34.8023 189.289 35.0245C189.465 35.5059 189.465 35.5059 189.759 35.769C190.153 34.7693 190.546 33.7694 190.94 32.7694C191.063 32.4572 191.185 32.145 191.312 31.8233C192.06 29.9206 192.803 28.0158 193.54 26.1091C193.704 25.6873 193.867 25.2656 194.03 24.8439C194.272 24.2196 194.514 23.5953 194.754 22.9707C194.98 22.3852 195.207 21.8 195.433 21.2148C195.535 20.9492 195.535 20.9492 195.639 20.6783C196.112 19.4598 196.112 19.4598 196.396 19.1755C196.739 19.1535 197.083 19.1482 197.427 19.1506C197.633 19.1514 197.84 19.1522 198.052 19.1531C198.269 19.1552 198.486 19.1573 198.71 19.1595C198.928 19.1607 199.146 19.1618 199.371 19.163C199.911 19.1661 200.451 19.1706 200.992 19.1755C200.428 20.9723 199.726 22.6681 198.954 24.3849C198.701 24.9542 198.448 25.5236 198.196 26.0931C198.067 26.3846 197.938 26.676 197.805 26.9763C197.187 28.3789 196.585 29.7878 195.985 31.1978C195.866 31.4761 195.748 31.7544 195.626 32.0411C195.383 32.6103 195.142 33.1795 194.9 33.7489C194.52 34.6427 194.14 35.5363 193.76 36.4299C192.63 39.0846 191.503 41.7402 190.38 44.3979C190.211 44.7974 190.042 45.197 189.874 45.5965C189.571 46.3132 189.268 47.0302 188.967 47.7475C188.837 48.0558 188.706 48.3642 188.572 48.6819C188.461 48.9457 188.35 49.2096 188.236 49.4814C187.972 50.065 187.972 50.065 187.717 50.3203C187.374 50.3423 187.03 50.3476 186.687 50.3452C186.48 50.3444 186.274 50.3436 186.061 50.3427C185.844 50.3406 185.627 50.3384 185.403 50.3362C185.185 50.3351 184.967 50.3339 184.743 50.3327C184.202 50.3297 183.662 50.3251 183.122 50.3203C183.364 49.7797 183.606 49.2392 183.848 48.6989C184.056 48.2351 184.264 47.7712 184.471 47.3072C184.959 46.2196 185.451 45.1368 185.979 44.0678C186.062 43.8964 186.146 43.7249 186.232 43.5483C186.459 43.0869 186.69 42.6275 186.921 42.1681C187.487 40.6155 186.607 39.2057 185.991 37.7674C185.893 37.5368 185.795 37.3062 185.694 37.0686C185.375 36.3158 185.054 35.5638 184.733 34.8117C184.513 34.2937 184.293 33.7757 184.074 33.2576C183.136 31.0494 182.195 28.843 181.254 26.6366C180.922 25.8567 180.589 25.0767 180.257 24.2966C180.03 23.7639 179.802 23.2316 179.574 22.6994C179.437 22.378 179.3 22.0567 179.163 21.7353C179.045 21.4609 178.928 21.1864 178.807 20.9036C178.526 20.1966 178.526 20.1966 178.271 19.1755Z" fill="#FAFDFC"/>
<path fill-rule="evenodd" clip-rule="evenodd" d="M105.18 24.2334C108.908 18.4682 116.8 17.072 122.571 20.6594C125.151 22.5257 126.92 24.9214 127.469 28.1106C127.762 31.9745 127.163 35.1673 124.801 38.304C122.983 40.3694 119.918 41.6858 117.202 41.9513C113.393 42.1486 110.286 41.6352 107.302 39.0878C105.864 37.7275 104.883 36.3656 104.238 34.4927L103.919 33.5833C103.22 30.4322 103.614 27.0447 105.18 24.2334ZM118.869 23.1166C115.649 21.6336 112.297 22.4514 109.903 24.9674C108.209 26.9734 107.913 28.7137 107.98 31.3186C108.203 33.55 109.191 35.3202 110.876 36.7903C112.89 38.3204 115.101 38.2949 117.513 38.0667C119.413 37.7128 120.728 36.5199 121.917 35.0671C123.225 32.6382 123.39 30.2807 122.874 27.6C122.179 25.5634 120.726 24.1542 118.869 23.1166Z" fill="#FDFEFE"/>
<path d="M172.84 10.2056C173.128 10.2071 173.128 10.2071 173.421 10.2086C173.612 10.2076 173.804 10.2066 174.001 10.2056C175.431 10.2082 175.431 10.2082 175.718 10.4958C175.743 10.8963 175.749 11.2979 175.749 11.6992C175.749 11.9594 175.75 12.2197 175.75 12.4879C175.749 12.7758 175.748 13.0637 175.747 13.3603C175.747 13.6617 175.747 13.963 175.747 14.2734C175.747 15.102 175.746 15.9306 175.744 16.7592C175.743 17.6242 175.742 18.4893 175.742 19.3544C175.741 20.9935 175.739 22.6327 175.737 24.2718C175.734 26.1375 175.732 28.0032 175.731 29.8689C175.728 33.7077 175.724 37.5465 175.718 41.3853C174.202 41.3853 172.686 41.3853 171.123 41.3853C171.117 37.3622 171.113 33.3391 171.11 29.3161C171.109 27.4482 171.107 25.5803 171.104 23.7125C171.101 22.085 171.1 20.4576 171.099 18.8301C171.099 17.9679 171.098 17.1056 171.096 16.2434C171.094 15.2824 171.094 14.3214 171.094 13.3603C171.093 12.9285 171.093 12.9285 171.091 12.4879C171.092 12.2276 171.092 11.9673 171.092 11.6992C171.092 11.4716 171.092 11.2441 171.092 11.0096C171.158 9.92061 171.925 10.2073 172.84 10.2056Z" fill="#F0F8F6"/>
<path d="M168.315 18.9202C168.315 20.2681 168.315 21.616 168.315 23.0048C167.691 23.1469 167.691 23.1469 167.055 23.292C164.407 24.0238 162.781 25.4617 161.408 27.804C161.124 28.4651 161.096 28.9584 161.086 29.6768C161.081 29.9374 161.076 30.198 161.07 30.4665C161.067 30.746 161.064 31.0255 161.061 31.3135C161.056 31.601 161.051 31.8886 161.046 32.1848C161.031 33.103 161.019 34.0211 161.008 34.9394C160.998 35.5619 160.988 36.1845 160.978 36.8071C160.953 38.3332 160.932 39.8592 160.912 41.3853C159.48 41.3853 158.048 41.3853 156.572 41.3853C156.572 34.0561 156.572 26.7268 156.572 19.1755C158.004 19.1755 159.436 19.1755 160.912 19.1755C160.996 20.7761 161.08 22.3768 161.167 24.0259C161.475 23.4573 161.475 23.4573 161.789 22.8771C162.788 21.2156 164.033 19.8934 165.794 19.0479C166.528 18.9202 166.528 18.9202 168.315 18.9202Z" fill="#FDFEFE"/>
</svg>
