<svg width="14" height="12" viewBox="0 0 14 12" fill="none" xmlns="http://www.w3.org/2000/svg">
<path d="M0.595723 3.41864L0.551468 3.68417C0.450037 4.29275 0.49901 4.91691 0.694115 5.50222L0.772128 5.73626C1.00659 6.43965 1.4016 7.07879 1.92588 7.60307L2.95777 8.63496L6.05521 11.1692C6.59424 11.6103 7.36941 11.6103 7.90844 11.1692L11.0059 8.63496L12.0378 7.60307C12.562 7.07879 12.9571 6.43965 13.1915 5.73626L13.2695 5.50222C13.4646 4.91691 13.5136 4.29275 13.4122 3.68417L13.3679 3.41864C13.0674 1.61541 11.4272 0.349017 9.6066 0.514526C9.08292 0.562132 8.57675 0.727369 8.12585 0.997908L7.1939 1.55708C7.06336 1.6354 6.90029 1.6354 6.76975 1.55708L5.83779 0.997908C5.38689 0.727369 4.88073 0.562132 4.35705 0.514526C2.53646 0.349017 0.896261 1.61541 0.595723 3.41864Z" stroke="#0F172A" stroke-linecap="round"/>
</svg>
