<svg width="28" height="28" viewBox="0 0 28 28" fill="none" xmlns="http://www.w3.org/2000/svg">
<g filter="url(#filter0_i_33_918)">
<path d="M6.35425 18.5168C7.8586 18.5168 9.07812 17.2973 9.07812 15.793C9.07812 14.2886 7.8586 13.0691 6.35425 13.0691C4.84989 13.0691 3.63037 14.2886 3.63037 15.793C3.63037 17.2973 4.84989 18.5168 6.35425 18.5168Z" fill="url(#paint0_radial_33_918)"/>
</g>
<g filter="url(#filter1_f_33_918)">
<path d="M6.3542 17.4159C7.25063 17.4159 7.97733 16.6892 7.97733 15.7928C7.97733 14.8964 7.25063 14.1697 6.3542 14.1697C5.45778 14.1697 4.73108 14.8964 4.73108 15.7928C4.73108 16.6892 5.45778 17.4159 6.3542 17.4159Z" fill="url(#paint1_linear_33_918)"/>
</g>
<g filter="url(#filter2_i_33_918)">
<path d="M21.8777 18.5168C23.382 18.5168 24.6016 17.2973 24.6016 15.793C24.6016 14.2886 23.382 13.0691 21.8777 13.0691C20.3733 13.0691 19.1538 14.2886 19.1538 15.793C19.1538 17.2973 20.3733 18.5168 21.8777 18.5168Z" fill="url(#paint2_linear_33_918)"/>
<path d="M21.8777 18.5168C23.382 18.5168 24.6016 17.2973 24.6016 15.793C24.6016 14.2886 23.382 13.0691 21.8777 13.0691C20.3733 13.0691 19.1538 14.2886 19.1538 15.793C19.1538 17.2973 20.3733 18.5168 21.8777 18.5168Z" fill="url(#paint3_radial_33_918)"/>
</g>
<g filter="url(#filter3_f_33_918)">
<path d="M21.8775 17.4159C22.7739 17.4159 23.5006 16.6892 23.5006 15.7928C23.5006 14.8964 22.7739 14.1697 21.8775 14.1697C20.9811 14.1697 20.2544 14.8964 20.2544 15.7928C20.2544 16.6892 20.9811 17.4159 21.8775 17.4159Z" fill="#E4AF9A"/>
<path d="M21.8775 17.4159C22.7739 17.4159 23.5006 16.6892 23.5006 15.7928C23.5006 14.8964 22.7739 14.1697 21.8775 14.1697C20.9811 14.1697 20.2544 14.8964 20.2544 15.7928C20.2544 16.6892 20.9811 17.4159 21.8775 17.4159Z" fill="url(#paint4_radial_33_918)"/>
<path d="M21.8775 17.4159C22.7739 17.4159 23.5006 16.6892 23.5006 15.7928C23.5006 14.8964 22.7739 14.1697 21.8775 14.1697C20.9811 14.1697 20.2544 14.8964 20.2544 15.7928C20.2544 16.6892 20.9811 17.4159 21.8775 17.4159Z" fill="url(#paint5_radial_33_918)"/>
</g>
<g filter="url(#filter4_i_33_918)">
<path d="M5.6853 12.4463C5.6853 12.0112 5.86036 11.489 6.21045 11.2279L6.47303 10.9668C6.91066 10.6187 7.08571 10.0965 7.08571 9.57441V8.18197C7.08571 7.74684 7.34828 7.39873 7.78592 7.3117C8.83623 7.05062 11.0243 6.61548 14.1753 6.61548C17.3262 6.61548 19.5144 7.05062 20.5646 7.3117C20.9147 7.39873 21.2649 7.74684 21.2649 8.18197V9.57441C21.2649 10.0965 21.5274 10.6187 21.8776 10.9668C22.6968 11.5409 22.6458 11.8567 22.5778 12.5333C22.4903 13.4036 22.4027 14.883 22.4027 14.883C22.4126 14.883 22.4224 14.883 22.4322 14.8827L21.9984 21.3418C21.7365 24.2293 19.4665 26.2418 16.76 26.2418H11.5214C8.72756 26.2418 6.54486 24.2293 6.28293 21.3418C6.05543 18.3779 5.95584 15.4052 5.6853 12.4463Z" fill="url(#paint6_linear_33_918)"/>
<path d="M5.6853 12.4463C5.6853 12.0112 5.86036 11.489 6.21045 11.2279L6.47303 10.9668C6.91066 10.6187 7.08571 10.0965 7.08571 9.57441V8.18197C7.08571 7.74684 7.34828 7.39873 7.78592 7.3117C8.83623 7.05062 11.0243 6.61548 14.1753 6.61548C17.3262 6.61548 19.5144 7.05062 20.5646 7.3117C20.9147 7.39873 21.2649 7.74684 21.2649 8.18197V9.57441C21.2649 10.0965 21.5274 10.6187 21.8776 10.9668C22.6968 11.5409 22.6458 11.8567 22.5778 12.5333C22.4903 13.4036 22.4027 14.883 22.4027 14.883C22.4126 14.883 22.4224 14.883 22.4322 14.8827L21.9984 21.3418C21.7365 24.2293 19.4665 26.2418 16.76 26.2418H11.5214C8.72756 26.2418 6.54486 24.2293 6.28293 21.3418C6.05543 18.3779 5.95584 15.4052 5.6853 12.4463Z" fill="url(#paint7_radial_33_918)"/>
<path d="M5.6853 12.4463C5.6853 12.0112 5.86036 11.489 6.21045 11.2279L6.47303 10.9668C6.91066 10.6187 7.08571 10.0965 7.08571 9.57441V8.18197C7.08571 7.74684 7.34828 7.39873 7.78592 7.3117C8.83623 7.05062 11.0243 6.61548 14.1753 6.61548C17.3262 6.61548 19.5144 7.05062 20.5646 7.3117C20.9147 7.39873 21.2649 7.74684 21.2649 8.18197V9.57441C21.2649 10.0965 21.5274 10.6187 21.8776 10.9668C22.6968 11.5409 22.6458 11.8567 22.5778 12.5333C22.4903 13.4036 22.4027 14.883 22.4027 14.883C22.4126 14.883 22.4224 14.883 22.4322 14.8827L21.9984 21.3418C21.7365 24.2293 19.4665 26.2418 16.76 26.2418H11.5214C8.72756 26.2418 6.54486 24.2293 6.28293 21.3418C6.05543 18.3779 5.95584 15.4052 5.6853 12.4463Z" fill="url(#paint8_linear_33_918)"/>
<path d="M5.6853 12.4463C5.6853 12.0112 5.86036 11.489 6.21045 11.2279L6.47303 10.9668C6.91066 10.6187 7.08571 10.0965 7.08571 9.57441V8.18197C7.08571 7.74684 7.34828 7.39873 7.78592 7.3117C8.83623 7.05062 11.0243 6.61548 14.1753 6.61548C17.3262 6.61548 19.5144 7.05062 20.5646 7.3117C20.9147 7.39873 21.2649 7.74684 21.2649 8.18197V9.57441C21.2649 10.0965 21.5274 10.6187 21.8776 10.9668C22.6968 11.5409 22.6458 11.8567 22.5778 12.5333C22.4903 13.4036 22.4027 14.883 22.4027 14.883C22.4126 14.883 22.4224 14.883 22.4322 14.8827L21.9984 21.3418C21.7365 24.2293 19.4665 26.2418 16.76 26.2418H11.5214C8.72756 26.2418 6.54486 24.2293 6.28293 21.3418C6.05543 18.3779 5.95584 15.4052 5.6853 12.4463Z" fill="url(#paint9_radial_33_918)"/>
<path d="M5.6853 12.4463C5.6853 12.0112 5.86036 11.489 6.21045 11.2279L6.47303 10.9668C6.91066 10.6187 7.08571 10.0965 7.08571 9.57441V8.18197C7.08571 7.74684 7.34828 7.39873 7.78592 7.3117C8.83623 7.05062 11.0243 6.61548 14.1753 6.61548C17.3262 6.61548 19.5144 7.05062 20.5646 7.3117C20.9147 7.39873 21.2649 7.74684 21.2649 8.18197V9.57441C21.2649 10.0965 21.5274 10.6187 21.8776 10.9668C22.6968 11.5409 22.6458 11.8567 22.5778 12.5333C22.4903 13.4036 22.4027 14.883 22.4027 14.883C22.4126 14.883 22.4224 14.883 22.4322 14.8827L21.9984 21.3418C21.7365 24.2293 19.4665 26.2418 16.76 26.2418H11.5214C8.72756 26.2418 6.54486 24.2293 6.28293 21.3418C6.05543 18.3779 5.95584 15.4052 5.6853 12.4463Z" fill="url(#paint10_radial_33_918)"/>
</g>
<g filter="url(#filter5_f_33_918)">
<path d="M20.5692 6.61548L15.5476 8.28967C14.6926 8.57472 14.2061 9.47484 14.4358 10.3463C14.6555 11.1793 15.4609 11.7186 16.3148 11.6042L21.3076 10.9358L20.5692 6.61548Z" fill="url(#paint11_linear_33_918)"/>
</g>
<g filter="url(#filter6_i_33_918)">
<path d="M21.9651 5.22304L22.6653 5.57115C23.8906 6.18033 24.5909 7.57278 24.3283 9.05225L23.3656 14.0128C23.2796 14.5251 22.941 14.8699 22.4323 14.8827C22.4225 14.8829 22.4127 14.883 22.4027 14.883C22.4027 14.883 22.4903 13.4035 22.5778 12.5333C22.6488 11.8265 22.5255 11.611 21.8776 10.9668C21.5274 10.6187 21.2649 10.0965 21.2649 9.57436V8.18191C21.2649 7.74678 20.9148 7.39868 20.5647 7.31165C19.5144 7.05057 17.3262 6.61543 14.1753 6.61543C11.0244 6.61543 8.83627 7.05057 7.78595 7.31165C7.34832 7.39868 7.08575 7.74678 7.08575 8.18191V9.57436C7.08575 10.0965 6.9107 10.6187 6.47307 10.9668L6.21049 11.2279C5.86039 11.489 5.68534 12.0112 5.68534 12.4463C5.77287 13.4035 5.86039 14.796 5.86039 14.796C5.83346 14.796 5.80676 14.7951 5.78034 14.7933C5.29128 14.7598 4.89312 14.4212 4.81008 13.9257L3.8473 8.96519C3.67225 7.57278 4.37245 6.18033 5.59781 5.57115L6.29802 5.22304C6.73564 4.96196 7.17327 4.61385 7.61089 4.26575L9.18636 2.61222C10.1491 1.74195 11.5496 1.48088 12.7749 2.09006C13.6502 2.35114 14.6129 2.35114 15.4882 2.09006C16.8011 1.65492 18.2891 2.00303 19.3393 2.96034L20.6522 4.26574C21.0024 4.70088 21.4399 4.96196 21.9651 5.22304Z" fill="#242324"/>
<path d="M21.9651 5.22304L22.6653 5.57115C23.8906 6.18033 24.5909 7.57278 24.3283 9.05225L23.3656 14.0128C23.2796 14.5251 22.941 14.8699 22.4323 14.8827C22.4225 14.8829 22.4127 14.883 22.4027 14.883C22.4027 14.883 22.4903 13.4035 22.5778 12.5333C22.6488 11.8265 22.5255 11.611 21.8776 10.9668C21.5274 10.6187 21.2649 10.0965 21.2649 9.57436V8.18191C21.2649 7.74678 20.9148 7.39868 20.5647 7.31165C19.5144 7.05057 17.3262 6.61543 14.1753 6.61543C11.0244 6.61543 8.83627 7.05057 7.78595 7.31165C7.34832 7.39868 7.08575 7.74678 7.08575 8.18191V9.57436C7.08575 10.0965 6.9107 10.6187 6.47307 10.9668L6.21049 11.2279C5.86039 11.489 5.68534 12.0112 5.68534 12.4463C5.77287 13.4035 5.86039 14.796 5.86039 14.796C5.83346 14.796 5.80676 14.7951 5.78034 14.7933C5.29128 14.7598 4.89312 14.4212 4.81008 13.9257L3.8473 8.96519C3.67225 7.57278 4.37245 6.18033 5.59781 5.57115L6.29802 5.22304C6.73564 4.96196 7.17327 4.61385 7.61089 4.26575L9.18636 2.61222C10.1491 1.74195 11.5496 1.48088 12.7749 2.09006C13.6502 2.35114 14.6129 2.35114 15.4882 2.09006C16.8011 1.65492 18.2891 2.00303 19.3393 2.96034L20.6522 4.26574C21.0024 4.70088 21.4399 4.96196 21.9651 5.22304Z" fill="url(#paint12_radial_33_918)"/>
<path d="M21.9651 5.22304L22.6653 5.57115C23.8906 6.18033 24.5909 7.57278 24.3283 9.05225L23.3656 14.0128C23.2796 14.5251 22.941 14.8699 22.4323 14.8827C22.4225 14.8829 22.4127 14.883 22.4027 14.883C22.4027 14.883 22.4903 13.4035 22.5778 12.5333C22.6488 11.8265 22.5255 11.611 21.8776 10.9668C21.5274 10.6187 21.2649 10.0965 21.2649 9.57436V8.18191C21.2649 7.74678 20.9148 7.39868 20.5647 7.31165C19.5144 7.05057 17.3262 6.61543 14.1753 6.61543C11.0244 6.61543 8.83627 7.05057 7.78595 7.31165C7.34832 7.39868 7.08575 7.74678 7.08575 8.18191V9.57436C7.08575 10.0965 6.9107 10.6187 6.47307 10.9668L6.21049 11.2279C5.86039 11.489 5.68534 12.0112 5.68534 12.4463C5.77287 13.4035 5.86039 14.796 5.86039 14.796C5.83346 14.796 5.80676 14.7951 5.78034 14.7933C5.29128 14.7598 4.89312 14.4212 4.81008 13.9257L3.8473 8.96519C3.67225 7.57278 4.37245 6.18033 5.59781 5.57115L6.29802 5.22304C6.73564 4.96196 7.17327 4.61385 7.61089 4.26575L9.18636 2.61222C10.1491 1.74195 11.5496 1.48088 12.7749 2.09006C13.6502 2.35114 14.6129 2.35114 15.4882 2.09006C16.8011 1.65492 18.2891 2.00303 19.3393 2.96034L20.6522 4.26574C21.0024 4.70088 21.4399 4.96196 21.9651 5.22304Z" fill="url(#paint13_radial_33_918)"/>
<path d="M21.9651 5.22304L22.6653 5.57115C23.8906 6.18033 24.5909 7.57278 24.3283 9.05225L23.3656 14.0128C23.2796 14.5251 22.941 14.8699 22.4323 14.8827C22.4225 14.8829 22.4127 14.883 22.4027 14.883C22.4027 14.883 22.4903 13.4035 22.5778 12.5333C22.6488 11.8265 22.5255 11.611 21.8776 10.9668C21.5274 10.6187 21.2649 10.0965 21.2649 9.57436V8.18191C21.2649 7.74678 20.9148 7.39868 20.5647 7.31165C19.5144 7.05057 17.3262 6.61543 14.1753 6.61543C11.0244 6.61543 8.83627 7.05057 7.78595 7.31165C7.34832 7.39868 7.08575 7.74678 7.08575 8.18191V9.57436C7.08575 10.0965 6.9107 10.6187 6.47307 10.9668L6.21049 11.2279C5.86039 11.489 5.68534 12.0112 5.68534 12.4463C5.77287 13.4035 5.86039 14.796 5.86039 14.796C5.83346 14.796 5.80676 14.7951 5.78034 14.7933C5.29128 14.7598 4.89312 14.4212 4.81008 13.9257L3.8473 8.96519C3.67225 7.57278 4.37245 6.18033 5.59781 5.57115L6.29802 5.22304C6.73564 4.96196 7.17327 4.61385 7.61089 4.26575L9.18636 2.61222C10.1491 1.74195 11.5496 1.48088 12.7749 2.09006C13.6502 2.35114 14.6129 2.35114 15.4882 2.09006C16.8011 1.65492 18.2891 2.00303 19.3393 2.96034L20.6522 4.26574C21.0024 4.70088 21.4399 4.96196 21.9651 5.22304Z" fill="url(#paint14_radial_33_918)"/>
<path d="M21.9651 5.22304L22.6653 5.57115C23.8906 6.18033 24.5909 7.57278 24.3283 9.05225L23.3656 14.0128C23.2796 14.5251 22.941 14.8699 22.4323 14.8827C22.4225 14.8829 22.4127 14.883 22.4027 14.883C22.4027 14.883 22.4903 13.4035 22.5778 12.5333C22.6488 11.8265 22.5255 11.611 21.8776 10.9668C21.5274 10.6187 21.2649 10.0965 21.2649 9.57436V8.18191C21.2649 7.74678 20.9148 7.39868 20.5647 7.31165C19.5144 7.05057 17.3262 6.61543 14.1753 6.61543C11.0244 6.61543 8.83627 7.05057 7.78595 7.31165C7.34832 7.39868 7.08575 7.74678 7.08575 8.18191V9.57436C7.08575 10.0965 6.9107 10.6187 6.47307 10.9668L6.21049 11.2279C5.86039 11.489 5.68534 12.0112 5.68534 12.4463C5.77287 13.4035 5.86039 14.796 5.86039 14.796C5.83346 14.796 5.80676 14.7951 5.78034 14.7933C5.29128 14.7598 4.89312 14.4212 4.81008 13.9257L3.8473 8.96519C3.67225 7.57278 4.37245 6.18033 5.59781 5.57115L6.29802 5.22304C6.73564 4.96196 7.17327 4.61385 7.61089 4.26575L9.18636 2.61222C10.1491 1.74195 11.5496 1.48088 12.7749 2.09006C13.6502 2.35114 14.6129 2.35114 15.4882 2.09006C16.8011 1.65492 18.2891 2.00303 19.3393 2.96034L20.6522 4.26574C21.0024 4.70088 21.4399 4.96196 21.9651 5.22304Z" fill="url(#paint15_radial_33_918)"/>
</g>
<g filter="url(#filter7_f_33_918)">
<path d="M13.6526 15.5938L12.314 18.3671C12.1481 18.9375 12.5463 19.508 13.1104 19.508H14.3134C14.8775 19.508 15.2758 18.9288 15.1099 18.3671L14.2968 15.5938C14.1226 14.9795 13.8351 14.9795 13.6526 15.5938Z" fill="#D89992"/>
</g>
<g filter="url(#filter8_f_33_918)">
<path d="M13.4782 15.3277L12.6112 18.101C12.4342 18.6715 12.8589 19.2419 13.4604 19.2419H14.7433C15.3449 19.2419 15.7696 18.6627 15.5926 18.101L14.7256 15.3277C14.5398 14.7134 13.6728 14.7134 13.4782 15.3277Z" fill="#FBC4B1"/>
<path d="M13.4782 15.3277L12.6112 18.101C12.4342 18.6715 12.8589 19.2419 13.4604 19.2419H14.7433C15.3449 19.2419 15.7696 18.6627 15.5926 18.101L14.7256 15.3277C14.5398 14.7134 13.6728 14.7134 13.4782 15.3277Z" fill="url(#paint16_linear_33_918)"/>
<path d="M13.4782 15.3277L12.6112 18.101C12.4342 18.6715 12.8589 19.2419 13.4604 19.2419H14.7433C15.3449 19.2419 15.7696 18.6627 15.5926 18.101L14.7256 15.3277C14.5398 14.7134 13.6728 14.7134 13.4782 15.3277Z" fill="url(#paint17_linear_33_918)"/>
<path d="M13.4782 15.3277L12.6112 18.101C12.4342 18.6715 12.8589 19.2419 13.4604 19.2419H14.7433C15.3449 19.2419 15.7696 18.6627 15.5926 18.101L14.7256 15.3277C14.5398 14.7134 13.6728 14.7134 13.4782 15.3277Z" fill="url(#paint18_linear_33_918)"/>
<path d="M13.4782 15.3277L12.6112 18.101C12.4342 18.6715 12.8589 19.2419 13.4604 19.2419H14.7433C15.3449 19.2419 15.7696 18.6627 15.5926 18.101L14.7256 15.3277C14.5398 14.7134 13.6728 14.7134 13.4782 15.3277Z" fill="url(#paint19_radial_33_918)"/>
</g>
<path d="M13.4782 15.3277L12.6112 18.101C12.4342 18.6715 12.8589 19.2419 13.4604 19.2419H14.7433C15.3449 19.2419 15.7696 18.6627 15.5926 18.101L14.7256 15.3277C14.5398 14.7134 13.6728 14.7134 13.4782 15.3277Z" fill="url(#paint20_linear_33_918)"/>
<path d="M11.8619 20.3258C11.7306 20.2592 11.5938 20.3 11.5119 20.3862C11.4298 20.4727 11.3987 20.6089 11.4825 20.7301C12.0368 21.5698 13.0023 22.1294 14.1018 22.1294C15.2014 22.1294 16.1671 21.5697 16.7213 20.7297C16.8043 20.6051 16.7744 20.469 16.6915 20.383C16.6091 20.2975 16.4727 20.2592 16.3421 20.3256C15.6946 20.6632 14.9311 20.8566 14.1018 20.8566C13.2807 20.8566 12.5095 20.6634 11.8619 20.3258Z" fill="#88024E" stroke="url(#paint21_linear_33_918)" stroke-width="0.0875"/>
<g filter="url(#filter9_i_33_918)">
<path d="M20.1711 11.3549L20.1691 11.3533L20.166 11.3507L20.1588 11.3448L20.1392 11.3292C20.1239 11.3173 20.1043 11.3024 20.0805 11.2849C20.0329 11.2499 19.9679 11.2048 19.8865 11.1539C19.724 11.052 19.4933 10.9252 19.2016 10.8099C18.6158 10.5783 17.7793 10.3917 16.766 10.5518C16.2908 10.6268 15.9666 11.0727 16.0415 11.5478C16.1165 12.0228 16.5625 12.3472 17.0376 12.2721C17.6866 12.1697 18.2064 12.2894 18.5613 12.4296C18.7398 12.5002 18.8756 12.5757 18.9619 12.6298C19.0049 12.6568 19.0349 12.6779 19.0512 12.6898C19.058 12.6948 19.0623 12.6982 19.0641 12.6996C19.4335 13.0006 19.9774 12.949 20.2833 12.582C20.5911 12.2124 20.5406 11.6629 20.1711 11.3549Z" fill="#1E1E1E"/>
</g>
<g filter="url(#filter10_i_33_918)">
<path d="M7.94434 11.3555L7.94561 11.3544L7.94697 11.3533L7.95002 11.3507L7.95733 11.3448L7.97689 11.3292C7.99211 11.3173 8.0117 11.3024 8.03556 11.2849C8.08321 11.2499 8.14818 11.2048 8.22961 11.1539C8.39208 11.052 8.62272 10.9252 8.91446 10.8099C9.50027 10.5783 10.3368 10.3917 11.3502 10.5518C11.8252 10.6268 12.1495 11.0727 12.0745 11.5478C11.9995 12.0228 11.5536 12.3472 11.0785 12.2721C10.4294 12.1697 9.90968 12.2894 9.55487 12.4296C9.37628 12.5002 9.24048 12.5757 9.15412 12.6298C9.11116 12.6568 9.08115 12.6779 9.06487 12.6898C9.05813 12.6948 9.05376 12.6982 9.05201 12.6996C8.6826 13.0006 8.1387 12.949 7.83284 12.582C7.52495 12.2124 7.57487 11.6634 7.94434 11.3555Z" fill="#1E1E1E"/>
</g>
<path d="M17.9981 13.4587C19.0636 13.4587 19.9636 14.1933 20.2084 15.186C20.2812 15.4705 20.0628 15.7419 19.7716 15.7419H16.1319C15.9003 15.7419 15.7149 15.5301 15.7613 15.2985C15.9664 14.2529 16.8863 13.4587 17.9981 13.4587Z" fill="white"/>
<path d="M17.6606 13.9021C18.4679 13.9021 19.1165 14.5573 19.1165 15.358C19.1165 15.4904 19.0966 15.6228 19.0635 15.7419H16.2509C16.2179 15.6161 16.198 15.4904 16.198 15.358C16.198 14.5573 16.8532 13.9021 17.6606 13.9021Z" fill="url(#paint22_radial_33_918)"/>
<path d="M16.8267 15.358C16.8267 14.8947 17.1973 14.5242 17.6605 14.5242C18.1238 14.5242 18.4943 14.8947 18.4943 15.358C18.4943 15.497 18.4612 15.6293 18.4017 15.7418H16.926C16.8597 15.6293 16.8267 15.497 16.8267 15.358Z" fill="black"/>
<g filter="url(#filter11_f_33_918)">
<path d="M17.5534 14.21C17.6571 14.3487 17.4404 14.5178 17.1938 14.7022C16.9473 14.8865 16.7645 15.0162 16.6607 14.8774C16.557 14.7388 16.6728 14.4769 16.9192 14.2925C17.1657 14.1082 17.4497 14.0712 17.5534 14.21Z" fill="#C7A7A3"/>
<path d="M17.5534 14.21C17.6571 14.3487 17.4404 14.5178 17.1938 14.7022C16.9473 14.8865 16.7645 15.0162 16.6607 14.8774C16.557 14.7388 16.6728 14.4769 16.9192 14.2925C17.1657 14.1082 17.4497 14.0712 17.5534 14.21Z" fill="url(#paint23_radial_33_918)"/>
</g>
<g filter="url(#filter12_f_33_918)">
<path d="M18.9573 15.1663C18.9036 14.7899 18.6834 14.5063 18.5799 14.4115L18.156 14.8767L18.3473 15.249L18.9573 15.1663Z" fill="url(#paint24_linear_33_918)"/>
</g>
<path d="M10.1971 13.4587C9.1316 13.4587 8.23151 14.1933 7.98664 15.1861C7.91384 15.4706 8.13224 15.742 8.42344 15.742H12.0634C12.2951 15.742 12.4803 15.5302 12.434 15.2986C12.2288 14.2529 11.3023 13.4587 10.1971 13.4587Z" fill="white"/>
<path d="M10.5346 13.902C9.72725 13.902 9.07861 14.5572 9.07861 15.358C9.07861 15.4904 9.09848 15.6228 9.13164 15.7418H11.9443C11.9774 15.6161 11.9973 15.4904 11.9973 15.358C11.9906 14.5572 11.3421 13.902 10.5346 13.902Z" fill="url(#paint25_radial_33_918)"/>
<path d="M11.3685 15.358C11.3685 14.8948 10.9979 14.5242 10.5346 14.5242C10.0713 14.5242 9.70068 14.8948 9.70068 15.358C9.70068 15.4971 9.73385 15.6294 9.79335 15.7419H11.2692C11.3288 15.6294 11.3685 15.4971 11.3685 15.358Z" fill="black"/>
<g filter="url(#filter13_f_33_918)">
<path d="M11.8647 15.187C11.8647 14.7166 11.4821 14.4029 11.3787 14.3081L10.9082 14.7631L11.1977 15.3525L11.8647 15.187Z" fill="url(#paint26_linear_33_918)"/>
</g>
<g filter="url(#filter14_f_33_918)">
<path d="M10.2456 14.8087C10.5557 14.6444 10.7395 14.3839 10.6562 14.2267C10.573 14.0696 10.2542 14.0754 9.94415 14.2396C9.63413 14.4038 9.4503 14.6644 9.53356 14.8215C9.61681 14.9787 9.93562 14.9729 10.2456 14.8087Z" fill="#C7A7A3" fill-opacity="0.9"/>
<path d="M10.2456 14.8087C10.5557 14.6444 10.7395 14.3839 10.6562 14.2267C10.573 14.0696 10.2542 14.0754 9.94415 14.2396C9.63413 14.4038 9.4503 14.6644 9.53356 14.8215C9.61681 14.9787 9.93562 14.9729 10.2456 14.8087Z" fill="url(#paint27_radial_33_918)"/>
</g>
<g filter="url(#filter15_f_33_918)">
<path d="M16.8116 11.1189C17.5134 10.9962 18.882 11.0312 19.8293 11.7681" stroke="url(#paint28_linear_33_918)" stroke-width="0.4375" stroke-linecap="round"/>
</g>
<g filter="url(#filter16_f_33_918)">
<path d="M8.29468 11.9651C8.82854 11.4933 9.99422 10.9965 11.4393 11.2269" stroke="url(#paint29_linear_33_918)" stroke-width="0.4375" stroke-linecap="round"/>
</g>
<g filter="url(#filter17_f_33_918)">
<path d="M6.70537 7.94226V9.40679C6.6926 9.64934 6.5905 10.1918 6.28418 10.4214" stroke="url(#paint30_linear_33_918)" stroke-width="0.21875" stroke-linecap="round"/>
</g>
<defs>
<filter id="filter0_i_33_918" x="3.63037" y="13.0691" width="5.62275" height="5.44775" filterUnits="userSpaceOnUse" color-interpolation-filters="sRGB">
<feFlood flood-opacity="0" result="BackgroundImageFix"/>
<feBlend mode="normal" in="SourceGraphic" in2="BackgroundImageFix" result="shape"/>
<feColorMatrix in="SourceAlpha" type="matrix" values="0 0 0 0 0 0 0 0 0 0 0 0 0 0 0 0 0 0 127 0" result="hardAlpha"/>
<feOffset dx="0.175"/>
<feGaussianBlur stdDeviation="0.13125"/>
<feComposite in2="hardAlpha" operator="arithmetic" k2="-1" k3="1"/>
<feColorMatrix type="matrix" values="0 0 0 0 0.917647 0 0 0 0 0.694118 0 0 0 0 0.607843 0 0 0 1 0"/>
<feBlend mode="normal" in2="shape" result="effect1_innerShadow_33_918"/>
</filter>
<filter id="filter1_f_33_918" x="4.29358" y="13.7322" width="4.12122" height="4.12122" filterUnits="userSpaceOnUse" color-interpolation-filters="sRGB">
<feFlood flood-opacity="0" result="BackgroundImageFix"/>
<feBlend mode="normal" in="SourceGraphic" in2="BackgroundImageFix" result="shape"/>
<feGaussianBlur stdDeviation="0.21875" result="effect1_foregroundBlur_33_918"/>
</filter>
<filter id="filter2_i_33_918" x="19.1538" y="12.8503" width="5.6665" height="5.6665" filterUnits="userSpaceOnUse" color-interpolation-filters="sRGB">
<feFlood flood-opacity="0" result="BackgroundImageFix"/>
<feBlend mode="normal" in="SourceGraphic" in2="BackgroundImageFix" result="shape"/>
<feColorMatrix in="SourceAlpha" type="matrix" values="0 0 0 0 0 0 0 0 0 0 0 0 0 0 0 0 0 0 127 0" result="hardAlpha"/>
<feOffset dx="0.21875" dy="-0.21875"/>
<feGaussianBlur stdDeviation="0.21875"/>
<feComposite in2="hardAlpha" operator="arithmetic" k2="-1" k3="1"/>
<feColorMatrix type="matrix" values="0 0 0 0 0.843137 0 0 0 0 0.623529 0 0 0 0 0.580392 0 0 0 1 0"/>
<feBlend mode="normal" in2="shape" result="effect1_innerShadow_33_918"/>
</filter>
<filter id="filter3_f_33_918" x="19.8169" y="13.7322" width="4.12122" height="4.12122" filterUnits="userSpaceOnUse" color-interpolation-filters="sRGB">
<feFlood flood-opacity="0" result="BackgroundImageFix"/>
<feBlend mode="normal" in="SourceGraphic" in2="BackgroundImageFix" result="shape"/>
<feGaussianBlur stdDeviation="0.21875" result="effect1_foregroundBlur_33_918"/>
</filter>
<filter id="filter4_i_33_918" x="5.6853" y="6.61548" width="16.9271" height="19.8451" filterUnits="userSpaceOnUse" color-interpolation-filters="sRGB">
<feFlood flood-opacity="0" result="BackgroundImageFix"/>
<feBlend mode="normal" in="SourceGraphic" in2="BackgroundImageFix" result="shape"/>
<feColorMatrix in="SourceAlpha" type="matrix" values="0 0 0 0 0 0 0 0 0 0 0 0 0 0 0 0 0 0 127 0" result="hardAlpha"/>
<feOffset dy="0.21875"/>
<feGaussianBlur stdDeviation="0.328125"/>
<feComposite in2="hardAlpha" operator="arithmetic" k2="-1" k3="1"/>
<feColorMatrix type="matrix" values="0 0 0 0 0.819608 0 0 0 0 0.615686 0 0 0 0 0.509804 0 0 0 1 0"/>
<feBlend mode="normal" in2="shape" result="effect1_innerShadow_33_918"/>
</filter>
<filter id="filter5_f_33_918" x="12.629" y="4.86548" width="10.4286" height="8.50403" filterUnits="userSpaceOnUse" color-interpolation-filters="sRGB">
<feFlood flood-opacity="0" result="BackgroundImageFix"/>
<feBlend mode="normal" in="SourceGraphic" in2="BackgroundImageFix" result="shape"/>
<feGaussianBlur stdDeviation="0.875" result="effect1_foregroundBlur_33_918"/>
</filter>
<filter id="filter6_i_33_918" x="3.82068" y="1.32056" width="20.5625" height="13.5624" filterUnits="userSpaceOnUse" color-interpolation-filters="sRGB">
<feFlood flood-opacity="0" result="BackgroundImageFix"/>
<feBlend mode="normal" in="SourceGraphic" in2="BackgroundImageFix" result="shape"/>
<feColorMatrix in="SourceAlpha" type="matrix" values="0 0 0 0 0 0 0 0 0 0 0 0 0 0 0 0 0 0 127 0" result="hardAlpha"/>
<feOffset dy="-0.4375"/>
<feGaussianBlur stdDeviation="0.328125"/>
<feComposite in2="hardAlpha" operator="arithmetic" k2="-1" k3="1"/>
<feColorMatrix type="matrix" values="0 0 0 0 0.0392157 0 0 0 0 0.00784314 0 0 0 0 0.0196078 0 0 0 1 0"/>
<feBlend mode="normal" in2="shape" result="effect1_innerShadow_33_918"/>
</filter>
<filter id="filter7_f_33_918" x="11.6198" y="14.4768" width="4.18433" height="5.6875" filterUnits="userSpaceOnUse" color-interpolation-filters="sRGB">
<feFlood flood-opacity="0" result="BackgroundImageFix"/>
<feBlend mode="normal" in="SourceGraphic" in2="BackgroundImageFix" result="shape"/>
<feGaussianBlur stdDeviation="0.328125" result="effect1_foregroundBlur_33_918"/>
</filter>
<filter id="filter8_f_33_918" x="12.3519" y="14.6482" width="3.5" height="4.8125" filterUnits="userSpaceOnUse" color-interpolation-filters="sRGB">
<feFlood flood-opacity="0" result="BackgroundImageFix"/>
<feBlend mode="normal" in="SourceGraphic" in2="BackgroundImageFix" result="shape"/>
<feGaussianBlur stdDeviation="0.109375" result="effect1_foregroundBlur_33_918"/>
</filter>
<filter id="filter9_i_33_918" x="16.0308" y="10.1419" width="4.67285" height="2.75332" filterUnits="userSpaceOnUse" color-interpolation-filters="sRGB">
<feFlood flood-opacity="0" result="BackgroundImageFix"/>
<feBlend mode="normal" in="SourceGraphic" in2="BackgroundImageFix" result="shape"/>
<feColorMatrix in="SourceAlpha" type="matrix" values="0 0 0 0 0 0 0 0 0 0 0 0 0 0 0 0 0 0 127 0" result="hardAlpha"/>
<feOffset dx="0.21875" dy="-0.35"/>
<feGaussianBlur stdDeviation="0.2625"/>
<feComposite in2="hardAlpha" operator="arithmetic" k2="-1" k3="1"/>
<feColorMatrix type="matrix" values="0 0 0 0 0.0431373 0 0 0 0 0.0196078 0 0 0 0 0.027451 0 0 0 1 0"/>
<feBlend mode="normal" in2="shape" result="effect1_innerShadow_33_918"/>
</filter>
<filter id="filter10_i_33_918" x="7.63098" y="10.1419" width="4.6731" height="2.75332" filterUnits="userSpaceOnUse" color-interpolation-filters="sRGB">
<feFlood flood-opacity="0" result="BackgroundImageFix"/>
<feBlend mode="normal" in="SourceGraphic" in2="BackgroundImageFix" result="shape"/>
<feColorMatrix in="SourceAlpha" type="matrix" values="0 0 0 0 0 0 0 0 0 0 0 0 0 0 0 0 0 0 127 0" result="hardAlpha"/>
<feOffset dx="0.21875" dy="-0.35"/>
<feGaussianBlur stdDeviation="0.2625"/>
<feComposite in2="hardAlpha" operator="arithmetic" k2="-1" k3="1"/>
<feColorMatrix type="matrix" values="0 0 0 0 0.0431373 0 0 0 0 0.0196078 0 0 0 0 0.027451 0 0 0 1 0"/>
<feBlend mode="normal" in2="shape" result="effect1_innerShadow_33_918"/>
</filter>
<filter id="filter11_f_33_918" x="16.5352" y="14.0385" width="1.13228" height="0.984692" filterUnits="userSpaceOnUse" color-interpolation-filters="sRGB">
<feFlood flood-opacity="0" result="BackgroundImageFix"/>
<feBlend mode="normal" in="SourceGraphic" in2="BackgroundImageFix" result="shape"/>
<feGaussianBlur stdDeviation="0.04375" result="effect1_foregroundBlur_33_918"/>
</filter>
<filter id="filter12_f_33_918" x="17.981" y="14.2365" width="1.15127" height="1.18752" filterUnits="userSpaceOnUse" color-interpolation-filters="sRGB">
<feFlood flood-opacity="0" result="BackgroundImageFix"/>
<feBlend mode="normal" in="SourceGraphic" in2="BackgroundImageFix" result="shape"/>
<feGaussianBlur stdDeviation="0.0875" result="effect1_foregroundBlur_33_918"/>
</filter>
<filter id="filter13_f_33_918" x="10.7332" y="14.1331" width="1.30642" height="1.39443" filterUnits="userSpaceOnUse" color-interpolation-filters="sRGB">
<feFlood flood-opacity="0" result="BackgroundImageFix"/>
<feBlend mode="normal" in="SourceGraphic" in2="BackgroundImageFix" result="shape"/>
<feGaussianBlur stdDeviation="0.0875" result="effect1_foregroundBlur_33_918"/>
</filter>
<filter id="filter14_f_33_918" x="9.42605" y="14.025" width="1.33772" height="0.99812" filterUnits="userSpaceOnUse" color-interpolation-filters="sRGB">
<feFlood flood-opacity="0" result="BackgroundImageFix"/>
<feBlend mode="normal" in="SourceGraphic" in2="BackgroundImageFix" result="shape"/>
<feGaussianBlur stdDeviation="0.04375" result="effect1_foregroundBlur_33_918"/>
</filter>
<filter id="filter15_f_33_918" x="16.1554" y="10.4084" width="4.3302" height="2.01587" filterUnits="userSpaceOnUse" color-interpolation-filters="sRGB">
<feFlood flood-opacity="0" result="BackgroundImageFix"/>
<feBlend mode="normal" in="SourceGraphic" in2="BackgroundImageFix" result="shape"/>
<feGaussianBlur stdDeviation="0.21875" result="effect1_foregroundBlur_33_918"/>
</filter>
<filter id="filter16_f_33_918" x="7.63843" y="10.5125" width="4.45715" height="2.10889" filterUnits="userSpaceOnUse" color-interpolation-filters="sRGB">
<feFlood flood-opacity="0" result="BackgroundImageFix"/>
<feBlend mode="normal" in="SourceGraphic" in2="BackgroundImageFix" result="shape"/>
<feGaussianBlur stdDeviation="0.21875" result="effect1_foregroundBlur_33_918"/>
</filter>
<filter id="filter17_f_33_918" x="5.95605" y="7.61414" width="1.07739" height="3.1355" filterUnits="userSpaceOnUse" color-interpolation-filters="sRGB">
<feFlood flood-opacity="0" result="BackgroundImageFix"/>
<feBlend mode="normal" in="SourceGraphic" in2="BackgroundImageFix" result="shape"/>
<feGaussianBlur stdDeviation="0.109375" result="effect1_foregroundBlur_33_918"/>
</filter>
<radialGradient id="paint0_radial_33_918" cx="0" cy="0" r="1" gradientUnits="userSpaceOnUse" gradientTransform="translate(3.63037 15.7938) scale(2.86348 5.01112)">
<stop offset="0.351" stop-color="#CF9888"/>
<stop offset="1" stop-color="#BE8C77"/>
</radialGradient>
<linearGradient id="paint1_linear_33_918" x1="6.3542" y1="16.2478" x2="5.30945" y2="16.2478" gradientUnits="userSpaceOnUse">
<stop stop-color="#BA7C6B"/>
<stop offset="1" stop-color="#BE8474"/>
</linearGradient>
<linearGradient id="paint2_linear_33_918" x1="23.6504" y1="14.0123" x2="22.3143" y2="18.1511" gradientUnits="userSpaceOnUse">
<stop stop-color="#FBD3BD"/>
<stop offset="1" stop-color="#F0B8A4"/>
</linearGradient>
<radialGradient id="paint3_radial_33_918" cx="0" cy="0" r="1" gradientUnits="userSpaceOnUse" gradientTransform="translate(22.4849 15.3607) rotate(-36.0599) scale(1.66869 1.90459)">
<stop offset="0.543" stop-color="#D9AA94"/>
<stop offset="1" stop-color="#D9AA94" stop-opacity="0"/>
</radialGradient>
<radialGradient id="paint4_radial_33_918" cx="0" cy="0" r="1" gradientTransform="matrix(1.34009 -2.46479 1.44265 0.78435 21.8101 17.1324)" gradientUnits="userSpaceOnUse">
<stop offset="0.755" stop-color="#D6A38D" stop-opacity="0"/>
<stop offset="0.916" stop-color="#D6A38D"/>
</radialGradient>
<radialGradient id="paint5_radial_33_918" cx="0" cy="0" r="1" gradientUnits="userSpaceOnUse" gradientTransform="translate(21.8776 15.7932) rotate(44.708) scale(0.595315 0.767436)">
<stop stop-color="#D5A58E"/>
<stop offset="1" stop-color="#D5A58E" stop-opacity="0"/>
</radialGradient>
<linearGradient id="paint6_linear_33_918" x1="20.6877" y1="16.429" x2="8.22592" y2="18.2857" gradientUnits="userSpaceOnUse">
<stop stop-color="#FFDAC0"/>
<stop offset="1" stop-color="#DAA594"/>
</linearGradient>
<radialGradient id="paint7_radial_33_918" cx="0" cy="0" r="1" gradientUnits="userSpaceOnUse" gradientTransform="translate(15.9135 13.1166) rotate(100.62) scale(13.3537 18.1269)">
<stop offset="0.746" stop-color="#B57995" stop-opacity="0"/>
<stop offset="1" stop-color="#B57995"/>
</radialGradient>
<linearGradient id="paint8_linear_33_918" x1="5.29729" y1="20.8276" x2="8.36767" y2="20.7182" gradientUnits="userSpaceOnUse">
<stop stop-color="#E8AD97"/>
<stop offset="1" stop-color="#E8AD97" stop-opacity="0"/>
</linearGradient>
<radialGradient id="paint9_radial_33_918" cx="0" cy="0" r="1" gradientUnits="userSpaceOnUse" gradientTransform="translate(17.9297 13.7182) rotate(-90) scale(2.13281 2.625)">
<stop stop-color="#F5B7A7"/>
<stop offset="1" stop-color="#F5B7A7" stop-opacity="0"/>
</radialGradient>
<radialGradient id="paint10_radial_33_918" cx="0" cy="0" r="1" gradientUnits="userSpaceOnUse" gradientTransform="translate(10.4922 13.664) rotate(-90) scale(2.26953 2.82237)">
<stop stop-color="#D0958D"/>
<stop offset="1" stop-color="#D0958D" stop-opacity="0"/>
</radialGradient>
<linearGradient id="paint11_linear_33_918" x1="13.2343" y1="11.5587" x2="26.5238" y2="6.80049" gradientUnits="userSpaceOnUse">
<stop stop-color="#FFDEC4"/>
<stop offset="1" stop-color="#FFDEC4" stop-opacity="0"/>
</linearGradient>
<radialGradient id="paint12_radial_33_918" cx="0" cy="0" r="1" gradientTransform="matrix(1.30182 -4.82443 1.78905 0.482764 21.1926 9.09294)" gradientUnits="userSpaceOnUse">
<stop stop-color="#464344"/>
<stop offset="1" stop-color="#464344" stop-opacity="0"/>
</radialGradient>
<radialGradient id="paint13_radial_33_918" cx="0" cy="0" r="1" gradientTransform="matrix(6.24113 0.574341 -0.308814 3.35581 18.5116 6.22119)" gradientUnits="userSpaceOnUse">
<stop offset="0.122" stop-color="#4A4648"/>
<stop offset="1" stop-color="#4A4648" stop-opacity="0"/>
</radialGradient>
<radialGradient id="paint14_radial_33_918" cx="0" cy="0" r="1" gradientUnits="userSpaceOnUse" gradientTransform="translate(14.1016 1.75869) rotate(90) scale(2.73997 4.24344)">
<stop stop-color="#423D3F"/>
<stop offset="1" stop-color="#423D3F" stop-opacity="0"/>
</radialGradient>
<radialGradient id="paint15_radial_33_918" cx="0" cy="0" r="1" gradientUnits="userSpaceOnUse" gradientTransform="translate(3.57927 12.8834) rotate(-36.235) scale(6.21854 9.74242)">
<stop stop-color="#463C39"/>
<stop offset="1" stop-color="#463C39" stop-opacity="0"/>
</radialGradient>
<linearGradient id="paint16_linear_33_918" x1="12.6919" y1="17.5044" x2="14.2223" y2="17.5044" gradientUnits="userSpaceOnUse">
<stop stop-color="#DFA790"/>
<stop offset="1" stop-color="#DFA790" stop-opacity="0"/>
</linearGradient>
<linearGradient id="paint17_linear_33_918" x1="15.6328" y1="18.0303" x2="13.9598" y2="18.0067" gradientUnits="userSpaceOnUse">
<stop stop-color="#FFDFC4"/>
<stop offset="1" stop-color="#FFDFC4" stop-opacity="0"/>
</linearGradient>
<linearGradient id="paint18_linear_33_918" x1="14.4192" y1="19.2422" x2="14.4192" y2="18.3068" gradientUnits="userSpaceOnUse">
<stop stop-color="#DC9C96"/>
<stop offset="1" stop-color="#DC9C96" stop-opacity="0"/>
</linearGradient>
<radialGradient id="paint19_radial_33_918" cx="0" cy="0" r="1" gradientUnits="userSpaceOnUse" gradientTransform="translate(14.6362 18.4144) rotate(90) scale(0.321291 1.03223)">
<stop stop-color="#FFD7C1"/>
<stop offset="1" stop-color="#FFD7C1" stop-opacity="0"/>
</radialGradient>
<linearGradient id="paint20_linear_33_918" x1="14.3072" y1="19.3104" x2="14.3072" y2="19.0366" gradientUnits="userSpaceOnUse">
<stop stop-color="#D6938E"/>
<stop offset="1" stop-color="#D6938E" stop-opacity="0"/>
</linearGradient>
<linearGradient id="paint21_linear_33_918" x1="12.4092" y1="21.8777" x2="13.1197" y2="20.755" gradientUnits="userSpaceOnUse">
<stop stop-color="#D9A4A4"/>
<stop offset="0.663" stop-color="#D9A4A4" stop-opacity="0"/>
</linearGradient>
<radialGradient id="paint22_radial_33_918" cx="0" cy="0" r="1" gradientUnits="userSpaceOnUse" gradientTransform="translate(17.6575 14.6799) rotate(90) scale(1.32355 2.10526)">
<stop offset="0.802" stop-color="#7D574A"/>
<stop offset="1" stop-color="#664944"/>
</radialGradient>
<radialGradient id="paint23_radial_33_918" cx="0" cy="0" r="1" gradientUnits="userSpaceOnUse" gradientTransform="translate(17.2847 14.818) rotate(-127.812) scale(0.61712 0.849634)">
<stop offset="0.766" stop-color="#FFE6E2" stop-opacity="0"/>
<stop offset="0.966" stop-color="#FFE6E2"/>
</radialGradient>
<linearGradient id="paint24_linear_33_918" x1="18.9263" y1="14.7682" x2="18.4144" y2="15.0832" gradientUnits="userSpaceOnUse">
<stop stop-color="#B4948D"/>
<stop offset="1" stop-color="#B4948D" stop-opacity="0"/>
</linearGradient>
<radialGradient id="paint25_radial_33_918" cx="0" cy="0" r="1" gradientUnits="userSpaceOnUse" gradientTransform="translate(10.5377 14.6799) rotate(90) scale(1.32362 2.10537)">
<stop offset="0.802" stop-color="#7D574A"/>
<stop offset="1" stop-color="#664944"/>
</radialGradient>
<linearGradient id="paint26_linear_33_918" x1="11.7512" y1="14.7684" x2="11.2393" y2="15.0834" gradientUnits="userSpaceOnUse">
<stop stop-color="#B4948D"/>
<stop offset="1" stop-color="#B4948D" stop-opacity="0"/>
</linearGradient>
<radialGradient id="paint27_radial_33_918" cx="0" cy="0" r="1" gradientUnits="userSpaceOnUse" gradientTransform="translate(10.3136 14.9896) rotate(-118.811) scale(0.806127 0.969001)">
<stop offset="0.766" stop-color="#FFE6E2" stop-opacity="0"/>
<stop offset="0.966" stop-color="#FFE6E2"/>
</radialGradient>
<linearGradient id="paint28_linear_33_918" x1="18.9526" y1="11.2769" x2="18.2666" y2="9.87607" gradientUnits="userSpaceOnUse">
<stop stop-color="#353435"/>
<stop offset="1" stop-color="#353435" stop-opacity="0"/>
</linearGradient>
<linearGradient id="paint29_linear_33_918" x1="10.2962" y1="11.0688" x2="8.35543" y2="10.2551" gradientUnits="userSpaceOnUse">
<stop stop-color="#353435"/>
<stop offset="1" stop-color="#353435" stop-opacity="0"/>
</linearGradient>
<linearGradient id="paint30_linear_33_918" x1="6.49516" y1="7.7813" x2="6.49516" y2="11.3006" gradientUnits="userSpaceOnUse">
<stop stop-color="#3C393A"/>
<stop offset="1" stop-color="#3C393A" stop-opacity="0"/>
</linearGradient>
</defs>
</svg>
